<svg width="165" height="70" viewBox="0 0 165 70" fill="none" xmlns="http://www.w3.org/2000/svg">
<path d="M5 37.5C5 23.4167 16.4167 12 30.5 12H139.5C153.583 12 165 23.4167 165 37.5C165 51.5833 153.583 63 139.5 63H30.5C16.4167 63 5 51.5833 5 37.5Z" fill="#78ECC0"/>
<path d="M81.5319 47.3594L79.4851 48.8281L77.8288 46.4688C76.8392 47.0208 75.7924 47.2969 74.6882 47.2969C72.3444 47.2969 70.6882 46.3073 69.7194 44.3281C68.7611 42.2865 68.2819 38.8698 68.2819 34.0781C68.2819 29.8906 68.7507 26.9271 69.6882 25.1875C70.6257 23.4375 72.2142 22.5625 74.4538 22.5625C76.808 22.5625 78.4642 23.526 79.4226 25.4531C80.3705 27.3385 80.8444 30.6823 80.8444 35.4844C80.8444 39.8281 80.3913 42.8438 79.4851 44.5312L81.5319 47.3594ZM75.7819 39.3438L77.1257 41.25C77.3444 39.7083 77.4538 37.9688 77.4538 36.0312C77.4538 31.8854 77.2559 29.0833 76.8601 27.625C76.4642 26.2188 75.6778 25.5156 74.5007 25.5156C73.3965 25.5156 72.6517 26.1146 72.2663 27.3125C71.8809 28.4583 71.6882 30.7708 71.6882 34.25C71.6882 38.1562 71.8861 40.8229 72.2819 42.25C72.6778 43.6146 73.4486 44.2969 74.5944 44.2969C75.0528 44.2969 75.4903 44.151 75.9069 43.8594L73.8444 40.8906L75.7819 39.3438ZM85.0788 22.875H90.5788V47H87.4694V25.6406H85.0788V22.875Z" fill="white"/>
<path d="M74 61H26.5C12.4167 61 1 49.5833 1 35.5V35.5C1 21.4167 12.4167 10 26.5 10H135.5C149.583 10 161 21.4167 161 35.5V35.5C161 49.5833 149.595 61 135.512 61C113.717 61 85.8044 61 85.5 61C85 61 78.5 68.5 78.5 68.5" stroke="black" stroke-width="2" stroke-linecap="round"/>
</svg>
