<svg width="276" height="73" viewBox="0 0 276 73" fill="none" xmlns="http://www.w3.org/2000/svg">
<path d="M8 36.5C8 20.7599 20.7599 8 36.5 8H247.5C263.24 8 276 20.7599 276 36.5C276 52.2401 263.24 65 247.5 65H36.5C20.7599 65 8 52.2401 8 36.5Z" fill="#78ECC0"/>
<path d="M138.887 49.4043L136.584 51.0566L134.721 48.4023C133.607 49.0234 132.43 49.334 131.188 49.334C128.551 49.334 126.688 48.2207 125.598 45.9941C124.52 43.6973 123.98 39.8535 123.98 34.4629C123.98 29.752 124.508 26.418 125.562 24.4609C126.617 22.4922 128.404 21.5078 130.924 21.5078C133.572 21.5078 135.436 22.5918 136.514 24.7598C137.58 26.8809 138.113 30.6426 138.113 36.0449C138.113 40.9316 137.604 44.3242 136.584 46.2227L138.887 49.4043ZM132.418 40.3867L133.93 42.5312C134.176 40.7969 134.299 38.8398 134.299 36.6602C134.299 31.9961 134.076 28.8438 133.631 27.2031C133.186 25.6211 132.301 24.8301 130.977 24.8301C129.734 24.8301 128.896 25.5039 128.463 26.8516C128.029 28.1406 127.812 30.7422 127.812 34.6562C127.812 39.0508 128.035 42.0508 128.48 43.6562C128.926 45.1914 129.793 45.959 131.082 45.959C131.598 45.959 132.09 45.7949 132.559 45.4668L130.238 42.127L132.418 40.3867ZM148.15 21.8594H151.543V38.7695H153.283V41.5645H151.543V49H148.15V41.5645H140.715V38.4531L148.15 21.8594ZM148.15 38.7695V27.3789L143.58 38.7695H148.15Z" fill="white"/>
<path d="M123.275 63.4103H30.2052C14.0756 63.4103 1 50.3347 1 34.2051V34.2051C1 18.0756 14.0756 5 30.2051 5H239.795C255.924 5 269 18.0756 269 34.2051V34.2051C269 50.3347 255.925 63.4103 239.796 63.4103C202.626 63.4103 143.113 63.4103 142.537 63.4103C141.7 63.4103 130.812 72 130.812 72" stroke="black" stroke-width="2" stroke-linecap="round"/>
</svg>
