<svg width="165" height="61" viewBox="0 0 165 61" fill="none" xmlns="http://www.w3.org/2000/svg">
<path d="M5 28.5C5 14.4167 16.4167 3 30.5 3H139.5C153.583 3 165 14.4167 165 28.5C165 42.5833 153.583 54 139.5 54H30.5C16.4167 54 5 42.5833 5 28.5Z" fill="#78ECC0"/>
<path d="M81.5322 38.3594L79.4854 39.8281L77.8291 37.4688C76.8395 38.0208 75.7926 38.2969 74.6885 38.2969C72.3447 38.2969 70.6885 37.3073 69.7197 35.3281C68.7614 33.2865 68.2822 29.8698 68.2822 25.0781C68.2822 20.8906 68.751 17.9271 69.6885 16.1875C70.626 14.4375 72.2145 13.5625 74.4541 13.5625C76.8083 13.5625 78.4645 14.526 79.4229 16.4531C80.3708 18.3385 80.8447 21.6823 80.8447 26.4844C80.8447 30.8281 80.3916 33.8438 79.4854 35.5312L81.5322 38.3594ZM75.7822 30.3438L77.126 32.25C77.3447 30.7083 77.4541 28.9688 77.4541 27.0312C77.4541 22.8854 77.2562 20.0833 76.8604 18.625C76.4645 17.2188 75.6781 16.5156 74.501 16.5156C73.3968 16.5156 72.652 17.1146 72.2666 18.3125C71.8812 19.4583 71.6885 21.7708 71.6885 25.25C71.6885 29.1562 71.8864 31.8229 72.2822 33.25C72.6781 34.6146 73.4489 35.2969 74.5947 35.2969C75.0531 35.2969 75.4906 35.151 75.9072 34.8594L73.8447 31.8906L75.7822 30.3438Z" fill="white"/>
<path d="M85.0791 13.875H90.5791V38H87.4697V16.6406H85.0791V13.875Z" fill="white"/>
<path d="M74 52H26.5C12.4167 52 1 40.5833 1 26.5V26.5C1 12.4167 12.4167 1 26.5 1H135.5C149.583 1 161 12.4167 161 26.5V26.5C161 40.5833 149.595 52 135.512 52C113.717 52 85.8044 52 85.5 52C85 52 78.5 59.5 78.5 59.5" stroke="black" stroke-width="2" stroke-linecap="round"/>
</svg>
