<svg width="276" height="73" viewBox="0 0 276 73" fill="none" xmlns="http://www.w3.org/2000/svg">
<path d="M8 36.5C8 20.7599 20.7599 8 36.5 8H247.5C263.24 8 276 20.7599 276 36.5C276 52.2401 263.24 65 247.5 65H36.5C20.7599 65 8 52.2401 8 36.5Z" fill="#78ECC0"/>
<path d="M138.887 49.4043L136.584 51.0566L134.721 48.4023C133.607 49.0234 132.43 49.334 131.188 49.334C128.551 49.334 126.688 48.2207 125.598 45.9941C124.52 43.6973 123.98 39.8535 123.98 34.4629C123.98 29.752 124.508 26.418 125.562 24.4609C126.617 22.4922 128.404 21.5078 130.924 21.5078C133.572 21.5078 135.436 22.5918 136.514 24.7598C137.58 26.8809 138.113 30.6426 138.113 36.0449C138.113 40.9316 137.604 44.3242 136.584 46.2227L138.887 49.4043ZM132.418 40.3867L133.93 42.5312C134.176 40.7969 134.299 38.8398 134.299 36.6602C134.299 31.9961 134.076 28.8438 133.631 27.2031C133.186 25.6211 132.301 24.8301 130.977 24.8301C129.734 24.8301 128.896 25.5039 128.463 26.8516C128.029 28.1406 127.812 30.7422 127.812 34.6562C127.812 39.0508 128.035 42.0508 128.48 43.6562C128.926 45.1914 129.793 45.959 131.082 45.959C131.598 45.959 132.09 45.7949 132.559 45.4668L130.238 42.127L132.418 40.3867ZM144.969 30.6836H141.383L141.348 29.6113C141.348 26.6465 141.793 24.5605 142.684 23.3535C143.586 22.1348 145.098 21.5254 147.219 21.5254C151.215 21.5254 153.213 23.7402 153.213 28.1699C153.213 31.1582 151.719 35.4648 148.73 41.0898L146.568 45.1504C146.557 45.1738 146.521 45.2441 146.463 45.3613C146.404 45.4785 146.322 45.6484 146.217 45.8711H152.932V49H141.014C141.213 48.5547 141.629 47.6699 142.262 46.3457C142.895 45.0215 143.756 43.2344 144.846 40.9844C145.771 39.0156 146.545 37.3457 147.166 35.9746C147.787 34.6035 148.256 33.4785 148.572 32.5996C149.205 30.8418 149.521 29.3242 149.521 28.0469C149.521 25.7969 148.742 24.6719 147.184 24.6719C145.684 24.6719 144.934 26.0664 144.934 28.8555L144.951 30.4023L144.969 30.6836Z" fill="white"/>
<path d="M123.275 63.4103H30.2052C14.0756 63.4103 1 50.3347 1 34.2051V34.2051C1 18.0756 14.0756 5 30.2051 5H239.795C255.924 5 269 18.0756 269 34.2051V34.2051C269 50.3347 255.925 63.4103 239.796 63.4103C202.626 63.4103 143.113 63.4103 142.537 63.4103C141.7 63.4103 130.812 72 130.812 72" stroke="black" stroke-width="2" stroke-linecap="round"/>
</svg>
