<svg width="165" height="61" viewBox="0 0 165 61" fill="none" xmlns="http://www.w3.org/2000/svg">
<path d="M5 28.5C5 14.4167 16.4167 3 30.5 3H139.5C153.583 3 165 14.4167 165 28.5C165 42.5833 153.583 54 139.5 54H30.5C16.4167 54 5 42.5833 5 28.5Z" fill="#78ECC0"/>
<path d="M74 52H26.5C12.4167 52 1 40.5833 1 26.5V26.5C1 12.4167 12.4167 1 26.5 1H135.5C149.583 1 161 12.4167 161 26.5V26.5C161 40.5833 149.595 52 135.512 52C113.717 52 85.8044 52 85.5 52C85 52 78.5 59.5 78.5 59.5" stroke="black" stroke-width="2" stroke-linecap="round"/>
<path d="M84.6015 20.2611H81.702V19.6696C81.702 18.679 81.785 17.8279 81.951 17.1162C82.1267 16.4045 82.3952 15.8179 82.7564 15.3563C83.1273 14.8946 83.5959 14.558 84.1622 14.3464C84.7284 14.1252 85.4069 14.0146 86.1976 14.0146C87.8573 14.0146 89.0678 14.4763 89.8293 15.3995C90.5908 16.3228 90.9715 17.7894 90.9715 19.7994C90.9715 21.4536 90.7958 22.6462 90.4443 23.3771C90.1026 24.1176 89.4437 24.6802 88.4674 25.0649C89.5218 25.4208 90.2491 25.9738 90.6493 26.7239C91.0496 27.4644 91.2497 28.6522 91.2497 30.2871C91.2497 32.5279 90.8202 34.1773 89.9611 35.2352C89.102 36.2931 87.7645 36.8221 85.9487 36.8221C82.8442 36.8221 81.292 35.0669 81.292 31.5566V31.3258V31.1671C81.292 31.0613 81.2969 30.994 81.3066 30.9651H84.1622C84.1524 31.1286 84.1426 31.2729 84.1329 31.3979C84.1329 31.5133 84.1329 31.6095 84.1329 31.6864C84.1329 32.4462 84.2988 33.0521 84.6308 33.5041C84.9724 33.9561 85.4362 34.1821 86.0219 34.1821C86.4027 34.1821 86.7248 34.11 86.9884 33.9657C87.2617 33.8118 87.4814 33.5714 87.6474 33.2444C87.8231 32.9078 87.95 32.475 88.0281 31.9461C88.1062 31.4171 88.1453 30.7776 88.1453 30.0274C88.1453 28.6714 87.9354 27.6952 87.5156 27.099C87.1055 26.5027 86.4173 26.2046 85.4508 26.2046C85.3434 26.2046 85.2263 26.2142 85.0994 26.2334C84.9724 26.243 84.826 26.2575 84.66 26.2767V23.68H85.0847C86.266 23.68 87.0665 23.43 87.4863 22.9299C87.9061 22.4298 88.116 21.4825 88.116 20.088C88.116 17.7798 87.5253 16.6257 86.3441 16.6257C85.1726 16.6257 84.5868 17.6115 84.5868 19.5831L84.6015 20.2611Z" fill="white"/>
<path d="M79.4179 36.894L77.4995 38.25L75.9473 36.0717C75.0199 36.5814 74.0387 36.8363 73.0039 36.8363C70.8074 36.8363 69.2551 35.9226 68.3472 34.0953C67.4491 32.2103 67 29.0559 67 24.6319C67 20.7658 67.4393 18.0296 68.3179 16.4236C69.1966 14.8079 70.6853 14 72.7843 14C74.9906 14 76.5428 14.8896 77.441 16.6688C78.3294 18.4095 78.7736 21.4967 78.7736 25.9303C78.7736 29.9407 78.3489 32.7249 77.4995 34.2829L79.4179 36.894ZM74.029 29.4935L75.2883 31.2534C75.4934 29.8301 75.5959 28.224 75.5959 26.4352C75.5959 22.6075 75.4104 20.0204 75.0394 18.674C74.6684 17.3757 73.9314 16.7265 72.8282 16.7265C71.7934 16.7265 71.0954 17.2795 70.7341 18.3855C70.3729 19.4434 70.1923 21.5784 70.1923 24.7906C70.1923 28.3971 70.3778 30.8591 70.7488 32.1767C71.1198 33.4365 71.8422 34.0665 72.9161 34.0665C73.3456 34.0665 73.7556 33.9318 74.1461 33.6626L72.2132 30.9216L74.029 29.4935Z" fill="white"/>
</svg>
