<svg width="165" height="70" viewBox="0 0 165 70" fill="none" xmlns="http://www.w3.org/2000/svg">
<path d="M5 37.5C5 23.4167 16.4167 12 30.5 12H139.5C153.583 12 165 23.4167 165 37.5V37.5C165 51.5833 153.583 63 139.5 63H30.5C16.4167 63 5 51.5833 5 37.5V37.5Z" fill="#78ECC0"/>
<path d="M81.5319 47.3594L79.4851 48.8281L77.8288 46.4688C76.8392 47.0208 75.7924 47.2969 74.6882 47.2969C72.3444 47.2969 70.6882 46.3073 69.7194 44.3281C68.7611 42.2865 68.2819 38.8698 68.2819 34.0781C68.2819 29.8906 68.7507 26.9271 69.6882 25.1875C70.6257 23.4375 72.2142 22.5625 74.4538 22.5625C76.808 22.5625 78.4642 23.526 79.4226 25.4531C80.3705 27.3385 80.8444 30.6823 80.8444 35.4844C80.8444 39.8281 80.3913 42.8438 79.4851 44.5312L81.5319 47.3594ZM75.7819 39.3438L77.1257 41.25C77.3444 39.7083 77.4538 37.9688 77.4538 36.0312C77.4538 31.8854 77.2559 29.0833 76.8601 27.625C76.4642 26.2188 75.6778 25.5156 74.5007 25.5156C73.3965 25.5156 72.6517 26.1146 72.2663 27.3125C71.8809 28.4583 71.6882 30.7708 71.6882 34.25C71.6882 38.1562 71.8861 40.8229 72.2819 42.25C72.6778 43.6146 73.4486 44.2969 74.5944 44.2969C75.0528 44.2969 75.4903 44.151 75.9069 43.8594L73.8444 40.8906L75.7819 39.3438ZM86.9382 30.7188H83.7507L83.7194 29.7656C83.7194 27.1302 84.1153 25.276 84.9069 24.2031C85.709 23.1198 87.0528 22.5781 88.9382 22.5781C92.4903 22.5781 94.2663 24.5469 94.2663 28.4844C94.2663 31.1406 92.9382 34.9688 90.2819 39.9688L88.3601 43.5781C88.3496 43.599 88.3184 43.6615 88.2663 43.7656C88.2142 43.8698 88.1413 44.0208 88.0476 44.2188H94.0163V47H83.4226C83.5996 46.6042 83.9694 45.8177 84.5319 44.6406C85.0944 43.4635 85.8601 41.875 86.8288 39.875C87.6517 38.125 88.3392 36.6406 88.8913 35.4219C89.4434 34.2031 89.8601 33.2031 90.1413 32.4219C90.7038 30.8594 90.9851 29.5104 90.9851 28.375C90.9851 26.375 90.2924 25.375 88.9069 25.375C87.5736 25.375 86.9069 26.6146 86.9069 29.0938L86.9226 30.4688L86.9382 30.7188Z" fill="white"/>
<path d="M74 61H26.5C12.4167 61 1 49.5833 1 35.5V35.5C1 21.4167 12.4167 10 26.5 10H135.5C149.583 10 161 21.4167 161 35.5V35.5C161 49.5833 149.595 61 135.512 61C113.717 61 85.8044 61 85.5 61C85 61 78.5 68.5 78.5 68.5" stroke="black" stroke-width="2" stroke-linecap="round"/>
</svg>
