<svg width="165" height="61" viewBox="0 0 165 61" fill="none" xmlns="http://www.w3.org/2000/svg">
<path d="M5 28.5C5 14.4167 16.4167 3 30.5 3H139.5C153.583 3 165 14.4167 165 28.5C165 42.5833 153.583 54 139.5 54H30.5C16.4167 54 5 42.5833 5 28.5Z" fill="#78ECC0"/>
<path d="M74 52H26.5C12.4167 52 1 40.5833 1 26.5V26.5C1 12.4167 12.4167 1 26.5 1H135.5C149.583 1 161 12.4167 161 26.5V26.5C161 40.5833 149.595 52 135.512 52C113.717 52 85.8044 52 85.5 52C85 52 78.5 59.5 78.5 59.5" stroke="black" stroke-width="2" stroke-linecap="round"/>
<path d="M88.4144 21.6137H85.4391L85.4099 20.7241C85.4099 18.2641 85.7794 16.5334 86.5184 15.5319C87.267 14.5207 88.5213 14.0151 90.2812 14.0151C93.5968 14.0151 95.2545 15.8528 95.2545 19.5281C95.2545 22.0075 94.0149 25.5807 91.5355 30.2478L89.7416 33.6169C89.7318 33.6363 89.7027 33.6947 89.654 33.7919C89.6054 33.8891 89.5374 34.0301 89.4499 34.2149H95.0212V36.8109H85.1328C85.2981 36.4414 85.6433 35.7073 86.1683 34.6086C86.6934 33.5099 87.408 32.0272 88.3123 30.1603C89.0804 28.5268 89.7221 27.1413 90.2374 26.0037C90.7528 24.8661 91.1417 23.9327 91.4042 23.2035C91.9293 21.745 92.1918 20.4859 92.1918 19.426C92.1918 17.5592 91.5452 16.6258 90.252 16.6258C89.0075 16.6258 88.3852 17.7828 88.3852 20.0969L88.3998 21.3804L88.4144 21.6137Z" fill="white"/>
<path d="M83.3678 37.1448L81.4572 38.5158L79.9112 36.3135C78.9875 36.8288 78.0103 37.0865 76.9797 37.0865C74.792 37.0865 73.246 36.1628 72.3418 34.3154C71.4473 32.4097 71 29.2205 71 24.7479C71 20.8392 71.4375 18.073 72.3126 16.4492C73.1877 14.8158 74.6705 13.999 76.7609 13.999C78.9583 13.999 80.5043 14.8984 81.3988 16.6972C82.2836 18.4571 82.726 21.5782 82.726 26.0605C82.726 30.115 82.3031 32.9299 81.4572 34.505L83.3678 37.1448ZM78.0006 29.6629L79.2549 31.4422C79.4591 30.0032 79.5612 28.3795 79.5612 26.571C79.5612 22.7012 79.3764 20.0857 79.007 18.7244C78.6375 17.4118 77.9034 16.7555 76.8047 16.7555C75.774 16.7555 75.0788 17.3146 74.7191 18.4328C74.3593 19.5023 74.1794 21.6608 74.1794 24.9083C74.1794 28.5545 74.3642 31.0436 74.7337 32.3757C75.1031 33.6494 75.8227 34.2862 76.8922 34.2862C77.32 34.2862 77.7284 34.1501 78.1173 33.8779L76.1921 31.1068L78.0006 29.6629Z" fill="white"/>
</svg>
