<svg width="165" height="70" viewBox="0 0 165 70" fill="none" xmlns="http://www.w3.org/2000/svg">
<path d="M5 37.5C5 23.4167 16.4167 12 30.5 12H139.5C153.583 12 165 23.4167 165 37.5V37.5C165 51.5833 153.583 63 139.5 63H30.5C16.4167 63 5 51.5833 5 37.5V37.5Z" fill="#78ECC0"/>
<path d="M81.5319 47.3594L79.4851 48.8281L77.8288 46.4688C76.8392 47.0208 75.7924 47.2969 74.6882 47.2969C72.3444 47.2969 70.6882 46.3073 69.7194 44.3281C68.7611 42.2865 68.2819 38.8698 68.2819 34.0781C68.2819 29.8906 68.7507 26.9271 69.6882 25.1875C70.6257 23.4375 72.2142 22.5625 74.4538 22.5625C76.808 22.5625 78.4642 23.526 79.4226 25.4531C80.3705 27.3385 80.8444 30.6823 80.8444 35.4844C80.8444 39.8281 80.3913 42.8438 79.4851 44.5312L81.5319 47.3594ZM75.7819 39.3438L77.1257 41.25C77.3444 39.7083 77.4538 37.9688 77.4538 36.0312C77.4538 31.8854 77.2559 29.0833 76.8601 27.625C76.4642 26.2188 75.6778 25.5156 74.5007 25.5156C73.3965 25.5156 72.6517 26.1146 72.2663 27.3125C71.8809 28.4583 71.6882 30.7708 71.6882 34.25C71.6882 38.1562 71.8861 40.8229 72.2819 42.25C72.6778 43.6146 73.4486 44.2969 74.5944 44.2969C75.0528 44.2969 75.4903 44.151 75.9069 43.8594L73.8444 40.8906L75.7819 39.3438ZM87.0632 29.3438H83.9694V28.7031C83.9694 27.6302 84.058 26.7083 84.2351 25.9375C84.4226 25.1667 84.709 24.5312 85.0944 24.0312C85.4903 23.5312 85.9903 23.1667 86.5944 22.9375C87.1986 22.6979 87.9226 22.5781 88.7663 22.5781C90.5371 22.5781 91.8288 23.0781 92.6413 24.0781C93.4538 25.0781 93.8601 26.6667 93.8601 28.8438C93.8601 30.6354 93.6726 31.9271 93.2976 32.7188C92.933 33.5208 92.2299 34.1302 91.1882 34.5469C92.3132 34.9323 93.0892 35.5312 93.5163 36.3438C93.9434 37.1458 94.1569 38.4323 94.1569 40.2031C94.1569 42.6302 93.6986 44.4167 92.7819 45.5625C91.8653 46.7083 90.4382 47.2812 88.5007 47.2812C85.1882 47.2812 83.5319 45.3802 83.5319 41.5781V41.3281V41.1562C83.5319 41.0417 83.5371 40.9688 83.5476 40.9375H86.5944C86.584 41.1146 86.5736 41.2708 86.5632 41.4062C86.5632 41.5312 86.5632 41.6354 86.5632 41.7188C86.5632 42.5417 86.7403 43.1979 87.0944 43.6875C87.459 44.1771 87.9538 44.4219 88.5788 44.4219C88.9851 44.4219 89.3288 44.3438 89.6101 44.1875C89.9017 44.0208 90.1361 43.7604 90.3132 43.4062C90.5007 43.0417 90.6361 42.5729 90.7194 42C90.8028 41.4271 90.8444 40.7344 90.8444 39.9219C90.8444 38.4531 90.6205 37.3958 90.1726 36.75C89.7351 36.1042 89.0007 35.7812 87.9694 35.7812C87.8549 35.7812 87.7299 35.7917 87.5944 35.8125C87.459 35.8229 87.3028 35.8385 87.1257 35.8594V33.0469H87.5788C88.8392 33.0469 89.6934 32.776 90.1413 32.2344C90.5892 31.6927 90.8132 30.6667 90.8132 29.1562C90.8132 26.6562 90.183 25.4062 88.9226 25.4062C87.6726 25.4062 87.0476 26.474 87.0476 28.6094L87.0632 29.3438Z" fill="white"/>
<path d="M74 61H26.5C12.4167 61 1 49.5833 1 35.5V35.5C1 21.4167 12.4167 10 26.5 10H135.5C149.583 10 161 21.4167 161 35.5V35.5C161 49.5833 149.595 61 135.512 61C113.717 61 85.8044 61 85.5 61C85 61 78.5 68.5 78.5 68.5" stroke="black" stroke-width="2" stroke-linecap="round"/>
</svg>
