<svg width="165" height="61" viewBox="0 0 165 61" fill="none" xmlns="http://www.w3.org/2000/svg">
<path d="M5 28.5C5 14.4167 16.4167 3 30.5 3H139.5C153.583 3 165 14.4167 165 28.5C165 42.5833 153.583 54 139.5 54H30.5C16.4167 54 5 42.5833 5 28.5Z" fill="#78ECC0"/>
<path d="M74 52H26.5C12.4167 52 1 40.5833 1 26.5V26.5C1 12.4167 12.4167 1 26.5 1H135.5C149.583 1 161 12.4167 161 26.5V26.5C161 40.5833 149.595 52 135.512 52C113.717 52 85.8044 52 85.5 52C85 52 78.5 59.5 78.5 59.5" stroke="black" stroke-width="2" stroke-linecap="round"/>
<path d="M90.8356 14.2886H93.6198V28.1663H95.0479V30.4601H93.6198V36.5622H90.8356V30.4601H84.7334V27.9067L90.8356 14.2886ZM90.8356 28.1663V18.8183L87.0848 28.1663H90.8356Z" fill="white"/>
<path d="M83.2332 36.894L81.3434 38.25L79.8142 36.0717C78.9006 36.5814 77.9341 36.8363 76.9146 36.8363C74.7507 36.8363 73.2216 35.9226 72.3272 34.0953C71.4424 32.2103 71 29.0559 71 24.6319C71 20.7658 71.4328 18.0296 72.2983 16.4236C73.1639 14.8079 74.6305 14 76.6982 14C78.8718 14 80.4009 14.8896 81.2857 16.6688C82.1609 18.4095 82.5985 21.4967 82.5985 25.9303C82.5985 29.9407 82.1801 32.7249 81.3434 34.2829L83.2332 36.894ZM77.9244 29.4935L79.1651 31.2534C79.367 29.8301 79.468 28.224 79.468 26.4352C79.468 22.6075 79.2853 20.0204 78.9198 18.674C78.5544 17.3757 77.8283 16.7265 76.7415 16.7265C75.7221 16.7265 75.0345 17.2795 74.6786 18.3855C74.3228 19.4434 74.1449 21.5784 74.1449 24.7906C74.1449 28.3971 74.3276 30.8591 74.693 32.1767C75.0585 33.4365 75.7702 34.0665 76.8281 34.0665C77.2512 34.0665 77.6552 33.9318 78.0399 33.6626L76.1356 30.9216L77.9244 29.4935Z" fill="white"/>
</svg>
