<svg width="276" height="73" viewBox="0 0 276 73" fill="none" xmlns="http://www.w3.org/2000/svg">
<path d="M8 36.5C8 20.7599 20.7599 8 36.5 8H247.5C263.24 8 276 20.7599 276 36.5C276 52.2401 263.24 65 247.5 65H36.5C20.7599 65 8 52.2401 8 36.5Z" fill="#78ECC0"/>
<path d="M138.887 49.4043L136.584 51.0566L134.721 48.4023C133.607 49.0234 132.43 49.334 131.188 49.334C128.551 49.334 126.688 48.2207 125.598 45.9941C124.52 43.6973 123.98 39.8535 123.98 34.4629C123.98 29.752 124.508 26.418 125.562 24.4609C126.617 22.4922 128.404 21.5078 130.924 21.5078C133.572 21.5078 135.436 22.5918 136.514 24.7598C137.58 26.8809 138.113 30.6426 138.113 36.0449C138.113 40.9316 137.604 44.3242 136.584 46.2227L138.887 49.4043ZM132.418 40.3867L133.93 42.5312C134.176 40.7969 134.299 38.8398 134.299 36.6602C134.299 31.9961 134.076 28.8438 133.631 27.2031C133.186 25.6211 132.301 24.8301 130.977 24.8301C129.734 24.8301 128.896 25.5039 128.463 26.8516C128.029 28.1406 127.812 30.7422 127.812 34.6562C127.812 39.0508 128.035 42.0508 128.48 43.6562C128.926 45.1914 129.793 45.959 131.082 45.959C131.598 45.959 132.09 45.7949 132.559 45.4668L130.238 42.127L132.418 40.3867ZM145.109 29.1367H141.629V28.416C141.629 27.209 141.729 26.1719 141.928 25.3047C142.139 24.4375 142.461 23.7227 142.895 23.1602C143.34 22.5977 143.902 22.1875 144.582 21.9297C145.262 21.6602 146.076 21.5254 147.025 21.5254C149.018 21.5254 150.471 22.0879 151.385 23.2129C152.299 24.3379 152.756 26.125 152.756 28.5742C152.756 30.5898 152.545 32.043 152.123 32.9336C151.713 33.8359 150.922 34.5215 149.75 34.9902C151.016 35.4238 151.889 36.0977 152.369 37.0117C152.85 37.9141 153.09 39.3613 153.09 41.3535C153.09 44.084 152.574 46.0938 151.543 47.3828C150.512 48.6719 148.906 49.3164 146.727 49.3164C143 49.3164 141.137 47.1777 141.137 42.9004V42.6191V42.4258C141.137 42.2969 141.143 42.2148 141.154 42.1797H144.582C144.57 42.3789 144.559 42.5547 144.547 42.707C144.547 42.8477 144.547 42.9648 144.547 43.0586C144.547 43.9844 144.746 44.7227 145.145 45.2734C145.555 45.8242 146.111 46.0996 146.814 46.0996C147.271 46.0996 147.658 46.0117 147.975 45.8359C148.303 45.6484 148.566 45.3555 148.766 44.957C148.977 44.5469 149.129 44.0195 149.223 43.375C149.316 42.7305 149.363 41.9512 149.363 41.0371C149.363 39.3848 149.111 38.1953 148.607 37.4688C148.115 36.7422 147.289 36.3789 146.129 36.3789C146 36.3789 145.859 36.3906 145.707 36.4141C145.555 36.4258 145.379 36.4434 145.18 36.4668V33.3027H145.689C147.107 33.3027 148.068 32.998 148.572 32.3887C149.076 31.7793 149.328 30.625 149.328 28.9258C149.328 26.1133 148.619 24.707 147.201 24.707C145.795 24.707 145.092 25.9082 145.092 28.3105L145.109 29.1367Z" fill="white"/>
<path d="M123.275 63.4103H30.2052C14.0756 63.4103 1 50.3347 1 34.2051V34.2051C1 18.0756 14.0756 5 30.2051 5H239.795C255.924 5 269 18.0756 269 34.2051V34.2051C269 50.3347 255.925 63.4103 239.796 63.4103C202.626 63.4103 143.113 63.4103 142.537 63.4103C141.7 63.4103 130.812 72 130.812 72" stroke="black" stroke-width="2" stroke-linecap="round"/>
</svg>
