<svg width="273" height="68" viewBox="0 0 273 68" fill="none" xmlns="http://www.w3.org/2000/svg">
<path d="M8.87766 22.3598C8.25766 22.5398 7.61766 22.6998 6.97766 22.8798V27.2998C6.97766 28.5998 6.75766 29.2998 6.05766 29.7198C5.33766 30.1598 4.37766 30.2398 2.99766 30.2398C2.93766 29.4998 2.57766 28.3598 2.25766 27.6198C2.93766 27.6598 3.69766 27.6598 3.95766 27.6598C4.21766 27.6598 4.31766 27.5598 4.31766 27.2798V23.5798L2.55766 24.0398L1.89766 21.2598C2.59766 21.1198 3.41766 20.9398 4.31766 20.7398V17.5598H2.19766V14.8798H4.31766V11.2398H6.97766V14.8798H8.63766V17.5598H6.97766V20.1198L8.55766 19.7398L8.87766 22.3598ZM8.95766 30.2198V15.6398H12.9177V11.2798H15.5177V15.6398H19.7177V30.0798H16.9777V28.7398H11.5777V30.2198H8.95766ZM11.5777 25.9598H12.9177V23.4198H11.5777V25.9598ZM11.5777 20.7198H12.9177V18.3998H11.5777V20.7198ZM15.5177 25.9598H16.9777V23.4198H15.5177V25.9598ZM15.5177 20.7198H16.9777V18.3998H15.5177V20.7198ZM36.5416 16.4798C36.8616 16.4798 36.9616 16.3798 37.0416 15.8998H34.9216V15.9598C34.9216 16.4198 35.0016 16.4798 35.4216 16.4798H36.5416ZM20.9016 27.2598C21.5616 26.7998 22.3016 26.2398 22.9816 25.6398V21.6598H21.2016V18.9798H25.5416V25.3998C26.0216 26.3198 26.7816 26.8598 27.8416 27.1198C27.3216 26.6198 26.5816 25.9998 26.1216 25.6598C27.2216 25.3598 28.3616 24.9398 29.1616 24.4598H26.0216V22.3598H28.9216V21.3398H26.5416V19.2798H28.9216V18.4198H31.5016V19.2798H33.2016V18.4198H35.8216V19.2798H38.2816V21.3398H35.8216V22.3598H38.8616V24.4598H35.6416C36.8616 25.0798 38.2016 25.7998 38.9816 26.3398L36.3816 27.2798C37.4816 27.2398 38.5016 27.1798 39.3616 27.0998C39.0616 27.7398 38.6616 28.9998 38.5416 29.7998C35.9816 29.9398 31.7216 29.9798 29.2016 29.8598C27.0016 29.7598 25.5616 29.2198 24.4416 27.6798C23.7816 28.4398 23.0816 29.1598 22.1816 30.0398L20.9016 27.2598ZM20.9616 13.1398L23.1416 11.6998C24.0816 12.6598 25.2216 13.9998 25.7016 14.9798L23.3416 16.5998C22.9416 15.6398 21.8816 14.1798 20.9616 13.1398ZM26.1816 13.5398V11.7598H31.8416V15.8998H30.8816C31.3016 16.1798 32.1016 16.4398 32.6616 16.5598C32.4416 17.9598 31.8416 18.3598 30.5816 18.3598H28.8016C26.9416 18.3598 26.4416 17.8198 26.4416 15.9798V14.0998H29.5416V13.5398H26.1816ZM28.4816 27.2398L29.2016 27.2998C30.8616 27.3798 33.5416 27.3798 36.0016 27.2998C35.2816 26.7198 34.0616 25.8798 32.9016 25.2798L34.3016 24.4598H30.5216L32.0616 25.0198C31.1616 25.8798 29.7416 26.6998 28.4816 27.2398ZM28.6816 15.9598C28.6816 16.4198 28.7616 16.4798 29.1616 16.4798H30.3016C30.6216 16.4798 30.7016 16.3798 30.7816 15.8998H28.6816V15.9598ZM31.5016 22.3598H33.2016V21.3398H31.5016V22.3598ZM32.3416 13.5398V11.7598H38.1816V15.8998H37.1416C37.5416 16.1798 38.3416 16.4398 38.9216 16.5598C38.6816 17.9598 38.1016 18.3598 36.8216 18.3598H35.0616C33.2016 18.3598 32.6816 17.8198 32.6816 15.9798V14.0998H35.8416V13.5398H32.3416ZM52.3455 21.8998V18.7398H53.8655V21.8998H52.3455ZM40.7655 17.4398V14.3798H53.8855V17.4398C52.4455 17.5998 51.4055 17.9398 50.4655 18.4798C50.3255 18.5598 50.1655 18.6398 50.0255 18.7398H51.4855V21.8998H49.9655V18.7798C48.3855 19.8198 47.2055 21.2598 46.7855 22.5798C46.1655 24.5598 47.3855 26.1798 49.4055 26.3398C50.4855 26.4398 52.2655 26.3198 53.3055 26.1598V29.3598C51.7455 29.5598 49.9055 29.5198 49.1655 29.4598C46.3855 29.2198 42.8655 27.7398 43.5055 22.9398C43.7255 21.1798 44.5455 19.9598 45.4855 18.8998C46.0855 18.2198 46.6255 17.7798 47.0855 17.4398H40.7655ZM175.634 29.2198C172.334 29.0798 170.954 27.6398 170.794 25.3998C170.734 24.0398 171.014 23.1798 171.574 22.1398H174.354C173.854 23.0998 173.614 23.7398 173.594 24.5598C173.594 25.5398 174.114 26.0198 175.834 26.0798C176.554 26.0998 177.654 26.0398 179.354 25.8398V29.0198C178.874 29.1198 177.294 29.2798 175.634 29.2198ZM166.514 21.8398C166.514 19.3398 166.714 17.2198 167.094 14.1598H170.094C169.674 17.4798 169.494 19.3598 169.514 21.7798C169.534 24.2998 169.754 26.4798 170.254 29.5998H167.154C166.734 26.6198 166.514 24.4998 166.514 21.8398ZM171.394 18.0998V15.0398H178.994V18.0998H171.394ZM190.866 20.2758C189.258 23.9478 186.522 27.4278 181.554 30.3318V25.7478C185.802 22.7238 187.458 20.2758 188.85 17.0118H181.554V13.3398H190.866V10.3398H194.61V13.3398H197.346V17.0118H194.61V30.7398H190.866V20.2758ZM203.227 26.4918C207.619 25.8438 210.043 23.9718 210.043 19.0998V10.6278H213.763V19.0998C213.763 25.8918 210.259 29.2518 203.227 30.4518V26.4918ZM200.659 21.8838V10.6278H204.379V21.8838H200.659ZM229.008 11.4918V7.69984H230.832V11.4918H229.008ZM217.68 29.8998V25.9878C224.736 25.4838 228.456 21.2598 229.824 15.5478H233.64C232.08 23.4198 226.728 29.0598 217.68 29.8998ZM217.68 20.8278V17.0598H224.712V20.8278H217.68ZM217.68 14.9958V11.2278H224.712V14.9958H217.68ZM231.864 11.4918V7.69984H233.688V11.4918H231.864ZM236.585 26.7078C240.353 25.5798 242.609 23.5878 242.609 20.0838V18.5238H235.625V14.6838H242.609V10.4358H246.449V14.6838H252.329V18.5238H246.449L246.425 20.0838C246.329 26.5158 242.201 29.2518 236.585 30.6438V26.7078ZM262.72 30.0438V11.0598H266.368V24.9558C268.36 24.1158 269.464 23.2518 271.024 21.5718V26.2278C268.84 28.7718 265.384 29.7798 262.72 30.0438ZM254.392 29.6358C256.072 26.1318 257.056 22.5318 257.056 18.1398V11.3238H260.68V18.1398C260.68 21.8838 259.984 26.9478 258.424 29.6358H254.392ZM68.4687 45.4918V41.6998H70.2927V45.4918H68.4687ZM57.9807 56.4838V51.8518C58.3887 51.5638 58.9647 51.0598 59.7087 49.9798C60.5967 48.6598 61.5327 46.9318 62.0127 44.3398H65.8047C65.6847 45.2278 65.4687 46.0678 65.2767 46.8358H73.1727C73.1727 51.4438 72.5007 54.4918 71.8047 56.0038C69.0207 62.0518 62.7807 64.3558 59.7567 64.8358V60.9478C61.2447 60.7798 63.9327 59.5558 65.7807 57.8518C67.7247 56.0998 68.8767 53.9638 69.1407 50.4118H63.8127C62.6367 52.2118 61.9407 53.0518 61.1007 53.9158C60.2607 54.7798 58.7487 56.0998 57.9807 56.4838ZM71.3247 45.4918V41.6998H73.1487V45.4918H71.3247ZM77.1143 56.3638L75.7223 48.1318H78.1943L79.6583 56.3638H77.1143ZM77.2343 64.3078V60.9718C80.2103 60.4438 82.2503 58.6918 83.6183 56.4358L83.6663 56.3638H81.1463L79.7543 48.1318H82.2263L83.6663 56.3638C85.1303 53.8918 85.7783 50.8918 85.9223 48.1798H89.0663C88.7783 52.0438 87.8183 55.7158 85.9943 58.5958C84.1223 61.5478 81.2903 63.6838 77.2343 64.3078ZM102.441 44.8678V41.6998H104.265V44.8678H102.441ZM91.3774 64.5478V60.0838C96.0574 57.3238 99.0334 54.0358 100.953 49.2118H92.2654V45.3478H106.065C105.393 49.0678 103.881 52.2358 102.225 54.8038C103.545 56.7478 105.585 58.5718 107.025 59.7718V64.4518C104.193 62.4118 102.177 60.4918 100.089 57.7078C98.1454 60.1078 94.4494 63.1558 91.3774 64.5478ZM105.297 44.8678V41.6998H107.121V44.8678H105.297ZM111.133 60.0118C114.205 59.5798 116.485 58.4998 118.045 56.7478C119.605 54.9958 120.445 52.5238 120.589 49.2598H109.573V45.4198H121.189C120.997 45.0358 120.901 44.6038 120.901 44.1478C120.901 42.5398 122.197 41.2438 123.829 41.2438C125.437 41.2438 126.733 42.5398 126.733 44.1478C126.733 45.6118 125.677 46.8118 124.285 47.0518V48.9478C124.285 52.5958 123.277 56.2918 120.709 59.1238C118.621 61.4278 115.525 63.1558 111.133 63.8518V60.0118ZM122.485 44.1478C122.485 44.7478 122.893 45.2758 123.445 45.4198H124.165C124.717 45.2758 125.125 44.7478 125.125 44.1478C125.125 43.4278 124.525 42.8278 123.805 42.8278C123.085 42.8278 122.485 43.4278 122.485 44.1478ZM128.201 64.0918V45.0598H132.017V59.4838C134.897 58.7878 138.065 55.0198 139.433 51.6118H143.393C140.729 58.8598 135.593 63.6358 128.201 64.0918ZM157.448 45.4918V41.6998H159.272V45.4918H157.448ZM145.688 51.5638V47.8678L148.496 47.7718V44.4118H152.048V47.6518L162.08 47.3158V51.0358H162.056C161.264 54.0358 157.928 57.3718 154.016 58.7398V54.8758C155.768 54.3958 157.808 52.5478 158.312 51.1318L152.048 51.3718C152.048 54.6838 152.072 57.7798 152.096 58.2358C152.264 59.7958 152.624 60.2758 154.664 60.3718C157.064 60.4678 160.616 60.1558 161.72 60.0358V63.8998C160.016 63.9958 156.752 64.1638 154.28 64.0438C150.944 63.8998 148.784 63.0118 148.592 59.0278C148.472 56.5078 148.496 54.4438 148.496 51.4918L145.688 51.5638ZM160.304 45.4918V41.6998H162.128V45.4918H160.304ZM164.859 49.2598V45.5158H172.347V49.2598H164.859ZM164.859 63.8998V59.9878C171.915 59.4838 175.635 55.2598 177.003 49.5478H180.819C179.259 57.4198 173.907 63.0598 164.859 63.8998ZM184.003 64.5478V44.4358H187.795V50.9158H197.875V54.6838H187.795V64.5478H184.003ZM205.956 49.3318L205.812 45.3478H210.516L210.372 49.3318L209.652 56.9158H206.676L205.956 49.3318ZM205.716 61.1398C205.716 59.7238 206.748 58.7398 208.164 58.7398C209.58 58.7398 210.612 59.7238 210.612 61.1398C210.612 62.5558 209.58 63.5878 208.164 63.5878C206.724 63.5878 205.716 62.5558 205.716 61.1398Z" fill="black"/>
<g filter="url(#filter0_d_134_474)">
<mask id="path-2-outside-1_134_474" maskUnits="userSpaceOnUse" x="59.2578" y="4.00098" width="104" height="30" fill="black">
<rect fill="white" x="59.2578" y="4.00098" width="104" height="30"/>
<path d="M79.468 30.001H61.258L66.868 24.181C68.348 22.641 69.508 21.341 70.348 20.281C71.188 19.201 71.808 18.291 72.208 17.551C72.628 16.811 72.888 16.211 72.988 15.751C73.088 15.291 73.138 14.901 73.138 14.581C73.138 14.241 73.078 13.911 72.958 13.591C72.858 13.271 72.698 12.991 72.478 12.751C72.258 12.491 71.988 12.291 71.668 12.151C71.368 11.991 71.008 11.911 70.588 11.911C69.788 11.911 69.158 12.171 68.698 12.691C68.258 13.211 68.038 13.861 68.038 14.641C68.038 14.861 68.068 15.181 68.128 15.601H61.708C61.708 14.281 61.918 13.081 62.338 12.001C62.778 10.921 63.388 9.99098 64.168 9.21098C64.948 8.43098 65.868 7.83098 66.928 7.41098C68.008 6.99098 69.188 6.78098 70.468 6.78098C71.728 6.78098 72.888 6.98098 73.948 7.38098C75.028 7.78098 75.958 8.34098 76.738 9.06098C77.518 9.78098 78.128 10.641 78.568 11.641C79.008 12.621 79.228 13.691 79.228 14.851C79.228 16.091 78.958 17.241 78.418 18.301C77.898 19.341 77.058 20.411 75.898 21.511L72.148 25.021H79.468V30.001ZM87.2286 18.661C87.2286 19.661 87.3186 20.571 87.4986 21.391C87.6786 22.211 87.9286 22.921 88.2486 23.521C88.5886 24.121 88.9886 24.591 89.4486 24.931C89.9086 25.251 90.4286 25.411 91.0086 25.411C91.5686 25.411 92.0786 25.251 92.5386 24.931C93.0186 24.591 93.4186 24.121 93.7386 23.521C94.0586 22.921 94.3086 22.211 94.4886 21.391C94.6686 20.571 94.7586 19.661 94.7586 18.661C94.7586 17.681 94.6686 16.781 94.4886 15.961C94.3086 15.121 94.0586 14.411 93.7386 13.831C93.4186 13.231 93.0186 12.771 92.5386 12.451C92.0786 12.111 91.5686 11.941 91.0086 11.941C90.4286 11.941 89.9086 12.111 89.4486 12.451C88.9886 12.771 88.5886 13.231 88.2486 13.831C87.9286 14.411 87.6786 15.121 87.4986 15.961C87.3186 16.781 87.2286 17.681 87.2286 18.661ZM81.4086 18.661C81.4086 16.861 81.6386 15.231 82.0986 13.771C82.5786 12.291 83.2386 11.031 84.0786 9.99097C84.9386 8.95098 85.9486 8.15098 87.1086 7.59098C88.2886 7.01098 89.5886 6.72098 91.0086 6.72098C92.4086 6.72098 93.6986 7.01098 94.8786 7.59098C96.0586 8.15098 97.0686 8.95098 97.9086 9.99097C98.7486 11.031 99.3986 12.291 99.8586 13.771C100.339 15.231 100.579 16.861 100.579 18.661C100.579 20.461 100.339 22.101 99.8586 23.581C99.3986 25.041 98.7486 26.301 97.9086 27.361C97.0686 28.401 96.0586 29.211 94.8786 29.791C93.6986 30.351 92.4086 30.631 91.0086 30.631C89.5886 30.631 88.2886 30.351 87.1086 29.791C85.9486 29.211 84.9386 28.401 84.0786 27.361C83.2386 26.301 82.5786 25.041 82.0986 23.581C81.6386 22.101 81.4086 20.461 81.4086 18.661ZM107.619 18.661C107.619 19.661 107.709 20.571 107.889 21.391C108.069 22.211 108.319 22.921 108.639 23.521C108.979 24.121 109.379 24.591 109.839 24.931C110.299 25.251 110.819 25.411 111.399 25.411C111.959 25.411 112.469 25.251 112.929 24.931C113.409 24.591 113.809 24.121 114.129 23.521C114.449 22.921 114.699 22.211 114.879 21.391C115.059 20.571 115.149 19.661 115.149 18.661C115.149 17.681 115.059 16.781 114.879 15.961C114.699 15.121 114.449 14.411 114.129 13.831C113.809 13.231 113.409 12.771 112.929 12.451C112.469 12.111 111.959 11.941 111.399 11.941C110.819 11.941 110.299 12.111 109.839 12.451C109.379 12.771 108.979 13.231 108.639 13.831C108.319 14.411 108.069 15.121 107.889 15.961C107.709 16.781 107.619 17.681 107.619 18.661ZM101.799 18.661C101.799 16.861 102.029 15.231 102.489 13.771C102.969 12.291 103.629 11.031 104.469 9.99097C105.329 8.95098 106.339 8.15098 107.499 7.59098C108.679 7.01098 109.979 6.72098 111.399 6.72098C112.799 6.72098 114.089 7.01098 115.269 7.59098C116.449 8.15098 117.459 8.95098 118.299 9.99097C119.139 11.031 119.789 12.291 120.249 13.771C120.729 15.231 120.969 16.861 120.969 18.661C120.969 20.461 120.729 22.101 120.249 23.581C119.789 25.041 119.139 26.301 118.299 27.361C117.459 28.401 116.449 29.211 115.269 29.791C114.089 30.351 112.799 30.631 111.399 30.631C109.979 30.631 108.679 30.351 107.499 29.791C106.339 29.211 105.329 28.401 104.469 27.361C103.629 26.301 102.969 25.041 102.489 23.581C102.029 22.101 101.799 20.461 101.799 18.661Z"/>
<path d="M137.39 28.501V25.161H131.67V28.501H137.39ZM123.37 25.741C125.71 25.021 127.91 23.901 129.79 22.461C129.11 21.681 128.11 20.781 127.23 20.021C126.63 20.501 125.99 20.941 125.31 21.381C124.91 20.661 124.01 19.581 123.37 19.081C126.53 17.361 128.59 15.001 129.71 12.761L132.79 13.401C132.53 13.901 132.23 14.381 131.93 14.841H135.65L136.11 14.701L138.03 15.761C137.11 18.401 135.73 20.661 133.99 22.541H140.27V31.901H137.39V31.121H131.67V31.881H128.91V26.541C127.67 27.261 126.35 27.841 124.99 28.341C124.65 27.541 123.95 26.341 123.37 25.741ZM129.33 18.141C130.21 18.821 131.27 19.681 132.03 20.441C132.89 19.521 133.63 18.501 134.23 17.401H130.01L129.33 18.141ZM148.254 25.781C148.054 25.261 147.774 24.581 147.474 23.861V31.901H144.974V25.361C144.574 26.561 144.114 27.621 143.574 28.441C143.354 27.661 142.774 26.541 142.394 25.861C143.434 24.341 144.334 21.821 144.794 19.621H142.874V16.941H144.974V12.901H147.474V16.941H149.214V19.621H147.474V20.281C147.994 21.021 149.334 23.221 149.634 23.721L148.254 25.781ZM148.574 28.201C149.674 27.721 151.294 26.881 152.874 26.061L153.574 28.401L151.894 29.401C152.434 29.441 153.094 29.441 153.314 29.441C153.534 29.441 153.614 29.341 153.614 29.121V22.621H149.314V20.281H153.614V19.801H150.154V17.661H153.614V17.221H149.674V14.961H151.354C151.174 14.521 150.974 14.061 150.754 13.681L152.934 12.921C153.314 13.541 153.734 14.361 153.934 14.961H156.074C156.354 14.301 156.654 13.461 156.794 12.861L159.554 13.521C159.234 14.041 158.954 14.521 158.674 14.961H160.134V17.221H156.274V17.661H159.754V19.801H156.274V20.281H160.534V22.621H156.274V23.321C156.434 23.781 156.634 24.241 156.854 24.661C157.434 24.081 158.034 23.361 158.434 22.801L160.514 24.341C159.734 25.141 158.854 25.961 158.154 26.561C158.894 27.421 159.794 28.121 160.894 28.581C160.334 29.121 159.534 30.201 159.154 30.941C157.974 30.241 157.034 29.221 156.274 28.001V29.141C156.274 30.361 156.074 31.041 155.394 31.461C154.694 31.881 153.774 31.941 152.554 31.941C152.494 31.201 152.174 30.101 151.874 29.421C151.134 29.861 150.414 30.281 149.754 30.641L148.574 28.201ZM149.534 24.161L151.414 22.861C152.074 23.561 152.894 24.541 153.274 25.221L151.294 26.661C150.974 25.981 150.194 24.921 149.534 24.161Z"/>
</mask>
<path d="M79.468 30.001H61.258L66.868 24.181C68.348 22.641 69.508 21.341 70.348 20.281C71.188 19.201 71.808 18.291 72.208 17.551C72.628 16.811 72.888 16.211 72.988 15.751C73.088 15.291 73.138 14.901 73.138 14.581C73.138 14.241 73.078 13.911 72.958 13.591C72.858 13.271 72.698 12.991 72.478 12.751C72.258 12.491 71.988 12.291 71.668 12.151C71.368 11.991 71.008 11.911 70.588 11.911C69.788 11.911 69.158 12.171 68.698 12.691C68.258 13.211 68.038 13.861 68.038 14.641C68.038 14.861 68.068 15.181 68.128 15.601H61.708C61.708 14.281 61.918 13.081 62.338 12.001C62.778 10.921 63.388 9.99098 64.168 9.21098C64.948 8.43098 65.868 7.83098 66.928 7.41098C68.008 6.99098 69.188 6.78098 70.468 6.78098C71.728 6.78098 72.888 6.98098 73.948 7.38098C75.028 7.78098 75.958 8.34098 76.738 9.06098C77.518 9.78098 78.128 10.641 78.568 11.641C79.008 12.621 79.228 13.691 79.228 14.851C79.228 16.091 78.958 17.241 78.418 18.301C77.898 19.341 77.058 20.411 75.898 21.511L72.148 25.021H79.468V30.001ZM87.2286 18.661C87.2286 19.661 87.3186 20.571 87.4986 21.391C87.6786 22.211 87.9286 22.921 88.2486 23.521C88.5886 24.121 88.9886 24.591 89.4486 24.931C89.9086 25.251 90.4286 25.411 91.0086 25.411C91.5686 25.411 92.0786 25.251 92.5386 24.931C93.0186 24.591 93.4186 24.121 93.7386 23.521C94.0586 22.921 94.3086 22.211 94.4886 21.391C94.6686 20.571 94.7586 19.661 94.7586 18.661C94.7586 17.681 94.6686 16.781 94.4886 15.961C94.3086 15.121 94.0586 14.411 93.7386 13.831C93.4186 13.231 93.0186 12.771 92.5386 12.451C92.0786 12.111 91.5686 11.941 91.0086 11.941C90.4286 11.941 89.9086 12.111 89.4486 12.451C88.9886 12.771 88.5886 13.231 88.2486 13.831C87.9286 14.411 87.6786 15.121 87.4986 15.961C87.3186 16.781 87.2286 17.681 87.2286 18.661ZM81.4086 18.661C81.4086 16.861 81.6386 15.231 82.0986 13.771C82.5786 12.291 83.2386 11.031 84.0786 9.99097C84.9386 8.95098 85.9486 8.15098 87.1086 7.59098C88.2886 7.01098 89.5886 6.72098 91.0086 6.72098C92.4086 6.72098 93.6986 7.01098 94.8786 7.59098C96.0586 8.15098 97.0686 8.95098 97.9086 9.99097C98.7486 11.031 99.3986 12.291 99.8586 13.771C100.339 15.231 100.579 16.861 100.579 18.661C100.579 20.461 100.339 22.101 99.8586 23.581C99.3986 25.041 98.7486 26.301 97.9086 27.361C97.0686 28.401 96.0586 29.211 94.8786 29.791C93.6986 30.351 92.4086 30.631 91.0086 30.631C89.5886 30.631 88.2886 30.351 87.1086 29.791C85.9486 29.211 84.9386 28.401 84.0786 27.361C83.2386 26.301 82.5786 25.041 82.0986 23.581C81.6386 22.101 81.4086 20.461 81.4086 18.661ZM107.619 18.661C107.619 19.661 107.709 20.571 107.889 21.391C108.069 22.211 108.319 22.921 108.639 23.521C108.979 24.121 109.379 24.591 109.839 24.931C110.299 25.251 110.819 25.411 111.399 25.411C111.959 25.411 112.469 25.251 112.929 24.931C113.409 24.591 113.809 24.121 114.129 23.521C114.449 22.921 114.699 22.211 114.879 21.391C115.059 20.571 115.149 19.661 115.149 18.661C115.149 17.681 115.059 16.781 114.879 15.961C114.699 15.121 114.449 14.411 114.129 13.831C113.809 13.231 113.409 12.771 112.929 12.451C112.469 12.111 111.959 11.941 111.399 11.941C110.819 11.941 110.299 12.111 109.839 12.451C109.379 12.771 108.979 13.231 108.639 13.831C108.319 14.411 108.069 15.121 107.889 15.961C107.709 16.781 107.619 17.681 107.619 18.661ZM101.799 18.661C101.799 16.861 102.029 15.231 102.489 13.771C102.969 12.291 103.629 11.031 104.469 9.99097C105.329 8.95098 106.339 8.15098 107.499 7.59098C108.679 7.01098 109.979 6.72098 111.399 6.72098C112.799 6.72098 114.089 7.01098 115.269 7.59098C116.449 8.15098 117.459 8.95098 118.299 9.99097C119.139 11.031 119.789 12.291 120.249 13.771C120.729 15.231 120.969 16.861 120.969 18.661C120.969 20.461 120.729 22.101 120.249 23.581C119.789 25.041 119.139 26.301 118.299 27.361C117.459 28.401 116.449 29.211 115.269 29.791C114.089 30.351 112.799 30.631 111.399 30.631C109.979 30.631 108.679 30.351 107.499 29.791C106.339 29.211 105.329 28.401 104.469 27.361C103.629 26.301 102.969 25.041 102.489 23.581C102.029 22.101 101.799 20.461 101.799 18.661Z" fill="url(#paint0_linear_134_474)"/>
<path d="M137.39 28.501V25.161H131.67V28.501H137.39ZM123.37 25.741C125.71 25.021 127.91 23.901 129.79 22.461C129.11 21.681 128.11 20.781 127.23 20.021C126.63 20.501 125.99 20.941 125.31 21.381C124.91 20.661 124.01 19.581 123.37 19.081C126.53 17.361 128.59 15.001 129.71 12.761L132.79 13.401C132.53 13.901 132.23 14.381 131.93 14.841H135.65L136.11 14.701L138.03 15.761C137.11 18.401 135.73 20.661 133.99 22.541H140.27V31.901H137.39V31.121H131.67V31.881H128.91V26.541C127.67 27.261 126.35 27.841 124.99 28.341C124.65 27.541 123.95 26.341 123.37 25.741ZM129.33 18.141C130.21 18.821 131.27 19.681 132.03 20.441C132.89 19.521 133.63 18.501 134.23 17.401H130.01L129.33 18.141ZM148.254 25.781C148.054 25.261 147.774 24.581 147.474 23.861V31.901H144.974V25.361C144.574 26.561 144.114 27.621 143.574 28.441C143.354 27.661 142.774 26.541 142.394 25.861C143.434 24.341 144.334 21.821 144.794 19.621H142.874V16.941H144.974V12.901H147.474V16.941H149.214V19.621H147.474V20.281C147.994 21.021 149.334 23.221 149.634 23.721L148.254 25.781ZM148.574 28.201C149.674 27.721 151.294 26.881 152.874 26.061L153.574 28.401L151.894 29.401C152.434 29.441 153.094 29.441 153.314 29.441C153.534 29.441 153.614 29.341 153.614 29.121V22.621H149.314V20.281H153.614V19.801H150.154V17.661H153.614V17.221H149.674V14.961H151.354C151.174 14.521 150.974 14.061 150.754 13.681L152.934 12.921C153.314 13.541 153.734 14.361 153.934 14.961H156.074C156.354 14.301 156.654 13.461 156.794 12.861L159.554 13.521C159.234 14.041 158.954 14.521 158.674 14.961H160.134V17.221H156.274V17.661H159.754V19.801H156.274V20.281H160.534V22.621H156.274V23.321C156.434 23.781 156.634 24.241 156.854 24.661C157.434 24.081 158.034 23.361 158.434 22.801L160.514 24.341C159.734 25.141 158.854 25.961 158.154 26.561C158.894 27.421 159.794 28.121 160.894 28.581C160.334 29.121 159.534 30.201 159.154 30.941C157.974 30.241 157.034 29.221 156.274 28.001V29.141C156.274 30.361 156.074 31.041 155.394 31.461C154.694 31.881 153.774 31.941 152.554 31.941C152.494 31.201 152.174 30.101 151.874 29.421C151.134 29.861 150.414 30.281 149.754 30.641L148.574 28.201ZM149.534 24.161L151.414 22.861C152.074 23.561 152.894 24.541 153.274 25.221L151.294 26.661C150.974 25.981 150.194 24.921 149.534 24.161Z" fill="black"/>
<path d="M79.468 30.001V32.001C80.5725 32.001 81.468 31.1055 81.468 30.001H79.468ZM61.258 30.001L59.818 28.613C59.2613 29.1906 59.1035 30.045 59.4173 30.7833C59.7311 31.5216 60.4557 32.001 61.258 32.001V30.001ZM66.868 24.181L68.3079 25.569L68.31 25.5668L66.868 24.181ZM70.348 20.281L71.9155 21.5231C71.9192 21.5184 71.923 21.5136 71.9267 21.5089L70.348 20.281ZM72.208 17.551L70.4686 16.5638C70.4618 16.5758 70.4551 16.5878 70.4486 16.5999L72.208 17.551ZM72.958 13.591L71.049 14.1875C71.0601 14.2231 71.0722 14.2583 71.0853 14.2932L72.958 13.591ZM72.478 12.751L70.9512 14.0429C70.9683 14.0631 70.9858 14.0829 71.0037 14.1024L72.478 12.751ZM71.668 12.151L70.7268 13.9157C70.7724 13.94 70.819 13.9626 70.8663 13.9833L71.668 12.151ZM68.698 12.691L67.2 11.3658C67.1903 11.3768 67.1807 11.3879 67.1712 11.3991L68.698 12.691ZM68.128 15.601V17.601C68.7078 17.601 69.259 17.3494 69.6389 16.9114C70.0187 16.4734 70.1899 15.8921 70.1079 15.3181L68.128 15.601ZM61.708 15.601H59.708C59.708 16.7055 60.6034 17.601 61.708 17.601V15.601ZM62.338 12.001L60.4858 11.2464C60.4818 11.2563 60.4778 11.2662 60.474 11.2761L62.338 12.001ZM64.168 9.21098L65.5822 10.6252V10.6252L64.168 9.21098ZM66.928 7.41098L66.2031 5.54693L66.1912 5.55161L66.928 7.41098ZM73.948 7.38098L73.2418 9.25221L73.2533 9.25647L73.948 7.38098ZM76.738 9.06098L75.3814 10.5306L76.738 9.06098ZM78.568 11.641L76.7373 12.4465C76.7394 12.451 76.7414 12.4556 76.7434 12.4602L78.568 11.641ZM78.418 18.301L76.6359 17.3931C76.6336 17.3976 76.6314 17.4021 76.6291 17.4065L78.418 18.301ZM75.898 21.511L77.2647 22.9712L77.2742 22.9622L75.898 21.511ZM72.148 25.021L70.7813 23.5608C70.1819 24.1218 69.9862 24.9921 70.2878 25.7557C70.5894 26.5193 71.327 27.021 72.148 27.021V25.021ZM79.468 25.021H81.468C81.468 23.9164 80.5725 23.021 79.468 23.021V25.021ZM79.468 30.001V28.001H61.258V30.001V32.001H79.468V30.001ZM61.258 30.001L62.6979 31.389L68.3079 25.569L66.868 24.181L65.428 22.793L59.818 28.613L61.258 30.001ZM66.868 24.181L68.31 25.5668C69.812 24.0039 71.0202 22.6529 71.9155 21.5231L70.348 20.281L68.7805 19.0388C67.9958 20.029 66.8839 21.278 65.4259 22.7951L66.868 24.181ZM70.348 20.281L71.9267 21.5089C72.7981 20.3885 73.4927 19.3801 73.9674 18.502L72.208 17.551L70.4486 16.5999C70.1232 17.2018 69.5779 18.0135 68.7693 19.0531L70.348 20.281ZM72.208 17.551L73.9473 18.5382C74.4003 17.74 74.778 16.9318 74.9423 16.1758L72.988 15.751L71.0336 15.3261C70.998 15.4902 70.8556 15.8819 70.4686 16.5638L72.208 17.551ZM72.988 15.751L74.9423 16.1758C75.0599 15.635 75.138 15.0935 75.138 14.581H73.138H71.138C71.138 14.7084 71.1161 14.9469 71.0336 15.3261L72.988 15.751ZM73.138 14.581H75.138C75.138 13.9999 75.0344 13.4321 74.8306 12.8887L72.958 13.591L71.0853 14.2932C71.1215 14.3899 71.138 14.4821 71.138 14.581H73.138ZM72.958 13.591L74.8669 12.9944C74.682 12.4025 74.3769 11.8627 73.9523 11.3995L72.478 12.751L71.0037 14.1024C71.0191 14.1192 71.034 14.1394 71.049 14.1875L72.958 13.591ZM72.478 12.751L74.0047 11.4591C73.5823 10.9599 73.062 10.5778 72.4696 10.3187L71.668 12.151L70.8663 13.9833C70.9139 14.0041 70.9336 14.0221 70.9512 14.0429L72.478 12.751ZM71.668 12.151L72.6091 10.3863C71.959 10.0395 71.2601 9.91098 70.588 9.91098V11.911V13.911C70.7558 13.911 70.7769 13.9424 70.7268 13.9157L71.668 12.151ZM70.588 11.911V9.91098C69.3115 9.91098 68.0992 10.3494 67.2 11.3658L68.698 12.691L70.196 14.0161C70.2279 13.98 70.2505 13.9662 70.2784 13.9547C70.3132 13.9404 70.4049 13.911 70.588 13.911V11.911ZM68.698 12.691L67.1712 11.3991C66.3817 12.3321 66.038 13.4606 66.038 14.641H68.038H70.038C70.038 14.2613 70.1342 14.0899 70.2247 13.9829L68.698 12.691ZM68.038 14.641H66.038C66.038 15.0063 66.0846 15.4392 66.1481 15.8838L68.128 15.601L70.1079 15.3181C70.0514 14.9228 70.038 14.7157 70.038 14.641H68.038ZM68.128 15.601V13.601H61.708V15.601V17.601H68.128V15.601ZM61.708 15.601H63.708C63.708 14.4948 63.8835 13.5449 64.202 12.7259L62.338 12.001L60.474 11.2761C59.9525 12.617 59.708 14.0672 59.708 15.601H61.708ZM62.338 12.001L64.1902 12.7556C64.5354 11.9081 65.0013 11.206 65.5822 10.6252L64.168 9.21098L62.7538 7.79676C61.7746 8.7759 61.0205 9.93386 60.4858 11.2464L62.338 12.001ZM64.168 9.21098L65.5822 10.6252C66.1626 10.0448 66.8498 9.59322 67.6647 9.27034L66.928 7.41098L66.1912 5.55161C64.8861 6.06873 63.7334 6.81715 62.7538 7.79676L64.168 9.21098ZM66.928 7.41098L67.6529 9.27499C68.4788 8.9538 69.41 8.78098 70.468 8.78098V6.78098V4.78098C68.9659 4.78098 67.5372 5.02815 66.2031 5.54697L66.928 7.41098ZM70.468 6.78098V8.78098C71.5137 8.78098 72.4314 8.94636 73.2419 9.25218L73.948 7.38098L74.6541 5.50977C73.3445 5.01559 71.9422 4.78098 70.468 4.78098V6.78098ZM73.948 7.38098L73.2533 9.25647C74.1093 9.57349 74.8092 10.0024 75.3814 10.5306L76.738 9.06098L78.0945 7.59137C77.1067 6.67957 75.9467 5.98847 74.6426 5.50548L73.948 7.38098ZM76.738 9.06098L75.3814 10.5306C75.9535 11.0586 76.4047 11.6905 76.7373 12.4465L78.568 11.641L80.3986 10.8355C79.8512 9.59143 79.0825 8.50332 78.0945 7.59137L76.738 9.06098ZM78.568 11.641L76.7434 12.4602C77.0588 13.1625 77.228 13.9505 77.228 14.851H79.228H81.228C81.228 13.4314 80.9572 12.0795 80.3925 10.8218L78.568 11.641ZM79.228 14.851H77.228C77.228 15.7892 77.0265 16.6263 76.6359 17.3931L78.418 18.301L80.2 19.2088C80.8894 17.8556 81.228 16.3928 81.228 14.851H79.228ZM78.418 18.301L76.6291 17.4065C76.2442 18.1764 75.5717 19.0641 74.5218 20.0597L75.898 21.511L77.2742 22.9622C78.5442 21.7578 79.5518 20.5055 80.2068 19.1954L78.418 18.301ZM75.898 21.511L74.5313 20.0508L70.7813 23.5608L72.148 25.021L73.5147 26.4811L77.2647 22.9711L75.898 21.511ZM72.148 25.021V27.021H79.468V25.021V23.021H72.148V25.021ZM79.468 25.021H77.468V30.001H79.468H81.468V25.021H79.468ZM87.4986 21.391L85.5451 21.8198V21.8198L87.4986 21.391ZM88.2486 23.521L86.4839 24.4622C86.4919 24.4772 86.5001 24.4922 86.5085 24.507L88.2486 23.521ZM89.4486 24.931L88.2598 26.5393C88.2752 26.5507 88.2908 26.5619 88.3065 26.5728L89.4486 24.931ZM92.5386 24.931L93.6807 26.5728C93.6854 26.5696 93.69 26.5663 93.6946 26.563L92.5386 24.931ZM94.4886 21.391L96.4421 21.8198L94.4886 21.391ZM94.4886 15.961L92.533 16.38L92.5351 16.3898L94.4886 15.961ZM93.7386 13.831L91.9739 14.7722C91.9783 14.7805 91.9829 14.7888 91.9874 14.7971L93.7386 13.831ZM92.5386 12.451L91.3498 14.0593C91.3758 14.0785 91.4023 14.0971 91.4292 14.1151L92.5386 12.451ZM89.4486 12.451L90.5907 14.0928C90.6064 14.0819 90.622 14.0707 90.6374 14.0593L89.4486 12.451ZM88.2486 13.831L86.5085 12.8449C86.5048 12.8516 86.5011 12.8582 86.4974 12.8648L88.2486 13.831ZM87.4986 15.961L89.4521 16.3898L89.4542 16.38L87.4986 15.961ZM82.0986 13.771L80.1961 13.154C80.1944 13.1593 80.1927 13.1646 80.191 13.17L82.0986 13.771ZM84.0786 9.99097L82.5373 8.71645C82.5324 8.72237 82.5275 8.72832 82.5227 8.7343L84.0786 9.99097ZM87.1086 7.59098L87.9781 9.39208C87.9823 9.39003 87.9866 9.38796 87.9908 9.38587L87.1086 7.59098ZM94.8786 7.59098L93.9964 9.38587C94.0046 9.38991 94.0128 9.3939 94.0211 9.39783L94.8786 7.59098ZM97.9086 9.99097L99.4645 8.7343V8.7343L97.9086 9.99097ZM99.8586 13.771L97.9487 14.3646C97.9519 14.375 97.9552 14.3853 97.9586 14.3956L99.8586 13.771ZM99.8586 23.581L97.9562 22.964C97.9544 22.9693 97.9527 22.9746 97.951 22.98L99.8586 23.581ZM97.9086 27.361L99.4645 28.6177C99.4684 28.6128 99.4722 28.608 99.4761 28.6031L97.9086 27.361ZM94.8786 29.791L95.7361 31.5978C95.7444 31.5939 95.7526 31.5899 95.7608 31.5859L94.8786 29.791ZM87.1086 29.791L86.2142 31.5798C86.2264 31.586 86.2387 31.592 86.2511 31.5978L87.1086 29.791ZM84.0786 27.361L82.5111 28.6031C82.5197 28.614 82.5285 28.6248 82.5373 28.6355L84.0786 27.361ZM82.0986 23.581L80.1887 24.1746C80.1919 24.185 80.1952 24.1953 80.1986 24.2056L82.0986 23.581ZM87.2286 18.661H85.2286C85.2286 19.7787 85.329 20.8352 85.5451 21.8198L87.4986 21.391L89.4521 20.9622C89.3082 20.3067 89.2286 19.5433 89.2286 18.661H87.2286ZM87.4986 21.391L85.5451 21.8198C85.7555 22.7784 86.0605 23.6682 86.4839 24.4622L88.2486 23.521L90.0133 22.5798C89.7967 22.1737 89.6017 21.6436 89.4521 20.9622L87.4986 21.391ZM88.2486 23.521L86.5085 24.507C86.9588 25.3016 87.5331 26.0022 88.2598 26.5393L89.4486 24.931L90.6374 23.3226C90.4441 23.1798 90.2184 22.9404 89.9886 22.535L88.2486 23.521ZM89.4486 24.931L88.3065 26.5728C89.114 27.1345 90.0355 27.411 91.0086 27.411V25.411V23.411C90.8217 23.411 90.7032 23.3674 90.5907 23.2892L89.4486 24.931ZM91.0086 25.411V27.411C91.9772 27.411 92.8857 27.1258 93.6807 26.5728L92.5386 24.931L91.3965 23.2892C91.2715 23.3761 91.16 23.411 91.0086 23.411V25.411ZM92.5386 24.931L93.6946 26.563C94.4654 26.0171 95.0598 25.2938 95.5033 24.4622L93.7386 23.521L91.9739 22.5798C91.7774 22.9482 91.5718 23.1649 91.3826 23.2989L92.5386 24.931ZM93.7386 23.521L95.5033 24.4622C95.9267 23.6682 96.2317 22.7784 96.4421 21.8198L94.4886 21.391L92.5351 20.9622C92.3855 21.6436 92.1905 22.1737 91.9739 22.5798L93.7386 23.521ZM94.4886 21.391L96.4421 21.8198C96.6582 20.8352 96.7586 19.7787 96.7586 18.661H94.7586H92.7586C92.7586 19.5433 92.679 20.3067 92.5351 20.9622L94.4886 21.391ZM94.7586 18.661H96.7586C96.7586 17.5601 96.6576 16.5141 96.4421 15.5322L94.4886 15.961L92.5351 16.3898C92.6796 17.0479 92.7586 17.8018 92.7586 18.661H94.7586ZM94.4886 15.961L96.4442 15.5419C96.2347 14.564 95.9275 13.6583 95.4897 12.8648L93.7386 13.831L91.9874 14.7971C92.1897 15.1636 92.3825 15.6779 92.533 16.38L94.4886 15.961ZM93.7386 13.831L95.5033 12.8898C95.0557 12.0505 94.448 11.3202 93.648 10.7869L92.5386 12.451L91.4292 14.1151C91.5892 14.2217 91.7815 14.4114 91.9739 14.7722L93.7386 13.831ZM92.5386 12.451L93.7274 10.8426C92.9312 10.2541 92.0063 9.94098 91.0086 9.94098V11.941V13.941C91.1309 13.941 91.226 13.9678 91.3498 14.0593L92.5386 12.451ZM91.0086 11.941V9.94098C90.0071 9.94098 89.0691 10.2445 88.2598 10.8426L89.4486 12.451L90.6374 14.0593C90.7481 13.9775 90.8501 13.941 91.0086 13.941V11.941ZM89.4486 12.451L88.3065 10.8092C87.5505 11.3351 86.9629 12.0432 86.5085 12.8449L88.2486 13.831L89.9886 14.817C90.2143 14.4187 90.4267 14.2069 90.5907 14.0928L89.4486 12.451ZM88.2486 13.831L86.4974 12.8648C86.0597 13.6583 85.7525 14.564 85.543 15.5419L87.4986 15.961L89.4542 16.38C89.6047 15.6779 89.7975 15.1636 89.9997 14.7971L88.2486 13.831ZM87.4986 15.961L85.5451 15.5322C85.3296 16.5141 85.2286 17.5601 85.2286 18.661H87.2286H89.2286C89.2286 17.8018 89.3076 17.0479 89.4521 16.3898L87.4986 15.961ZM81.4086 18.661H83.4086C83.4086 17.03 83.6171 15.6068 84.0062 14.372L82.0986 13.771L80.191 13.17C79.6601 14.8551 79.4086 16.692 79.4086 18.661H81.4086ZM82.0986 13.771L84.001 14.388C84.4178 13.1031 84.9711 12.069 85.6345 11.2476L84.0786 9.99097L82.5227 8.7343C81.5061 9.99297 80.7394 11.4788 80.1961 13.154L82.0986 13.771ZM84.0786 9.99097L85.6199 11.2655C86.3054 10.4365 87.0897 9.82098 87.9781 9.39208L87.1086 7.59098L86.2391 5.78987C84.8075 6.48098 83.5718 7.46545 82.5373 8.71645L84.0786 9.99097ZM87.1086 7.59098L87.9908 9.38587C88.8748 8.9514 89.8695 8.72098 91.0086 8.72098V6.72098V4.72098C89.3076 4.72098 87.7024 5.07055 86.2264 5.79608L87.1086 7.59098ZM91.0086 6.72098V8.72098C92.123 8.72098 93.1085 8.94948 93.9964 9.38587L94.8786 7.59098L95.7608 5.79608C94.2887 5.07247 92.6942 4.72098 91.0086 4.72098V6.72098ZM94.8786 7.59098L94.0211 9.39783C94.9235 9.82607 95.6967 10.4354 96.3527 11.2477L97.9086 9.99097L99.4645 8.7343C98.4405 7.4665 97.1937 6.47588 95.7361 5.78412L94.8786 7.59098ZM97.9086 9.99097L96.3527 11.2476C97.0107 12.0623 97.552 13.0881 97.9487 14.3646L99.8586 13.771L101.768 13.1774C101.245 11.4939 100.487 9.99968 99.4645 8.7343L97.9086 9.99097ZM99.8586 13.771L97.9586 14.3956C98.3621 15.6229 98.5786 17.0377 98.5786 18.661H100.579H102.579C102.579 16.6842 102.315 14.839 101.759 13.1463L99.8586 13.771ZM100.579 18.661H98.5786C98.5786 20.2836 98.3623 21.7117 97.9562 22.964L99.8586 23.581L101.761 24.198C102.315 22.4902 102.579 20.6383 102.579 18.661H100.579ZM99.8586 23.581L97.951 22.98C97.5548 24.2377 97.011 25.2735 96.3411 26.1188L97.9086 27.361L99.4761 28.6031C100.486 27.3285 101.242 25.8442 101.766 24.182L99.8586 23.581ZM97.9086 27.361L96.3527 26.1043C95.6923 26.922 94.9109 27.5466 93.9964 27.9961L94.8786 29.791L95.7608 31.5859C97.2063 30.8754 98.4449 29.88 99.4645 28.6177L97.9086 27.361ZM94.8786 29.791L94.0211 27.9841C93.128 28.408 92.1337 28.631 91.0086 28.631V30.631V32.631C92.6835 32.631 94.2692 32.294 95.7361 31.5978L94.8786 29.791ZM91.0086 30.631V28.631C89.859 28.631 88.8554 28.4062 87.9661 27.9841L87.1086 29.791L86.2511 31.5978C87.7218 32.2958 89.3182 32.631 91.0086 32.631V30.631ZM87.1086 29.791L88.003 28.0021C87.1022 27.5517 86.3098 26.9207 85.6199 26.0864L84.0786 27.361L82.5373 28.6355C83.5674 29.8812 84.795 30.8702 86.2142 31.5798L87.1086 29.791ZM84.0786 27.361L85.6461 26.1188C84.9709 25.2668 84.4149 24.2227 83.9985 22.9563L82.0986 23.581L80.1986 24.2056C80.7423 25.8593 81.5063 27.3351 82.5111 28.6031L84.0786 27.361ZM82.0986 23.581L84.0085 22.9874C83.6169 21.7277 83.4086 20.2914 83.4086 18.661H81.4086H79.4086C79.4086 20.6305 79.6602 22.4743 80.1887 24.1746L82.0986 23.581ZM107.889 21.391L105.936 21.8198V21.8198L107.889 21.391ZM108.639 23.521L106.875 24.4622C106.883 24.4772 106.891 24.4922 106.899 24.507L108.639 23.521ZM109.839 24.931L108.65 26.5393C108.666 26.5507 108.681 26.5619 108.697 26.5728L109.839 24.931ZM112.929 24.931L114.071 26.5728C114.076 26.5696 114.081 26.5663 114.085 26.563L112.929 24.931ZM114.879 21.391L116.833 21.8198L114.879 21.391ZM114.879 15.961L112.924 16.38L112.926 16.3898L114.879 15.961ZM114.129 13.831L112.365 14.7722C112.369 14.7805 112.373 14.7888 112.378 14.7971L114.129 13.831ZM112.929 12.451L111.74 14.0593C111.766 14.0785 111.793 14.0971 111.82 14.1151L112.929 12.451ZM109.839 12.451L110.981 14.0928C110.997 14.0819 111.013 14.0707 111.028 14.0593L109.839 12.451ZM108.639 13.831L106.899 12.8449C106.895 12.8516 106.892 12.8582 106.888 12.8648L108.639 13.831ZM107.889 15.961L109.843 16.3898L109.845 16.38L107.889 15.961ZM102.489 13.771L100.587 13.154C100.585 13.1593 100.583 13.1646 100.582 13.17L102.489 13.771ZM104.469 9.99097L102.928 8.71645C102.923 8.72237 102.918 8.72832 102.913 8.7343L104.469 9.99097ZM107.499 7.59098L108.369 9.39208C108.373 9.39003 108.377 9.38796 108.381 9.38587L107.499 7.59098ZM115.269 7.59098L114.387 9.38587C114.395 9.38991 114.403 9.3939 114.412 9.39783L115.269 7.59098ZM118.299 9.99097L119.855 8.7343V8.7343L118.299 9.99097ZM120.249 13.771L118.339 14.3646C118.343 14.375 118.346 14.3853 118.349 14.3956L120.249 13.771ZM120.249 23.581L118.347 22.964C118.345 22.9693 118.343 22.9746 118.342 22.98L120.249 23.581ZM118.299 27.361L119.855 28.6177C119.859 28.6128 119.863 28.608 119.867 28.6031L118.299 27.361ZM115.269 29.791L116.127 31.5978C116.135 31.5939 116.143 31.5899 116.151 31.5859L115.269 29.791ZM107.499 29.791L106.605 31.5798C106.617 31.586 106.629 31.592 106.642 31.5978L107.499 29.791ZM104.469 27.361L102.902 28.6031C102.91 28.614 102.919 28.6248 102.928 28.6355L104.469 27.361ZM102.489 23.581L100.579 24.1746C100.583 24.185 100.586 24.1953 100.589 24.2056L102.489 23.581ZM107.619 18.661H105.619C105.619 19.7787 105.72 20.8352 105.936 21.8198L107.889 21.391L109.843 20.9622C109.699 20.3067 109.619 19.5433 109.619 18.661H107.619ZM107.889 21.391L105.936 21.8198C106.146 22.7784 106.451 23.6682 106.875 24.4622L108.639 23.521L110.404 22.5798C110.187 22.1737 109.992 21.6436 109.843 20.9622L107.889 21.391ZM108.639 23.521L106.899 24.507C107.349 25.3016 107.924 26.0022 108.65 26.5393L109.839 24.931L111.028 23.3226C110.835 23.1798 110.609 22.9404 110.379 22.535L108.639 23.521ZM109.839 24.931L108.697 26.5728C109.505 27.1345 110.426 27.411 111.399 27.411V25.411V23.411C111.212 23.411 111.094 23.3674 110.981 23.2892L109.839 24.931ZM111.399 25.411V27.411C112.368 27.411 113.276 27.1258 114.071 26.5728L112.929 24.931L111.787 23.2892C111.662 23.3761 111.551 23.411 111.399 23.411V25.411ZM112.929 24.931L114.085 26.563C114.856 26.0171 115.45 25.2938 115.894 24.4622L114.129 23.521L112.365 22.5798C112.168 22.9482 111.962 23.1649 111.773 23.2989L112.929 24.931ZM114.129 23.521L115.894 24.4622C116.317 23.6682 116.622 22.7784 116.833 21.8198L114.879 21.391L112.926 20.9622C112.776 21.6436 112.581 22.1737 112.365 22.5798L114.129 23.521ZM114.879 21.391L116.833 21.8198C117.049 20.8352 117.149 19.7787 117.149 18.661H115.149H113.149C113.149 19.5433 113.07 20.3067 112.926 20.9622L114.879 21.391ZM115.149 18.661H117.149C117.149 17.5601 117.048 16.5141 116.833 15.5322L114.879 15.961L112.926 16.3898C113.07 17.0479 113.149 17.8018 113.149 18.661H115.149ZM114.879 15.961L116.835 15.5419C116.625 14.564 116.318 13.6583 115.88 12.8648L114.129 13.831L112.378 14.7971C112.58 15.1636 112.773 15.6779 112.924 16.38L114.879 15.961ZM114.129 13.831L115.894 12.8898C115.446 12.0505 114.839 11.3202 114.039 10.7869L112.929 12.451L111.82 14.1151C111.98 14.2217 112.172 14.4114 112.365 14.7722L114.129 13.831ZM112.929 12.451L114.118 10.8426C113.322 10.2541 112.397 9.94098 111.399 9.94098V11.941V13.941C111.521 13.941 111.617 13.9678 111.74 14.0593L112.929 12.451ZM111.399 11.941V9.94098C110.398 9.94098 109.46 10.2445 108.65 10.8426L109.839 12.451L111.028 14.0593C111.139 13.9775 111.241 13.941 111.399 13.941V11.941ZM109.839 12.451L108.697 10.8092C107.941 11.3351 107.353 12.0432 106.899 12.8449L108.639 13.831L110.379 14.817C110.605 14.4187 110.817 14.2069 110.981 14.0928L109.839 12.451ZM108.639 13.831L106.888 12.8648C106.45 13.6583 106.143 14.564 105.934 15.5419L107.889 15.961L109.845 16.38C109.995 15.6779 110.188 15.1636 110.39 14.7971L108.639 13.831ZM107.889 15.961L105.936 15.5322C105.72 16.5141 105.619 17.5601 105.619 18.661H107.619H109.619C109.619 17.8018 109.698 17.0479 109.843 16.3898L107.889 15.961ZM101.799 18.661H103.799C103.799 17.03 104.008 15.6068 104.397 14.372L102.489 13.771L100.582 13.17C100.051 14.8551 99.7992 16.692 99.7992 18.661H101.799ZM102.489 13.771L104.392 14.388C104.808 13.1031 105.362 12.069 106.025 11.2476L104.469 9.99097L102.913 8.7343C101.897 9.99297 101.13 11.4788 100.587 13.154L102.489 13.771ZM104.469 9.99097L106.011 11.2655C106.696 10.4365 107.48 9.82098 108.369 9.39208L107.499 7.59098L106.63 5.78987C105.198 6.48098 103.962 7.46545 102.928 8.71645L104.469 9.99097ZM107.499 7.59098L108.381 9.38587C109.265 8.9514 110.26 8.72098 111.399 8.72098V6.72098V4.72098C109.698 4.72098 108.093 5.07055 106.617 5.79608L107.499 7.59098ZM111.399 6.72098V8.72098C112.514 8.72098 113.499 8.94948 114.387 9.38587L115.269 7.59098L116.151 5.79608C114.679 5.07247 113.085 4.72098 111.399 4.72098V6.72098ZM115.269 7.59098L114.412 9.39783C115.314 9.82607 116.087 10.4354 116.743 11.2477L118.299 9.99097L119.855 8.7343C118.831 7.4665 117.584 6.47588 116.127 5.78412L115.269 7.59098ZM118.299 9.99097L116.743 11.2476C117.401 12.0623 117.943 13.0881 118.339 14.3646L120.249 13.771L122.159 13.1774C121.636 11.4939 120.877 9.99968 119.855 8.7343L118.299 9.99097ZM120.249 13.771L118.349 14.3956C118.753 15.6229 118.969 17.0377 118.969 18.661H120.969H122.969C122.969 16.6842 122.706 14.839 122.149 13.1463L120.249 13.771ZM120.969 18.661H118.969C118.969 20.2836 118.753 21.7117 118.347 22.964L120.249 23.581L122.152 24.198C122.706 22.4902 122.969 20.6383 122.969 18.661H120.969ZM120.249 23.581L118.342 22.98C117.945 24.2377 117.402 25.2735 116.732 26.1188L118.299 27.361L119.867 28.6031C120.877 27.3285 121.633 25.8442 122.157 24.182L120.249 23.581ZM118.299 27.361L116.743 26.1043C116.083 26.922 115.301 27.5466 114.387 27.9961L115.269 29.791L116.151 31.5859C117.597 30.8754 118.836 29.88 119.855 28.6177L118.299 27.361ZM115.269 29.791L114.412 27.9841C113.519 28.408 112.524 28.631 111.399 28.631V30.631V32.631C113.074 32.631 114.66 32.294 116.127 31.5978L115.269 29.791ZM111.399 30.631V28.631C110.25 28.631 109.246 28.4062 108.357 27.9841L107.499 29.791L106.642 31.5978C108.112 32.2958 109.709 32.631 111.399 32.631V30.631ZM107.499 29.791L108.394 28.0021C107.493 27.5517 106.7 26.9207 106.011 26.0864L104.469 27.361L102.928 28.6355C103.958 29.8812 105.186 30.8702 106.605 31.5798L107.499 29.791ZM104.469 27.361L106.037 26.1188C105.362 25.2668 104.806 24.2227 104.389 22.9563L102.489 23.581L100.589 24.2056C101.133 25.8593 101.897 27.3351 102.902 28.6031L104.469 27.361ZM102.489 23.581L104.399 22.9874C104.008 21.7277 103.799 20.2914 103.799 18.661H101.799H99.7992C99.7992 20.6305 100.051 22.4743 100.579 24.1746L102.489 23.581ZM137.39 28.501V30.501C138.494 30.501 139.39 29.6055 139.39 28.501H137.39ZM137.39 25.161H139.39C139.39 24.0564 138.494 23.161 137.39 23.161V25.161ZM131.67 25.161V23.161C130.565 23.161 129.67 24.0564 129.67 25.161H131.67ZM131.67 28.501H129.67C129.67 29.6055 130.565 30.501 131.67 30.501V28.501ZM123.37 25.741L122.782 23.8294C122.117 24.0339 121.606 24.569 121.433 25.2424C121.26 25.9159 121.449 26.631 121.932 27.131L123.37 25.741ZM129.79 22.461L131.006 24.0487C131.445 23.7128 131.725 23.2105 131.78 22.6608C131.835 22.1111 131.66 21.5631 131.297 21.1467L129.79 22.461ZM127.23 20.021L128.537 18.5073C127.808 17.8775 126.733 17.8572 125.98 18.4592L127.23 20.021ZM125.31 21.381L123.562 22.3523C123.83 22.8363 124.288 23.1872 124.825 23.3214C125.363 23.4556 125.931 23.3609 126.396 23.0601L125.31 21.381ZM123.37 19.081L122.414 17.3243C121.822 17.6465 121.432 18.2449 121.377 18.9164C121.321 19.5879 121.608 20.2422 122.139 20.657L123.37 19.081ZM129.71 12.761L130.117 10.8028C129.228 10.6182 128.327 11.0549 127.921 11.8665L129.71 12.761ZM132.79 13.401L134.564 14.3237C134.853 13.768 134.865 13.1091 134.597 12.5433C134.328 11.9775 133.81 11.5702 133.197 11.4428L132.79 13.401ZM131.93 14.841L130.255 13.7484C129.854 14.3632 129.822 15.1482 130.171 15.7936C130.521 16.4389 131.196 16.841 131.93 16.841V14.841ZM135.65 14.841V16.841C135.847 16.841 136.043 16.8118 136.232 16.7543L135.65 14.841ZM136.11 14.701L137.076 12.9501C136.603 12.6889 136.045 12.6303 135.528 12.7876L136.11 14.701ZM138.03 15.761L139.918 16.4191C140.239 15.4987 139.85 14.4812 138.996 14.0101L138.03 15.761ZM133.99 22.541L132.522 21.1825C131.982 21.7658 131.839 22.6136 132.157 23.3419C132.476 24.0703 133.195 24.541 133.99 24.541V22.541ZM140.27 22.541H142.27C142.27 21.4364 141.374 20.541 140.27 20.541V22.541ZM140.27 31.901V33.901C141.374 33.901 142.27 33.0055 142.27 31.901H140.27ZM137.39 31.901H135.39C135.39 33.0055 136.285 33.901 137.39 33.901V31.901ZM137.39 31.121H139.39C139.39 30.0164 138.494 29.121 137.39 29.121V31.121ZM131.67 31.121V29.121C130.565 29.121 129.67 30.0164 129.67 31.121H131.67ZM131.67 31.881V33.881C132.774 33.881 133.67 32.9855 133.67 31.881H131.67ZM128.91 31.881H126.91C126.91 32.9855 127.805 33.881 128.91 33.881V31.881ZM128.91 26.541H130.91C130.91 25.8256 130.528 25.1646 129.908 24.8077C129.288 24.4508 128.524 24.4522 127.906 24.8114L128.91 26.541ZM124.99 28.341L123.149 29.1233C123.566 30.1044 124.679 30.586 125.68 30.2181L124.99 28.341ZM129.33 18.141L127.857 16.7877C127.478 17.2001 127.29 17.7525 127.337 18.3105C127.385 18.8685 127.664 19.3811 128.107 19.7235L129.33 18.141ZM132.03 20.441L130.616 21.8552C130.999 22.2385 131.521 22.4498 132.064 22.4407C132.606 22.4316 133.121 22.2028 133.491 21.8067L132.03 20.441ZM134.23 17.401L135.986 18.3587C136.324 17.739 136.31 16.987 135.95 16.38C135.589 15.7731 134.936 15.401 134.23 15.401V17.401ZM130.01 17.401V15.401C129.45 15.401 128.916 15.6356 128.537 16.0477L130.01 17.401ZM137.39 28.501H139.39V25.161H137.39H135.39V28.501H137.39ZM137.39 25.161V23.161H131.67V25.161V27.161H137.39V25.161ZM131.67 25.161H129.67V28.501H131.67H133.67V25.161H131.67ZM131.67 28.501V30.501H137.39V28.501V26.501H131.67V28.501ZM123.37 25.741L123.958 27.6525C126.514 26.866 128.929 25.6398 131.006 24.0487L129.79 22.461L128.574 20.8732C126.891 22.1622 124.906 23.1759 122.782 23.8294L123.37 25.741ZM129.79 22.461L131.297 21.1467C130.514 20.2485 129.416 19.2666 128.537 18.5073L127.23 20.021L125.923 21.5346C126.803 22.2954 127.705 23.1135 128.282 23.7752L129.79 22.461ZM127.23 20.021L125.98 18.4592C125.454 18.8802 124.876 19.2793 124.223 19.7018L125.31 21.381L126.396 23.0601C127.103 22.6027 127.805 22.1218 128.479 21.5827L127.23 20.021ZM125.31 21.381L127.058 20.4097C126.54 19.4763 125.47 18.1839 124.601 17.5049L123.37 19.081L122.139 20.657C122.55 20.9781 123.28 21.8457 123.562 22.3523L125.31 21.381ZM123.37 19.081L124.326 20.8376C127.843 18.9235 130.195 16.2637 131.499 13.6554L129.71 12.761L127.921 11.8665C126.985 13.7382 125.217 15.7985 122.414 17.3243L123.37 19.081ZM129.71 12.761L129.303 14.7191L132.383 15.3591L132.79 13.401L133.197 11.4428L130.117 10.8028L129.71 12.761ZM132.79 13.401L131.015 12.4783C130.801 12.8903 130.544 13.3054 130.255 13.7484L131.93 14.841L133.605 15.9335C133.916 15.4565 134.259 14.9116 134.564 14.3237L132.79 13.401ZM131.93 14.841V16.841H135.65V14.841V12.841H131.93V14.841ZM135.65 14.841L136.232 16.7543L136.692 16.6143L136.11 14.701L135.528 12.7876L135.068 12.9276L135.65 14.841ZM136.11 14.701L135.143 16.4519L137.063 17.5119L138.03 15.761L138.996 14.0101L137.076 12.9501L136.11 14.701ZM138.03 15.761L136.141 15.1028C135.311 17.4853 134.073 19.5064 132.522 21.1825L133.99 22.541L135.458 23.8995C137.386 21.8156 138.909 19.3166 139.918 16.4191L138.03 15.761ZM133.99 22.541V24.541H140.27V22.541V20.541H133.99V22.541ZM140.27 22.541H138.27V31.901H140.27H142.27V22.541H140.27ZM140.27 31.901V29.901H137.39V31.901V33.901H140.27V31.901ZM137.39 31.901H139.39V31.121H137.39H135.39V31.901H137.39ZM137.39 31.121V29.121H131.67V31.121V33.121H137.39V31.121ZM131.67 31.121H129.67V31.881H131.67H133.67V31.121H131.67ZM131.67 31.881V29.881H128.91V31.881V33.881H131.67V31.881ZM128.91 31.881H130.91V26.541H128.91H126.91V31.881H128.91ZM128.91 26.541L127.906 24.8114C126.793 25.4572 125.586 25.9911 124.3 26.4638L124.99 28.341L125.68 30.2181C127.114 29.6909 128.546 29.0648 129.914 28.2706L128.91 26.541ZM124.99 28.341L126.831 27.5587C126.438 26.6348 125.621 25.1921 124.808 24.3509L123.37 25.741L121.932 27.131C122.279 27.4898 122.862 28.4471 123.149 29.1233L124.99 28.341ZM129.33 18.141L128.107 19.7235C128.976 20.3953 129.951 21.1906 130.616 21.8552L132.03 20.441L133.444 19.0268C132.589 18.1713 131.443 17.2466 130.553 16.5584L129.33 18.141ZM132.03 20.441L133.491 21.8067C134.464 20.7661 135.303 19.6094 135.986 18.3587L134.23 17.401L132.474 16.4433C131.956 17.3925 131.316 18.2759 130.569 19.0752L132.03 20.441ZM134.23 17.401V15.401H130.01V17.401V19.401H134.23V17.401ZM130.01 17.401L128.537 16.0477L127.857 16.7877L129.33 18.141L130.802 19.4942L131.482 18.7542L130.01 17.401ZM148.254 25.781L146.387 26.4989C146.655 27.1959 147.289 27.6854 148.031 27.7685C148.773 27.8517 149.5 27.5145 149.915 26.8941L148.254 25.781ZM147.474 23.861L149.32 23.0917C148.953 22.2117 148.016 21.7128 147.082 21.8998C146.147 22.0868 145.474 22.9076 145.474 23.861H147.474ZM147.474 31.901V33.901C148.578 33.901 149.474 33.0055 149.474 31.901H147.474ZM144.974 31.901H142.974C142.974 33.0055 143.869 33.901 144.974 33.901V31.901ZM144.974 25.361H146.974C146.974 24.3801 146.262 23.5439 145.294 23.3868C144.326 23.2297 143.387 23.7979 143.076 24.7285L144.974 25.361ZM143.574 28.441L141.649 28.9839C141.861 29.7373 142.494 30.2975 143.268 30.4174C144.041 30.5373 144.814 30.1948 145.244 29.541L143.574 28.441ZM142.394 25.861L140.743 24.7316C140.314 25.3583 140.277 26.1738 140.648 26.8366L142.394 25.861ZM144.794 19.621L146.751 20.0303C146.875 19.4408 146.726 18.8272 146.346 18.3598C145.966 17.8924 145.396 17.621 144.794 17.621V19.621ZM142.874 19.621H140.874C140.874 20.7255 141.769 21.621 142.874 21.621V19.621ZM142.874 16.941V14.941C141.769 14.941 140.874 15.8364 140.874 16.941H142.874ZM144.974 16.941V18.941C146.078 18.941 146.974 18.0455 146.974 16.941H144.974ZM144.974 12.901V10.901C143.869 10.901 142.974 11.7964 142.974 12.901H144.974ZM147.474 12.901H149.474C149.474 11.7964 148.578 10.901 147.474 10.901V12.901ZM147.474 16.941H145.474C145.474 18.0455 146.369 18.941 147.474 18.941V16.941ZM149.214 16.941H151.214C151.214 15.8364 150.318 14.941 149.214 14.941V16.941ZM149.214 19.621V21.621C150.318 21.621 151.214 20.7255 151.214 19.621H149.214ZM147.474 19.621V17.621C146.369 17.621 145.474 18.5164 145.474 19.621H147.474ZM147.474 20.281H145.474C145.474 20.6926 145.601 21.0941 145.837 21.4309L147.474 20.281ZM149.634 23.721L151.295 24.8341C151.726 24.1906 151.747 23.3561 151.349 22.692L149.634 23.721ZM148.574 28.201L147.774 26.3679C147.275 26.5855 146.887 26.9967 146.698 27.5068C146.509 28.017 146.536 28.582 146.773 29.0717L148.574 28.201ZM152.874 26.061L154.79 25.4878C154.619 24.9169 154.203 24.4518 153.654 24.2194C153.105 23.987 152.481 24.0113 151.952 24.2858L152.874 26.061ZM153.574 28.401L154.597 30.1196C155.385 29.6506 155.753 28.7061 155.49 27.8278L153.574 28.401ZM151.894 29.401L150.871 27.6824C150.121 28.1289 149.747 29.0102 149.947 29.8598C150.147 30.7094 150.875 31.331 151.746 31.3955L151.894 29.401ZM153.614 22.621H155.614C155.614 21.5164 154.718 20.621 153.614 20.621V22.621ZM149.314 22.621H147.314C147.314 23.7255 148.209 24.621 149.314 24.621V22.621ZM149.314 20.281V18.281C148.209 18.281 147.314 19.1764 147.314 20.281H149.314ZM153.614 20.281V22.281C154.718 22.281 155.614 21.3855 155.614 20.281H153.614ZM153.614 19.801H155.614C155.614 18.6964 154.718 17.801 153.614 17.801V19.801ZM150.154 19.801H148.154C148.154 20.9055 149.049 21.801 150.154 21.801V19.801ZM150.154 17.661V15.661C149.049 15.661 148.154 16.5564 148.154 17.661H150.154ZM153.614 17.661V19.661C154.718 19.661 155.614 18.7655 155.614 17.661H153.614ZM153.614 17.221H155.614C155.614 16.1164 154.718 15.221 153.614 15.221V17.221ZM149.674 17.221H147.674C147.674 18.3255 148.569 19.221 149.674 19.221V17.221ZM149.674 14.961V12.961C148.569 12.961 147.674 13.8564 147.674 14.961H149.674ZM151.354 14.961V16.961C152.02 16.961 152.643 16.629 153.014 16.0758C153.386 15.5225 153.457 14.8205 153.205 14.2037L151.354 14.961ZM150.754 13.681L150.095 11.7924C149.532 11.9888 149.086 12.4262 148.879 12.9853C148.671 13.5444 148.724 14.1669 149.023 14.683L150.754 13.681ZM152.934 12.921L154.639 11.8759C154.147 11.0739 153.164 10.7228 152.275 11.0324L152.934 12.921ZM153.934 14.961L152.036 15.5934C152.309 16.4101 153.073 16.961 153.934 16.961V14.961ZM156.074 14.961V16.961C156.876 16.961 157.601 16.481 157.915 15.7421L156.074 14.961ZM156.794 12.861L157.259 10.9158C156.741 10.792 156.195 10.8797 155.743 11.1595C155.29 11.4393 154.967 11.8881 154.846 12.4065L156.794 12.861ZM159.554 13.521L161.257 14.5692C161.593 14.0231 161.647 13.349 161.402 12.7565C161.157 12.164 160.643 11.7249 160.019 11.5758L159.554 13.521ZM158.674 14.961L156.986 13.8872C156.595 14.5031 156.569 15.2835 156.921 15.9234C157.272 16.5633 157.944 16.961 158.674 16.961V14.961ZM160.134 14.961H162.134C162.134 13.8564 161.238 12.961 160.134 12.961V14.961ZM160.134 17.221V19.221C161.238 19.221 162.134 18.3255 162.134 17.221H160.134ZM156.274 17.221V15.221C155.169 15.221 154.274 16.1164 154.274 17.221H156.274ZM156.274 17.661H154.274C154.274 18.7655 155.169 19.661 156.274 19.661V17.661ZM159.754 17.661H161.754C161.754 16.5564 160.858 15.661 159.754 15.661V17.661ZM159.754 19.801V21.801C160.858 21.801 161.754 20.9055 161.754 19.801H159.754ZM156.274 19.801V17.801C155.169 17.801 154.274 18.6964 154.274 19.801H156.274ZM156.274 20.281H154.274C154.274 21.3855 155.169 22.281 156.274 22.281V20.281ZM160.534 20.281H162.534C162.534 19.1764 161.638 18.281 160.534 18.281V20.281ZM160.534 22.621V24.621C161.638 24.621 162.534 23.7255 162.534 22.621H160.534ZM156.274 22.621V20.621C155.169 20.621 154.274 21.5164 154.274 22.621H156.274ZM156.274 23.321H154.274C154.274 23.5447 154.311 23.7668 154.385 23.978L156.274 23.321ZM156.854 24.661L155.082 25.589C155.377 26.1526 155.923 26.5421 156.552 26.6381C157.181 26.7341 157.818 26.5251 158.268 26.0752L156.854 24.661ZM158.434 22.801L159.624 21.1936C159.193 20.8744 158.652 20.7418 158.122 20.8255C157.592 20.9091 157.118 21.2021 156.806 21.6385L158.434 22.801ZM160.514 24.341L161.946 25.7372C162.349 25.3237 162.554 24.7561 162.507 24.1804C162.461 23.6048 162.168 23.0772 161.704 22.7336L160.514 24.341ZM158.154 26.561L156.852 25.0425C156.449 25.3881 156.2 25.8799 156.159 26.4095C156.119 26.9391 156.291 27.4629 156.638 27.8655L158.154 26.561ZM160.894 28.581L162.282 30.0207C162.767 29.5534 162.984 28.8736 162.859 28.212C162.735 27.5503 162.286 26.9955 161.665 26.7358L160.894 28.581ZM159.154 30.941L158.133 32.6611C158.608 32.9425 159.177 33.0155 159.707 32.8628C160.237 32.7101 160.681 32.3453 160.933 31.8546L159.154 30.941ZM156.274 28.001L157.971 26.9435C157.499 26.1857 156.582 25.8326 155.724 26.0781C154.865 26.3236 154.274 27.1082 154.274 28.001H156.274ZM155.394 31.461L156.423 33.176C156.43 33.1715 156.437 33.1671 156.445 33.1626L155.394 31.461ZM152.554 31.941L150.56 32.1026C150.644 33.1411 151.512 33.941 152.554 33.941V31.941ZM151.874 29.421L153.704 28.6137C153.473 28.0899 153.028 27.6903 152.483 27.516C151.938 27.3416 151.344 27.4093 150.852 27.7019L151.874 29.421ZM149.754 30.641L147.953 31.5117C148.192 32.0045 148.621 32.3781 149.143 32.5453C149.664 32.7126 150.231 32.6589 150.711 32.3968L149.754 30.641ZM149.534 24.161L148.396 22.516C147.928 22.8394 147.621 23.3467 147.549 23.9109C147.478 24.4751 147.651 25.043 148.024 25.4723L149.534 24.161ZM151.414 22.861L152.869 21.489C152.191 20.7698 151.089 20.6538 150.276 21.216L151.414 22.861ZM153.274 25.221L154.45 26.8384C155.269 26.2429 155.514 25.1293 155.02 24.2453L153.274 25.221ZM151.294 26.661L149.484 27.5126C149.738 28.0521 150.219 28.4501 150.797 28.5983C151.374 28.7464 151.988 28.6291 152.47 28.2784L151.294 26.661ZM148.254 25.781L150.12 25.063C149.909 24.514 149.619 23.8103 149.32 23.0917L147.474 23.861L145.628 24.6302C145.928 25.3517 146.198 26.008 146.387 26.4989L148.254 25.781ZM147.474 23.861H145.474V31.901H147.474H149.474V23.861H147.474ZM147.474 31.901V29.901H144.974V31.901V33.901H147.474V31.901ZM144.974 31.901H146.974V25.361H144.974H142.974V31.901H144.974ZM144.974 25.361L143.076 24.7285C142.703 25.8481 142.309 26.7256 141.903 27.341L143.574 28.441L145.244 29.541C145.919 28.5163 146.444 27.2738 146.871 25.9934L144.974 25.361ZM143.574 28.441L145.499 27.8981C145.207 26.863 144.513 25.5542 144.14 24.8853L142.394 25.861L140.648 26.8366C141.034 27.5277 141.501 28.459 141.649 28.9839L143.574 28.441ZM142.394 25.861L144.044 26.9903C145.292 25.1671 146.264 22.3621 146.751 20.0303L144.794 19.621L142.836 19.2116C142.404 21.2799 141.576 23.5148 140.743 24.7316L142.394 25.861ZM144.794 19.621V17.621H142.874V19.621V21.621H144.794V19.621ZM142.874 19.621H144.874V16.941H142.874H140.874V19.621H142.874ZM142.874 16.941V18.941H144.974V16.941V14.941H142.874V16.941ZM144.974 16.941H146.974V12.901H144.974H142.974V16.941H144.974ZM144.974 12.901V14.901H147.474V12.901V10.901H144.974V12.901ZM147.474 12.901H145.474V16.941H147.474H149.474V12.901H147.474ZM147.474 16.941V18.941H149.214V16.941V14.941H147.474V16.941ZM149.214 16.941H147.214V19.621H149.214H151.214V16.941H149.214ZM149.214 19.621V17.621H147.474V19.621V21.621H149.214V19.621ZM147.474 19.621H145.474V20.281H147.474H149.474V19.621H147.474ZM147.474 20.281L145.837 21.4309C146.307 22.099 147.606 24.2289 147.919 24.75L149.634 23.721L151.349 22.692C151.061 22.2131 149.681 19.943 149.11 19.1311L147.474 20.281ZM149.634 23.721L147.972 22.6079L146.592 24.6679L148.254 25.781L149.915 26.8941L151.295 24.8341L149.634 23.721ZM148.574 28.201L149.374 30.0341C150.55 29.5206 152.241 28.6424 153.795 27.8361L152.874 26.061L151.952 24.2858C150.346 25.1195 148.797 25.9214 147.774 26.3679L148.574 28.201ZM152.874 26.061L150.958 26.6342L151.658 28.9742L153.574 28.401L155.49 27.8278L154.79 25.4878L152.874 26.061ZM153.574 28.401L152.551 26.6824L150.871 27.6824L151.894 29.401L152.917 31.1196L154.597 30.1196L153.574 28.401ZM151.894 29.401L151.746 31.3955C152.371 31.4418 153.103 31.441 153.314 31.441V29.441V27.441C153.084 27.441 152.496 27.4401 152.041 27.4064L151.894 29.401ZM153.314 29.441V31.441C153.679 31.441 154.435 31.3617 155.029 30.7053C155.58 30.0967 155.614 29.3945 155.614 29.121H153.614H151.614C151.614 29.0674 151.608 28.5253 152.063 28.0217C152.562 27.4703 153.168 27.441 153.314 27.441V29.441ZM153.614 29.121H155.614V22.621H153.614H151.614V29.121H153.614ZM153.614 22.621V20.621H149.314V22.621V24.621H153.614V22.621ZM149.314 22.621H151.314V20.281H149.314H147.314V22.621H149.314ZM149.314 20.281V22.281H153.614V20.281V18.281H149.314V20.281ZM153.614 20.281H155.614V19.801H153.614H151.614V20.281H153.614ZM153.614 19.801V17.801H150.154V19.801V21.801H153.614V19.801ZM150.154 19.801H152.154V17.661H150.154H148.154V19.801H150.154ZM150.154 17.661V19.661H153.614V17.661V15.661H150.154V17.661ZM153.614 17.661H155.614V17.221H153.614H151.614V17.661H153.614ZM153.614 17.221V15.221H149.674V17.221V19.221H153.614V17.221ZM149.674 17.221H151.674V14.961H149.674H147.674V17.221H149.674ZM149.674 14.961V16.961H151.354V14.961V12.961H149.674V14.961ZM151.354 14.961L153.205 14.2037C153.021 13.7547 152.778 13.1858 152.485 12.6789L150.754 13.681L149.023 14.683C149.169 14.9361 149.326 15.2873 149.503 15.7182L151.354 14.961ZM150.754 13.681L151.412 15.5695L153.592 14.8095L152.934 12.921L152.275 11.0324L150.095 11.7924L150.754 13.681ZM152.934 12.921L151.229 13.9661C151.568 14.5199 151.903 15.1946 152.036 15.5934L153.934 14.961L155.831 14.3285C155.564 13.5273 155.06 12.5621 154.639 11.8759L152.934 12.921ZM153.934 14.961V16.961H156.074V14.961V12.961H153.934V14.961ZM156.074 14.961L157.915 15.7421C158.218 15.0276 158.565 14.0707 158.741 13.3154L156.794 12.861L154.846 12.4065C154.742 12.8513 154.489 13.5744 154.233 14.1799L156.074 14.961ZM156.794 12.861L156.329 14.8061L159.089 15.4661L159.554 13.521L160.019 11.5758L157.259 10.9158L156.794 12.861ZM159.554 13.521L157.85 12.4728C157.491 13.0571 157.262 13.4542 156.986 13.8872L158.674 14.961L160.361 16.0347C160.646 15.5877 160.977 15.0248 161.257 14.5692L159.554 13.521ZM158.674 14.961V16.961H160.134V14.961V12.961H158.674V14.961ZM160.134 14.961H158.134V17.221H160.134H162.134V14.961H160.134ZM160.134 17.221V15.221H156.274V17.221V19.221H160.134V17.221ZM156.274 17.221H154.274V17.661H156.274H158.274V17.221H156.274ZM156.274 17.661V19.661H159.754V17.661V15.661H156.274V17.661ZM159.754 17.661H157.754V19.801H159.754H161.754V17.661H159.754ZM159.754 19.801V17.801H156.274V19.801V21.801H159.754V19.801ZM156.274 19.801H154.274V20.281H156.274H158.274V19.801H156.274ZM156.274 20.281V22.281H160.534V20.281V18.281H156.274V20.281ZM160.534 20.281H158.534V22.621H160.534H162.534V20.281H160.534ZM160.534 22.621V20.621H156.274V22.621V24.621H160.534V22.621ZM156.274 22.621H154.274V23.321H156.274H158.274V22.621H156.274ZM156.274 23.321L154.385 23.978C154.577 24.5318 154.817 25.0824 155.082 25.589L156.854 24.661L158.625 23.733C158.451 23.3996 158.29 23.0301 158.163 22.6639L156.274 23.321ZM156.854 24.661L158.268 26.0752C158.928 25.4149 159.599 24.6103 160.061 23.9635L158.434 22.801L156.806 21.6385C156.468 22.1116 155.939 22.747 155.44 23.2468L156.854 24.661ZM158.434 22.801L157.244 24.4084L159.324 25.9484L160.514 24.341L161.704 22.7336L159.624 21.1936L158.434 22.801ZM160.514 24.341L159.082 22.9448C158.343 23.7025 157.506 24.4817 156.852 25.0425L158.154 26.561L159.455 28.0795C160.201 27.4403 161.125 26.5794 161.946 25.7372L160.514 24.341ZM158.154 26.561L156.638 27.8655C157.556 28.9321 158.702 29.8323 160.122 30.4261L160.894 28.581L161.665 26.7358C160.885 26.4097 160.232 25.9099 159.67 25.2565L158.154 26.561ZM160.894 28.581L159.505 27.1413C158.781 27.8395 157.851 29.0989 157.375 30.0274L159.154 30.941L160.933 31.8546C161.216 31.303 161.886 30.4025 162.282 30.0207L160.894 28.581ZM159.154 30.941L160.174 29.2209C159.334 28.7223 158.606 27.9627 157.971 26.9435L156.274 28.001L154.576 29.0585C155.461 30.4792 156.614 31.7596 158.133 32.6611L159.154 30.941ZM156.274 28.001H154.274V29.141H156.274H158.274V28.001H156.274ZM156.274 29.141H154.274C154.274 29.396 154.263 29.5817 154.246 29.718C154.23 29.8538 154.211 29.9127 154.207 29.9235C154.206 29.9274 154.22 29.889 154.261 29.8376C154.28 29.8139 154.3 29.7944 154.317 29.7797C154.333 29.7653 154.343 29.759 154.343 29.7594L155.394 31.461L156.445 33.1626C157.177 32.7104 157.685 32.0708 157.971 31.2784C158.224 30.5736 158.274 29.8205 158.274 29.141H156.274ZM155.394 31.461L154.365 29.746C154.208 29.8401 153.844 29.941 152.554 29.941V31.941V33.941C153.703 33.941 155.18 33.9218 156.423 33.176L155.394 31.461ZM152.554 31.941L154.547 31.7793C154.465 30.7626 154.069 29.4422 153.704 28.6137L151.874 29.421L150.044 30.2283C150.278 30.7598 150.523 31.6393 150.56 32.1026L152.554 31.941ZM151.874 29.421L150.852 27.7019C150.118 28.1384 149.423 28.5433 148.796 28.8852L149.754 30.641L150.711 32.3968C151.405 32.0187 152.15 31.5836 152.896 31.14L151.874 29.421ZM149.754 30.641L151.554 29.7702L150.374 27.3302L148.574 28.201L146.773 29.0717L147.953 31.5117L149.754 30.641ZM149.534 24.161L150.671 25.806L152.551 24.506L151.414 22.861L150.276 21.216L148.396 22.516L149.534 24.161ZM151.414 22.861L149.959 24.233C150.6 24.913 151.275 25.7441 151.528 26.1966L153.274 25.221L155.02 24.2453C154.512 23.3378 153.548 22.2089 152.869 21.489L151.414 22.861ZM153.274 25.221L152.097 23.6035L150.117 25.0435L151.294 26.661L152.47 28.2784L154.45 26.8384L153.274 25.221ZM151.294 26.661L153.103 25.8094C152.664 24.8759 151.738 23.6494 151.044 22.8496L149.534 24.161L148.024 25.4723C148.649 26.1925 149.283 27.0861 149.484 27.5126L151.294 26.661Z" fill="white" mask="url(#path-2-outside-1_134_474)"/>
</g>
<defs>
<filter id="filter0_d_134_474" x="55.2578" y="0.721191" width="111.636" height="37.2197" filterUnits="userSpaceOnUse" color-interpolation-filters="sRGB">
<feFlood flood-opacity="0" result="BackgroundImageFix"/>
<feColorMatrix in="SourceAlpha" type="matrix" values="0 0 0 0 0 0 0 0 0 0 0 0 0 0 0 0 0 0 127 0" result="hardAlpha"/>
<feOffset/>
<feGaussianBlur stdDeviation="2"/>
<feComposite in2="hardAlpha" operator="out"/>
<feColorMatrix type="matrix" values="0 0 0 0 0 0 0 0 0 0 0 0 0 0 0 0 0 0 0.45 0"/>
<feBlend mode="normal" in2="BackgroundImageFix" result="effect1_dropShadow_134_474"/>
<feBlend mode="normal" in="SourceGraphic" in2="effect1_dropShadow_134_474" result="shape"/>
</filter>
<linearGradient id="paint0_linear_134_474" x1="35.2578" y1="30.501" x2="186.258" y2="30.501" gradientUnits="userSpaceOnUse">
<stop stop-color="#FF4D00"/>
<stop offset="1" stop-color="#FF9500"/>
</linearGradient>
</defs>
</svg>
