<svg width="51" height="23" viewBox="0 0 51 23" fill="none" xmlns="http://www.w3.org/2000/svg">
<path d="M7.67529 1.19775V3.97314C6.80941 3.35335 6.03011 3.04346 5.3374 3.04346C4.59001 3.04346 3.97933 3.30778 3.50537 3.83643C3.03141 4.33773 2.79443 5.00765 2.79443 5.84619C2.79443 6.58447 2.96305 7.21794 3.30029 7.74658C3.47347 8.02913 3.75602 8.39372 4.14795 8.84033C4.54899 9.28695 5.06396 9.82471 5.69287 10.4536C6.85042 11.6294 7.63883 12.6457 8.05811 13.5024C8.47738 14.3319 8.68701 15.3481 8.68701 16.5513C8.68701 18.1828 8.22673 19.5272 7.30615 20.5845C6.38558 21.6144 5.20524 22.1294 3.76514 22.1294C2.5529 22.1294 1.51839 21.7967 0.661621 21.1313V18.3149C1.67334 19.0532 2.59391 19.4224 3.42334 19.4224C4.19808 19.4224 4.8042 19.1672 5.2417 18.6567C5.6792 18.1372 5.89795 17.4354 5.89795 16.5513C5.89795 15.7856 5.72933 15.0975 5.39209 14.4868C5.21891 14.1951 4.97738 13.8625 4.66748 13.4888C4.35758 13.106 3.97021 12.6821 3.50537 12.2173C2.78532 11.5063 2.18831 10.8774 1.71436 10.3306C1.2404 9.78369 0.889486 9.30518 0.661621 8.89502C0.224121 8.09294 0.00537109 7.08122 0.00537109 5.85986C0.00537109 4.21012 0.433757 2.90218 1.29053 1.93604C2.15641 0.960775 3.31852 0.473145 4.77686 0.473145C5.78857 0.473145 6.75472 0.714681 7.67529 1.19775ZM9.75342 0.760254H19.0093V3.24854H15.8237V21.8696H13.0347V3.24854H9.75342V0.760254ZM20.5952 0.760254H28.1558V3.1665H23.439V9.85205H27.6226V12.2583H23.439V19.4634H28.1558V21.8696H20.5952V0.760254ZM30.7671 0.760254H34.5132C36.3179 0.760254 37.6304 1.21598 38.4507 2.12744C39.271 3.04801 39.6812 4.50635 39.6812 6.50244C39.6812 9.30973 38.8563 11.1235 37.2065 11.9438C36.3771 12.3175 35.1785 12.5044 33.6108 12.5044V21.8696H30.7671V0.760254ZM33.6108 10.0708C34.7866 10.0708 35.5978 9.83382 36.0444 9.35986C36.5002 8.87679 36.728 8.02002 36.728 6.78955C36.728 5.53174 36.5093 4.61117 36.0718 4.02783C35.6343 3.4445 34.9461 3.15283 34.0073 3.15283H33.6108V10.0708ZM44.3706 7.62354H41.5815L41.5542 6.78955C41.5542 4.48356 41.9006 2.86117 42.5933 1.92236C43.2951 0.974447 44.4709 0.500488 46.1206 0.500488C49.2287 0.500488 50.7827 2.22314 50.7827 5.66846C50.7827 7.99268 49.6206 11.3423 47.2964 15.7173L45.6147 18.8755C45.6056 18.8937 45.5783 18.9484 45.5327 19.0396C45.4871 19.1307 45.4233 19.2629 45.3413 19.436H50.564V21.8696H41.2944C41.4494 21.5233 41.7729 20.8351 42.2651 19.8052C42.7573 18.7752 43.4272 17.3853 44.2749 15.6353C44.995 14.104 45.5965 12.8052 46.0796 11.7388C46.5627 10.6724 46.9272 9.79736 47.1733 9.11377C47.6655 7.74658 47.9116 6.56624 47.9116 5.57275C47.9116 3.82275 47.3055 2.94775 46.0933 2.94775C44.9266 2.94775 44.3433 4.03239 44.3433 6.20166L44.3569 7.40479L44.3706 7.62354Z" fill="white"/>
</svg>
