<svg width="80" height="85" viewBox="0 0 80 85" fill="none" xmlns="http://www.w3.org/2000/svg">
<g clip-path="url(#clip0_127_10933)">
<path d="M78.5017 19.1637C77.989 18.0481 77.1272 17.1648 76.0851 16.5829C75.043 16.0008 73.8255 15.706 72.5408 15.706C70.2892 15.706 67.8207 16.6128 65.6365 18.5531C63.817 20.1671 62.2103 22.5028 61.0486 25.6094V2.71534C61.0486 1.21755 59.8365 0 58.3477 0H20.445C18.9539 0 17.7442 1.21755 17.7442 2.71534V24.9625L12.0248 22.7965C11.1539 22.4676 10.2558 22.311 9.37203 22.311C7.84578 22.311 6.37023 22.7755 5.13212 23.6237C3.8927 24.4692 2.8894 25.7009 2.32236 27.2146C1.99393 28.0888 1.83838 28.9943 1.83838 29.8803C1.83838 31.4135 2.30304 32.897 3.14386 34.1432C3.98484 35.3867 5.21122 36.3966 6.71682 36.9666L11.7898 38.8874C11.4784 39.0388 11.1773 39.2137 10.8892 39.4107C9.71846 40.2132 8.76206 41.381 8.22739 42.815C7.91464 43.6409 7.76801 44.4982 7.76801 45.3398C7.76801 46.7947 8.2041 48.1974 9.00479 49.3807C9.80433 50.5591 10.9645 51.513 12.3922 52.0584L12.7685 52.1992C12.6296 52.2813 12.4921 52.3688 12.3596 52.4588C11.1811 53.2587 10.2299 54.4251 9.69518 55.8644C9.38243 56.6903 9.2358 57.5463 9.2358 58.3892C9.2358 59.8455 9.67322 61.2455 10.4752 62.4238C11.2668 63.6085 12.4283 64.5636 13.8535 65.1013L14.2285 65.2448C14.083 65.3269 13.9442 65.4157 13.8066 65.5109C12.6334 66.3081 11.6783 67.476 11.1422 68.9087C10.8294 69.7399 10.6841 70.5972 10.6841 71.4401C10.6841 72.8884 11.1215 74.2977 11.9209 75.4746C12.7203 76.6543 13.8819 77.6145 15.3083 78.1522L20.1803 79.9971C21.0018 80.3076 21.8558 80.459 22.6928 80.459C23.8622 80.459 24.9953 80.1642 26.0075 79.6317C27.5506 80.6912 29.3312 81.6933 31.387 82.5363C34.7524 83.9167 38.8248 84.8758 43.6798 84.9894C43.9875 84.9973 44.2898 85 44.591 85C49.3188 85.0025 53.2681 84.0944 56.5478 82.445C59.007 81.2082 61.0797 79.5589 62.8137 77.6108C65.4197 74.6893 67.2704 71.1167 68.6682 67.2089C70.0607 63.3113 71.0055 59.0708 71.77 54.7596C71.7894 54.6683 71.8879 54.2245 72.0476 53.5005C72.6771 50.6521 74.2553 43.5108 75.7243 36.9085C76.4589 33.6087 77.1661 30.4431 77.7152 28.019C77.9878 26.808 78.2213 25.7812 78.3991 25.0179C78.4873 24.6367 78.5614 24.3211 78.6199 24.0809C78.6744 23.846 78.7185 23.6765 78.7302 23.636C78.926 22.9457 79.0221 22.2712 79.0221 21.6201C79.0235 20.74 78.843 19.905 78.5017 19.1637ZM7.66679 34.425C6.69486 34.0571 5.92125 33.4149 5.37865 32.6166C4.83754 31.8154 4.53899 30.8601 4.53899 29.8803C4.53899 29.3127 4.63757 28.7386 4.85042 28.1697C5.21766 27.1939 5.85355 26.4136 6.65061 25.8681C7.44486 25.3252 8.3973 25.0239 9.37203 25.0239C9.93412 25.0239 10.5076 25.1243 11.0708 25.337L17.7442 27.8619V38.2405L7.66679 34.425ZM11.2409 47.8541C10.7439 47.1155 10.4688 46.2412 10.4688 45.3396C10.4688 44.819 10.5609 44.292 10.7541 43.7699C11.089 42.8748 11.6783 42.1573 12.4077 41.6562C13.137 41.1579 14.0117 40.8811 14.9034 40.8811C15.4212 40.8811 15.9455 40.9751 16.4633 41.1683H16.4686L17.7443 41.6536L21.3418 43.0159C22.0062 43.2651 22.567 43.6565 23.0212 44.1458C23.1718 44.3075 23.3132 44.4874 23.443 44.678C23.9387 45.4102 24.21 46.2907 24.21 47.1858C24.21 47.7078 24.1178 48.2349 23.9232 48.762C23.7128 49.3269 23.404 49.8137 23.0212 50.2261C22.794 50.4726 22.5463 50.6828 22.2699 50.8732C21.5406 51.3731 20.6722 51.6458 19.7754 51.6458C19.2562 51.6458 18.732 51.553 18.2141 51.3561L17.7443 51.176L13.3421 49.5162C12.4505 49.1745 11.7366 48.5873 11.2409 47.8541ZM12.7034 60.8995C12.209 60.1649 11.9379 59.2855 11.9379 58.389C11.9379 57.8671 12.0287 57.3401 12.2247 56.8207C12.5583 55.919 13.1408 55.208 13.877 54.7017C14.605 54.2031 15.481 53.929 16.3727 53.929C16.8269 53.929 17.2863 53.9969 17.7445 54.1535C17.8094 54.1691 17.8692 54.1978 17.9341 54.2187L22.8061 56.0638C22.8814 56.0912 22.9514 56.1186 23.0216 56.1525C23.8158 56.4996 24.4532 57.0474 24.906 57.7208C25.4043 58.4594 25.6781 59.3348 25.6781 60.2364C25.6781 60.7584 25.5873 61.283 25.3939 61.8049C25.3939 61.8101 25.3873 61.8154 25.3873 61.8205C25.0524 62.713 24.4633 63.4242 23.7404 63.9186C23.011 64.4183 22.135 64.6937 21.2433 64.6937C20.7255 64.6937 20.2026 64.6023 19.6834 64.4079L17.7445 63.6733L14.8116 62.559C13.9144 62.2226 13.2059 61.6354 12.7034 60.8995ZM26.8992 74.6706C26.8824 74.7307 26.8615 74.7957 26.8407 74.8558C26.5047 75.751 25.9207 76.4672 25.1887 76.9669C24.458 77.4667 23.5898 77.7458 22.693 77.7458C22.1738 77.7458 21.6496 77.6532 21.1317 77.4561L16.2584 75.6099C15.3616 75.2734 14.6544 74.6809 14.1573 73.9476C13.6603 73.2154 13.3851 72.3374 13.3851 71.4398C13.3851 70.9178 13.4759 70.3856 13.672 69.8701C14.0068 68.9698 14.5948 68.2508 15.3241 67.7524C16.0313 67.2671 16.8803 66.997 17.7445 66.9813H17.8198C18.3376 66.9813 18.8617 67.0686 19.3811 67.2671L19.5924 67.3455L24.2516 69.1107C25.1484 69.4514 25.8569 70.0399 26.3592 70.7732C26.8564 71.5103 27.1276 72.3845 27.1276 73.2875C27.1276 73.7427 27.0574 74.2087 26.8992 74.6706ZM23.7622 53.5235L23.3741 53.376C23.5143 53.295 23.6505 53.2077 23.7882 53.1177C24.9653 52.3192 25.9154 51.1501 26.4514 49.7174C26.7641 48.8862 26.9108 48.0264 26.9108 47.186C26.9108 45.7324 26.4733 44.3311 25.6725 43.1515C25.0197 42.1808 24.1177 41.3587 23.0211 40.8004V8.14601H55.8779V61.5494H28.2474C28.328 61.1108 28.3785 60.6725 28.3785 60.2366C28.3785 58.7805 27.9423 57.3791 27.1431 56.1945C26.3436 55.0174 25.1821 54.0597 23.7622 53.5235ZM41.288 67.1234C41.288 68.1726 40.4406 69.0259 39.3972 69.0259C38.3522 69.0259 37.5061 68.1726 37.5061 67.1234C37.5061 66.0757 38.3522 65.2237 39.3972 65.2237C40.4404 65.2238 41.288 66.0758 41.288 67.1234ZM76.1331 22.8918C76.0902 23.0379 76.0408 23.2425 75.9657 23.5558C75.6919 24.708 75.1285 27.1886 74.437 30.2756C72.363 39.5294 69.1302 54.1903 69.1302 54.1903L69.1236 54.2189L69.1185 54.2476C68.4514 58.0211 67.648 61.689 66.5514 65.0449C65.7299 67.5645 64.7435 69.9053 63.5339 71.9889C61.7169 75.118 59.4199 77.661 56.3829 79.4486C53.3421 81.2323 49.5305 82.2825 44.591 82.2852C44.3133 82.2852 44.0302 82.2798 43.7423 82.2747C39.205 82.1663 35.4713 81.2803 32.4084 80.0239C30.8341 79.3754 29.439 78.629 28.2022 77.8383C28.6862 77.2446 29.0873 76.5674 29.3676 75.8106C29.509 75.4374 29.6168 75.0512 29.6868 74.6702C29.7426 74.4041 29.7777 74.1367 29.7985 73.8717L58.3479 74.1274C59.8366 74.1274 61.0486 72.9115 61.0486 71.4134V35.183C61.5392 33.4488 62.1712 31.2124 62.9902 28.3209C64.0427 24.6102 65.6857 22.1322 67.4248 20.5861C69.1652 19.0412 71.0133 18.4202 72.5408 18.4202C73.7063 18.4202 74.6706 18.7802 75.3103 19.3309C75.6297 19.6075 75.8762 19.9272 76.0487 20.3031C76.22 20.6775 76.32 21.1081 76.3214 21.6196C76.3214 21.9993 76.2655 22.4219 76.1331 22.8918Z" fill="black"/>
</g>
<defs>
<clipPath id="clip0_127_10933">
<rect width="79" height="85" fill="white" transform="translate(0.930176)"/>
</clipPath>
</defs>
</svg>
