<svg width="51" height="23" viewBox="0 0 51 23" fill="none" xmlns="http://www.w3.org/2000/svg">
<path d="M7.69141 1.19775V3.97314C6.82552 3.35335 6.04622 3.04346 5.35352 3.04346C4.60612 3.04346 3.99544 3.30778 3.52148 3.83643C3.04753 4.33773 2.81055 5.00765 2.81055 5.84619C2.81055 6.58447 2.97917 7.21794 3.31641 7.74658C3.48958 8.02913 3.77214 8.39372 4.16406 8.84033C4.5651 9.28695 5.08008 9.82471 5.70898 10.4536C6.86654 11.6294 7.65495 12.6457 8.07422 13.5024C8.49349 14.3319 8.70312 15.3481 8.70312 16.5513C8.70312 18.1828 8.24284 19.5272 7.32227 20.5845C6.40169 21.6144 5.22135 22.1294 3.78125 22.1294C2.56901 22.1294 1.53451 21.7967 0.677734 21.1313V18.3149C1.68945 19.0532 2.61003 19.4224 3.43945 19.4224C4.21419 19.4224 4.82031 19.1672 5.25781 18.6567C5.69531 18.1372 5.91406 17.4354 5.91406 16.5513C5.91406 15.7856 5.74544 15.0975 5.4082 14.4868C5.23503 14.1951 4.99349 13.8625 4.68359 13.4888C4.3737 13.106 3.98633 12.6821 3.52148 12.2173C2.80143 11.5063 2.20443 10.8774 1.73047 10.3306C1.25651 9.78369 0.905599 9.30518 0.677734 8.89502C0.240234 8.09294 0.0214844 7.08122 0.0214844 5.85986C0.0214844 4.21012 0.44987 2.90218 1.30664 1.93604C2.17253 0.960775 3.33464 0.473145 4.79297 0.473145C5.80469 0.473145 6.77083 0.714681 7.69141 1.19775ZM9.76953 0.760254H19.0254V3.24854H15.8398V21.8696H13.0508V3.24854H9.76953V0.760254ZM20.6113 0.760254H28.1719V3.1665H23.4551V9.85205H27.6387V12.2583H23.4551V19.4634H28.1719V21.8696H20.6113V0.760254ZM30.7832 0.760254H34.5293C36.334 0.760254 37.6465 1.21598 38.4668 2.12744C39.2871 3.04801 39.6973 4.50635 39.6973 6.50244C39.6973 9.30973 38.8724 11.1235 37.2227 11.9438C36.3932 12.3175 35.1947 12.5044 33.627 12.5044V21.8696H30.7832V0.760254ZM33.627 10.0708C34.8027 10.0708 35.6139 9.83382 36.0605 9.35986C36.5163 8.87679 36.7441 8.02002 36.7441 6.78955C36.7441 5.53174 36.5254 4.61117 36.0879 4.02783C35.6504 3.4445 34.9622 3.15283 34.0234 3.15283H33.627V10.0708ZM44.4961 6.42041H41.7891V5.85986C41.7891 4.92106 41.8665 4.11442 42.0215 3.43994C42.1855 2.76546 42.4362 2.20947 42.7734 1.77197C43.1198 1.33447 43.5573 1.01546 44.0859 0.814941C44.6146 0.605306 45.248 0.500488 45.9863 0.500488C47.5358 0.500488 48.666 0.937988 49.377 1.81299C50.0879 2.68799 50.4434 4.07796 50.4434 5.98291C50.4434 7.55062 50.2793 8.68083 49.9512 9.37354C49.6322 10.0754 49.0169 10.6086 48.1055 10.9731C49.0898 11.3104 49.7689 11.8345 50.1426 12.5454C50.5163 13.2472 50.7031 14.3729 50.7031 15.9224C50.7031 18.0461 50.3021 19.6092 49.5 20.6118C48.6979 21.6144 47.4492 22.1157 45.7539 22.1157C42.8555 22.1157 41.4062 20.4523 41.4062 17.1255V16.9067V16.7563C41.4062 16.6561 41.4108 16.5923 41.4199 16.5649H44.0859C44.0768 16.7199 44.0677 16.8566 44.0586 16.9751C44.0586 17.0845 44.0586 17.1756 44.0586 17.2485C44.0586 17.9686 44.2135 18.5428 44.5234 18.9712C44.8424 19.3996 45.2754 19.6138 45.8223 19.6138C46.1777 19.6138 46.4785 19.5454 46.7246 19.4087C46.9798 19.2629 47.1849 19.035 47.3398 18.7251C47.5039 18.4061 47.6224 17.9959 47.6953 17.4946C47.7682 16.9933 47.8047 16.3872 47.8047 15.6763C47.8047 14.3911 47.6087 13.466 47.2168 12.9009C46.834 12.3358 46.1914 12.0532 45.2891 12.0532C45.1888 12.0532 45.0794 12.0623 44.9609 12.0806C44.8424 12.0897 44.7057 12.1034 44.5508 12.1216V9.66064H44.9473C46.0501 9.66064 46.7975 9.42367 47.1895 8.94971C47.5814 8.47575 47.7773 7.57796 47.7773 6.25635C47.7773 4.06885 47.2259 2.9751 46.123 2.9751C45.0293 2.9751 44.4824 3.90934 44.4824 5.77783L44.4961 6.42041Z" fill="white"/>
</svg>
