<svg width="301" height="147" viewBox="0 0 301 147" fill="none" xmlns="http://www.w3.org/2000/svg">
<g clip-path="url(#clip0_127_10953)">
<path d="M3.82441 77.5534C7.47004 78.9727 9.21165 80.093 12.0161 82.8213C12.7712 81.6441 13.1493 81.0542 13.9044 79.877C11.1 77.1487 9.35587 76.0271 5.71277 74.6091C4.95768 75.7863 4.57951 76.3762 3.82441 77.5534Z" fill="#85D6FF"/>
<path d="M123.744 17.2711C126.595 20.0428 128.368 21.181 132.078 22.6298C131.306 23.8228 130.919 24.4177 130.144 25.6073C126.434 24.1585 124.661 23.0204 121.807 20.2505C122.581 19.0608 122.966 18.4627 123.741 17.273L123.744 17.2711Z" fill="#FF99C4"/>
<path d="M103.949 24.6545C100.973 24.197 99.476 23.6339 96.9012 22C96.5388 23.0608 96.3576 23.5837 96 24.6445C98.57 26.2784 100.072 26.8415 103.043 27.299C103.405 26.2432 103.586 25.7153 103.949 24.6596V24.6545Z" fill="#A9CA2C"/>
<path d="M62.7793 40.8691C64.4866 44.1351 65.8291 45.394 69.0952 46.785C67.6984 48.4695 66.9971 49.3178 65.6057 51.0048C62.3449 49.6163 61.0053 48.3514 59.298 45.0853C60.6948 43.4008 61.3933 42.5586 62.7847 40.8716L62.7793 40.8691Z" fill="#85D6FF"/>
<path d="M37.2757 31.3908C37.2757 31.3908 35.0926 29.3947 37.105 25.9697C39.1174 22.5447 37.8695 21.2954 37.8695 21.2954L36.0704 20.2937C36.0704 20.2937 35.8428 19.1629 34.1504 21.4821C32.458 23.8013 31.3025 31.0677 34.2251 31.6062C38.1432 32.3278 37.2792 31.3872 37.2792 31.3872L37.2757 31.3908Z" fill="#A9CA2C"/>
<path d="M33.3496 31.1432C33.3496 31.1432 34.7256 32.5649 37.1042 33.4624C38.2633 33.904 41.8472 32.5361 42.5263 28.9963C42.5263 28.9963 42.8427 28.5116 41.8685 27.334C40.8943 26.1565 40.0908 25.2841 39.6819 25.4744C39.6819 25.4744 39.7992 26.5119 39.081 27.6966C38.6259 28.4434 38.1744 28.8527 37.026 29.8615C35.17 31.4878 33.7976 31.6027 33.3532 31.1432H33.3496Z" fill="#A9CA2C"/>
<path d="M35.7504 20.0282C35.7504 20.0282 36.4899 19.6476 38.5201 21.6832C39.4516 22.6167 39.7005 24.085 39.0392 25.2303C38.8081 25.6252 38.4988 26.0775 38.0899 26.5837C35.921 29.244 32.9949 30.5149 31.5052 29.7179C28.4723 28.106 27.5052 26.9105 27.1675 26.257C27.1675 26.257 28.6786 28.2962 31.8998 26.5407C35.569 24.541 37.2046 20.6888 35.7539 20.0246L35.7504 20.0282Z" fill="#A9CA2C"/>
<path d="M287.127 85.6965C283.314 84.2122 281.493 83.0404 278.56 80.187C277.77 81.4182 277.374 82.0351 276.585 83.2663C279.518 86.1198 281.342 87.2928 285.152 88.7759C285.942 87.5447 286.337 86.9277 287.127 85.6965Z" fill="#85D6FF"/>
<path d="M23.5934 95.1393C26.9789 92.7245 28.4818 91.113 30.6668 87.566C31.7499 88.5841 32.2896 89.0938 33.3688 90.1132C31.1838 93.6602 29.6809 95.2718 26.2968 97.6904C25.2175 96.6709 24.6741 96.1626 23.5948 95.1432L23.5934 95.1393Z" fill="#FFD200"/>
<path d="M193.229 24.0419C197.302 23.2025 199.328 22.3364 202.761 19.976C203.34 21.3451 203.627 22.0295 204.202 23.3984C200.769 25.7588 198.743 26.6249 194.67 27.4683C194.095 26.0995 193.804 25.4148 193.229 24.046L193.229 24.0419Z" fill="#FF99C4"/>
<path d="M258.123 28.7641C261.235 28.2856 262.801 27.6967 265.494 25.9878C265.873 27.0973 266.063 27.6441 266.437 28.7536C263.749 30.4625 262.178 31.0514 259.071 31.5299C258.692 30.4256 258.502 29.8735 258.123 28.7693V28.7641Z" fill="#A9CA2C"/>
<path d="M215.998 40.578C218.73 39.0133 219.979 37.9011 221.878 35.3387C222.631 36.2378 223.004 36.6801 223.752 37.5811C221.857 40.1416 220.603 41.2557 217.876 42.8186C217.125 41.9243 216.75 41.4772 215.999 40.5829L215.998 40.578Z" fill="#A9CA2C"/>
<path d="M287 77.64C289.494 76.6292 290.676 75.8533 292.565 74C293.11 74.7582 293.383 75.1394 293.928 75.902C292.039 77.7553 290.857 78.5312 288.363 79.5421C287.818 78.7795 287.545 78.4026 287 77.64Z" fill="#FF99C4"/>
<path d="M276.637 19.9454C280.077 21.6831 281.414 23.0686 282.916 26.4638C284.657 24.9784 285.534 24.2326 287.278 22.7528C285.778 19.3632 284.436 17.9808 280.995 16.2431C279.254 17.7285 278.384 18.4712 276.64 19.951L276.637 19.9454Z" fill="#FF99C4"/>
<path d="M233.483 81.3274C230.891 79.6829 229.921 78.4174 228.917 75.3873C227.489 76.6341 226.774 77.2549 225.346 78.5017C226.35 81.5318 227.322 82.7939 229.912 84.4417C231.34 83.1949 232.055 82.5742 233.483 81.3274Z" fill="#FFD200"/>
<path d="M177.265 39.6771C177.265 39.6771 179.742 41.5305 182.868 38.7942C185.995 36.0579 187.522 37.0962 187.522 37.0962L188.902 38.7492C188.902 38.7492 190.109 38.7622 188.056 40.9539C186.004 43.1456 178.763 45.7514 177.639 42.8536C176.133 38.9687 177.268 39.6728 177.268 39.6728L177.265 39.6771Z" fill="#85D6FF"/>
<path d="M178.286 43.6616C178.286 43.6616 176.557 42.5253 175.17 40.2565C174.49 39.1518 175.196 35.2024 178.701 33.8136C178.701 33.8136 179.137 33.3938 180.537 34.1649C181.937 34.936 182.99 35.5913 182.875 36.0486C182.875 36.0486 181.786 36.1306 180.709 37.0998C180.03 37.7132 179.698 38.257 178.885 39.634C177.577 41.8584 177.727 43.291 178.286 43.6579L178.286 43.6616Z" fill="#85D6FF"/>
<path d="M189.238 39.0261C189.238 39.0261 189.485 38.1919 186.997 36.5033C185.856 35.7284 184.298 35.7593 183.251 36.6624C182.89 36.977 182.486 37.3831 182.045 37.902C179.735 40.6498 179.001 43.9045 180.111 45.2796C182.359 48.0811 183.776 48.8413 184.513 49.0608C184.513 49.0608 182.123 47.9063 183.298 44.2538C184.636 40.0933 188.275 37.6609 189.241 39.0217L189.238 39.0261Z" fill="#85D6FF"/>
<g clip-path="url(#clip1_127_10953)">
<path d="M7.89144 34.1813L23.3646 38.1212L11.4242 48.8214L7.89144 34.1813Z" fill="#FF99C4"/>
<path d="M23.3433 38.0439L39.5561 37.0433L31.8031 50.6364L23.3433 38.0439Z" fill="#20DFFE"/>
<path d="M39.5555 37.0414L55.1794 32.3746L51.1423 47.1937L39.5555 37.0414Z" fill="#FF99C4"/>
<path d="M55.1786 32.3724L69.1785 24.1937L69.268 39.3298L55.1786 32.3724Z" fill="#20DFFE"/>
<path d="M69.1769 24.1872L80.1151 12.5892L85.0173 26.8335L69.179 24.1866L69.1769 24.1872Z" fill="#FF99C4"/>
<path d="M86.902 32.9997C87.9128 35.4936 88.6887 36.6759 90.542 38.5648C89.7838 39.1098 89.4025 39.3823 88.64 39.9272C86.7867 38.0383 86.0108 36.856 84.9999 34.3621C85.7625 33.8171 86.1394 33.5446 86.902 32.9997Z" fill="#85D6FF"/>
</g>
<g clip-path="url(#clip2_127_10953)">
<path d="M293.109 36.8132L277.635 40.7531L289.576 51.4532L293.109 36.8132Z" fill="#FF99C4"/>
<path d="M277.657 40.6758L261.444 39.6752L269.197 53.2682L277.657 40.6758Z" fill="#20DFFE"/>
<path d="M261.444 39.6732L245.821 35.0064L249.858 49.8255L261.444 39.6732Z" fill="#FF99C4"/>
<path d="M245.821 35.0043L231.822 26.8256L231.732 41.9616L245.821 35.0043Z" fill="#20DFFE"/>
<path d="M231.823 26.819L220.885 15.2211L215.983 29.4653L231.821 26.8184L231.823 26.819Z" fill="#FF99C4"/>
</g>
</g>
<defs>
<clipPath id="clip0_127_10953">
<rect width="301" height="147" fill="white"/>
</clipPath>
<clipPath id="clip1_127_10953">
<rect width="76.7905" height="25.5968" fill="white" transform="translate(7 32.8789) rotate(-15.5094)"/>
</clipPath>
<clipPath id="clip2_127_10953">
<rect width="76.7905" height="25.5968" fill="white" transform="matrix(-0.963587 -0.267396 -0.267396 0.963587 294 35.5107)"/>
</clipPath>
</defs>
</svg>
