<svg width="301" height="78" viewBox="0 0 301 78" fill="none" xmlns="http://www.w3.org/2000/svg">
<path d="M39.2904 27.088C38.4224 27.34 37.5264 27.564 36.6304 27.816V34.004C36.6304 35.824 36.3224 36.804 35.3424 37.392C34.3344 38.008 32.9904 38.12 31.0584 38.12C30.9744 37.084 30.4704 35.488 30.0224 34.452C30.9744 34.508 32.0384 34.508 32.4024 34.508C32.7664 34.508 32.9064 34.368 32.9064 33.976V28.796L30.4424 29.44L29.5184 25.548C30.4984 25.352 31.6464 25.1 32.9064 24.82V20.368H29.9384V16.616H32.9064V11.52H36.6304V16.616H38.9544V20.368H36.6304V23.952L38.8424 23.42L39.2904 27.088ZM39.4024 38.092V17.68H44.9464V11.576H48.5864V17.68H54.4664V37.896H50.6304V36.02H43.0704V38.092H39.4024ZM43.0704 32.128H44.9464V28.572H43.0704V32.128ZM43.0704 24.792H44.9464V21.544H43.0704V24.792ZM48.5864 32.128H50.6304V28.572H48.5864V32.128ZM48.5864 24.792H50.6304V21.544H48.5864V24.792ZM77.1798 18.856C77.6278 18.856 77.7678 18.716 77.8798 18.044H74.9118V18.128C74.9118 18.772 75.0238 18.856 75.6118 18.856H77.1798ZM55.2838 33.948C56.2078 33.304 57.2438 32.52 58.1958 31.68V26.108H55.7038V22.356H61.7798V31.344C62.4518 32.632 63.5158 33.388 64.9998 33.752C64.2718 33.052 63.2358 32.184 62.5918 31.708C64.1318 31.288 65.7278 30.7 66.8478 30.028H62.4518V27.088H66.5118V25.66H63.1798V22.776H66.5118V21.572H70.1238V22.776H72.5038V21.572H76.1718V22.776H79.6158V25.66H76.1718V27.088H80.4278V30.028H75.9198C77.6278 30.896 79.5038 31.904 80.5958 32.66L76.9558 33.976C78.4958 33.92 79.9238 33.836 81.1278 33.724C80.7078 34.62 80.1478 36.384 79.9798 37.504C76.3958 37.7 70.4318 37.756 66.9038 37.588C63.8238 37.448 61.8078 36.692 60.2398 34.536C59.3158 35.6 58.3358 36.608 57.0758 37.84L55.2838 33.948ZM55.3678 14.18L58.4198 12.164C59.7358 13.508 61.3318 15.384 62.0038 16.756L58.6998 19.024C58.1398 17.68 56.6558 15.636 55.3678 14.18ZM62.6758 14.74V12.248H70.5998V18.044H69.2558C69.8438 18.436 70.9638 18.8 71.7478 18.968C71.4398 20.928 70.5998 21.488 68.8358 21.488H66.3438C63.7398 21.488 63.0398 20.732 63.0398 18.156V15.524H67.3798V14.74H62.6758ZM65.8958 33.92L66.9038 34.004C69.2278 34.116 72.9798 34.116 76.4238 34.004C75.4158 33.192 73.7078 32.016 72.0838 31.176L74.0438 30.028H68.7518L70.9078 30.812C69.6478 32.016 67.6598 33.164 65.8958 33.92ZM66.1758 18.128C66.1758 18.772 66.2878 18.856 66.8478 18.856H68.4438C68.8918 18.856 69.0038 18.716 69.1158 18.044H66.1758V18.128ZM70.1238 27.088H72.5038V25.66H70.1238V27.088ZM71.2998 14.74V12.248H79.4758V18.044H78.0198C78.5798 18.436 79.6998 18.8 80.5118 18.968C80.1758 20.928 79.3638 21.488 77.5718 21.488H75.1078C72.5038 21.488 71.7758 20.732 71.7758 18.156V15.524H76.1998V14.74H71.2998ZM98.4653 26.444V22.02H100.593V26.444H98.4653ZM82.2533 20.2V15.916H100.621V20.2C98.6053 20.424 97.1493 20.9 95.8333 21.656C95.6373 21.768 95.4133 21.88 95.2173 22.02H97.2613V26.444H95.1333V22.076C92.9213 23.532 91.2693 25.548 90.6813 27.396C89.8133 30.168 91.5213 32.436 94.3493 32.66C95.8613 32.8 98.3533 32.632 99.8093 32.408V36.888C97.6253 37.168 95.0493 37.112 94.0133 37.028C90.1213 36.692 85.1933 34.62 86.0893 27.9C86.3973 25.436 87.5453 23.728 88.8613 22.244C89.7013 21.292 90.4573 20.676 91.1013 20.2H82.2533ZM265.189 36.692C260.569 36.496 258.637 34.48 258.413 31.344C258.329 29.44 258.721 28.236 259.505 26.78H263.397C262.697 28.124 262.361 29.02 262.333 30.168C262.333 31.54 263.061 32.212 265.469 32.296C266.477 32.324 268.017 32.24 270.397 31.96V36.412C269.725 36.552 267.513 36.776 265.189 36.692ZM252.421 26.36C252.421 22.86 252.701 19.892 253.233 15.608H257.433C256.845 20.256 256.593 22.888 256.621 26.276C256.649 29.804 256.957 32.856 257.657 37.224H253.317C252.729 33.052 252.421 30.084 252.421 26.36ZM259.253 21.124V16.84H269.893V21.124H259.253ZM20.9603 65.052C19.0843 69.336 15.8923 73.396 10.0963 76.784V71.436C15.0523 67.908 16.9843 65.052 18.6083 61.244H10.0963V56.96H20.9603V53.46H25.3283V56.96H28.5203V61.244H25.3283V77.26H20.9603V65.052ZM34.5416 72.304C39.6656 71.548 42.4936 69.364 42.4936 63.68V53.796H46.8336V63.68C46.8336 71.604 42.7456 75.524 34.5416 76.924V72.304ZM31.5456 66.928V53.796H35.8856V66.928H31.5456ZM63.7795 54.804V50.38H65.9075V54.804H63.7795ZM50.5635 76.28V71.716C58.7955 71.128 63.1355 66.2 64.7315 59.536H69.1835C67.3635 68.72 61.1195 75.3 50.5635 76.28ZM50.5635 65.696V61.3H58.7675V65.696H50.5635ZM50.5635 58.892V54.496H58.7675V58.892H50.5635ZM67.1115 54.804V50.38H69.2395V54.804H67.1115ZM71.779 72.556C76.175 71.24 78.807 68.916 78.807 64.828V63.008H70.659V58.528H78.807V53.572H83.287V58.528H90.147V63.008H83.287L83.259 64.828C83.147 72.332 78.331 75.524 71.779 77.148V72.556ZM101.431 76.448V54.3H105.687V70.512C108.011 69.532 109.299 68.524 111.119 66.564V71.996C108.571 74.964 104.539 76.14 101.431 76.448ZM91.7148 75.972C93.6748 71.884 94.8228 67.684 94.8228 62.56V54.608H99.0508V62.56C99.0508 66.928 98.2388 72.836 96.4188 75.972H91.7148ZM125.458 54.804V50.38H127.586V54.804H125.458ZM113.222 67.628V62.224C113.698 61.888 114.37 61.3 115.238 60.04C116.274 58.5 117.366 56.484 117.926 53.46H122.35C122.21 54.496 121.958 55.476 121.734 56.372H130.946C130.946 61.748 130.162 65.304 129.35 67.068C126.102 74.124 118.822 76.812 115.294 77.372V72.836C117.03 72.64 120.166 71.212 122.322 69.224C124.59 67.18 125.934 64.688 126.242 60.544H120.026C118.654 62.644 117.842 63.624 116.862 64.632C115.882 65.64 114.118 67.18 113.222 67.628ZM128.79 54.804V50.38H130.918V54.804H128.79ZM134.704 67.488L133.08 57.884H135.964L137.672 67.488H134.704ZM134.844 76.756V72.864C138.316 72.248 140.696 70.204 142.292 67.572L142.348 67.488H139.408L137.784 57.884H140.668L142.348 67.488C144.056 64.604 144.812 61.104 144.98 57.94H148.648C148.312 62.448 147.192 66.732 145.064 70.092C142.88 73.536 139.576 76.028 134.844 76.756ZM163.413 54.076V50.38H165.541V54.076H163.413ZM150.505 77.036V71.828C155.965 68.608 159.437 64.772 161.677 59.144H151.541V54.636H167.641C166.857 58.976 165.093 62.672 163.161 65.668C164.701 67.936 167.081 70.064 168.761 71.464V76.924C165.457 74.544 163.105 72.304 160.669 69.056C158.401 71.856 154.089 75.412 150.505 77.036ZM166.745 54.076V50.38H168.873V54.076H166.745ZM172.713 71.744C176.297 71.24 178.957 69.98 180.777 67.936C182.597 65.892 183.577 63.008 183.745 59.2H170.893V54.72H184.445C184.221 54.272 184.109 53.768 184.109 53.236C184.109 51.36 185.621 49.848 187.525 49.848C189.401 49.848 190.913 51.36 190.913 53.236C190.913 54.944 189.681 56.344 188.057 56.624V58.836C188.057 63.092 186.881 67.404 183.885 70.708C181.449 73.396 177.837 75.412 172.713 76.224V71.744ZM185.957 53.236C185.957 53.936 186.433 54.552 187.077 54.72H187.917C188.561 54.552 189.037 53.936 189.037 53.236C189.037 52.396 188.337 51.696 187.497 51.696C186.657 51.696 185.957 52.396 185.957 53.236ZM191.786 76.504V54.3H196.238V71.128C199.598 70.316 203.294 65.92 204.89 61.944H209.51C206.402 70.4 200.41 75.972 191.786 76.504ZM225.067 54.804V50.38H227.195V54.804H225.067ZM211.347 61.888V57.576L214.623 57.464V53.544H218.767V57.324L230.471 56.932V61.272H230.443C229.519 64.772 225.627 68.664 221.063 70.26V65.752C223.107 65.192 225.487 63.036 226.075 61.384L218.767 61.664C218.767 65.528 218.795 69.14 218.823 69.672C219.019 71.492 219.439 72.052 221.819 72.164C224.619 72.276 228.763 71.912 230.051 71.772V76.28C228.063 76.392 224.255 76.588 221.371 76.448C217.479 76.28 214.959 75.244 214.735 70.596C214.595 67.656 214.623 65.248 214.623 61.804L211.347 61.888ZM228.399 54.804V50.38H230.527V54.804H228.399ZM232.873 59.2V54.832H241.609V59.2H232.873ZM232.873 76.28V71.716C241.105 71.128 245.445 66.2 247.041 59.536H251.493C249.673 68.72 243.429 75.3 232.873 76.28ZM254.368 77.036V53.572H258.792V61.132H270.552V65.528H258.792V77.036H254.368ZM279.14 59.284L278.972 54.636H284.46L284.292 59.284L283.452 68.132H279.98L279.14 59.284ZM278.86 73.06C278.86 71.408 280.064 70.26 281.716 70.26C283.368 70.26 284.572 71.408 284.572 73.06C284.572 74.712 283.368 75.916 281.716 75.916C280.036 75.916 278.86 74.712 278.86 73.06Z" fill="black"/>
<g filter="url(#filter0_d_234_9779)">
<mask id="path-2-outside-1_234_9779" maskUnits="userSpaceOnUse" x="99.998" y="4" width="136" height="37" fill="black">
<rect fill="white" x="99.998" y="4" width="136" height="37"/>
<path d="M125.33 36H102.264L109.37 28.628C111.245 26.6773 112.714 25.0307 113.778 23.688C114.842 22.32 115.628 21.1673 116.134 20.23C116.666 19.2927 116.996 18.5327 117.122 17.95C117.249 17.3673 117.312 16.8733 117.312 16.468C117.312 16.0373 117.236 15.6193 117.084 15.214C116.958 14.8087 116.755 14.454 116.476 14.15C116.198 13.8207 115.856 13.5673 115.45 13.39C115.07 13.1873 114.614 13.086 114.082 13.086C113.069 13.086 112.271 13.4153 111.688 14.074C111.131 14.7327 110.852 15.556 110.852 16.544C110.852 16.8227 110.89 17.228 110.966 17.76H102.834C102.834 16.088 103.1 14.568 103.632 13.2C104.19 11.832 104.962 10.654 105.95 9.666C106.938 8.678 108.104 7.918 109.446 7.386C110.814 6.854 112.309 6.588 113.93 6.588C115.526 6.588 116.996 6.84133 118.338 7.348C119.706 7.85467 120.884 8.564 121.872 9.476C122.86 10.388 123.633 11.4773 124.19 12.744C124.748 13.9853 125.026 15.3407 125.026 16.81C125.026 18.3807 124.684 19.8373 124 21.18C123.342 22.4973 122.278 23.8527 120.808 25.246L116.058 29.692H125.33V36ZM135.161 21.636C135.161 22.9027 135.275 24.0553 135.503 25.094C135.731 26.1327 136.047 27.032 136.453 27.792C136.883 28.552 137.39 29.1473 137.973 29.578C138.555 29.9833 139.214 30.186 139.949 30.186C140.658 30.186 141.304 29.9833 141.887 29.578C142.495 29.1473 143.001 28.552 143.407 27.792C143.812 27.032 144.129 26.1327 144.357 25.094C144.585 24.0553 144.699 22.9027 144.699 21.636C144.699 20.3947 144.585 19.2547 144.357 18.216C144.129 17.152 143.812 16.2527 143.407 15.518C143.001 14.758 142.495 14.1753 141.887 13.77C141.304 13.3393 140.658 13.124 139.949 13.124C139.214 13.124 138.555 13.3393 137.973 13.77C137.39 14.1753 136.883 14.758 136.453 15.518C136.047 16.2527 135.731 17.152 135.503 18.216C135.275 19.2547 135.161 20.3947 135.161 21.636ZM127.789 21.636C127.789 19.356 128.08 17.2913 128.663 15.442C129.271 13.5673 130.107 11.9713 131.171 10.654C132.26 9.33666 133.539 8.32333 135.009 7.614C136.503 6.87933 138.15 6.512 139.949 6.512C141.722 6.512 143.356 6.87933 144.851 7.614C146.345 8.32333 147.625 9.33666 148.689 10.654C149.753 11.9713 150.576 13.5673 151.159 15.442C151.767 17.2913 152.071 19.356 152.071 21.636C152.071 23.916 151.767 25.9933 151.159 27.868C150.576 29.7173 149.753 31.3133 148.689 32.656C147.625 33.9733 146.345 34.9993 144.851 35.734C143.356 36.4433 141.722 36.798 139.949 36.798C138.15 36.798 136.503 36.4433 135.009 35.734C133.539 34.9993 132.26 33.9733 131.171 32.656C130.107 31.3133 129.271 29.7173 128.663 27.868C128.08 25.9933 127.789 23.916 127.789 21.636ZM160.989 21.636C160.989 22.9027 161.103 24.0553 161.331 25.094C161.559 26.1327 161.875 27.032 162.281 27.792C162.711 28.552 163.218 29.1473 163.801 29.578C164.383 29.9833 165.042 30.186 165.777 30.186C166.486 30.186 167.132 29.9833 167.715 29.578C168.323 29.1473 168.829 28.552 169.235 27.792C169.64 27.032 169.957 26.1327 170.185 25.094C170.413 24.0553 170.527 22.9027 170.527 21.636C170.527 20.3947 170.413 19.2547 170.185 18.216C169.957 17.152 169.64 16.2527 169.235 15.518C168.829 14.758 168.323 14.1753 167.715 13.77C167.132 13.3393 166.486 13.124 165.777 13.124C165.042 13.124 164.383 13.3393 163.801 13.77C163.218 14.1753 162.711 14.758 162.281 15.518C161.875 16.2527 161.559 17.152 161.331 18.216C161.103 19.2547 160.989 20.3947 160.989 21.636ZM153.617 21.636C153.617 19.356 153.908 17.2913 154.491 15.442C155.099 13.5673 155.935 11.9713 156.999 10.654C158.088 9.33666 159.367 8.32333 160.837 7.614C162.331 6.87933 163.978 6.512 165.777 6.512C167.55 6.512 169.184 6.87933 170.679 7.614C172.173 8.32333 173.453 9.33666 174.517 10.654C175.581 11.9713 176.404 13.5673 176.987 15.442C177.595 17.2913 177.899 19.356 177.899 21.636C177.899 23.916 177.595 25.9933 176.987 27.868C176.404 29.7173 175.581 31.3133 174.517 32.656C173.453 33.9733 172.173 34.9993 170.679 35.734C169.184 36.4433 167.55 36.798 165.777 36.798C163.978 36.798 162.331 36.4433 160.837 35.734C159.367 34.9993 158.088 33.9733 156.999 32.656C155.935 31.3133 155.099 29.7173 154.491 27.868C153.908 25.9933 153.617 23.916 153.617 21.636ZM200.605 33.9V29.224H192.597V33.9H200.605ZM180.977 30.036C184.253 29.028 187.333 27.46 189.965 25.444C189.013 24.352 187.613 23.092 186.381 22.028C185.541 22.7 184.645 23.316 183.693 23.932C183.133 22.924 181.873 21.412 180.977 20.712C185.401 18.304 188.285 15 189.853 11.864L194.165 12.76C193.801 13.46 193.381 14.132 192.961 14.776H198.169L198.813 14.58L201.501 16.064C200.213 19.76 198.281 22.924 195.845 25.556H204.637V38.66H200.605V37.568H192.597V38.632H188.733V31.156C186.997 32.164 185.149 32.976 183.245 33.676C182.769 32.556 181.789 30.876 180.977 30.036ZM189.321 19.396C190.553 20.348 192.037 21.552 193.101 22.616C194.305 21.328 195.341 19.9 196.181 18.36H190.273L189.321 19.396ZM215.814 30.092C215.534 29.364 215.142 28.412 214.722 27.404V38.66H211.222V29.504C210.662 31.184 210.018 32.668 209.262 33.816C208.954 32.724 208.142 31.156 207.61 30.204C209.066 28.076 210.326 24.548 210.97 21.468H208.282V17.716H211.222V12.06H214.722V17.716H217.158V21.468H214.722V22.392C215.45 23.428 217.326 26.508 217.746 27.208L215.814 30.092ZM216.262 33.48C217.802 32.808 220.07 31.632 222.282 30.484L223.262 33.76L220.91 35.16C221.666 35.216 222.59 35.216 222.898 35.216C223.206 35.216 223.318 35.076 223.318 34.768V25.668H217.298V22.392H223.318V21.72H218.474V18.724H223.318V18.108H217.802V14.944H220.154C219.902 14.328 219.622 13.684 219.314 13.152L222.366 12.088C222.898 12.956 223.486 14.104 223.766 14.944H226.762C227.154 14.02 227.574 12.844 227.77 12.004L231.634 12.928C231.186 13.656 230.794 14.328 230.402 14.944H232.446V18.108H227.042V18.724H231.914V21.72H227.042V22.392H233.006V25.668H227.042V26.648C227.266 27.292 227.546 27.936 227.854 28.524C228.666 27.712 229.506 26.704 230.066 25.92L232.978 28.076C231.886 29.196 230.654 30.344 229.674 31.184C230.71 32.388 231.97 33.368 233.51 34.012C232.726 34.768 231.606 36.28 231.074 37.316C229.422 36.336 228.106 34.908 227.042 33.2V34.796C227.042 36.504 226.762 37.456 225.81 38.044C224.83 38.632 223.542 38.716 221.834 38.716C221.75 37.68 221.302 36.14 220.882 35.188C219.846 35.804 218.838 36.392 217.914 36.896L216.262 33.48ZM217.606 27.824L220.238 26.004C221.162 26.984 222.31 28.356 222.842 29.308L220.07 31.324C219.622 30.372 218.53 28.888 217.606 27.824Z"/>
</mask>
<path d="M125.33 36H102.264L109.37 28.628C111.245 26.6773 112.714 25.0307 113.778 23.688C114.842 22.32 115.628 21.1673 116.134 20.23C116.666 19.2927 116.996 18.5327 117.122 17.95C117.249 17.3673 117.312 16.8733 117.312 16.468C117.312 16.0373 117.236 15.6193 117.084 15.214C116.958 14.8087 116.755 14.454 116.476 14.15C116.198 13.8207 115.856 13.5673 115.45 13.39C115.07 13.1873 114.614 13.086 114.082 13.086C113.069 13.086 112.271 13.4153 111.688 14.074C111.131 14.7327 110.852 15.556 110.852 16.544C110.852 16.8227 110.89 17.228 110.966 17.76H102.834C102.834 16.088 103.1 14.568 103.632 13.2C104.19 11.832 104.962 10.654 105.95 9.666C106.938 8.678 108.104 7.918 109.446 7.386C110.814 6.854 112.309 6.588 113.93 6.588C115.526 6.588 116.996 6.84133 118.338 7.348C119.706 7.85467 120.884 8.564 121.872 9.476C122.86 10.388 123.633 11.4773 124.19 12.744C124.748 13.9853 125.026 15.3407 125.026 16.81C125.026 18.3807 124.684 19.8373 124 21.18C123.342 22.4973 122.278 23.8527 120.808 25.246L116.058 29.692H125.33V36ZM135.161 21.636C135.161 22.9027 135.275 24.0553 135.503 25.094C135.731 26.1327 136.047 27.032 136.453 27.792C136.883 28.552 137.39 29.1473 137.973 29.578C138.555 29.9833 139.214 30.186 139.949 30.186C140.658 30.186 141.304 29.9833 141.887 29.578C142.495 29.1473 143.001 28.552 143.407 27.792C143.812 27.032 144.129 26.1327 144.357 25.094C144.585 24.0553 144.699 22.9027 144.699 21.636C144.699 20.3947 144.585 19.2547 144.357 18.216C144.129 17.152 143.812 16.2527 143.407 15.518C143.001 14.758 142.495 14.1753 141.887 13.77C141.304 13.3393 140.658 13.124 139.949 13.124C139.214 13.124 138.555 13.3393 137.973 13.77C137.39 14.1753 136.883 14.758 136.453 15.518C136.047 16.2527 135.731 17.152 135.503 18.216C135.275 19.2547 135.161 20.3947 135.161 21.636ZM127.789 21.636C127.789 19.356 128.08 17.2913 128.663 15.442C129.271 13.5673 130.107 11.9713 131.171 10.654C132.26 9.33666 133.539 8.32333 135.009 7.614C136.503 6.87933 138.15 6.512 139.949 6.512C141.722 6.512 143.356 6.87933 144.851 7.614C146.345 8.32333 147.625 9.33666 148.689 10.654C149.753 11.9713 150.576 13.5673 151.159 15.442C151.767 17.2913 152.071 19.356 152.071 21.636C152.071 23.916 151.767 25.9933 151.159 27.868C150.576 29.7173 149.753 31.3133 148.689 32.656C147.625 33.9733 146.345 34.9993 144.851 35.734C143.356 36.4433 141.722 36.798 139.949 36.798C138.15 36.798 136.503 36.4433 135.009 35.734C133.539 34.9993 132.26 33.9733 131.171 32.656C130.107 31.3133 129.271 29.7173 128.663 27.868C128.08 25.9933 127.789 23.916 127.789 21.636ZM160.989 21.636C160.989 22.9027 161.103 24.0553 161.331 25.094C161.559 26.1327 161.875 27.032 162.281 27.792C162.711 28.552 163.218 29.1473 163.801 29.578C164.383 29.9833 165.042 30.186 165.777 30.186C166.486 30.186 167.132 29.9833 167.715 29.578C168.323 29.1473 168.829 28.552 169.235 27.792C169.64 27.032 169.957 26.1327 170.185 25.094C170.413 24.0553 170.527 22.9027 170.527 21.636C170.527 20.3947 170.413 19.2547 170.185 18.216C169.957 17.152 169.64 16.2527 169.235 15.518C168.829 14.758 168.323 14.1753 167.715 13.77C167.132 13.3393 166.486 13.124 165.777 13.124C165.042 13.124 164.383 13.3393 163.801 13.77C163.218 14.1753 162.711 14.758 162.281 15.518C161.875 16.2527 161.559 17.152 161.331 18.216C161.103 19.2547 160.989 20.3947 160.989 21.636ZM153.617 21.636C153.617 19.356 153.908 17.2913 154.491 15.442C155.099 13.5673 155.935 11.9713 156.999 10.654C158.088 9.33666 159.367 8.32333 160.837 7.614C162.331 6.87933 163.978 6.512 165.777 6.512C167.55 6.512 169.184 6.87933 170.679 7.614C172.173 8.32333 173.453 9.33666 174.517 10.654C175.581 11.9713 176.404 13.5673 176.987 15.442C177.595 17.2913 177.899 19.356 177.899 21.636C177.899 23.916 177.595 25.9933 176.987 27.868C176.404 29.7173 175.581 31.3133 174.517 32.656C173.453 33.9733 172.173 34.9993 170.679 35.734C169.184 36.4433 167.55 36.798 165.777 36.798C163.978 36.798 162.331 36.4433 160.837 35.734C159.367 34.9993 158.088 33.9733 156.999 32.656C155.935 31.3133 155.099 29.7173 154.491 27.868C153.908 25.9933 153.617 23.916 153.617 21.636ZM200.605 33.9V29.224H192.597V33.9H200.605ZM180.977 30.036C184.253 29.028 187.333 27.46 189.965 25.444C189.013 24.352 187.613 23.092 186.381 22.028C185.541 22.7 184.645 23.316 183.693 23.932C183.133 22.924 181.873 21.412 180.977 20.712C185.401 18.304 188.285 15 189.853 11.864L194.165 12.76C193.801 13.46 193.381 14.132 192.961 14.776H198.169L198.813 14.58L201.501 16.064C200.213 19.76 198.281 22.924 195.845 25.556H204.637V38.66H200.605V37.568H192.597V38.632H188.733V31.156C186.997 32.164 185.149 32.976 183.245 33.676C182.769 32.556 181.789 30.876 180.977 30.036ZM189.321 19.396C190.553 20.348 192.037 21.552 193.101 22.616C194.305 21.328 195.341 19.9 196.181 18.36H190.273L189.321 19.396ZM215.814 30.092C215.534 29.364 215.142 28.412 214.722 27.404V38.66H211.222V29.504C210.662 31.184 210.018 32.668 209.262 33.816C208.954 32.724 208.142 31.156 207.61 30.204C209.066 28.076 210.326 24.548 210.97 21.468H208.282V17.716H211.222V12.06H214.722V17.716H217.158V21.468H214.722V22.392C215.45 23.428 217.326 26.508 217.746 27.208L215.814 30.092ZM216.262 33.48C217.802 32.808 220.07 31.632 222.282 30.484L223.262 33.76L220.91 35.16C221.666 35.216 222.59 35.216 222.898 35.216C223.206 35.216 223.318 35.076 223.318 34.768V25.668H217.298V22.392H223.318V21.72H218.474V18.724H223.318V18.108H217.802V14.944H220.154C219.902 14.328 219.622 13.684 219.314 13.152L222.366 12.088C222.898 12.956 223.486 14.104 223.766 14.944H226.762C227.154 14.02 227.574 12.844 227.77 12.004L231.634 12.928C231.186 13.656 230.794 14.328 230.402 14.944H232.446V18.108H227.042V18.724H231.914V21.72H227.042V22.392H233.006V25.668H227.042V26.648C227.266 27.292 227.546 27.936 227.854 28.524C228.666 27.712 229.506 26.704 230.066 25.92L232.978 28.076C231.886 29.196 230.654 30.344 229.674 31.184C230.71 32.388 231.97 33.368 233.51 34.012C232.726 34.768 231.606 36.28 231.074 37.316C229.422 36.336 228.106 34.908 227.042 33.2V34.796C227.042 36.504 226.762 37.456 225.81 38.044C224.83 38.632 223.542 38.716 221.834 38.716C221.75 37.68 221.302 36.14 220.882 35.188C219.846 35.804 218.838 36.392 217.914 36.896L216.262 33.48ZM217.606 27.824L220.238 26.004C221.162 26.984 222.31 28.356 222.842 29.308L220.07 31.324C219.622 30.372 218.53 28.888 217.606 27.824Z" fill="url(#paint0_linear_234_9779)"/>
<path d="M125.33 36V38C126.435 38 127.33 37.1046 127.33 36H125.33ZM102.264 36L100.824 34.612C100.268 35.1896 100.11 36.044 100.424 36.7823C100.738 37.5206 101.462 38 102.264 38V36ZM109.37 28.628L110.81 30.016L110.812 30.0138L109.37 28.628ZM113.778 23.688L115.346 24.9302C115.35 24.9254 115.353 24.9207 115.357 24.9159L113.778 23.688ZM116.134 20.23L114.395 19.2428C114.388 19.2548 114.382 19.2668 114.375 19.279L116.134 20.23ZM117.084 15.214L115.175 15.8105C115.187 15.8461 115.199 15.8814 115.212 15.9162L117.084 15.214ZM116.476 14.15L114.95 15.4419C114.967 15.4621 114.984 15.4819 115.002 15.5014L116.476 14.15ZM115.45 13.39L114.509 15.1547C114.555 15.179 114.601 15.2016 114.649 15.2223L115.45 13.39ZM111.688 14.074L110.19 12.7489C110.181 12.7598 110.171 12.7709 110.162 12.7821L111.688 14.074ZM110.966 17.76V19.76C111.546 19.76 112.097 19.5084 112.477 19.0704C112.857 18.6324 113.028 18.0511 112.946 17.4772L110.966 17.76ZM102.834 17.76H100.834C100.834 18.8646 101.73 19.76 102.834 19.76V17.76ZM103.632 13.2L101.78 12.4454C101.776 12.4553 101.772 12.4652 101.768 12.4751L103.632 13.2ZM105.95 9.666L107.365 11.0802L107.365 11.0802L105.95 9.666ZM109.446 7.386L108.721 5.52195L108.71 5.52664L109.446 7.386ZM118.338 7.348L117.632 9.21924L117.644 9.2235L118.338 7.348ZM121.872 9.476L120.516 10.9456L120.516 10.9456L121.872 9.476ZM124.19 12.744L122.36 13.5495C122.362 13.5541 122.364 13.5586 122.366 13.5632L124.19 12.744ZM124 21.18L122.218 20.2721C122.216 20.2766 122.214 20.2811 122.212 20.2856L124 21.18ZM120.808 25.246L122.175 26.7062L122.185 26.6972L120.808 25.246ZM116.058 29.692L114.692 28.2318C114.092 28.7928 113.897 29.6632 114.198 30.4267C114.5 31.1903 115.237 31.692 116.058 31.692V29.692ZM125.33 29.692H127.33C127.33 28.5874 126.435 27.692 125.33 27.692V29.692ZM125.33 36V34H102.264V36V38H125.33V36ZM102.264 36L103.704 37.388L110.81 30.016L109.37 28.628L107.93 27.24L100.824 34.612L102.264 36ZM109.37 28.628L110.812 30.0138C112.709 28.0403 114.227 26.3426 115.346 24.9302L113.778 23.688L112.211 22.4458C111.202 23.7187 109.781 25.3144 107.928 27.2422L109.37 28.628ZM113.778 23.688L115.357 24.9159C116.453 23.5075 117.312 22.2565 117.894 21.181L116.134 20.23L114.375 19.279C113.943 20.0782 113.232 21.1325 112.2 22.4601L113.778 23.688ZM116.134 20.23L117.874 21.2172C118.439 20.2217 118.886 19.2535 119.077 18.3749L117.122 17.95L115.168 17.5251C115.106 17.8118 114.894 18.3636 114.395 19.2428L116.134 20.23ZM117.122 17.95L119.077 18.3749C119.221 17.7114 119.312 17.0659 119.312 16.468H117.312H115.312C115.312 16.6808 115.277 17.0233 115.168 17.5251L117.122 17.95ZM117.312 16.468H119.312C119.312 15.7962 119.193 15.1404 118.957 14.5118L117.084 15.214L115.212 15.9162C115.28 16.0982 115.312 16.2784 115.312 16.468H117.312ZM117.084 15.214L118.993 14.6174C118.782 13.9402 118.434 13.3257 117.951 12.7985L116.476 14.15L115.002 15.5014C115.076 15.5823 115.134 15.6771 115.175 15.8105L117.084 15.214ZM116.476 14.15L118.003 12.8581C117.522 12.2896 116.93 11.8542 116.252 11.5577L115.45 13.39L114.649 15.2223C114.782 15.2805 114.873 15.3518 114.95 15.4419L116.476 14.15ZM115.45 13.39L116.392 11.6253C115.661 11.2359 114.867 11.086 114.082 11.086V13.086V15.086C114.362 15.086 114.479 15.1388 114.509 15.1547L115.45 13.39ZM114.082 13.086V11.086C112.593 11.086 111.212 11.5937 110.19 12.7489L111.688 14.074L113.186 15.3991C113.33 15.2369 113.546 15.086 114.082 15.086V13.086ZM111.688 14.074L110.162 12.7821C109.255 13.8538 108.852 15.1557 108.852 16.544H110.852H112.852C112.852 15.9563 113.007 15.6116 113.215 15.3659L111.688 14.074ZM110.852 16.544H108.852C108.852 16.968 108.907 17.4862 108.986 18.0428L110.966 17.76L112.946 17.4772C112.874 16.9698 112.852 16.6774 112.852 16.544H110.852ZM110.966 17.76V15.76H102.834V17.76V19.76H110.966V17.76ZM102.834 17.76H104.834C104.834 16.3018 105.066 15.0319 105.496 13.9249L103.632 13.2L101.768 12.4751C101.135 14.1041 100.834 15.8742 100.834 17.76H102.834ZM103.632 13.2L105.485 13.9546C105.947 12.8191 106.576 11.8691 107.365 11.0802L105.95 9.666L104.536 8.25179C103.349 9.43893 102.432 10.8449 101.78 12.4454L103.632 13.2ZM105.95 9.666L107.365 11.0802C108.153 10.2918 109.086 9.68024 110.183 9.24536L109.446 7.386L108.71 5.52664C107.122 6.15576 105.724 7.06418 104.536 8.25179L105.95 9.666ZM109.446 7.386L110.171 9.25001C111.285 8.81682 112.531 8.588 113.93 8.588V6.588V4.588C112.087 4.588 110.344 4.89117 108.722 5.52199L109.446 7.386ZM113.93 6.588V8.588C115.312 8.588 116.539 8.80672 117.632 9.2192L118.338 7.348L119.045 5.4768C117.452 4.87595 115.741 4.588 113.93 4.588V6.588ZM118.338 7.348L117.644 9.2235C118.788 9.64718 119.736 10.2254 120.516 10.9456L121.872 9.476L123.229 8.00639C122.033 6.90259 120.625 6.06216 119.033 5.4725L118.338 7.348ZM121.872 9.476L120.516 10.9456C121.296 11.6657 121.91 12.5269 122.36 13.5495L124.19 12.744L126.021 11.9385C125.356 10.4278 124.425 9.11034 123.229 8.00639L121.872 9.476ZM124.19 12.744L122.366 13.5632C122.799 14.5268 123.026 15.6002 123.026 16.81H125.026H127.026C127.026 15.0811 126.697 13.4438 126.015 11.9248L124.19 12.744ZM125.026 16.81H123.026C123.026 18.0789 122.753 19.2227 122.218 20.2721L124 21.18L125.782 22.0879C126.616 20.452 127.026 18.6824 127.026 16.81H125.026ZM124 21.18L122.212 20.2856C121.688 21.3328 120.791 22.5058 119.432 23.7948L120.808 25.246L122.185 26.6972C123.764 25.1995 124.996 23.6619 125.789 22.0744L124 21.18ZM120.808 25.246L119.442 23.7858L114.692 28.2318L116.058 29.692L117.425 31.1522L122.175 26.7062L120.808 25.246ZM116.058 29.692V31.692H125.33V29.692V27.692H116.058V29.692ZM125.33 29.692H123.33V36H125.33H127.33V29.692H125.33ZM135.503 25.094L133.549 25.5228L133.549 25.5228L135.503 25.094ZM136.453 27.792L134.688 28.7332C134.696 28.7482 134.704 28.7632 134.712 28.778L136.453 27.792ZM137.973 29.578L136.784 31.1864C136.799 31.1977 136.815 31.2089 136.83 31.2198L137.973 29.578ZM141.887 29.578L143.029 31.2198C143.033 31.2166 143.038 31.2133 143.043 31.21L141.887 29.578ZM144.357 25.094L146.31 25.5228L146.31 25.5228L144.357 25.094ZM144.357 18.216L142.401 18.6351L142.403 18.6448L144.357 18.216ZM143.407 15.518L141.642 16.4592C141.646 16.4675 141.651 16.4759 141.655 16.4842L143.407 15.518ZM141.887 13.77L140.698 15.3784C140.724 15.3976 140.75 15.4162 140.777 15.4341L141.887 13.77ZM137.973 13.77L139.115 15.4118C139.13 15.4009 139.146 15.3897 139.161 15.3784L137.973 13.77ZM136.453 15.518L134.712 14.532C134.709 14.5386 134.705 14.5452 134.701 14.5518L136.453 15.518ZM135.503 18.216L137.456 18.6448L137.458 18.6351L135.503 18.216ZM128.663 15.442L126.76 14.825C126.758 14.8303 126.757 14.8356 126.755 14.841L128.663 15.442ZM131.171 10.654L129.629 9.37947C129.624 9.38539 129.619 9.39134 129.615 9.39732L131.171 10.654ZM135.009 7.614L135.878 9.4151C135.882 9.41305 135.887 9.41098 135.891 9.4089L135.009 7.614ZM144.851 7.614L143.968 9.4089C143.977 9.41294 143.985 9.41692 143.993 9.42085L144.851 7.614ZM148.689 10.654L150.244 9.39732L150.244 9.39732L148.689 10.654ZM151.159 15.442L149.249 16.0356C149.252 16.046 149.255 16.0563 149.259 16.0666L151.159 15.442ZM151.159 27.868L149.256 27.251C149.254 27.2563 149.253 27.2616 149.251 27.267L151.159 27.868ZM148.689 32.656L150.244 33.9127C150.248 33.9079 150.252 33.903 150.256 33.8982L148.689 32.656ZM144.851 35.734L145.708 37.5409C145.716 37.5369 145.725 37.5329 145.733 37.5289L144.851 35.734ZM135.009 35.734L134.114 37.5229C134.126 37.529 134.139 37.535 134.151 37.5409L135.009 35.734ZM131.171 32.656L129.603 33.8982C129.612 33.909 129.62 33.9198 129.629 33.9305L131.171 32.656ZM128.663 27.868L126.753 28.4616C126.756 28.472 126.759 28.4823 126.763 28.4926L128.663 27.868ZM135.161 21.636H133.161C133.161 23.0204 133.285 24.3196 133.549 25.5228L135.503 25.094L137.456 24.6652C137.264 23.7911 137.161 22.785 137.161 21.636H135.161ZM135.503 25.094L133.549 25.5228C133.807 26.7001 134.179 27.7793 134.688 28.7332L136.453 27.792L138.217 26.8508C137.915 26.2847 137.654 25.5653 137.456 24.6652L135.503 25.094ZM136.453 27.792L134.712 28.778C135.253 29.7326 135.934 30.5585 136.784 31.1864L137.973 29.578L139.161 27.9696C138.845 27.7361 138.513 27.3714 138.193 26.806L136.453 27.792ZM137.973 29.578L136.83 31.2198C137.761 31.8669 138.821 32.186 139.949 32.186V30.186V28.186C139.607 28.186 139.35 28.0998 139.115 27.9362L137.973 29.578ZM139.949 30.186V32.186C141.066 32.186 142.111 31.8582 143.029 31.2198L141.887 29.578L140.744 27.9362C140.497 28.1085 140.249 28.186 139.949 28.186V30.186ZM141.887 29.578L143.043 31.21C143.941 30.5734 144.642 29.7248 145.171 28.7332L143.407 27.792L141.642 26.8508C141.36 27.3792 141.048 27.7212 140.73 27.946L141.887 29.578ZM143.407 27.792L145.171 28.7332C145.68 27.7793 146.052 26.7001 146.31 25.5228L144.357 25.094L142.403 24.6652C142.205 25.5653 141.944 26.2847 141.642 26.8508L143.407 27.792ZM144.357 25.094L146.31 25.5228C146.574 24.3196 146.699 23.0204 146.699 21.636H144.699H142.699C142.699 22.785 142.595 23.7911 142.403 24.6652L144.357 25.094ZM144.699 21.636H146.699C146.699 20.2738 146.574 18.9878 146.31 17.7872L144.357 18.216L142.403 18.6448C142.595 19.5215 142.699 20.5155 142.699 21.636H144.699ZM144.357 18.216L146.312 17.7969C146.055 16.5951 145.681 15.5 145.158 14.5518L143.407 15.518L141.655 16.4842C141.943 17.0053 142.202 17.7089 142.401 18.6351L144.357 18.216ZM143.407 15.518L145.171 14.5768C144.638 13.5776 143.924 12.7246 142.996 12.1059L141.887 13.77L140.777 15.4341C141.065 15.6261 141.364 15.9384 141.642 16.4592L143.407 15.518ZM141.887 13.77L143.075 12.1616C142.156 11.4825 141.096 11.124 139.949 11.124V13.124V15.124C140.22 15.124 140.451 15.1962 140.698 15.3784L141.887 13.77ZM139.949 13.124V11.124C138.792 11.124 137.716 11.4728 136.784 12.1616L137.973 13.77L139.161 15.3784C139.395 15.2059 139.635 15.124 139.949 15.124V13.124ZM137.973 13.77L136.83 12.1282C135.952 12.7394 135.257 13.5702 134.712 14.532L136.453 15.518L138.193 16.504C138.509 15.9458 138.828 15.6112 139.115 15.4118L137.973 13.77ZM136.453 15.518L134.701 14.5518C134.178 15.5 133.804 16.5951 133.547 17.7969L135.503 18.216L137.458 18.6351C137.657 17.7089 137.916 17.0053 138.204 16.4842L136.453 15.518ZM135.503 18.216L133.549 17.7872C133.285 18.9878 133.161 20.2738 133.161 21.636H135.161H137.161C137.161 20.5155 137.264 19.5215 137.456 18.6448L135.503 18.216ZM127.789 21.636H129.789C129.789 19.525 130.058 17.6672 130.57 16.043L128.663 15.442L126.755 14.841C126.101 16.9155 125.789 19.187 125.789 21.636H127.789ZM128.663 15.442L130.565 16.059C131.11 14.3795 131.839 13.0093 132.726 11.9107L131.171 10.654L129.615 9.39732C128.374 10.9333 127.431 12.7552 126.76 14.825L128.663 15.442ZM131.171 10.654L132.712 11.9285C133.627 10.8222 134.68 9.99333 135.878 9.4151L135.009 7.614L134.139 5.8129C132.398 6.65333 130.893 7.85114 129.629 9.37947L131.171 10.654ZM135.009 7.614L135.891 9.4089C137.089 8.81975 138.431 8.512 139.949 8.512V6.512V4.512C137.869 4.512 135.917 4.93891 134.126 5.8191L135.009 7.614ZM139.949 6.512V8.512C141.436 8.512 142.766 8.81783 143.968 9.4089L144.851 7.614L145.733 5.8191C143.946 4.94083 142.007 4.512 139.949 4.512V6.512ZM144.851 7.614L143.993 9.42085C145.21 9.99842 146.253 10.8211 147.133 11.9107L148.689 10.654L150.244 9.39732C148.996 7.85219 147.48 6.64824 145.708 5.80715L144.851 7.614ZM148.689 10.654L147.133 11.9107C148.015 13.0026 148.729 14.3644 149.249 16.0356L151.159 15.442L153.068 14.8484C152.422 12.7703 151.49 10.94 150.244 9.39732L148.689 10.654ZM151.159 15.442L149.259 16.0666C149.79 17.6833 150.071 19.5328 150.071 21.636H152.071H154.071C154.071 19.1792 153.743 16.8994 153.058 14.8174L151.159 15.442ZM152.071 21.636H150.071C150.071 23.7387 149.79 25.6041 149.256 27.251L151.159 27.868L153.061 28.485C153.743 26.3826 154.071 24.0933 154.071 21.636H152.071ZM151.159 27.868L149.251 27.267C148.732 28.9141 148.015 30.2859 147.121 31.4138L148.689 32.656L150.256 33.8982C151.49 32.3408 152.42 30.5206 153.066 28.469L151.159 27.868ZM148.689 32.656L147.133 31.3993C146.248 32.4943 145.197 33.3349 143.968 33.9391L144.851 35.734L145.733 37.5289C147.493 36.6637 149.001 35.4524 150.244 33.9127L148.689 32.656ZM144.851 35.734L143.993 33.9271C142.785 34.5003 141.447 34.798 139.949 34.798V36.798V38.798C141.997 38.798 143.926 38.3864 145.708 37.5409L144.851 35.734ZM139.949 36.798V34.798C138.42 34.798 137.07 34.4985 135.866 33.9271L135.009 35.734L134.151 37.5409C135.936 38.3882 137.879 38.798 139.949 38.798V36.798ZM135.009 35.734L135.903 33.9451C134.693 33.3401 133.631 32.4931 132.712 31.3815L131.171 32.656L129.629 33.9305C130.889 35.4536 132.386 36.6586 134.114 37.5229L135.009 35.734ZM131.171 32.656L132.738 31.4138C131.839 30.2792 131.107 28.8991 130.562 27.2434L128.663 27.868L126.763 28.4926C127.434 30.5356 128.374 32.3475 129.603 33.8982L131.171 32.656ZM128.663 27.868L130.572 27.2744C130.058 25.62 129.789 23.7464 129.789 21.636H127.789H125.789C125.789 24.0856 126.101 26.3666 126.753 28.4616L128.663 27.868ZM161.331 25.094L159.377 25.5228L159.377 25.5228L161.331 25.094ZM162.281 27.792L160.516 28.7332C160.524 28.7482 160.532 28.7632 160.541 28.778L162.281 27.792ZM163.801 29.578L162.612 31.1864C162.627 31.1977 162.643 31.2089 162.659 31.2198L163.801 29.578ZM167.715 29.578L168.857 31.2198C168.861 31.2166 168.866 31.2133 168.871 31.21L167.715 29.578ZM170.185 25.094L172.138 25.5228L172.138 25.5228L170.185 25.094ZM170.185 18.216L168.229 18.6351L168.231 18.6448L170.185 18.216ZM169.235 15.518L167.47 16.4592C167.474 16.4675 167.479 16.4759 167.483 16.4842L169.235 15.518ZM167.715 13.77L166.526 15.3784C166.552 15.3976 166.578 15.4162 166.605 15.4341L167.715 13.77ZM163.801 13.77L164.943 15.4118C164.958 15.4009 164.974 15.3897 164.989 15.3784L163.801 13.77ZM162.281 15.518L160.541 14.532C160.537 14.5386 160.533 14.5452 160.529 14.5518L162.281 15.518ZM161.331 18.216L163.284 18.6448L163.286 18.6351L161.331 18.216ZM154.491 15.442L152.588 14.825C152.586 14.8303 152.585 14.8356 152.583 14.841L154.491 15.442ZM156.999 10.654L155.457 9.37947C155.452 9.38539 155.448 9.39134 155.443 9.39732L156.999 10.654ZM160.837 7.614L161.706 9.4151C161.71 9.41305 161.715 9.41098 161.719 9.4089L160.837 7.614ZM170.679 7.614L169.796 9.4089C169.805 9.41294 169.813 9.41692 169.821 9.42085L170.679 7.614ZM174.517 10.654L176.073 9.39732L176.073 9.39732L174.517 10.654ZM176.987 15.442L175.077 16.0356C175.08 16.046 175.083 16.0563 175.087 16.0666L176.987 15.442ZM176.987 27.868L175.084 27.251C175.082 27.2563 175.081 27.2616 175.079 27.267L176.987 27.868ZM174.517 32.656L176.073 33.9127C176.076 33.9079 176.08 33.903 176.084 33.8982L174.517 32.656ZM170.679 35.734L171.536 37.5409C171.544 37.5369 171.553 37.5329 171.561 37.5289L170.679 35.734ZM160.837 35.734L159.942 37.5229C159.954 37.529 159.967 37.535 159.979 37.5409L160.837 35.734ZM156.999 32.656L155.431 33.8982C155.44 33.909 155.449 33.9198 155.457 33.9305L156.999 32.656ZM154.491 27.868L152.581 28.4616C152.584 28.472 152.587 28.4823 152.591 28.4926L154.491 27.868ZM160.989 21.636H158.989C158.989 23.0204 159.113 24.3196 159.377 25.5228L161.331 25.094L163.284 24.6652C163.092 23.7911 162.989 22.785 162.989 21.636H160.989ZM161.331 25.094L159.377 25.5228C159.636 26.7001 160.007 27.7793 160.516 28.7332L162.281 27.792L164.045 26.8508C163.743 26.2847 163.482 25.5653 163.284 24.6652L161.331 25.094ZM162.281 27.792L160.541 28.778C161.082 29.7326 161.762 30.5585 162.612 31.1864L163.801 29.578L164.989 27.9696C164.673 27.7361 164.341 27.3714 164.021 26.806L162.281 27.792ZM163.801 29.578L162.659 31.2198C163.589 31.8669 164.649 32.186 165.777 32.186V30.186V28.186C165.435 28.186 165.178 28.0998 164.943 27.9362L163.801 29.578ZM165.777 30.186V32.186C166.895 32.186 167.939 31.8582 168.857 31.2198L167.715 29.578L166.573 27.9362C166.325 28.1085 166.077 28.186 165.777 28.186V30.186ZM167.715 29.578L168.871 31.21C169.769 30.5734 170.47 29.7248 170.999 28.7332L169.235 27.792L167.47 26.8508C167.188 27.3792 166.876 27.7212 166.559 27.946L167.715 29.578ZM169.235 27.792L170.999 28.7332C171.508 27.7793 171.88 26.7001 172.138 25.5228L170.185 25.094L168.231 24.6652C168.034 25.5653 167.772 26.2847 167.47 26.8508L169.235 27.792ZM170.185 25.094L172.138 25.5228C172.402 24.3196 172.527 23.0204 172.527 21.636H170.527H168.527C168.527 22.785 168.423 23.7911 168.231 24.6652L170.185 25.094ZM170.527 21.636H172.527C172.527 20.2738 172.402 18.9878 172.138 17.7872L170.185 18.216L168.231 18.6448C168.424 19.5215 168.527 20.5155 168.527 21.636H170.527ZM170.185 18.216L172.14 17.7969C171.883 16.5951 171.509 15.5 170.986 14.5518L169.235 15.518L167.483 16.4842C167.771 17.0053 168.031 17.7089 168.229 18.6351L170.185 18.216ZM169.235 15.518L170.999 14.5768C170.466 13.5776 169.752 12.7246 168.824 12.1059L167.715 13.77L166.605 15.4341C166.893 15.6261 167.192 15.9384 167.47 16.4592L169.235 15.518ZM167.715 13.77L168.903 12.1616C167.985 11.4825 166.924 11.124 165.777 11.124V13.124V15.124C166.048 15.124 166.279 15.1962 166.526 15.3784L167.715 13.77ZM165.777 13.124V11.124C164.62 11.124 163.544 11.4728 162.612 12.1616L163.801 13.77L164.989 15.3784C165.223 15.2059 165.464 15.124 165.777 15.124V13.124ZM163.801 13.77L162.659 12.1282C161.78 12.7394 161.086 13.5702 160.541 14.532L162.281 15.518L164.021 16.504C164.337 15.9458 164.656 15.6112 164.943 15.4118L163.801 13.77ZM162.281 15.518L160.529 14.5518C160.006 15.5 159.633 16.5951 159.375 17.7969L161.331 18.216L163.286 18.6351C163.485 17.7089 163.744 17.0053 164.032 16.4842L162.281 15.518ZM161.331 18.216L159.377 17.7872C159.114 18.9878 158.989 20.2738 158.989 21.636H160.989H162.989C162.989 20.5155 163.092 19.5215 163.284 18.6448L161.331 18.216ZM153.617 21.636H155.617C155.617 19.525 155.886 17.6672 156.398 16.043L154.491 15.442L152.583 14.841C151.929 16.9155 151.617 19.187 151.617 21.636H153.617ZM154.491 15.442L156.393 16.059C156.938 14.3795 157.667 13.0093 158.555 11.9107L156.999 10.654L155.443 9.39732C154.202 10.9333 153.259 12.7552 152.588 14.825L154.491 15.442ZM156.999 10.654L158.54 11.9285C159.455 10.8222 160.508 9.99333 161.706 9.4151L160.837 7.614L159.967 5.8129C158.226 6.65333 156.721 7.85114 155.457 9.37947L156.999 10.654ZM160.837 7.614L161.719 9.4089C162.917 8.81975 164.259 8.512 165.777 8.512V6.512V4.512C163.697 4.512 161.745 4.93891 159.954 5.8191L160.837 7.614ZM165.777 6.512V8.512C167.264 8.512 168.594 8.81783 169.796 9.4089L170.679 7.614L171.561 5.8191C169.774 4.94083 167.836 4.512 165.777 4.512V6.512ZM170.679 7.614L169.821 9.42085C171.038 9.99842 172.081 10.8211 172.961 11.9107L174.517 10.654L176.073 9.39732C174.825 7.85219 173.308 6.64824 171.536 5.80715L170.679 7.614ZM174.517 10.654L172.961 11.9107C173.843 13.0026 174.557 14.3644 175.077 16.0356L176.987 15.442L178.897 14.8484C178.251 12.7703 177.319 10.94 176.073 9.39732L174.517 10.654ZM176.987 15.442L175.087 16.0666C175.618 17.6833 175.899 19.5328 175.899 21.636H177.899H179.899C179.899 19.1792 179.571 16.8994 178.887 14.8174L176.987 15.442ZM177.899 21.636H175.899C175.899 23.7387 175.618 25.6041 175.084 27.251L176.987 27.868L178.889 28.485C179.571 26.3826 179.899 24.0933 179.899 21.636H177.899ZM176.987 27.868L175.079 27.267C174.56 28.9141 173.843 30.2859 172.949 31.4138L174.517 32.656L176.084 33.8982C177.318 32.3408 178.248 30.5206 178.894 28.469L176.987 27.868ZM174.517 32.656L172.961 31.3993C172.076 32.4943 171.026 33.3349 169.796 33.9391L170.679 35.734L171.561 37.5289C173.321 36.6637 174.829 35.4524 176.073 33.9127L174.517 32.656ZM170.679 35.734L169.821 33.9271C168.613 34.5003 167.275 34.798 165.777 34.798V36.798V38.798C167.825 38.798 169.755 38.3864 171.536 37.5409L170.679 35.734ZM165.777 36.798V34.798C164.248 34.798 162.898 34.4985 161.694 33.9271L160.837 35.734L159.979 37.5409C161.765 38.3882 163.708 38.798 165.777 38.798V36.798ZM160.837 35.734L161.731 33.9451C160.521 33.3401 159.459 32.4931 158.54 31.3815L156.999 32.656L155.457 33.9305C156.717 35.4536 158.214 36.6586 159.942 37.5229L160.837 35.734ZM156.999 32.656L158.566 31.4138C157.667 30.2792 156.935 28.8991 156.391 27.2434L154.491 27.868L152.591 28.4926C153.262 30.5356 154.202 32.3475 155.431 33.8982L156.999 32.656ZM154.491 27.868L156.401 27.2744C155.886 25.62 155.617 23.7464 155.617 21.636H153.617H151.617C151.617 24.0856 151.93 26.3666 152.581 28.4616L154.491 27.868ZM200.605 33.9V35.9C201.709 35.9 202.605 35.0046 202.605 33.9H200.605ZM200.605 29.224H202.605C202.605 28.1194 201.709 27.224 200.605 27.224V29.224ZM192.597 29.224V27.224C191.492 27.224 190.597 28.1194 190.597 29.224H192.597ZM192.597 33.9H190.597C190.597 35.0046 191.492 35.9 192.597 35.9V33.9ZM180.977 30.036L180.389 28.1244C179.724 28.3289 179.213 28.864 179.04 29.5375C178.867 30.2109 179.055 30.9261 179.539 31.426L180.977 30.036ZM189.965 25.444L191.181 27.0318C191.619 26.6958 191.9 26.1935 191.955 25.6438C192.01 25.0941 191.835 24.5461 191.472 24.1297L189.965 25.444ZM186.381 22.028L187.688 20.5144C186.959 19.8845 185.884 19.8643 185.131 20.4663L186.381 22.028ZM183.693 23.932L181.944 24.9033C182.213 25.3874 182.671 25.7383 183.208 25.8724C183.746 26.0066 184.314 25.912 184.779 25.6111L183.693 23.932ZM180.977 20.712L180.021 18.9554C179.429 19.2775 179.039 19.8759 178.984 20.5474C178.928 21.2189 179.215 21.8732 179.745 22.288L180.977 20.712ZM189.853 11.864L190.26 9.90583C189.371 9.72121 188.47 10.1579 188.064 10.9696L189.853 11.864ZM194.165 12.76L195.939 13.6827C196.228 13.127 196.24 12.4681 195.972 11.9023C195.703 11.3365 195.185 10.9292 194.572 10.8018L194.165 12.76ZM192.961 14.776L191.286 13.6835C190.885 14.2982 190.853 15.0832 191.202 15.7286C191.552 16.374 192.227 16.776 192.961 16.776V14.776ZM198.169 14.776V16.776C198.366 16.776 198.562 16.7468 198.751 16.6893L198.169 14.776ZM198.813 14.58L199.779 12.8291C199.306 12.5679 198.748 12.5093 198.23 12.6667L198.813 14.58ZM201.501 16.064L203.389 16.7222C203.71 15.8018 203.321 14.7842 202.467 14.3131L201.501 16.064ZM195.845 25.556L194.377 24.1975C193.837 24.7809 193.694 25.6286 194.012 26.3569C194.33 27.0853 195.05 27.556 195.845 27.556V25.556ZM204.637 25.556H206.637C206.637 24.4514 205.741 23.556 204.637 23.556V25.556ZM204.637 38.66V40.66C205.741 40.66 206.637 39.7646 206.637 38.66H204.637ZM200.605 38.66H198.605C198.605 39.7646 199.5 40.66 200.605 40.66V38.66ZM200.605 37.568H202.605C202.605 36.4634 201.709 35.568 200.605 35.568V37.568ZM192.597 37.568V35.568C191.492 35.568 190.597 36.4634 190.597 37.568H192.597ZM192.597 38.632V40.632C193.701 40.632 194.597 39.7366 194.597 38.632H192.597ZM188.733 38.632H186.733C186.733 39.7366 187.628 40.632 188.733 40.632V38.632ZM188.733 31.156H190.733C190.733 30.4406 190.351 29.7797 189.731 29.4227C189.111 29.0658 188.347 29.0672 187.728 29.4264L188.733 31.156ZM183.245 33.676L181.404 34.4583C181.821 35.4394 182.934 35.921 183.935 35.5532L183.245 33.676ZM189.321 19.396L187.848 18.0427C187.469 18.4551 187.28 19.0075 187.328 19.5655C187.375 20.1236 187.655 20.6361 188.098 20.9786L189.321 19.396ZM193.101 22.616L191.687 24.0302C192.07 24.4135 192.592 24.6248 193.134 24.6157C193.677 24.6066 194.192 24.3778 194.562 23.9818L193.101 22.616ZM196.181 18.36L197.937 19.3177C198.275 18.698 198.261 17.9461 197.901 17.3391C197.54 16.7321 196.887 16.36 196.181 16.36V18.36ZM190.273 18.36V16.36C189.713 16.36 189.179 16.5946 188.8 17.0067L190.273 18.36ZM200.605 33.9H202.605V29.224H200.605H198.605V33.9H200.605ZM200.605 29.224V27.224H192.597V29.224V31.224H200.605V29.224ZM192.597 29.224H190.597V33.9H192.597H194.597V29.224H192.597ZM192.597 33.9V35.9H200.605V33.9V31.9H192.597V33.9ZM180.977 30.036L181.565 31.9476C185.057 30.8731 188.352 29.1988 191.181 27.0318L189.965 25.444L188.749 23.8562C186.314 25.7212 183.448 27.1829 180.389 28.1244L180.977 30.036ZM189.965 25.444L191.472 24.1297C190.417 22.9195 188.919 21.5776 187.688 20.5144L186.381 22.028L185.074 23.5416C186.306 24.6064 187.608 25.7845 188.457 26.7583L189.965 25.444ZM186.381 22.028L185.131 20.4663C184.365 21.0792 183.531 21.6543 182.606 22.2529L183.693 23.932L184.779 25.6111C185.758 24.9777 186.716 24.3208 187.63 23.5897L186.381 22.028ZM183.693 23.932L185.441 22.9607C184.763 21.7393 183.333 20.0149 182.208 19.136L180.977 20.712L179.745 22.288C180.412 22.8091 181.503 24.1087 181.944 24.9033L183.693 23.932ZM180.977 20.712L181.933 22.4686C186.714 19.8665 189.889 16.2627 191.642 12.7584L189.853 11.864L188.064 10.9696C186.68 13.7373 184.088 16.7415 180.021 18.9554L180.977 20.712ZM189.853 11.864L189.446 13.8222L193.758 14.7182L194.165 12.76L194.572 10.8018L190.26 9.90583L189.853 11.864ZM194.165 12.76L192.39 11.8373C192.072 12.4494 191.694 13.0564 191.286 13.6835L192.961 14.776L194.636 15.8685C195.067 15.2076 195.529 14.4706 195.939 13.6827L194.165 12.76ZM192.961 14.776V16.776H198.169V14.776V12.776H192.961V14.776ZM198.169 14.776L198.751 16.6893L199.395 16.4933L198.813 14.58L198.23 12.6667L197.586 12.8627L198.169 14.776ZM198.813 14.58L197.846 16.3309L200.534 17.8149L201.501 16.064L202.467 14.3131L199.779 12.8291L198.813 14.58ZM201.501 16.064L199.612 15.4058C198.414 18.8444 196.624 21.7694 194.377 24.1975L195.845 25.556L197.313 26.9145C199.937 24.0786 202.012 20.6756 203.389 16.7222L201.501 16.064ZM195.845 25.556V27.556H204.637V25.556V23.556H195.845V25.556ZM204.637 25.556H202.637V38.66H204.637H206.637V25.556H204.637ZM204.637 38.66V36.66H200.605V38.66V40.66H204.637V38.66ZM200.605 38.66H202.605V37.568H200.605H198.605V38.66H200.605ZM200.605 37.568V35.568H192.597V37.568V39.568H200.605V37.568ZM192.597 37.568H190.597V38.632H192.597H194.597V37.568H192.597ZM192.597 38.632V36.632H188.733V38.632V40.632H192.597V38.632ZM188.733 38.632H190.733V31.156H188.733H186.733V38.632H188.733ZM188.733 31.156L187.728 29.4264C186.12 30.3602 184.385 31.1261 182.555 31.7988L183.245 33.676L183.935 35.5532C185.913 34.8259 187.873 33.9678 189.737 32.8856L188.733 31.156ZM183.245 33.676L185.085 32.8937C184.557 31.6498 183.46 29.7272 182.415 28.646L180.977 30.036L179.539 31.426C180.118 32.0248 180.981 33.4622 181.404 34.4583L183.245 33.676ZM189.321 19.396L188.098 20.9786C189.319 21.9223 190.718 23.0616 191.687 24.0302L193.101 22.616L194.515 21.2018C193.356 20.0424 191.786 18.7737 190.544 17.8134L189.321 19.396ZM193.101 22.616L194.562 23.9818C195.879 22.5731 197.014 21.0085 197.937 19.3177L196.181 18.36L194.425 17.4023C193.667 18.7915 192.731 20.0829 191.64 21.2502L193.101 22.616ZM196.181 18.36V16.36H190.273V18.36V20.36H196.181V18.36ZM190.273 18.36L188.8 17.0067L187.848 18.0427L189.321 19.396L190.793 20.7492L191.745 19.7132L190.273 18.36ZM215.814 30.092L213.948 30.81C214.216 31.5069 214.85 31.9965 215.592 32.0796C216.334 32.1627 217.06 31.8255 217.476 31.2051L215.814 30.092ZM214.722 27.404L216.568 26.6348C216.202 25.7547 215.265 25.2559 214.33 25.4428C213.395 25.6298 212.722 26.4506 212.722 27.404H214.722ZM214.722 38.66V40.66C215.827 40.66 216.722 39.7646 216.722 38.66H214.722ZM211.222 38.66H209.222C209.222 39.7646 210.118 40.66 211.222 40.66V38.66ZM211.222 29.504H213.222C213.222 28.5231 212.511 27.6869 211.543 27.5298C210.574 27.3727 209.635 27.941 209.325 28.8715L211.222 29.504ZM209.262 33.816L207.337 34.3589C207.55 35.1124 208.182 35.6726 208.956 35.7924C209.73 35.9123 210.502 35.5698 210.933 34.916L209.262 33.816ZM207.61 30.204L205.96 29.0746C205.531 29.7013 205.494 30.5168 205.864 31.1796L207.61 30.204ZM210.97 21.468L212.928 21.8773C213.051 21.2878 212.902 20.6742 212.522 20.2068C212.143 19.7394 211.572 19.468 210.97 19.468V21.468ZM208.282 21.468H206.282C206.282 22.5726 207.178 23.468 208.282 23.468V21.468ZM208.282 17.716V15.716C207.178 15.716 206.282 16.6114 206.282 17.716H208.282ZM211.222 17.716V19.716C212.327 19.716 213.222 18.8206 213.222 17.716H211.222ZM211.222 12.06V10.06C210.118 10.06 209.222 10.9554 209.222 12.06H211.222ZM214.722 12.06H216.722C216.722 10.9554 215.827 10.06 214.722 10.06V12.06ZM214.722 17.716H212.722C212.722 18.8206 213.618 19.716 214.722 19.716V17.716ZM217.158 17.716H219.158C219.158 16.6114 218.263 15.716 217.158 15.716V17.716ZM217.158 21.468V23.468C218.263 23.468 219.158 22.5726 219.158 21.468H217.158ZM214.722 21.468V19.468C213.618 19.468 212.722 20.3634 212.722 21.468H214.722ZM214.722 22.392H212.722C212.722 22.8036 212.849 23.2051 213.086 23.5419L214.722 22.392ZM217.746 27.208L219.408 28.3211C219.839 27.6777 219.86 26.8431 219.461 26.179L217.746 27.208ZM216.262 33.48L215.462 31.6469C214.964 31.8645 214.575 32.2757 214.387 32.7859C214.198 33.296 214.225 33.861 214.462 34.3507L216.262 33.48ZM222.282 30.484L224.198 29.9108C224.028 29.3399 223.611 28.8749 223.062 28.6424C222.514 28.41 221.89 28.4343 221.361 28.7088L222.282 30.484ZM223.262 33.76L224.285 35.4786C225.073 35.0097 225.441 34.0651 225.178 33.1868L223.262 33.76ZM220.91 35.16L219.887 33.4414C219.137 33.8879 218.763 34.7692 218.964 35.6188C219.164 36.4685 219.892 37.0901 220.762 37.1545L220.91 35.16ZM223.318 25.668H225.318C225.318 24.5634 224.423 23.668 223.318 23.668V25.668ZM217.298 25.668H215.298C215.298 26.7726 216.194 27.668 217.298 27.668V25.668ZM217.298 22.392V20.392C216.194 20.392 215.298 21.2874 215.298 22.392H217.298ZM223.318 22.392V24.392C224.423 24.392 225.318 23.4966 225.318 22.392H223.318ZM223.318 21.72H225.318C225.318 20.6154 224.423 19.72 223.318 19.72V21.72ZM218.474 21.72H216.474C216.474 22.8246 217.37 23.72 218.474 23.72V21.72ZM218.474 18.724V16.724C217.37 16.724 216.474 17.6194 216.474 18.724H218.474ZM223.318 18.724V20.724C224.423 20.724 225.318 19.8286 225.318 18.724H223.318ZM223.318 18.108H225.318C225.318 17.0034 224.423 16.108 223.318 16.108V18.108ZM217.802 18.108H215.802C215.802 19.2126 216.698 20.108 217.802 20.108V18.108ZM217.802 14.944V12.944C216.698 12.944 215.802 13.8394 215.802 14.944H217.802ZM220.154 14.944V16.944C220.821 16.944 221.443 16.6121 221.815 16.0588C222.186 15.5055 222.258 14.8035 222.005 14.1867L220.154 14.944ZM219.314 13.152L218.656 11.2635C218.093 11.4598 217.647 11.8972 217.439 12.4563C217.232 13.0154 217.285 13.638 217.583 14.1541L219.314 13.152ZM222.366 12.088L224.071 11.0429C223.58 10.2409 222.596 9.88984 221.708 10.1995L222.366 12.088ZM223.766 14.944L221.869 15.5765C222.141 16.3931 222.905 16.944 223.766 16.944V14.944ZM226.762 14.944V16.944C227.565 16.944 228.29 16.4641 228.603 15.7251L226.762 14.944ZM227.77 12.004L228.235 10.0588C227.718 9.93503 227.172 10.0227 226.719 10.3025C226.266 10.5823 225.944 11.0311 225.823 11.5495L227.77 12.004ZM231.634 12.928L233.338 13.9762C233.674 13.4301 233.727 12.756 233.482 12.1635C233.237 11.571 232.723 11.132 232.099 10.9828L231.634 12.928ZM230.402 14.944L228.715 13.8702C228.323 14.4861 228.298 15.2665 228.649 15.9064C229 16.5463 229.672 16.944 230.402 16.944V14.944ZM232.446 14.944H234.446C234.446 13.8394 233.551 12.944 232.446 12.944V14.944ZM232.446 18.108V20.108C233.551 20.108 234.446 19.2126 234.446 18.108H232.446ZM227.042 18.108V16.108C225.938 16.108 225.042 17.0034 225.042 18.108H227.042ZM227.042 18.724H225.042C225.042 19.8286 225.938 20.724 227.042 20.724V18.724ZM231.914 18.724H233.914C233.914 17.6194 233.019 16.724 231.914 16.724V18.724ZM231.914 21.72V23.72C233.019 23.72 233.914 22.8246 233.914 21.72H231.914ZM227.042 21.72V19.72C225.938 19.72 225.042 20.6154 225.042 21.72H227.042ZM227.042 22.392H225.042C225.042 23.4966 225.938 24.392 227.042 24.392V22.392ZM233.006 22.392H235.006C235.006 21.2874 234.111 20.392 233.006 20.392V22.392ZM233.006 25.668V27.668C234.111 27.668 235.006 26.7726 235.006 25.668H233.006ZM227.042 25.668V23.668C225.938 23.668 225.042 24.5634 225.042 25.668H227.042ZM227.042 26.648H225.042C225.042 26.8717 225.08 27.0938 225.153 27.305L227.042 26.648ZM227.854 28.524L226.083 29.452C226.378 30.0156 226.924 30.4051 227.553 30.5011C228.181 30.5971 228.819 30.3881 229.268 29.9382L227.854 28.524ZM230.066 25.92L231.256 24.3126C230.825 23.9935 230.284 23.8608 229.754 23.9445C229.225 24.0281 228.751 24.3211 228.439 24.7575L230.066 25.92ZM232.978 28.076L234.41 29.4722C234.813 29.0587 235.018 28.4911 234.972 27.9154C234.925 27.3398 234.632 26.8123 234.168 26.4686L232.978 28.076ZM229.674 31.184L228.373 29.6655C227.969 30.0111 227.72 30.5029 227.68 31.0325C227.64 31.5621 227.812 32.0859 228.158 32.4885L229.674 31.184ZM233.51 34.012L234.899 35.4517C235.383 34.9844 235.6 34.3046 235.476 33.643C235.352 32.9813 234.903 32.4266 234.282 32.1668L233.51 34.012ZM231.074 37.316L230.054 39.0361C230.528 39.3175 231.098 39.3905 231.628 39.2378C232.158 39.0851 232.601 38.7203 232.853 38.2296L231.074 37.316ZM227.042 33.2L228.74 32.1425C228.268 31.3847 227.351 31.0316 226.492 31.2771C225.634 31.5226 225.042 32.3072 225.042 33.2H227.042ZM225.81 38.044L226.839 39.759C226.847 39.7546 226.854 39.7501 226.861 39.7456L225.81 38.044ZM221.834 38.716L219.841 38.8776C219.925 39.9161 220.792 40.716 221.834 40.716V38.716ZM220.882 35.188L222.712 34.3807C222.481 33.857 222.037 33.4573 221.491 33.283C220.946 33.1087 220.352 33.1764 219.86 33.4689L220.882 35.188ZM217.914 36.896L216.114 37.7667C216.352 38.2595 216.782 38.6331 217.303 38.8004C217.824 38.9676 218.391 38.9139 218.872 38.6518L217.914 36.896ZM217.606 27.824L216.469 26.179C216.001 26.5024 215.693 27.0097 215.622 27.5739C215.551 28.1382 215.723 28.706 216.096 29.1354L217.606 27.824ZM220.238 26.004L221.693 24.632C221.015 23.9128 219.914 23.7968 219.101 24.359L220.238 26.004ZM222.842 29.308L224.019 30.9255C224.837 30.3299 225.082 29.2163 224.588 28.3324L222.842 29.308ZM220.07 31.324L218.261 32.1756C218.514 32.7151 218.996 33.1132 219.573 33.2613C220.151 33.4094 220.764 33.2922 221.247 32.9415L220.07 31.324ZM215.814 30.092L217.681 29.374C217.39 28.617 216.988 27.6413 216.568 26.6348L214.722 27.404L212.876 28.1732C213.297 29.1827 213.679 30.111 213.948 30.81L215.814 30.092ZM214.722 27.404H212.722V38.66H214.722H216.722V27.404H214.722ZM214.722 38.66V36.66H211.222V38.66V40.66H214.722V38.66ZM211.222 38.66H213.222V29.504H211.222H209.222V38.66H211.222ZM211.222 29.504L209.325 28.8715C208.792 30.4712 208.213 31.7726 207.592 32.716L209.262 33.816L210.933 34.916C211.823 33.5634 212.533 31.8968 213.12 30.1365L211.222 29.504ZM209.262 33.816L211.187 33.2731C210.807 31.926 209.882 30.1692 209.356 29.2284L207.61 30.204L205.864 31.1796C206.403 32.1428 207.101 33.522 207.337 34.3589L209.262 33.816ZM207.61 30.204L209.261 31.3334C210.924 28.9022 212.256 25.0891 212.928 21.8773L210.97 21.468L209.013 21.0587C208.396 24.0069 207.208 27.2498 205.96 29.0746L207.61 30.204ZM210.97 21.468V19.468H208.282V21.468V23.468H210.97V21.468ZM208.282 21.468H210.282V17.716H208.282H206.282V21.468H208.282ZM208.282 17.716V19.716H211.222V17.716V15.716H208.282V17.716ZM211.222 17.716H213.222V12.06H211.222H209.222V17.716H211.222ZM211.222 12.06V14.06H214.722V12.06V10.06H211.222V12.06ZM214.722 12.06H212.722V17.716H214.722H216.722V12.06H214.722ZM214.722 17.716V19.716H217.158V17.716V15.716H214.722V17.716ZM217.158 17.716H215.158V21.468H217.158H219.158V17.716H217.158ZM217.158 21.468V19.468H214.722V21.468V23.468H217.158V21.468ZM214.722 21.468H212.722V22.392H214.722H216.722V21.468H214.722ZM214.722 22.392L213.086 23.5419C213.763 24.506 215.599 27.5159 216.031 28.237L217.746 27.208L219.461 26.179C219.054 25.5001 217.137 22.35 216.359 21.2421L214.722 22.392ZM217.746 27.208L216.085 26.0949L214.153 28.9789L215.814 30.092L217.476 31.2051L219.408 28.3211L217.746 27.208ZM216.262 33.48L217.062 35.3131C218.679 34.6076 221.018 33.3934 223.204 32.2592L222.282 30.484L221.361 28.7088C219.123 29.8706 216.926 31.0084 215.462 31.6469L216.262 33.48ZM222.282 30.484L220.366 31.0572L221.346 34.3332L223.262 33.76L225.178 33.1868L224.198 29.9108L222.282 30.484ZM223.262 33.76L222.239 32.0414L219.887 33.4414L220.91 35.16L221.933 36.8786L224.285 35.4786L223.262 33.76ZM220.91 35.16L220.762 37.1545C221.604 37.2168 222.6 37.216 222.898 37.216V35.216V33.216C222.581 33.216 221.729 33.2152 221.058 33.1655L220.91 35.16ZM222.898 35.216V37.216C223.308 37.216 224.094 37.1267 224.707 36.4493C225.276 35.8197 225.318 35.0855 225.318 34.768H223.318H221.318C221.318 34.7585 221.304 34.2483 221.741 33.7657C222.221 33.2353 222.797 33.216 222.898 33.216V35.216ZM223.318 34.768H225.318V25.668H223.318H221.318V34.768H223.318ZM223.318 25.668V23.668H217.298V25.668V27.668H223.318V25.668ZM217.298 25.668H219.298V22.392H217.298H215.298V25.668H217.298ZM217.298 22.392V24.392H223.318V22.392V20.392H217.298V22.392ZM223.318 22.392H225.318V21.72H223.318H221.318V22.392H223.318ZM223.318 21.72V19.72H218.474V21.72V23.72H223.318V21.72ZM218.474 21.72H220.474V18.724H218.474H216.474V21.72H218.474ZM218.474 18.724V20.724H223.318V18.724V16.724H218.474V18.724ZM223.318 18.724H225.318V18.108H223.318H221.318V18.724H223.318ZM223.318 18.108V16.108H217.802V18.108V20.108H223.318V18.108ZM217.802 18.108H219.802V14.944H217.802H215.802V18.108H217.802ZM217.802 14.944V16.944H220.154V14.944V12.944H217.802V14.944ZM220.154 14.944L222.005 14.1867C221.75 13.5617 221.427 12.8088 221.045 12.1499L219.314 13.152L217.583 14.1541C217.818 14.5592 218.055 15.0943 218.303 15.7013L220.154 14.944ZM219.314 13.152L219.973 15.0405L223.025 13.9765L222.366 12.088L221.708 10.1995L218.656 11.2635L219.314 13.152ZM222.366 12.088L220.661 13.1331C221.152 13.9349 221.656 14.9377 221.869 15.5765L223.766 14.944L225.664 14.3115C225.317 13.2703 224.644 11.9771 224.071 11.0429L222.366 12.088ZM223.766 14.944V16.944H226.762V14.944V12.944H223.766V14.944ZM226.762 14.944L228.603 15.7251C229.019 14.7466 229.486 13.4537 229.718 12.4585L227.77 12.004L225.823 11.5495C225.663 12.2343 225.29 13.2934 224.921 14.1629L226.762 14.944ZM227.77 12.004L227.305 13.9492L231.169 14.8732L231.634 12.928L232.099 10.9828L228.235 10.0588L227.77 12.004ZM231.634 12.928L229.931 11.8798C229.443 12.6721 229.102 13.2612 228.715 13.8702L230.402 14.944L232.09 16.0177C232.486 15.3948 232.929 14.6399 233.338 13.9762L231.634 12.928ZM230.402 14.944V16.944H232.446V14.944V12.944H230.402V14.944ZM232.446 14.944H230.446V18.108H232.446H234.446V14.944H232.446ZM232.446 18.108V16.108H227.042V18.108V20.108H232.446V18.108ZM227.042 18.108H225.042V18.724H227.042H229.042V18.108H227.042ZM227.042 18.724V20.724H231.914V18.724V16.724H227.042V18.724ZM231.914 18.724H229.914V21.72H231.914H233.914V18.724H231.914ZM231.914 21.72V19.72H227.042V21.72V23.72H231.914V21.72ZM227.042 21.72H225.042V22.392H227.042H229.042V21.72H227.042ZM227.042 22.392V24.392H233.006V22.392V20.392H227.042V22.392ZM233.006 22.392H231.006V25.668H233.006H235.006V22.392H233.006ZM233.006 25.668V23.668H227.042V25.668V27.668H233.006V25.668ZM227.042 25.668H225.042V26.648H227.042H229.042V25.668H227.042ZM227.042 26.648L225.153 27.305C225.41 28.0428 225.729 28.7774 226.083 29.452L227.854 28.524L229.626 27.596C229.363 27.0946 229.123 26.5412 228.931 25.991L227.042 26.648ZM227.854 28.524L229.268 29.9382C230.161 29.0459 231.072 27.9533 231.694 27.0825L230.066 25.92L228.439 24.7575C227.941 25.4547 227.172 26.3781 226.44 27.1098L227.854 28.524ZM230.066 25.92L228.876 27.5274L231.788 29.6834L232.978 28.076L234.168 26.4686L231.256 24.3126L230.066 25.92ZM232.978 28.076L231.546 26.6798C230.495 27.7575 229.307 28.8647 228.373 29.6655L229.674 31.184L230.976 32.7025C232.002 31.8233 233.277 30.6345 234.41 29.4722L232.978 28.076ZM229.674 31.184L228.158 32.4885C229.372 33.8991 230.879 35.0793 232.739 35.8572L233.51 34.012L234.282 32.1668C233.062 31.6567 232.048 30.8769 231.19 29.8795L229.674 31.184ZM233.51 34.012L232.122 32.5723C231.174 33.4865 229.924 35.1779 229.295 36.4024L231.074 37.316L232.853 38.2296C233.289 37.3821 234.279 36.0495 234.899 35.4517L233.51 34.012ZM231.074 37.316L232.095 35.5959C230.782 34.8173 229.679 33.6498 228.74 32.1425L227.042 33.2L225.345 34.2575C226.534 36.1662 228.062 37.8547 230.054 39.0361L231.074 37.316ZM227.042 33.2H225.042V34.796H227.042H229.042V33.2H227.042ZM227.042 34.796H225.042C225.042 35.5804 224.972 35.9674 224.901 36.1626C224.873 36.2414 224.852 36.268 224.847 36.2734C224.843 36.2783 224.824 36.3021 224.759 36.3424L225.81 38.044L226.861 39.7456C227.729 39.2095 228.326 38.4598 228.665 37.5174C228.973 36.6626 229.042 35.7196 229.042 34.796H227.042ZM225.81 38.044L224.781 36.329C224.344 36.5912 223.613 36.716 221.834 36.716V38.716V40.716C223.472 40.716 225.316 40.6728 226.839 39.759L225.81 38.044ZM221.834 38.716L223.828 38.5544C223.721 37.2417 223.198 35.4812 222.712 34.3807L220.882 35.188L219.052 35.9953C219.407 36.7988 219.779 38.1183 219.841 38.8776L221.834 38.716ZM220.882 35.188L219.86 33.4689C218.83 34.0814 217.847 34.6543 216.957 35.1402L217.914 36.896L218.872 38.6518C219.829 38.1297 220.862 37.5266 221.904 36.9071L220.882 35.188ZM217.914 36.896L219.715 36.0253L218.063 32.6093L216.262 33.48L214.462 34.3507L216.114 37.7667L217.914 36.896ZM217.606 27.824L218.744 29.469L221.376 27.649L220.238 26.004L219.101 24.359L216.469 26.179L217.606 27.824ZM220.238 26.004L218.783 27.376C219.688 28.3361 220.691 29.5592 221.096 30.2836L222.842 29.308L224.588 28.3324C223.929 27.1528 222.636 25.6319 221.693 24.632L220.238 26.004ZM222.842 29.308L221.666 27.6905L218.894 29.7065L220.07 31.324L221.247 32.9415L224.019 30.9255L222.842 29.308ZM220.07 31.324L221.88 30.4724C221.313 29.2669 220.075 27.6164 219.116 26.5126L217.606 27.824L216.096 29.1354C216.986 30.1596 217.932 31.4771 218.261 32.1756L220.07 31.324Z" fill="white" mask="url(#path-2-outside-1_234_9779)"/>
</g>
<defs>
<filter id="filter0_d_234_9779" x="96.2646" y="0.511719" width="143.246" height="44.2041" filterUnits="userSpaceOnUse" color-interpolation-filters="sRGB">
<feFlood flood-opacity="0" result="BackgroundImageFix"/>
<feColorMatrix in="SourceAlpha" type="matrix" values="0 0 0 0 0 0 0 0 0 0 0 0 0 0 0 0 0 0 127 0" result="hardAlpha"/>
<feOffset/>
<feGaussianBlur stdDeviation="2"/>
<feComposite in2="hardAlpha" operator="out"/>
<feColorMatrix type="matrix" values="0 0 0 0 0 0 0 0 0 0 0 0 0 0 0 0 0 0 0.45 0"/>
<feBlend mode="normal" in2="BackgroundImageFix" result="effect1_dropShadow_234_9779"/>
<feBlend mode="normal" in="SourceGraphic" in2="effect1_dropShadow_234_9779" result="shape"/>
</filter>
<linearGradient id="paint0_linear_234_9779" x1="91.998" y1="28.5" x2="242.998" y2="28.5" gradientUnits="userSpaceOnUse">
<stop stop-color="#FF4D00"/>
<stop offset="1" stop-color="#FF9500"/>
</linearGradient>
</defs>
</svg>
