<svg width="184" height="106" viewBox="0 0 184 106" fill="none" xmlns="http://www.w3.org/2000/svg">
<path d="M7.78 24.02C7.16 24.2 6.52 24.36 5.88 24.54V28.96C5.88 30.26 5.66 30.96 4.96 31.38C4.24 31.82 3.28 31.9 1.9 31.9C1.84 31.16 1.48 30.02 1.16 29.28C1.84 29.32 2.6 29.32 2.86 29.32C3.12 29.32 3.22 29.22 3.22 28.94V25.24L1.46 25.7L0.8 22.92C1.5 22.78 2.32 22.6 3.22 22.4V19.22H1.1V16.54H3.22V12.9H5.88V16.54H7.54V19.22H5.88V21.78L7.46 21.4L7.78 24.02ZM7.86 31.88V17.3H11.82V12.94H14.42V17.3H18.62V31.74H15.88V30.4H10.48V31.88H7.86ZM10.48 27.62H11.82V25.08H10.48V27.62ZM10.48 22.38H11.82V20.06H10.48V22.38ZM14.42 27.62H15.88V25.08H14.42V27.62ZM14.42 22.38H15.88V20.06H14.42V22.38ZM35.4439 18.14C35.7639 18.14 35.8639 18.04 35.9439 17.56H33.8239V17.62C33.8239 18.08 33.9039 18.14 34.3239 18.14H35.4439ZM19.8039 28.92C20.4639 28.46 21.2039 27.9 21.8839 27.3V23.32H20.1039V20.64H24.4439V27.06C24.9239 27.98 25.6839 28.52 26.7439 28.78C26.2239 28.28 25.4839 27.66 25.0239 27.32C26.1239 27.02 27.2639 26.6 28.0639 26.12H24.9239V24.02H27.8239V23H25.4439V20.94H27.8239V20.08H30.4039V20.94H32.1039V20.08H34.7239V20.94H37.1839V23H34.7239V24.02H37.7639V26.12H34.5439C35.7639 26.74 37.1039 27.46 37.8839 28L35.2839 28.94C36.3839 28.9 37.4039 28.84 38.2639 28.76C37.9639 29.4 37.5639 30.66 37.4439 31.46C34.8839 31.6 30.6239 31.64 28.1039 31.52C25.9039 31.42 24.4639 30.88 23.3439 29.34C22.6839 30.1 21.9839 30.82 21.0839 31.7L19.8039 28.92ZM19.8639 14.8L22.0439 13.36C22.9839 14.32 24.1239 15.66 24.6039 16.64L22.2439 18.26C21.8439 17.3 20.7839 15.84 19.8639 14.8ZM25.0839 15.2V13.42H30.7439V17.56H29.7839C30.2039 17.84 31.0039 18.1 31.5639 18.22C31.3439 19.62 30.7439 20.02 29.4839 20.02H27.7039C25.8439 20.02 25.3439 19.48 25.3439 17.64V15.76H28.4439V15.2H25.0839ZM27.3839 28.9L28.1039 28.96C29.7639 29.04 32.4439 29.04 34.9039 28.96C34.1839 28.38 32.9639 27.54 31.8039 26.94L33.2039 26.12H29.4239L30.9639 26.68C30.0639 27.54 28.6439 28.36 27.3839 28.9ZM27.5839 17.62C27.5839 18.08 27.6639 18.14 28.0639 18.14H29.2039C29.5239 18.14 29.6039 18.04 29.6839 17.56H27.5839V17.62ZM30.4039 24.02H32.1039V23H30.4039V24.02ZM31.2439 15.2V13.42H37.0839V17.56H36.0439C36.4439 17.84 37.2439 18.1 37.8239 18.22C37.5839 19.62 37.0039 20.02 35.7239 20.02H33.9639C32.1039 20.02 31.5839 19.48 31.5839 17.64V15.76H34.7439V15.2H31.2439ZM51.2478 23.56V20.4H52.7678V23.56H51.2478ZM39.6678 19.1V16.04H52.7878V19.1C51.3478 19.26 50.3078 19.6 49.3678 20.14C49.2278 20.22 49.0678 20.3 48.9278 20.4H50.3878V23.56H48.8678V20.44C47.2878 21.48 46.1078 22.92 45.6878 24.24C45.0678 26.22 46.2878 27.84 48.3078 28C49.3878 28.1 51.1678 27.98 52.2078 27.82V31.02C50.6478 31.22 48.8078 31.18 48.0678 31.12C45.2878 30.88 41.7678 29.4 42.4078 24.6C42.6278 22.84 43.4478 21.62 44.3878 20.56C44.9878 19.88 45.5278 19.44 45.9878 19.1H39.6678ZM174.536 30.88C171.236 30.74 169.856 29.3 169.696 27.06C169.636 25.7 169.916 24.84 170.476 23.8H173.256C172.756 24.76 172.516 25.4 172.496 26.22C172.496 27.2 173.016 27.68 174.736 27.74C175.456 27.76 176.556 27.7 178.256 27.5V30.68C177.776 30.78 176.196 30.94 174.536 30.88ZM165.416 23.5C165.416 21 165.616 18.88 165.996 15.82H168.996C168.576 19.14 168.396 21.02 168.416 23.44C168.436 25.96 168.656 28.14 169.156 31.26H166.056C165.636 28.28 165.416 26.16 165.416 23.5ZM170.296 19.76V16.7H177.896V19.76H170.296ZM28.7291 55.936C27.1211 59.608 24.3851 63.088 19.4171 65.992V61.408C23.6651 58.384 25.3211 55.936 26.7131 52.672H19.4171V49H28.7291V46H32.4731V49H35.2091V52.672H32.4731V66.4H28.7291V55.936ZM41.0902 62.152C45.4822 61.504 47.9062 59.632 47.9062 54.76V46.288H51.6262V54.76C51.6262 61.552 48.1222 64.912 41.0902 66.112V62.152ZM38.5222 57.544V46.288H42.2422V57.544H38.5222ZM66.8713 47.152V43.36H68.6953V47.152H66.8713ZM55.5433 65.56V61.648C62.5993 61.144 66.3193 56.92 67.6873 51.208H71.5033C69.9433 59.08 64.5913 64.72 55.5433 65.56ZM55.5433 56.488V52.72H62.5753V56.488H55.5433ZM55.5433 50.656V46.888H62.5753V50.656H55.5433ZM69.7273 47.152V43.36H71.5513V47.152H69.7273ZM74.4479 62.368C78.2159 61.24 80.4719 59.248 80.4719 55.744V54.184H73.4879V50.344H80.4719V46.096H84.3119V50.344H90.1919V54.184H84.3119L84.2879 55.744C84.1919 62.176 80.0639 64.912 74.4479 66.304V62.368ZM100.584 65.704V46.72H104.232V60.616C106.224 59.776 107.328 58.912 108.888 57.232V61.888C106.704 64.432 103.248 65.44 100.584 65.704ZM92.2558 65.296C93.9358 61.792 94.9198 58.192 94.9198 53.8V46.984H98.5438V53.8C98.5438 57.544 97.8478 62.608 96.2878 65.296H92.2558ZM121.898 47.152V43.36H123.722V47.152H121.898ZM111.41 58.144V53.512C111.818 53.224 112.394 52.72 113.138 51.64C114.026 50.32 114.962 48.592 115.442 46H119.234C119.114 46.888 118.898 47.728 118.706 48.496H126.602C126.602 53.104 125.93 56.152 125.234 57.664C122.45 63.712 116.21 66.016 113.186 66.496V62.608C114.674 62.44 117.362 61.216 119.21 59.512C121.154 57.76 122.306 55.624 122.57 52.072H117.242C116.066 53.872 115.37 54.712 114.53 55.576C113.69 56.44 112.178 57.76 111.41 58.144ZM124.754 47.152V43.36H126.578V47.152H124.754ZM130.544 58.024L129.152 49.792H131.624L133.088 58.024H130.544ZM130.664 65.968V62.632C133.64 62.104 135.68 60.352 137.048 58.096L137.096 58.024H134.576L133.184 49.792H135.656L137.096 58.024C138.56 55.552 139.208 52.552 139.352 49.84H142.496C142.208 53.704 141.248 57.376 139.424 60.256C137.552 63.208 134.72 65.344 130.664 65.968ZM155.871 46.528V43.36H157.695V46.528H155.871ZM144.807 66.208V61.744C149.487 58.984 152.463 55.696 154.383 50.872H145.695V47.008H159.495C158.823 50.728 157.311 53.896 155.655 56.464C156.975 58.408 159.015 60.232 160.455 61.432V66.112C157.623 64.072 155.607 62.152 153.519 59.368C151.575 61.768 147.879 64.816 144.807 66.208ZM158.727 46.528V43.36H160.551V46.528H158.727ZM38.4107 95.672C41.4827 95.24 43.7627 94.16 45.3227 92.408C46.8827 90.656 47.7227 88.184 47.8667 84.92H36.8507V81.08H48.4667C48.2747 80.696 48.1787 80.264 48.1787 79.808C48.1787 78.2 49.4747 76.904 51.1067 76.904C52.7147 76.904 54.0107 78.2 54.0107 79.808C54.0107 81.272 52.9547 82.472 51.5627 82.712V84.608C51.5627 88.256 50.5547 91.952 47.9867 94.784C45.8987 97.088 42.8027 98.816 38.4107 99.512V95.672ZM49.7627 79.808C49.7627 80.408 50.1707 80.936 50.7227 81.08H51.4427C51.9947 80.936 52.4027 80.408 52.4027 79.808C52.4027 79.088 51.8027 78.488 51.0827 78.488C50.3627 78.488 49.7627 79.088 49.7627 79.808ZM55.4787 99.752V80.72H59.2947V95.144C62.1747 94.448 65.3427 90.68 66.7107 87.272H70.6707C68.0067 94.52 62.8707 99.296 55.4787 99.752ZM84.7251 81.152V77.36H86.5491V81.152H84.7251ZM72.9651 87.224V83.528L75.7731 83.432V80.072H79.3251V83.312L89.3571 82.976V86.696H89.3331C88.5411 89.696 85.2051 93.032 81.2931 94.4V90.536C83.0451 90.056 85.0851 88.208 85.5891 86.792L79.3251 87.032C79.3251 90.344 79.3491 93.44 79.3731 93.896C79.5411 95.456 79.9011 95.936 81.9411 96.032C84.3411 96.128 87.8931 95.816 88.9971 95.696V99.56C87.2931 99.656 84.0291 99.824 81.5571 99.704C78.2211 99.56 76.0611 98.672 75.8691 94.688C75.7491 92.168 75.7731 90.104 75.7731 87.152L72.9651 87.224ZM87.5811 81.152V77.36H89.4051V81.152H87.5811ZM92.1364 84.92V81.176H99.6244V84.92H92.1364ZM92.1364 99.56V95.648C99.1924 95.144 102.912 90.92 104.28 85.208H108.096C106.536 93.08 101.184 98.72 92.1364 99.56ZM111.281 100.208V80.096H115.073V86.576H125.153V90.344H115.073V100.208H111.281ZM133.233 84.992L133.089 81.008H137.793L137.649 84.992L136.929 92.576H133.953L133.233 84.992ZM132.993 96.8C132.993 95.384 134.025 94.4 135.441 94.4C136.857 94.4 137.889 95.384 137.889 96.8C137.889 98.216 136.857 99.248 135.441 99.248C134.001 99.248 132.993 98.216 132.993 96.8Z" fill="black"/>
<g filter="url(#filter0_d_234_9780)">
<mask id="path-2-outside-1_234_9780" maskUnits="userSpaceOnUse" x="58" y="4.00098" width="104" height="30" fill="black">
<rect fill="white" x="58" y="4.00098" width="104" height="30"/>
<path d="M78.2102 30.001H60.0002L65.6102 24.181C67.0902 22.641 68.2502 21.341 69.0902 20.281C69.9302 19.201 70.5502 18.291 70.9502 17.551C71.3702 16.811 71.6302 16.211 71.7302 15.751C71.8302 15.291 71.8802 14.901 71.8802 14.581C71.8802 14.241 71.8202 13.911 71.7002 13.591C71.6002 13.271 71.4402 12.991 71.2202 12.751C71.0002 12.491 70.7302 12.291 70.4102 12.151C70.1102 11.991 69.7502 11.911 69.3302 11.911C68.5302 11.911 67.9002 12.171 67.4402 12.691C67.0002 13.211 66.7802 13.861 66.7802 14.641C66.7802 14.861 66.8102 15.181 66.8702 15.601H60.4502C60.4502 14.281 60.6602 13.081 61.0802 12.001C61.5202 10.921 62.1302 9.99098 62.9102 9.21098C63.6902 8.43098 64.6102 7.83098 65.6702 7.41098C66.7502 6.99098 67.9302 6.78098 69.2102 6.78098C70.4702 6.78098 71.6302 6.98098 72.6902 7.38098C73.7702 7.78098 74.7002 8.34098 75.4802 9.06098C76.2602 9.78098 76.8702 10.641 77.3102 11.641C77.7502 12.621 77.9702 13.691 77.9702 14.851C77.9702 16.091 77.7002 17.241 77.1602 18.301C76.6402 19.341 75.8002 20.411 74.6402 21.511L70.8902 25.021H78.2102V30.001ZM85.9708 18.661C85.9708 19.661 86.0608 20.571 86.2408 21.391C86.4208 22.211 86.6708 22.921 86.9908 23.521C87.3308 24.121 87.7308 24.591 88.1908 24.931C88.6508 25.251 89.1708 25.411 89.7508 25.411C90.3108 25.411 90.8208 25.251 91.2808 24.931C91.7608 24.591 92.1608 24.121 92.4808 23.521C92.8008 22.921 93.0508 22.211 93.2308 21.391C93.4108 20.571 93.5008 19.661 93.5008 18.661C93.5008 17.681 93.4108 16.781 93.2308 15.961C93.0508 15.121 92.8008 14.411 92.4808 13.831C92.1608 13.231 91.7608 12.771 91.2808 12.451C90.8208 12.111 90.3108 11.941 89.7508 11.941C89.1708 11.941 88.6508 12.111 88.1908 12.451C87.7308 12.771 87.3308 13.231 86.9908 13.831C86.6708 14.411 86.4208 15.121 86.2408 15.961C86.0608 16.781 85.9708 17.681 85.9708 18.661ZM80.1508 18.661C80.1508 16.861 80.3808 15.231 80.8408 13.771C81.3208 12.291 81.9808 11.031 82.8208 9.99097C83.6808 8.95098 84.6908 8.15098 85.8508 7.59098C87.0308 7.01098 88.3308 6.72098 89.7508 6.72098C91.1508 6.72098 92.4408 7.01098 93.6208 7.59098C94.8008 8.15098 95.8108 8.95098 96.6508 9.99097C97.4908 11.031 98.1408 12.291 98.6008 13.771C99.0808 15.231 99.3208 16.861 99.3208 18.661C99.3208 20.461 99.0808 22.101 98.6008 23.581C98.1408 25.041 97.4908 26.301 96.6508 27.361C95.8108 28.401 94.8008 29.211 93.6208 29.791C92.4408 30.351 91.1508 30.631 89.7508 30.631C88.3308 30.631 87.0308 30.351 85.8508 29.791C84.6908 29.211 83.6808 28.401 82.8208 27.361C81.9808 26.301 81.3208 25.041 80.8408 23.581C80.3808 22.101 80.1508 20.461 80.1508 18.661ZM106.361 18.661C106.361 19.661 106.451 20.571 106.631 21.391C106.811 22.211 107.061 22.921 107.381 23.521C107.721 24.121 108.121 24.591 108.581 24.931C109.041 25.251 109.561 25.411 110.141 25.411C110.701 25.411 111.211 25.251 111.671 24.931C112.151 24.591 112.551 24.121 112.871 23.521C113.191 22.921 113.441 22.211 113.621 21.391C113.801 20.571 113.891 19.661 113.891 18.661C113.891 17.681 113.801 16.781 113.621 15.961C113.441 15.121 113.191 14.411 112.871 13.831C112.551 13.231 112.151 12.771 111.671 12.451C111.211 12.111 110.701 11.941 110.141 11.941C109.561 11.941 109.041 12.111 108.581 12.451C108.121 12.771 107.721 13.231 107.381 13.831C107.061 14.411 106.811 15.121 106.631 15.961C106.451 16.781 106.361 17.681 106.361 18.661ZM100.541 18.661C100.541 16.861 100.771 15.231 101.231 13.771C101.711 12.291 102.371 11.031 103.211 9.99097C104.071 8.95098 105.081 8.15098 106.241 7.59098C107.421 7.01098 108.721 6.72098 110.141 6.72098C111.541 6.72098 112.831 7.01098 114.011 7.59098C115.191 8.15098 116.201 8.95098 117.041 9.99097C117.881 11.031 118.531 12.291 118.991 13.771C119.471 15.231 119.711 16.861 119.711 18.661C119.711 20.461 119.471 22.101 118.991 23.581C118.531 25.041 117.881 26.301 117.041 27.361C116.201 28.401 115.191 29.211 114.011 29.791C112.831 30.351 111.541 30.631 110.141 30.631C108.721 30.631 107.421 30.351 106.241 29.791C105.081 29.211 104.071 28.401 103.211 27.361C102.371 26.301 101.711 25.041 101.231 23.581C100.771 22.101 100.541 20.461 100.541 18.661ZM136.132 28.501V25.161H130.412V28.501H136.132ZM122.112 25.741C124.452 25.021 126.652 23.901 128.532 22.461C127.852 21.681 126.852 20.781 125.972 20.021C125.372 20.501 124.732 20.941 124.052 21.381C123.652 20.661 122.752 19.581 122.112 19.081C125.272 17.361 127.332 15.001 128.452 12.761L131.532 13.401C131.272 13.901 130.972 14.381 130.672 14.841H134.392L134.852 14.701L136.772 15.761C135.852 18.401 134.472 20.661 132.732 22.541H139.012V31.901H136.132V31.121H130.412V31.881H127.652V26.541C126.412 27.261 125.092 27.841 123.732 28.341C123.392 27.541 122.692 26.341 122.112 25.741ZM128.072 18.141C128.952 18.821 130.012 19.681 130.772 20.441C131.632 19.521 132.372 18.501 132.972 17.401H128.752L128.072 18.141ZM146.996 25.781C146.796 25.261 146.516 24.581 146.216 23.861V31.901H143.716V25.361C143.316 26.561 142.856 27.621 142.316 28.441C142.096 27.661 141.516 26.541 141.136 25.861C142.176 24.341 143.076 21.821 143.536 19.621H141.616V16.941H143.716V12.901H146.216V16.941H147.956V19.621H146.216V20.281C146.736 21.021 148.076 23.221 148.376 23.721L146.996 25.781ZM147.316 28.201C148.416 27.721 150.036 26.881 151.616 26.061L152.316 28.401L150.636 29.401C151.176 29.441 151.836 29.441 152.056 29.441C152.276 29.441 152.356 29.341 152.356 29.121V22.621H148.056V20.281H152.356V19.801H148.896V17.661H152.356V17.221H148.416V14.961H150.096C149.916 14.521 149.716 14.061 149.496 13.681L151.676 12.921C152.056 13.541 152.476 14.361 152.676 14.961H154.816C155.096 14.301 155.396 13.461 155.536 12.861L158.296 13.521C157.976 14.041 157.696 14.521 157.416 14.961H158.876V17.221H155.016V17.661H158.496V19.801H155.016V20.281H159.276V22.621H155.016V23.321C155.176 23.781 155.376 24.241 155.596 24.661C156.176 24.081 156.776 23.361 157.176 22.801L159.256 24.341C158.476 25.141 157.596 25.961 156.896 26.561C157.636 27.421 158.536 28.121 159.636 28.581C159.076 29.121 158.276 30.201 157.896 30.941C156.716 30.241 155.776 29.221 155.016 28.001V29.141C155.016 30.361 154.816 31.041 154.136 31.461C153.436 31.881 152.516 31.941 151.296 31.941C151.236 31.201 150.916 30.101 150.616 29.421C149.876 29.861 149.156 30.281 148.496 30.641L147.316 28.201ZM148.276 24.161L150.156 22.861C150.816 23.561 151.636 24.541 152.016 25.221L150.036 26.661C149.716 25.981 148.936 24.921 148.276 24.161Z"/>
</mask>
<path d="M78.2102 30.001H60.0002L65.6102 24.181C67.0902 22.641 68.2502 21.341 69.0902 20.281C69.9302 19.201 70.5502 18.291 70.9502 17.551C71.3702 16.811 71.6302 16.211 71.7302 15.751C71.8302 15.291 71.8802 14.901 71.8802 14.581C71.8802 14.241 71.8202 13.911 71.7002 13.591C71.6002 13.271 71.4402 12.991 71.2202 12.751C71.0002 12.491 70.7302 12.291 70.4102 12.151C70.1102 11.991 69.7502 11.911 69.3302 11.911C68.5302 11.911 67.9002 12.171 67.4402 12.691C67.0002 13.211 66.7802 13.861 66.7802 14.641C66.7802 14.861 66.8102 15.181 66.8702 15.601H60.4502C60.4502 14.281 60.6602 13.081 61.0802 12.001C61.5202 10.921 62.1302 9.99098 62.9102 9.21098C63.6902 8.43098 64.6102 7.83098 65.6702 7.41098C66.7502 6.99098 67.9302 6.78098 69.2102 6.78098C70.4702 6.78098 71.6302 6.98098 72.6902 7.38098C73.7702 7.78098 74.7002 8.34098 75.4802 9.06098C76.2602 9.78098 76.8702 10.641 77.3102 11.641C77.7502 12.621 77.9702 13.691 77.9702 14.851C77.9702 16.091 77.7002 17.241 77.1602 18.301C76.6402 19.341 75.8002 20.411 74.6402 21.511L70.8902 25.021H78.2102V30.001ZM85.9708 18.661C85.9708 19.661 86.0608 20.571 86.2408 21.391C86.4208 22.211 86.6708 22.921 86.9908 23.521C87.3308 24.121 87.7308 24.591 88.1908 24.931C88.6508 25.251 89.1708 25.411 89.7508 25.411C90.3108 25.411 90.8208 25.251 91.2808 24.931C91.7608 24.591 92.1608 24.121 92.4808 23.521C92.8008 22.921 93.0508 22.211 93.2308 21.391C93.4108 20.571 93.5008 19.661 93.5008 18.661C93.5008 17.681 93.4108 16.781 93.2308 15.961C93.0508 15.121 92.8008 14.411 92.4808 13.831C92.1608 13.231 91.7608 12.771 91.2808 12.451C90.8208 12.111 90.3108 11.941 89.7508 11.941C89.1708 11.941 88.6508 12.111 88.1908 12.451C87.7308 12.771 87.3308 13.231 86.9908 13.831C86.6708 14.411 86.4208 15.121 86.2408 15.961C86.0608 16.781 85.9708 17.681 85.9708 18.661ZM80.1508 18.661C80.1508 16.861 80.3808 15.231 80.8408 13.771C81.3208 12.291 81.9808 11.031 82.8208 9.99097C83.6808 8.95098 84.6908 8.15098 85.8508 7.59098C87.0308 7.01098 88.3308 6.72098 89.7508 6.72098C91.1508 6.72098 92.4408 7.01098 93.6208 7.59098C94.8008 8.15098 95.8108 8.95098 96.6508 9.99097C97.4908 11.031 98.1408 12.291 98.6008 13.771C99.0808 15.231 99.3208 16.861 99.3208 18.661C99.3208 20.461 99.0808 22.101 98.6008 23.581C98.1408 25.041 97.4908 26.301 96.6508 27.361C95.8108 28.401 94.8008 29.211 93.6208 29.791C92.4408 30.351 91.1508 30.631 89.7508 30.631C88.3308 30.631 87.0308 30.351 85.8508 29.791C84.6908 29.211 83.6808 28.401 82.8208 27.361C81.9808 26.301 81.3208 25.041 80.8408 23.581C80.3808 22.101 80.1508 20.461 80.1508 18.661ZM106.361 18.661C106.361 19.661 106.451 20.571 106.631 21.391C106.811 22.211 107.061 22.921 107.381 23.521C107.721 24.121 108.121 24.591 108.581 24.931C109.041 25.251 109.561 25.411 110.141 25.411C110.701 25.411 111.211 25.251 111.671 24.931C112.151 24.591 112.551 24.121 112.871 23.521C113.191 22.921 113.441 22.211 113.621 21.391C113.801 20.571 113.891 19.661 113.891 18.661C113.891 17.681 113.801 16.781 113.621 15.961C113.441 15.121 113.191 14.411 112.871 13.831C112.551 13.231 112.151 12.771 111.671 12.451C111.211 12.111 110.701 11.941 110.141 11.941C109.561 11.941 109.041 12.111 108.581 12.451C108.121 12.771 107.721 13.231 107.381 13.831C107.061 14.411 106.811 15.121 106.631 15.961C106.451 16.781 106.361 17.681 106.361 18.661ZM100.541 18.661C100.541 16.861 100.771 15.231 101.231 13.771C101.711 12.291 102.371 11.031 103.211 9.99097C104.071 8.95098 105.081 8.15098 106.241 7.59098C107.421 7.01098 108.721 6.72098 110.141 6.72098C111.541 6.72098 112.831 7.01098 114.011 7.59098C115.191 8.15098 116.201 8.95098 117.041 9.99097C117.881 11.031 118.531 12.291 118.991 13.771C119.471 15.231 119.711 16.861 119.711 18.661C119.711 20.461 119.471 22.101 118.991 23.581C118.531 25.041 117.881 26.301 117.041 27.361C116.201 28.401 115.191 29.211 114.011 29.791C112.831 30.351 111.541 30.631 110.141 30.631C108.721 30.631 107.421 30.351 106.241 29.791C105.081 29.211 104.071 28.401 103.211 27.361C102.371 26.301 101.711 25.041 101.231 23.581C100.771 22.101 100.541 20.461 100.541 18.661ZM136.132 28.501V25.161H130.412V28.501H136.132ZM122.112 25.741C124.452 25.021 126.652 23.901 128.532 22.461C127.852 21.681 126.852 20.781 125.972 20.021C125.372 20.501 124.732 20.941 124.052 21.381C123.652 20.661 122.752 19.581 122.112 19.081C125.272 17.361 127.332 15.001 128.452 12.761L131.532 13.401C131.272 13.901 130.972 14.381 130.672 14.841H134.392L134.852 14.701L136.772 15.761C135.852 18.401 134.472 20.661 132.732 22.541H139.012V31.901H136.132V31.121H130.412V31.881H127.652V26.541C126.412 27.261 125.092 27.841 123.732 28.341C123.392 27.541 122.692 26.341 122.112 25.741ZM128.072 18.141C128.952 18.821 130.012 19.681 130.772 20.441C131.632 19.521 132.372 18.501 132.972 17.401H128.752L128.072 18.141ZM146.996 25.781C146.796 25.261 146.516 24.581 146.216 23.861V31.901H143.716V25.361C143.316 26.561 142.856 27.621 142.316 28.441C142.096 27.661 141.516 26.541 141.136 25.861C142.176 24.341 143.076 21.821 143.536 19.621H141.616V16.941H143.716V12.901H146.216V16.941H147.956V19.621H146.216V20.281C146.736 21.021 148.076 23.221 148.376 23.721L146.996 25.781ZM147.316 28.201C148.416 27.721 150.036 26.881 151.616 26.061L152.316 28.401L150.636 29.401C151.176 29.441 151.836 29.441 152.056 29.441C152.276 29.441 152.356 29.341 152.356 29.121V22.621H148.056V20.281H152.356V19.801H148.896V17.661H152.356V17.221H148.416V14.961H150.096C149.916 14.521 149.716 14.061 149.496 13.681L151.676 12.921C152.056 13.541 152.476 14.361 152.676 14.961H154.816C155.096 14.301 155.396 13.461 155.536 12.861L158.296 13.521C157.976 14.041 157.696 14.521 157.416 14.961H158.876V17.221H155.016V17.661H158.496V19.801H155.016V20.281H159.276V22.621H155.016V23.321C155.176 23.781 155.376 24.241 155.596 24.661C156.176 24.081 156.776 23.361 157.176 22.801L159.256 24.341C158.476 25.141 157.596 25.961 156.896 26.561C157.636 27.421 158.536 28.121 159.636 28.581C159.076 29.121 158.276 30.201 157.896 30.941C156.716 30.241 155.776 29.221 155.016 28.001V29.141C155.016 30.361 154.816 31.041 154.136 31.461C153.436 31.881 152.516 31.941 151.296 31.941C151.236 31.201 150.916 30.101 150.616 29.421C149.876 29.861 149.156 30.281 148.496 30.641L147.316 28.201ZM148.276 24.161L150.156 22.861C150.816 23.561 151.636 24.541 152.016 25.221L150.036 26.661C149.716 25.981 148.936 24.921 148.276 24.161Z" fill="url(#paint0_linear_234_9780)"/>
<path d="M78.2102 30.001V32.001C79.3147 32.001 80.2102 31.1055 80.2102 30.001H78.2102ZM60.0002 30.001L58.5602 28.613C58.0034 29.1906 57.8457 30.045 58.1595 30.7833C58.4733 31.5216 59.1979 32.001 60.0002 32.001V30.001ZM65.6102 24.181L67.0501 25.569L67.0522 25.5668L65.6102 24.181ZM69.0902 20.281L70.6576 21.5231C70.6614 21.5184 70.6651 21.5136 70.6689 21.5089L69.0902 20.281ZM70.9502 17.551L69.2108 16.5638C69.204 16.5758 69.1973 16.5878 69.1907 16.5999L70.9502 17.551ZM71.7002 13.591L69.7912 14.1875C69.8023 14.2231 69.8144 14.2583 69.8275 14.2932L71.7002 13.591ZM71.2202 12.751L69.6934 14.0429C69.7105 14.0631 69.728 14.0829 69.7458 14.1024L71.2202 12.751ZM70.4102 12.151L69.469 13.9157C69.5146 13.94 69.5611 13.9626 69.6085 13.9833L70.4102 12.151ZM67.4402 12.691L65.9422 11.3658C65.9324 11.3768 65.9229 11.3879 65.9134 11.3991L67.4402 12.691ZM66.8702 15.601V17.601C67.4499 17.601 68.0012 17.3494 68.3811 16.9114C68.7609 16.4734 68.932 15.8921 68.8501 15.3181L66.8702 15.601ZM60.4502 15.601H58.4502C58.4502 16.7055 59.3456 17.601 60.4502 17.601V15.601ZM61.0802 12.001L59.228 11.2464C59.224 11.2563 59.22 11.2662 59.2161 11.2761L61.0802 12.001ZM62.9102 9.21098L64.3244 10.6252L64.3244 10.6252L62.9102 9.21098ZM65.6702 7.41098L64.9452 5.54693L64.9334 5.55161L65.6702 7.41098ZM72.6902 7.38098L71.984 9.25221L71.9955 9.25647L72.6902 7.38098ZM75.4802 9.06098L74.1236 10.5306L74.1236 10.5306L75.4802 9.06098ZM77.3102 11.641L75.4795 12.4465C75.4815 12.451 75.4836 12.4556 75.4856 12.4602L77.3102 11.641ZM77.1602 18.301L75.3781 17.3931C75.3758 17.3976 75.3735 17.4021 75.3713 17.4065L77.1602 18.301ZM74.6402 21.511L76.0069 22.9712L76.0163 22.9622L74.6402 21.511ZM70.8902 25.021L69.5234 23.5608C68.9241 24.1218 68.7284 24.9921 69.03 25.7557C69.3316 26.5193 70.0692 27.021 70.8902 27.021V25.021ZM78.2102 25.021H80.2102C80.2102 23.9164 79.3147 23.021 78.2102 23.021V25.021ZM78.2102 30.001V28.001H60.0002V30.001V32.001H78.2102V30.001ZM60.0002 30.001L61.4401 31.389L67.0501 25.569L65.6102 24.181L64.1702 22.793L58.5602 28.613L60.0002 30.001ZM65.6102 24.181L67.0522 25.5668C68.5542 24.0039 69.7624 22.6529 70.6576 21.5231L69.0902 20.281L67.5227 19.0388C66.738 20.029 65.6261 21.278 64.1681 22.7951L65.6102 24.181ZM69.0902 20.281L70.6689 21.5089C71.5403 20.3885 72.2349 19.3801 72.7096 18.502L70.9502 17.551L69.1907 16.5999C68.8654 17.2018 68.32 18.0135 67.5115 19.0531L69.0902 20.281ZM70.9502 17.551L72.6895 18.5382C73.1425 17.74 73.5202 16.9318 73.6845 16.1758L71.7302 15.751L69.7758 15.3261C69.7401 15.4902 69.5978 15.8819 69.2108 16.5638L70.9502 17.551ZM71.7302 15.751L73.6845 16.1758C73.8021 15.635 73.8802 15.0935 73.8802 14.581H71.8802H69.8802C69.8802 14.7084 69.8582 14.9469 69.7758 15.3261L71.7302 15.751ZM71.8802 14.581H73.8802C73.8802 13.9999 73.7766 13.4321 73.5728 12.8887L71.7002 13.591L69.8275 14.2932C69.8637 14.3899 69.8802 14.4821 69.8802 14.581H71.8802ZM71.7002 13.591L73.6091 12.9944C73.4241 12.4025 73.119 11.8627 72.6945 11.3995L71.2202 12.751L69.7458 14.1024C69.7613 14.1192 69.7762 14.1394 69.7912 14.1875L71.7002 13.591ZM71.2202 12.751L72.7469 11.4591C72.3245 10.9599 71.8042 10.5778 71.2118 10.3187L70.4102 12.151L69.6085 13.9833C69.6561 14.0041 69.6758 14.0221 69.6934 14.0429L71.2202 12.751ZM70.4102 12.151L71.3513 10.3863C70.7012 10.0395 70.0023 9.91098 69.3302 9.91098V11.911V13.911C69.498 13.911 69.5191 13.9424 69.469 13.9157L70.4102 12.151ZM69.3302 11.911V9.91098C68.0537 9.91098 66.8413 10.3494 65.9422 11.3658L67.4402 12.691L68.9382 14.0161C68.9701 13.98 68.9927 13.9662 69.0206 13.9547C69.0554 13.9404 69.1471 13.911 69.3302 13.911V11.911ZM67.4402 12.691L65.9134 11.3991C65.1239 12.3321 64.7802 13.4606 64.7802 14.641H66.7802H68.7802C68.7802 14.2613 68.8764 14.0899 68.9669 13.9829L67.4402 12.691ZM66.7802 14.641H64.7802C64.7802 15.0063 64.8267 15.4392 64.8903 15.8838L66.8702 15.601L68.8501 15.3181C68.7936 14.9228 68.7802 14.7157 68.7802 14.641H66.7802ZM66.8702 15.601V13.601H60.4502V15.601V17.601H66.8702V15.601ZM60.4502 15.601H62.4502C62.4502 14.4948 62.6256 13.5449 62.9442 12.7259L61.0802 12.001L59.2161 11.2761C58.6947 12.617 58.4502 14.0672 58.4502 15.601H60.4502ZM61.0802 12.001L62.9323 12.7556C63.2776 11.9081 63.7435 11.206 64.3244 10.6252L62.9102 9.21098L61.4959 7.79676C60.5168 8.7759 59.7627 9.93386 59.228 11.2464L61.0802 12.001ZM62.9102 9.21098L64.3244 10.6252C64.9048 10.0448 65.592 9.59322 66.4069 9.27034L65.6702 7.41098L64.9334 5.55161C63.6283 6.06873 62.4756 6.81715 61.4959 7.79676L62.9102 9.21098ZM65.6702 7.41098L66.395 9.27499C67.2209 8.9538 68.1522 8.78098 69.2102 8.78098V6.78098V4.78098C67.7081 4.78098 66.2794 5.02815 64.9453 5.54697L65.6702 7.41098ZM69.2102 6.78098V8.78098C70.2559 8.78098 71.1736 8.94636 71.984 9.25218L72.6902 7.38098L73.3963 5.50977C72.0867 5.01559 70.6844 4.78098 69.2102 4.78098V6.78098ZM72.6902 7.38098L71.9955 9.25647C72.8515 9.57349 73.5514 10.0024 74.1236 10.5306L75.4802 9.06098L76.8367 7.59137C75.8489 6.67957 74.6889 5.98847 73.3848 5.50548L72.6902 7.38098ZM75.4802 9.06098L74.1236 10.5306C74.6957 11.0586 75.1469 11.6905 75.4795 12.4465L77.3102 11.641L79.1408 10.8355C78.5934 9.59143 77.8247 8.50332 76.8367 7.59137L75.4802 9.06098ZM77.3102 11.641L75.4856 12.4602C75.8009 13.1625 75.9702 13.9505 75.9702 14.851H77.9702H79.9702C79.9702 13.4314 79.6994 12.0795 79.1347 10.8218L77.3102 11.641ZM77.9702 14.851H75.9702C75.9702 15.7892 75.7687 16.6263 75.3781 17.3931L77.1602 18.301L78.9422 19.2088C79.6316 17.8556 79.9702 16.3928 79.9702 14.851H77.9702ZM77.1602 18.301L75.3713 17.4065C74.9864 18.1764 74.3139 19.0641 73.264 20.0597L74.6402 21.511L76.0163 22.9622C77.2864 21.7578 78.2939 20.5055 78.949 19.1954L77.1602 18.301ZM74.6402 21.511L73.2734 20.0508L69.5234 23.5608L70.8902 25.021L72.2569 26.4811L76.0069 22.9711L74.6402 21.511ZM70.8902 25.021V27.021H78.2102V25.021V23.021H70.8902V25.021ZM78.2102 25.021H76.2102V30.001H78.2102H80.2102V25.021H78.2102ZM86.2408 21.391L84.2873 21.8198L84.2873 21.8198L86.2408 21.391ZM86.9908 23.521L85.2261 24.4622C85.2341 24.4772 85.2423 24.4922 85.2507 24.507L86.9908 23.521ZM88.1908 24.931L87.002 26.5393C87.0174 26.5507 87.0329 26.5619 87.0487 26.5728L88.1908 24.931ZM91.2808 24.931L92.4229 26.5728C92.4276 26.5696 92.4322 26.5663 92.4368 26.563L91.2808 24.931ZM93.2308 21.391L95.1843 21.8198L95.1843 21.8198L93.2308 21.391ZM93.2308 15.961L91.2752 16.38L91.2773 16.3898L93.2308 15.961ZM92.4808 13.831L90.7161 14.7722C90.7205 14.7805 90.7251 14.7888 90.7296 14.7971L92.4808 13.831ZM91.2808 12.451L90.092 14.0593C90.118 14.0785 90.1445 14.0971 90.1714 14.1151L91.2808 12.451ZM88.1908 12.451L89.3329 14.0928C89.3486 14.0819 89.3642 14.0707 89.3796 14.0593L88.1908 12.451ZM86.9908 13.831L85.2507 12.8449C85.247 12.8516 85.2433 12.8582 85.2396 12.8648L86.9908 13.831ZM86.2408 15.961L88.1943 16.3898L88.1964 16.38L86.2408 15.961ZM80.8408 13.771L78.9383 13.154C78.9366 13.1593 78.9349 13.1646 78.9332 13.17L80.8408 13.771ZM82.8208 9.99097L81.2795 8.71645C81.2746 8.72237 81.2697 8.72832 81.2649 8.7343L82.8208 9.99097ZM85.8508 7.59098L86.7203 9.39208C86.7245 9.39003 86.7288 9.38796 86.733 9.38587L85.8508 7.59098ZM93.6208 7.59098L92.7385 9.38587C92.7468 9.38991 92.755 9.3939 92.7633 9.39783L93.6208 7.59098ZM96.6508 9.99097L98.2067 8.7343L98.2067 8.7343L96.6508 9.99097ZM98.6008 13.771L96.6909 14.3646C96.6941 14.375 96.6974 14.3853 96.7008 14.3956L98.6008 13.771ZM98.6008 23.581L96.6983 22.964C96.6966 22.9693 96.6949 22.9746 96.6932 22.98L98.6008 23.581ZM96.6508 27.361L98.2067 28.6177C98.2106 28.6128 98.2144 28.608 98.2183 28.6031L96.6508 27.361ZM93.6208 29.791L94.4783 31.5978C94.4865 31.5939 94.4948 31.5899 94.503 31.5859L93.6208 29.791ZM85.8508 29.791L84.9564 31.5798C84.9686 31.586 84.9809 31.592 84.9933 31.5978L85.8508 29.791ZM82.8208 27.361L81.2533 28.6031C81.2619 28.614 81.2706 28.6248 81.2795 28.6355L82.8208 27.361ZM80.8408 23.581L78.9309 24.1746C78.9341 24.185 78.9374 24.1953 78.9408 24.2056L80.8408 23.581ZM85.9708 18.661H83.9708C83.9708 19.7787 84.0712 20.8352 84.2873 21.8198L86.2408 21.391L88.1943 20.9622C88.0504 20.3067 87.9708 19.5433 87.9708 18.661H85.9708ZM86.2408 21.391L84.2873 21.8198C84.4977 22.7784 84.8027 23.6682 85.2261 24.4622L86.9908 23.521L88.7555 22.5798C88.5389 22.1737 88.3438 21.6436 88.1943 20.9622L86.2408 21.391ZM86.9908 23.521L85.2507 24.507C85.701 25.3016 86.2753 26.0022 87.002 26.5393L88.1908 24.931L89.3796 23.3226C89.1863 23.1798 88.9606 22.9404 88.7308 22.535L86.9908 23.521ZM88.1908 24.931L87.0487 26.5728C87.8562 27.1345 88.7777 27.411 89.7508 27.411V25.411V23.411C89.5639 23.411 89.4454 23.3674 89.3329 23.2892L88.1908 24.931ZM89.7508 25.411V27.411C90.7194 27.411 91.6279 27.1258 92.4229 26.5728L91.2808 24.931L90.1387 23.2892C90.0136 23.3761 89.9022 23.411 89.7508 23.411V25.411ZM91.2808 24.931L92.4368 26.563C93.2076 26.0171 93.802 25.2938 94.2455 24.4622L92.4808 23.521L90.7161 22.5798C90.5196 22.9482 90.314 23.1649 90.1247 23.2989L91.2808 24.931ZM92.4808 23.521L94.2455 24.4622C94.6689 23.6682 94.9738 22.7784 95.1843 21.8198L93.2308 21.391L91.2773 20.9622C91.1277 21.6436 90.9327 22.1737 90.7161 22.5798L92.4808 23.521ZM93.2308 21.391L95.1843 21.8198C95.4004 20.8352 95.5008 19.7787 95.5008 18.661H93.5008H91.5008C91.5008 19.5433 91.4212 20.3067 91.2773 20.9622L93.2308 21.391ZM93.5008 18.661H95.5008C95.5008 17.5601 95.3998 16.5141 95.1843 15.5322L93.2308 15.961L91.2773 16.3898C91.4217 17.0479 91.5008 17.8018 91.5008 18.661H93.5008ZM93.2308 15.961L95.1864 15.5419C94.9768 14.564 94.6697 13.6583 94.2319 12.8648L92.4808 13.831L90.7296 14.7971C90.9318 15.1636 91.1247 15.6779 91.2752 16.38L93.2308 15.961ZM92.4808 13.831L94.2455 12.8898C93.7979 12.0505 93.1902 11.3202 92.3902 10.7869L91.2808 12.451L90.1714 14.1151C90.3313 14.2217 90.5237 14.4114 90.7161 14.7722L92.4808 13.831ZM91.2808 12.451L92.4696 10.8426C91.6733 10.2541 90.7485 9.94097 89.7508 9.94097V11.941V13.941C89.8731 13.941 89.9682 13.9678 90.092 14.0593L91.2808 12.451ZM89.7508 11.941V9.94097C88.7493 9.94097 87.8113 10.2445 87.002 10.8426L88.1908 12.451L89.3796 14.0593C89.4903 13.9775 89.5923 13.941 89.7508 13.941V11.941ZM88.1908 12.451L87.0487 10.8092C86.2927 11.3351 85.7051 12.0432 85.2507 12.8449L86.9908 13.831L88.7308 14.817C88.9565 14.4187 89.1689 14.2069 89.3329 14.0928L88.1908 12.451ZM86.9908 13.831L85.2396 12.8648C84.8018 13.6583 84.4947 14.564 84.2852 15.5419L86.2408 15.961L88.1964 16.38C88.3468 15.6779 88.5397 15.1636 88.7419 14.7971L86.9908 13.831ZM86.2408 15.961L84.2873 15.5322C84.0717 16.5141 83.9708 17.5601 83.9708 18.661H85.9708H87.9708C87.9708 17.8018 88.0498 17.0479 88.1943 16.3898L86.2408 15.961ZM80.1508 18.661H82.1508C82.1508 17.03 82.3593 15.6068 82.7483 14.372L80.8408 13.771L78.9332 13.17C78.4023 14.8551 78.1508 16.692 78.1508 18.661H80.1508ZM80.8408 13.771L82.7432 14.388C83.1599 13.1031 83.7133 12.069 84.3767 11.2476L82.8208 9.99097L81.2649 8.7343C80.2483 9.99297 79.4816 11.4788 78.9383 13.154L80.8408 13.771ZM82.8208 9.99097L84.3621 11.2655C85.0476 10.4365 85.8319 9.82098 86.7203 9.39208L85.8508 7.59098L84.9813 5.78987C83.5497 6.48098 82.314 7.46545 81.2795 8.71645L82.8208 9.99097ZM85.8508 7.59098L86.733 9.38587C87.617 8.9514 88.6117 8.72098 89.7508 8.72098V6.72098V4.72098C88.0498 4.72098 86.4446 5.07055 84.9685 5.79608L85.8508 7.59098ZM89.7508 6.72098V8.72098C90.8652 8.72098 91.8507 8.94948 92.7385 9.38587L93.6208 7.59098L94.503 5.79608C93.0309 5.07247 91.4364 4.72098 89.7508 4.72098V6.72098ZM93.6208 7.59098L92.7633 9.39783C93.6657 9.82607 94.4389 10.4354 95.0949 11.2477L96.6508 9.99097L98.2067 8.7343C97.1827 7.4665 95.9359 6.47588 94.4783 5.78412L93.6208 7.59098ZM96.6508 9.99097L95.0949 11.2476C95.7529 12.0623 96.2941 13.0881 96.6909 14.3646L98.6008 13.771L100.511 13.1774C99.9874 11.4939 99.2287 9.99968 98.2067 8.7343L96.6508 9.99097ZM98.6008 13.771L96.7008 14.3956C97.1043 15.6229 97.3208 17.0377 97.3208 18.661H99.3208H101.321C101.321 16.6842 101.057 14.839 100.501 13.1463L98.6008 13.771ZM99.3208 18.661H97.3208C97.3208 20.2836 97.1045 21.7117 96.6983 22.964L98.6008 23.581L100.503 24.198C101.057 22.4902 101.321 20.6383 101.321 18.661H99.3208ZM98.6008 23.581L96.6932 22.98C96.2969 24.2377 95.7532 25.2735 95.0833 26.1188L96.6508 27.361L98.2183 28.6031C99.2284 27.3285 99.9846 25.8442 100.508 24.182L98.6008 23.581ZM96.6508 27.361L95.0949 26.1043C94.4345 26.922 93.6531 27.5466 92.7385 27.9961L93.6208 29.791L94.503 31.5859C95.9485 30.8754 97.1871 29.88 98.2067 28.6177L96.6508 27.361ZM93.6208 29.791L92.7633 27.9841C91.8702 28.408 90.8759 28.631 89.7508 28.631V30.631V32.631C91.4257 32.631 93.0113 32.294 94.4783 31.5978L93.6208 29.791ZM89.7508 30.631V28.631C88.6011 28.631 87.5976 28.4062 86.7083 27.9841L85.8508 29.791L84.9933 31.5978C86.464 32.2958 88.0604 32.631 89.7508 32.631V30.631ZM85.8508 29.791L86.7452 28.0021C85.8444 27.5517 85.052 26.9207 84.3621 26.0864L82.8208 27.361L81.2795 28.6355C82.3096 29.8812 83.5371 30.8702 84.9564 31.5798L85.8508 29.791ZM82.8208 27.361L84.3883 26.1188C83.7131 25.2668 83.1571 24.2227 82.7407 22.9563L80.8408 23.581L78.9408 24.2056C79.4845 25.8593 80.2485 27.3351 81.2533 28.6031L82.8208 27.361ZM80.8408 23.581L82.7507 22.9874C82.3591 21.7277 82.1508 20.2914 82.1508 18.661H80.1508H78.1508C78.1508 20.6305 78.4024 22.4743 78.9309 24.1746L80.8408 23.581ZM106.631 21.391L104.678 21.8198L104.678 21.8198L106.631 21.391ZM107.381 23.521L105.617 24.4622C105.625 24.4772 105.633 24.4922 105.641 24.507L107.381 23.521ZM108.581 24.931L107.393 26.5393C107.408 26.5507 107.424 26.5619 107.439 26.5728L108.581 24.931ZM111.671 24.931L112.814 26.5728C112.818 26.5696 112.823 26.5663 112.827 26.563L111.671 24.931ZM113.621 21.391L115.575 21.8198L115.575 21.8198L113.621 21.391ZM113.621 15.961L111.666 16.38L111.668 16.3898L113.621 15.961ZM112.871 13.831L111.107 14.7722C111.111 14.7805 111.116 14.7888 111.12 14.7971L112.871 13.831ZM111.671 12.451L110.483 14.0593C110.509 14.0785 110.535 14.0971 110.562 14.1151L111.671 12.451ZM108.581 12.451L109.724 14.0928C109.739 14.0819 109.755 14.0707 109.77 14.0593L108.581 12.451ZM107.381 13.831L105.641 12.8449C105.638 12.8516 105.634 12.8582 105.63 12.8648L107.381 13.831ZM106.631 15.961L108.585 16.3898L108.587 16.38L106.631 15.961ZM101.231 13.771L99.329 13.154C99.3272 13.1593 99.3255 13.1646 99.3238 13.17L101.231 13.771ZM103.211 9.99097L101.67 8.71645C101.665 8.72237 101.66 8.72832 101.656 8.7343L103.211 9.99097ZM106.241 7.59098L107.111 9.39208C107.115 9.39003 107.119 9.38796 107.124 9.38587L106.241 7.59098ZM114.011 7.59098L113.129 9.38587C113.137 9.38991 113.146 9.3939 113.154 9.39783L114.011 7.59098ZM117.041 9.99097L118.597 8.7343L118.597 8.7343L117.041 9.99097ZM118.991 13.771L117.082 14.3646C117.085 14.375 117.088 14.3853 117.091 14.3956L118.991 13.771ZM118.991 23.581L117.089 22.964C117.087 22.9693 117.086 22.9746 117.084 22.98L118.991 23.581ZM117.041 27.361L118.597 28.6177C118.601 28.6128 118.605 28.608 118.609 28.6031L117.041 27.361ZM114.011 29.791L114.869 31.5978C114.877 31.5939 114.885 31.5899 114.894 31.5859L114.011 29.791ZM106.241 29.791L105.347 31.5798C105.359 31.586 105.372 31.592 105.384 31.5978L106.241 29.791ZM103.211 27.361L101.644 28.6031C101.653 28.614 101.661 28.6248 101.67 28.6355L103.211 27.361ZM101.231 23.581L99.3215 24.1746C99.3248 24.185 99.3281 24.1953 99.3315 24.2056L101.231 23.581ZM106.361 18.661H104.361C104.361 19.7787 104.462 20.8352 104.678 21.8198L106.631 21.391L108.585 20.9622C108.441 20.3067 108.361 19.5433 108.361 18.661H106.361ZM106.631 21.391L104.678 21.8198C104.888 22.7784 105.193 23.6682 105.617 24.4622L107.381 23.521L109.146 22.5798C108.93 22.1737 108.734 21.6436 108.585 20.9622L106.631 21.391ZM107.381 23.521L105.641 24.507C106.092 25.3016 106.666 26.0022 107.393 26.5393L108.581 24.931L109.77 23.3226C109.577 23.1798 109.351 22.9404 109.121 22.535L107.381 23.521ZM108.581 24.931L107.439 26.5728C108.247 27.1345 109.168 27.411 110.141 27.411V25.411V23.411C109.955 23.411 109.836 23.3674 109.724 23.2892L108.581 24.931ZM110.141 25.411V27.411C111.11 27.411 112.019 27.1258 112.814 26.5728L111.671 24.931L110.529 23.2892C110.404 23.3761 110.293 23.411 110.141 23.411V25.411ZM111.671 24.931L112.827 26.563C113.598 26.0171 114.193 25.2938 114.636 24.4622L112.871 23.521L111.107 22.5798C110.91 22.9482 110.705 23.1649 110.515 23.2989L111.671 24.931ZM112.871 23.521L114.636 24.4622C115.06 23.6682 115.364 22.7784 115.575 21.8198L113.621 21.391L111.668 20.9622C111.518 21.6436 111.323 22.1737 111.107 22.5798L112.871 23.521ZM113.621 21.391L115.575 21.8198C115.791 20.8352 115.891 19.7787 115.891 18.661H113.891H111.891C111.891 19.5433 111.812 20.3067 111.668 20.9622L113.621 21.391ZM113.891 18.661H115.891C115.891 17.5601 115.79 16.5141 115.575 15.5322L113.621 15.961L111.668 16.3898C111.812 17.0479 111.891 17.8018 111.891 18.661H113.891ZM113.621 15.961L115.577 15.5419C115.367 14.564 115.06 13.6583 114.623 12.8648L112.871 13.831L111.12 14.7971C111.322 15.1636 111.515 15.6779 111.666 16.38L113.621 15.961ZM112.871 13.831L114.636 12.8898C114.189 12.0505 113.581 11.3202 112.781 10.7869L111.671 12.451L110.562 14.1151C110.722 14.2217 110.914 14.4114 111.107 14.7722L112.871 13.831ZM111.671 12.451L112.86 10.8426C112.064 10.2541 111.139 9.94097 110.141 9.94097V11.941V13.941C110.264 13.941 110.359 13.9678 110.483 14.0593L111.671 12.451ZM110.141 11.941V9.94097C109.14 9.94097 108.202 10.2445 107.393 10.8426L108.581 12.451L109.77 14.0593C109.881 13.9775 109.983 13.941 110.141 13.941V11.941ZM108.581 12.451L107.439 10.8092C106.683 11.3351 106.096 12.0432 105.641 12.8449L107.381 13.831L109.121 14.817C109.347 14.4187 109.56 14.2069 109.724 14.0928L108.581 12.451ZM107.381 13.831L105.63 12.8648C105.192 13.6583 104.885 14.564 104.676 15.5419L106.631 15.961L108.587 16.38C108.737 15.6779 108.93 15.1636 109.133 14.7971L107.381 13.831ZM106.631 15.961L104.678 15.5322C104.462 16.5141 104.361 17.5601 104.361 18.661H106.361H108.361C108.361 17.8018 108.44 17.0479 108.585 16.3898L106.631 15.961ZM100.541 18.661H102.541C102.541 17.03 102.75 15.6068 103.139 14.372L101.231 13.771L99.3238 13.17C98.7929 14.8551 98.5414 16.692 98.5414 18.661H100.541ZM101.231 13.771L103.134 14.388C103.551 13.1031 104.104 12.069 104.767 11.2476L103.211 9.99097L101.656 8.7343C100.639 9.99297 99.8722 11.4788 99.329 13.154L101.231 13.771ZM103.211 9.99097L104.753 11.2655C105.438 10.4365 106.222 9.82098 107.111 9.39208L106.241 7.59098L105.372 5.78987C103.94 6.48098 102.705 7.46545 101.67 8.71645L103.211 9.99097ZM106.241 7.59098L107.124 9.38587C108.008 8.9514 109.002 8.72098 110.141 8.72098V6.72098V4.72098C108.44 4.72098 106.835 5.07055 105.359 5.79608L106.241 7.59098ZM110.141 6.72098V8.72098C111.256 8.72098 112.241 8.94948 113.129 9.38587L114.011 7.59098L114.894 5.79608C113.421 5.07247 111.827 4.72098 110.141 4.72098V6.72098ZM114.011 7.59098L113.154 9.39783C114.056 9.82607 114.83 10.4354 115.486 11.2477L117.041 9.99097L118.597 8.7343C117.573 7.4665 116.327 6.47588 114.869 5.78412L114.011 7.59098ZM117.041 9.99097L115.486 11.2476C116.143 12.0623 116.685 13.0881 117.082 14.3646L118.991 13.771L120.901 13.1774C120.378 11.4939 119.619 9.99968 118.597 8.7343L117.041 9.99097ZM118.991 13.771L117.091 14.3956C117.495 15.6229 117.711 17.0377 117.711 18.661H119.711H121.711C121.711 16.6842 121.448 14.839 120.891 13.1463L118.991 13.771ZM119.711 18.661H117.711C117.711 20.2836 117.495 21.7117 117.089 22.964L118.991 23.581L120.894 24.198C121.448 22.4902 121.711 20.6383 121.711 18.661H119.711ZM118.991 23.581L117.084 22.98C116.688 24.2377 116.144 25.2735 115.474 26.1188L117.041 27.361L118.609 28.6031C119.619 27.3285 120.375 25.8442 120.899 24.182L118.991 23.581ZM117.041 27.361L115.486 26.1043C114.825 26.922 114.044 27.5466 113.129 27.9961L114.011 29.791L114.894 31.5859C116.339 30.8754 117.578 29.88 118.597 28.6177L117.041 27.361ZM114.011 29.791L113.154 27.9841C112.261 28.408 111.267 28.631 110.141 28.631V30.631V32.631C111.816 32.631 113.402 32.294 114.869 31.5978L114.011 29.791ZM110.141 30.631V28.631C108.992 28.631 107.988 28.4062 107.099 27.9841L106.241 29.791L105.384 31.5978C106.855 32.2958 108.451 32.631 110.141 32.631V30.631ZM106.241 29.791L107.136 28.0021C106.235 27.5517 105.443 26.9207 104.753 26.0864L103.211 27.361L101.67 28.6355C102.7 29.8812 103.928 30.8702 105.347 31.5798L106.241 29.791ZM103.211 27.361L104.779 26.1188C104.104 25.2668 103.548 24.2227 103.131 22.9563L101.231 23.581L99.3315 24.2056C99.8751 25.8593 100.639 27.3351 101.644 28.6031L103.211 27.361ZM101.231 23.581L103.141 22.9874C102.75 21.7277 102.541 20.2914 102.541 18.661H100.541H98.5414C98.5414 20.6305 98.7931 22.4743 99.3215 24.1746L101.231 23.581ZM136.132 28.501V30.501C137.237 30.501 138.132 29.6055 138.132 28.501H136.132ZM136.132 25.161H138.132C138.132 24.0564 137.237 23.161 136.132 23.161V25.161ZM130.412 25.161V23.161C129.307 23.161 128.412 24.0564 128.412 25.161H130.412ZM130.412 28.501H128.412C128.412 29.6055 129.307 30.501 130.412 30.501V28.501ZM122.112 25.741L121.524 23.8294C120.859 24.0339 120.349 24.569 120.175 25.2424C120.002 25.9159 120.191 26.631 120.674 27.131L122.112 25.741ZM128.532 22.461L129.748 24.0487C130.187 23.7128 130.467 23.2105 130.522 22.6608C130.577 22.1111 130.403 21.5631 130.04 21.1467L128.532 22.461ZM125.972 20.021L127.279 18.5073C126.55 17.8775 125.475 17.8572 124.723 18.4592L125.972 20.021ZM124.052 21.381L122.304 22.3523C122.573 22.8363 123.03 23.1872 123.568 23.3214C124.105 23.4556 124.674 23.3609 125.139 23.0601L124.052 21.381ZM122.112 19.081L121.156 17.3243C120.564 17.6465 120.174 18.2449 120.119 18.9164C120.063 19.5879 120.35 20.2422 120.881 20.657L122.112 19.081ZM128.452 12.761L128.859 10.8028C127.97 10.6182 127.069 11.0549 126.663 11.8665L128.452 12.761ZM131.532 13.401L133.306 14.3237C133.595 13.768 133.607 13.1091 133.339 12.5433C133.07 11.9775 132.552 11.5702 131.939 11.4428L131.532 13.401ZM130.672 14.841L128.997 13.7484C128.596 14.3632 128.564 15.1482 128.913 15.7936C129.263 16.4389 129.938 16.841 130.672 16.841V14.841ZM134.392 14.841V16.841C134.589 16.841 134.786 16.8118 134.974 16.7543L134.392 14.841ZM134.852 14.701L135.819 12.9501C135.346 12.6889 134.787 12.6303 134.27 12.7876L134.852 14.701ZM136.772 15.761L138.661 16.4191C138.981 15.4987 138.592 14.4812 137.739 14.0101L136.772 15.761ZM132.732 22.541L131.264 21.1825C130.724 21.7658 130.581 22.6136 130.899 23.3419C131.218 24.0703 131.937 24.541 132.732 24.541V22.541ZM139.012 22.541H141.012C141.012 21.4364 140.117 20.541 139.012 20.541V22.541ZM139.012 31.901V33.901C140.117 33.901 141.012 33.0055 141.012 31.901H139.012ZM136.132 31.901H134.132C134.132 33.0055 135.027 33.901 136.132 33.901V31.901ZM136.132 31.121H138.132C138.132 30.0164 137.237 29.121 136.132 29.121V31.121ZM130.412 31.121V29.121C129.307 29.121 128.412 30.0164 128.412 31.121H130.412ZM130.412 31.881V33.881C131.517 33.881 132.412 32.9855 132.412 31.881H130.412ZM127.652 31.881H125.652C125.652 32.9855 126.547 33.881 127.652 33.881V31.881ZM127.652 26.541H129.652C129.652 25.8256 129.27 25.1646 128.65 24.8077C128.03 24.4508 127.266 24.4522 126.648 24.8114L127.652 26.541ZM123.732 28.341L121.891 29.1233C122.308 30.1044 123.422 30.586 124.422 30.2181L123.732 28.341ZM128.072 18.141L126.599 16.7877C126.22 17.2001 126.032 17.7525 126.079 18.3105C126.127 18.8685 126.406 19.3811 126.849 19.7235L128.072 18.141ZM130.772 20.441L129.358 21.8552C129.741 22.2385 130.264 22.4498 130.806 22.4407C131.348 22.4316 131.863 22.2028 132.233 21.8067L130.772 20.441ZM132.972 17.401L134.728 18.3587C135.066 17.739 135.052 16.987 134.692 16.38C134.332 15.7731 133.678 15.401 132.972 15.401V17.401ZM128.752 17.401V15.401C128.192 15.401 127.658 15.6356 127.279 16.0477L128.752 17.401ZM136.132 28.501H138.132V25.161H136.132H134.132V28.501H136.132ZM136.132 25.161V23.161H130.412V25.161V27.161H136.132V25.161ZM130.412 25.161H128.412V28.501H130.412H132.412V25.161H130.412ZM130.412 28.501V30.501H136.132V28.501V26.501H130.412V28.501ZM122.112 25.741L122.7 27.6525C125.256 26.866 127.671 25.6398 129.748 24.0487L128.532 22.461L127.316 20.8732C125.633 22.1622 123.648 23.1759 121.524 23.8294L122.112 25.741ZM128.532 22.461L130.04 21.1467C129.257 20.2485 128.158 19.2666 127.279 18.5073L125.972 20.021L124.665 21.5346C125.546 22.2954 126.448 23.1135 127.024 23.7752L128.532 22.461ZM125.972 20.021L124.723 18.4592C124.196 18.8802 123.619 19.2793 122.966 19.7018L124.052 21.381L125.139 23.0601C125.845 22.6027 126.548 22.1218 127.221 21.5827L125.972 20.021ZM124.052 21.381L125.8 20.4097C125.282 19.4763 124.212 18.1839 123.343 17.5049L122.112 19.081L120.881 20.657C121.292 20.9781 122.022 21.8457 122.304 22.3523L124.052 21.381ZM122.112 19.081L123.068 20.8376C126.585 18.9235 128.937 16.2637 130.241 13.6554L128.452 12.761L126.663 11.8665C125.727 13.7382 123.959 15.7985 121.156 17.3243L122.112 19.081ZM128.452 12.761L128.045 14.7191L131.125 15.3591L131.532 13.401L131.939 11.4428L128.859 10.8028L128.452 12.761ZM131.532 13.401L129.758 12.4783C129.543 12.8903 129.286 13.3054 128.997 13.7484L130.672 14.841L132.347 15.9335C132.658 15.4565 133.001 14.9116 133.306 14.3237L131.532 13.401ZM130.672 14.841V16.841H134.392V14.841V12.841H130.672V14.841ZM134.392 14.841L134.974 16.7543L135.434 16.6143L134.852 14.701L134.27 12.7876L133.81 12.9276L134.392 14.841ZM134.852 14.701L133.885 16.4519L135.805 17.5119L136.772 15.761L137.739 14.0101L135.819 12.9501L134.852 14.701ZM136.772 15.761L134.883 15.1028C134.053 17.4853 132.816 19.5064 131.264 21.1825L132.732 22.541L134.2 23.8995C136.129 21.8156 137.651 19.3166 138.661 16.4191L136.772 15.761ZM132.732 22.541V24.541H139.012V22.541V20.541H132.732V22.541ZM139.012 22.541H137.012V31.901H139.012H141.012V22.541H139.012ZM139.012 31.901V29.901H136.132V31.901V33.901H139.012V31.901ZM136.132 31.901H138.132V31.121H136.132H134.132V31.901H136.132ZM136.132 31.121V29.121H130.412V31.121V33.121H136.132V31.121ZM130.412 31.121H128.412V31.881H130.412H132.412V31.121H130.412ZM130.412 31.881V29.881H127.652V31.881V33.881H130.412V31.881ZM127.652 31.881H129.652V26.541H127.652H125.652V31.881H127.652ZM127.652 26.541L126.648 24.8114C125.536 25.4572 124.328 25.9911 123.042 26.4638L123.732 28.341L124.422 30.2181C125.856 29.6909 127.289 29.0648 128.656 28.2706L127.652 26.541ZM123.732 28.341L125.573 27.5587C125.18 26.6348 124.363 25.1921 123.55 24.3509L122.112 25.741L120.674 27.131C121.021 27.4898 121.604 28.4471 121.891 29.1233L123.732 28.341ZM128.072 18.141L126.849 19.7235C127.718 20.3953 128.693 21.1906 129.358 21.8552L130.772 20.441L132.186 19.0268C131.331 18.1713 130.186 17.2466 129.295 16.5584L128.072 18.141ZM130.772 20.441L132.233 21.8067C133.206 20.7661 134.046 19.6094 134.728 18.3587L132.972 17.401L131.216 16.4433C130.698 17.3925 130.058 18.2759 129.311 19.0752L130.772 20.441ZM132.972 17.401V15.401H128.752V17.401V19.401H132.972V17.401ZM128.752 17.401L127.279 16.0477L126.599 16.7877L128.072 18.141L129.545 19.4942L130.225 18.7542L128.752 17.401ZM146.996 25.781L145.129 26.4989C145.397 27.1959 146.031 27.6854 146.773 27.7685C147.515 27.8517 148.242 27.5145 148.658 26.8941L146.996 25.781ZM146.216 23.861L148.062 23.0917C147.695 22.2117 146.759 21.7128 145.824 21.8998C144.889 22.0868 144.216 22.9076 144.216 23.861H146.216ZM146.216 31.901V33.901C147.321 33.901 148.216 33.0055 148.216 31.901H146.216ZM143.716 31.901H141.716C141.716 33.0055 142.611 33.901 143.716 33.901V31.901ZM143.716 25.361H145.716C145.716 24.3801 145.005 23.5439 144.036 23.3868C143.068 23.2297 142.129 23.7979 141.819 24.7285L143.716 25.361ZM142.316 28.441L140.391 28.9839C140.604 29.7373 141.236 30.2975 142.01 30.4174C142.783 30.5373 143.556 30.1948 143.986 29.541L142.316 28.441ZM141.136 25.861L139.485 24.7316C139.057 25.3583 139.02 26.1738 139.39 26.8366L141.136 25.861ZM143.536 19.621L145.494 20.0303C145.617 19.4408 145.468 18.8272 145.088 18.3598C144.708 17.8924 144.138 17.621 143.536 17.621V19.621ZM141.616 19.621H139.616C139.616 20.7255 140.511 21.621 141.616 21.621V19.621ZM141.616 16.941V14.941C140.511 14.941 139.616 15.8364 139.616 16.941H141.616ZM143.716 16.941V18.941C144.821 18.941 145.716 18.0455 145.716 16.941H143.716ZM143.716 12.901V10.901C142.611 10.901 141.716 11.7964 141.716 12.901H143.716ZM146.216 12.901H148.216C148.216 11.7964 147.321 10.901 146.216 10.901V12.901ZM146.216 16.941H144.216C144.216 18.0455 145.111 18.941 146.216 18.941V16.941ZM147.956 16.941H149.956C149.956 15.8364 149.061 14.941 147.956 14.941V16.941ZM147.956 19.621V21.621C149.061 21.621 149.956 20.7255 149.956 19.621H147.956ZM146.216 19.621V17.621C145.111 17.621 144.216 18.5164 144.216 19.621H146.216ZM146.216 20.281H144.216C144.216 20.6926 144.343 21.0941 144.58 21.4309L146.216 20.281ZM148.376 23.721L150.038 24.8341C150.469 24.1906 150.489 23.3561 150.091 22.692L148.376 23.721ZM147.316 28.201L146.516 26.3679C146.017 26.5855 145.629 26.9967 145.44 27.5068C145.251 28.017 145.279 28.582 145.515 29.0717L147.316 28.201ZM151.616 26.061L153.532 25.4878C153.361 24.9169 152.945 24.4518 152.396 24.2194C151.847 23.987 151.224 24.0113 150.695 24.2858L151.616 26.061ZM152.316 28.401L153.339 30.1196C154.127 29.6506 154.495 28.7061 154.232 27.8278L152.316 28.401ZM150.636 29.401L149.613 27.6824C148.863 28.1289 148.489 29.0102 148.689 29.8598C148.89 30.7094 149.618 31.331 150.488 31.3955L150.636 29.401ZM152.356 22.621H154.356C154.356 21.5164 153.461 20.621 152.356 20.621V22.621ZM148.056 22.621H146.056C146.056 23.7255 146.951 24.621 148.056 24.621V22.621ZM148.056 20.281V18.281C146.951 18.281 146.056 19.1764 146.056 20.281H148.056ZM152.356 20.281V22.281C153.461 22.281 154.356 21.3855 154.356 20.281H152.356ZM152.356 19.801H154.356C154.356 18.6964 153.461 17.801 152.356 17.801V19.801ZM148.896 19.801H146.896C146.896 20.9055 147.791 21.801 148.896 21.801V19.801ZM148.896 17.661V15.661C147.791 15.661 146.896 16.5564 146.896 17.661H148.896ZM152.356 17.661V19.661C153.461 19.661 154.356 18.7655 154.356 17.661H152.356ZM152.356 17.221H154.356C154.356 16.1164 153.461 15.221 152.356 15.221V17.221ZM148.416 17.221H146.416C146.416 18.3255 147.311 19.221 148.416 19.221V17.221ZM148.416 14.961V12.961C147.311 12.961 146.416 13.8564 146.416 14.961H148.416ZM150.096 14.961V16.961C150.762 16.961 151.385 16.629 151.756 16.0758C152.128 15.5225 152.199 14.8205 151.947 14.2037L150.096 14.961ZM149.496 13.681L148.838 11.7924C148.274 11.9888 147.828 12.4262 147.621 12.9853C147.413 13.5444 147.466 14.1669 147.765 14.683L149.496 13.681ZM151.676 12.921L153.381 11.8759C152.89 11.0739 151.906 10.7228 151.018 11.0325L151.676 12.921ZM152.676 14.961L150.779 15.5934C151.051 16.4101 151.815 16.961 152.676 16.961V14.961ZM154.816 14.961V16.961C155.619 16.961 156.344 16.481 156.657 15.7421L154.816 14.961ZM155.536 12.861L156.001 10.9158C155.483 10.792 154.938 10.8797 154.485 11.1595C154.032 11.4393 153.709 11.8881 153.588 12.4065L155.536 12.861ZM158.296 13.521L159.999 14.5692C160.335 14.0231 160.389 13.349 160.144 12.7565C159.899 12.164 159.385 11.7249 158.761 11.5758L158.296 13.521ZM157.416 14.961L155.729 13.8872C155.337 14.5031 155.311 15.2835 155.663 15.9234C156.014 16.5633 156.686 16.961 157.416 16.961V14.961ZM158.876 14.961H160.876C160.876 13.8564 159.981 12.961 158.876 12.961V14.961ZM158.876 17.221V19.221C159.981 19.221 160.876 18.3255 160.876 17.221H158.876ZM155.016 17.221V15.221C153.911 15.221 153.016 16.1164 153.016 17.221H155.016ZM155.016 17.661H153.016C153.016 18.7655 153.911 19.661 155.016 19.661V17.661ZM158.496 17.661H160.496C160.496 16.5564 159.601 15.661 158.496 15.661V17.661ZM158.496 19.801V21.801C159.601 21.801 160.496 20.9055 160.496 19.801H158.496ZM155.016 19.801V17.801C153.911 17.801 153.016 18.6964 153.016 19.801H155.016ZM155.016 20.281H153.016C153.016 21.3855 153.911 22.281 155.016 22.281V20.281ZM159.276 20.281H161.276C161.276 19.1764 160.381 18.281 159.276 18.281V20.281ZM159.276 22.621V24.621C160.381 24.621 161.276 23.7255 161.276 22.621H159.276ZM155.016 22.621V20.621C153.911 20.621 153.016 21.5164 153.016 22.621H155.016ZM155.016 23.321H153.016C153.016 23.5447 153.053 23.7667 153.127 23.978L155.016 23.321ZM155.596 24.661L153.824 25.589C154.119 26.1526 154.665 26.5421 155.294 26.6381C155.923 26.7341 156.56 26.5251 157.01 26.0752L155.596 24.661ZM157.176 22.801L158.366 21.1936C157.935 20.8744 157.394 20.7418 156.864 20.8255C156.334 20.9091 155.86 21.2021 155.548 21.6385L157.176 22.801ZM159.256 24.341L160.688 25.7372C161.091 25.3237 161.296 24.7561 161.249 24.1804C161.203 23.6048 160.91 23.0772 160.446 22.7336L159.256 24.341ZM156.896 26.561L155.594 25.0425C155.191 25.3881 154.942 25.8799 154.902 26.4095C154.861 26.9391 155.034 27.4629 155.38 27.8655L156.896 26.561ZM159.636 28.581L161.024 30.0207C161.509 29.5534 161.726 28.8736 161.602 28.212C161.477 27.5503 161.029 26.9955 160.408 26.7358L159.636 28.581ZM157.896 30.941L156.876 32.6611C157.35 32.9425 157.92 33.0155 158.45 32.8628C158.98 32.7101 159.423 32.3453 159.675 31.8546L157.896 30.941ZM155.016 28.001L156.713 26.9435C156.241 26.1857 155.324 25.8326 154.466 26.0781C153.608 26.3236 153.016 27.1082 153.016 28.001H155.016ZM154.136 31.461L155.165 33.176C155.172 33.1715 155.18 33.1671 155.187 33.1626L154.136 31.461ZM151.296 31.941L149.302 32.1026C149.387 33.1411 150.254 33.941 151.296 33.941V31.941ZM150.616 29.421L152.446 28.6137C152.215 28.0899 151.77 27.6903 151.225 27.516C150.68 27.3416 150.086 27.4093 149.594 27.7019L150.616 29.421ZM148.496 30.641L146.695 31.5117C146.934 32.0045 147.364 32.3781 147.885 32.5453C148.406 32.7126 148.973 32.6589 149.454 32.3968L148.496 30.641ZM148.276 24.161L147.138 22.516C146.671 22.8394 146.363 23.3467 146.292 23.9109C146.221 24.4751 146.393 25.043 146.766 25.4723L148.276 24.161ZM150.156 22.861L151.611 21.489C150.933 20.7698 149.831 20.6538 149.018 21.216L150.156 22.861ZM152.016 25.221L153.192 26.8384C154.011 26.2429 154.256 25.1293 153.762 24.2453L152.016 25.221ZM150.036 26.661L148.226 27.5126C148.48 28.0521 148.962 28.4501 149.539 28.5983C150.117 28.7464 150.73 28.6291 151.212 28.2784L150.036 26.661ZM146.996 25.781L148.863 25.063C148.651 24.514 148.361 23.8103 148.062 23.0917L146.216 23.861L144.37 24.6302C144.67 25.3517 144.94 26.008 145.129 26.4989L146.996 25.781ZM146.216 23.861H144.216V31.901H146.216H148.216V23.861H146.216ZM146.216 31.901V29.901H143.716V31.901V33.901H146.216V31.901ZM143.716 31.901H145.716V25.361H143.716H141.716V31.901H143.716ZM143.716 25.361L141.819 24.7285C141.445 25.8481 141.051 26.7256 140.646 27.341L142.316 28.441L143.986 29.541C144.661 28.5163 145.187 27.2738 145.613 25.9934L143.716 25.361ZM142.316 28.441L144.241 27.8981C143.949 26.863 143.256 25.5542 142.882 24.8853L141.136 25.861L139.39 26.8366C139.776 27.5277 140.243 28.459 140.391 28.9839L142.316 28.441ZM141.136 25.861L142.787 26.9903C144.034 25.1671 145.006 22.3621 145.494 20.0303L143.536 19.621L141.578 19.2116C141.146 21.2799 140.318 23.5148 139.485 24.7316L141.136 25.861ZM143.536 19.621V17.621H141.616V19.621V21.621H143.536V19.621ZM141.616 19.621H143.616V16.941H141.616H139.616V19.621H141.616ZM141.616 16.941V18.941H143.716V16.941V14.941H141.616V16.941ZM143.716 16.941H145.716V12.901H143.716H141.716V16.941H143.716ZM143.716 12.901V14.901H146.216V12.901V10.901H143.716V12.901ZM146.216 12.901H144.216V16.941H146.216H148.216V12.901H146.216ZM146.216 16.941V18.941H147.956V16.941V14.941H146.216V16.941ZM147.956 16.941H145.956V19.621H147.956H149.956V16.941H147.956ZM147.956 19.621V17.621H146.216V19.621V21.621H147.956V19.621ZM146.216 19.621H144.216V20.281H146.216H148.216V19.621H146.216ZM146.216 20.281L144.58 21.4309C145.049 22.099 146.348 24.2289 146.661 24.75L148.376 23.721L150.091 22.692C149.804 22.2131 148.423 19.943 147.852 19.1311L146.216 20.281ZM148.376 23.721L146.714 22.6079L145.334 24.6679L146.996 25.781L148.658 26.8941L150.038 24.8341L148.376 23.721ZM147.316 28.201L148.116 30.0341C149.292 29.5206 150.984 28.6424 152.537 27.8361L151.616 26.061L150.695 24.2858C149.088 25.1195 147.539 25.9214 146.516 26.3679L147.316 28.201ZM151.616 26.061L149.7 26.6342L150.4 28.9742L152.316 28.401L154.232 27.8278L153.532 25.4878L151.616 26.061ZM152.316 28.401L151.293 26.6824L149.613 27.6824L150.636 29.401L151.659 31.1196L153.339 30.1196L152.316 28.401ZM150.636 29.401L150.488 31.3955C151.113 31.4418 151.845 31.441 152.056 31.441V29.441V27.441C151.827 27.441 151.239 27.4401 150.784 27.4064L150.636 29.401ZM152.056 29.441V31.441C152.421 31.441 153.178 31.3617 153.772 30.7053C154.322 30.0967 154.356 29.3945 154.356 29.121H152.356H150.356C150.356 29.0674 150.35 28.5253 150.805 28.0217C151.304 27.4703 151.91 27.441 152.056 27.441V29.441ZM152.356 29.121H154.356V22.621H152.356H150.356V29.121H152.356ZM152.356 22.621V20.621H148.056V22.621V24.621H152.356V22.621ZM148.056 22.621H150.056V20.281H148.056H146.056V22.621H148.056ZM148.056 20.281V22.281H152.356V20.281V18.281H148.056V20.281ZM152.356 20.281H154.356V19.801H152.356H150.356V20.281H152.356ZM152.356 19.801V17.801H148.896V19.801V21.801H152.356V19.801ZM148.896 19.801H150.896V17.661H148.896H146.896V19.801H148.896ZM148.896 17.661V19.661H152.356V17.661V15.661H148.896V17.661ZM152.356 17.661H154.356V17.221H152.356H150.356V17.661H152.356ZM152.356 17.221V15.221H148.416V17.221V19.221H152.356V17.221ZM148.416 17.221H150.416V14.961H148.416H146.416V17.221H148.416ZM148.416 14.961V16.961H150.096V14.961V12.961H148.416V14.961ZM150.096 14.961L151.947 14.2037C151.763 13.7547 151.52 13.1858 151.227 12.6789L149.496 13.681L147.765 14.683C147.912 14.9361 148.069 15.2873 148.245 15.7182L150.096 14.961ZM149.496 13.681L150.154 15.5695L152.334 14.8095L151.676 12.921L151.018 11.0325L148.838 11.7924L149.496 13.681ZM151.676 12.921L149.971 13.9661C150.31 14.5199 150.646 15.1946 150.779 15.5934L152.676 14.961L154.573 14.3285C154.306 13.5273 153.802 12.5621 153.381 11.8759L151.676 12.921ZM152.676 14.961V16.961H154.816V14.961V12.961H152.676V14.961ZM154.816 14.961L156.657 15.7421C156.96 15.0276 157.307 14.0707 157.484 13.3154L155.536 12.861L153.588 12.4065C153.484 12.8513 153.232 13.5744 152.975 14.1799L154.816 14.961ZM155.536 12.861L155.071 14.8061L157.831 15.4661L158.296 13.521L158.761 11.5758L156.001 10.9158L155.536 12.861ZM158.296 13.521L156.593 12.4728C156.233 13.0571 156.004 13.4542 155.729 13.8872L157.416 14.961L159.103 16.0347C159.388 15.5877 159.719 15.0248 159.999 14.5692L158.296 13.521ZM157.416 14.961V16.961H158.876V14.961V12.961H157.416V14.961ZM158.876 14.961H156.876V17.221H158.876H160.876V14.961H158.876ZM158.876 17.221V15.221H155.016V17.221V19.221H158.876V17.221ZM155.016 17.221H153.016V17.661H155.016H157.016V17.221H155.016ZM155.016 17.661V19.661H158.496V17.661V15.661H155.016V17.661ZM158.496 17.661H156.496V19.801H158.496H160.496V17.661H158.496ZM158.496 19.801V17.801H155.016V19.801V21.801H158.496V19.801ZM155.016 19.801H153.016V20.281H155.016H157.016V19.801H155.016ZM155.016 20.281V22.281H159.276V20.281V18.281H155.016V20.281ZM159.276 20.281H157.276V22.621H159.276H161.276V20.281H159.276ZM159.276 22.621V20.621H155.016V22.621V24.621H159.276V22.621ZM155.016 22.621H153.016V23.321H155.016H157.016V22.621H155.016ZM155.016 23.321L153.127 23.978C153.32 24.5318 153.559 25.0824 153.824 25.589L155.596 24.661L157.368 23.733C157.193 23.3996 157.032 23.0301 156.905 22.6639L155.016 23.321ZM155.596 24.661L157.01 26.0752C157.67 25.4149 158.341 24.6103 158.803 23.9635L157.176 22.801L155.548 21.6385C155.211 22.1116 154.681 22.747 154.182 23.2468L155.596 24.661ZM157.176 22.801L155.986 24.4084L158.066 25.9484L159.256 24.341L160.446 22.7336L158.366 21.1936L157.176 22.801ZM159.256 24.341L157.824 22.9448C157.085 23.7025 156.249 24.4817 155.594 25.0425L156.896 26.561L158.198 28.0795C158.943 27.4403 159.867 26.5794 160.688 25.7372L159.256 24.341ZM156.896 26.561L155.38 27.8655C156.298 28.9321 157.444 29.8323 158.864 30.4261L159.636 28.581L160.408 26.7358C159.628 26.4097 158.974 25.9099 158.412 25.2565L156.896 26.561ZM159.636 28.581L158.248 27.1413C157.524 27.8395 156.594 29.0989 156.117 30.0274L157.896 30.941L159.675 31.8546C159.958 31.303 160.628 30.4025 161.024 30.0207L159.636 28.581ZM157.896 30.941L158.916 29.2209C158.076 28.7223 157.348 27.9627 156.713 26.9435L155.016 28.001L153.318 29.0585C154.203 30.4792 155.356 31.7596 156.876 32.6611L157.896 30.941ZM155.016 28.001H153.016V29.141H155.016H157.016V28.001H155.016ZM155.016 29.141H153.016C153.016 29.396 153.005 29.5817 152.989 29.718C152.972 29.8538 152.953 29.9127 152.949 29.9235C152.948 29.9274 152.962 29.889 153.003 29.8376C153.022 29.8139 153.042 29.7944 153.059 29.7797C153.075 29.7653 153.086 29.759 153.085 29.7594L154.136 31.461L155.187 33.1626C155.919 32.7104 156.427 32.0708 156.713 31.2784C156.966 30.5736 157.016 29.8205 157.016 29.141H155.016ZM154.136 31.461L153.107 29.746C152.95 29.8401 152.587 29.941 151.296 29.941V31.941V33.941C152.445 33.941 153.922 33.9218 155.165 33.176L154.136 31.461ZM151.296 31.941L153.289 31.7793C153.207 30.7626 152.811 29.4422 152.446 28.6137L150.616 29.421L148.786 30.2283C149.021 30.7598 149.265 31.6393 149.302 32.1026L151.296 31.941ZM150.616 29.421L149.594 27.7019C148.86 28.1384 148.165 28.5433 147.538 28.8852L148.496 30.641L149.454 32.3968C150.147 32.0187 150.892 31.5836 151.638 31.14L150.616 29.421ZM148.496 30.641L150.296 29.7702L149.116 27.3302L147.316 28.201L145.515 29.0717L146.695 31.5117L148.496 30.641ZM148.276 24.161L149.413 25.806L151.293 24.506L150.156 22.861L149.018 21.216L147.138 22.516L148.276 24.161ZM150.156 22.861L148.701 24.233C149.342 24.913 150.017 25.7441 150.27 26.1966L152.016 25.221L153.762 24.2453C153.255 23.3378 152.29 22.2089 151.611 21.489L150.156 22.861ZM152.016 25.221L150.84 23.6035L148.86 25.0435L150.036 26.661L151.212 28.2784L153.192 26.8384L152.016 25.221ZM150.036 26.661L151.846 25.8094C151.406 24.8759 150.481 23.6494 149.786 22.8496L148.276 24.161L146.766 25.4723C147.391 26.1925 148.026 27.0861 148.226 27.5126L150.036 26.661Z" fill="white" mask="url(#path-2-outside-1_234_9780)"/>
</g>
<defs>
<filter id="filter0_d_234_9780" x="54" y="0.720703" width="111.636" height="37.2207" filterUnits="userSpaceOnUse" color-interpolation-filters="sRGB">
<feFlood flood-opacity="0" result="BackgroundImageFix"/>
<feColorMatrix in="SourceAlpha" type="matrix" values="0 0 0 0 0 0 0 0 0 0 0 0 0 0 0 0 0 0 127 0" result="hardAlpha"/>
<feOffset/>
<feGaussianBlur stdDeviation="2"/>
<feComposite in2="hardAlpha" operator="out"/>
<feColorMatrix type="matrix" values="0 0 0 0 0 0 0 0 0 0 0 0 0 0 0 0 0 0 0.45 0"/>
<feBlend mode="normal" in2="BackgroundImageFix" result="effect1_dropShadow_234_9780"/>
<feBlend mode="normal" in="SourceGraphic" in2="effect1_dropShadow_234_9780" result="shape"/>
</filter>
<linearGradient id="paint0_linear_234_9780" x1="34" y1="30.501" x2="185" y2="30.501" gradientUnits="userSpaceOnUse">
<stop stop-color="#FF4D00"/>
<stop offset="1" stop-color="#FF9500"/>
</linearGradient>
</defs>
</svg>
