<svg width="184" height="106" viewBox="0 0 184 106" fill="none" xmlns="http://www.w3.org/2000/svg">
<path d="M7.78 24.019C7.16 24.199 6.52 24.359 5.88 24.539V28.959C5.88 30.259 5.66 30.959 4.96 31.379C4.24 31.819 3.28 31.899 1.9 31.899C1.84 31.159 1.48 30.019 1.16 29.279C1.84 29.319 2.6 29.319 2.86 29.319C3.12 29.319 3.22 29.219 3.22 28.939V25.239L1.46 25.699L0.8 22.919C1.5 22.779 2.32 22.599 3.22 22.399V19.219H1.1V16.539H3.22V12.899H5.88V16.539H7.54V19.219H5.88V21.779L7.46 21.399L7.78 24.019ZM7.86 31.879V17.299H11.82V12.939H14.42V17.299H18.62V31.739H15.88V30.399H10.48V31.879H7.86ZM10.48 27.619H11.82V25.079H10.48V27.619ZM10.48 22.379H11.82V20.059H10.48V22.379ZM14.42 27.619H15.88V25.079H14.42V27.619ZM14.42 22.379H15.88V20.059H14.42V22.379ZM35.4439 18.139C35.7639 18.139 35.8639 18.039 35.9439 17.559H33.8239V17.619C33.8239 18.079 33.9039 18.139 34.3239 18.139H35.4439ZM19.8039 28.919C20.4639 28.459 21.2039 27.899 21.8839 27.299V23.319H20.1039V20.639H24.4439V27.059C24.9239 27.979 25.6839 28.519 26.7439 28.779C26.2239 28.279 25.4839 27.659 25.0239 27.319C26.1239 27.019 27.2639 26.599 28.0639 26.119H24.9239V24.019H27.8239V22.999H25.4439V20.939H27.8239V20.079H30.4039V20.939H32.1039V20.079H34.7239V20.939H37.1839V22.999H34.7239V24.019H37.7639V26.119H34.5439C35.7639 26.739 37.1039 27.459 37.8839 27.999L35.2839 28.939C36.3839 28.899 37.4039 28.839 38.2639 28.759C37.9639 29.399 37.5639 30.659 37.4439 31.459C34.8839 31.599 30.6239 31.639 28.1039 31.519C25.9039 31.419 24.4639 30.879 23.3439 29.339C22.6839 30.099 21.9839 30.819 21.0839 31.699L19.8039 28.919ZM19.8639 14.799L22.0439 13.359C22.9839 14.319 24.1239 15.659 24.6039 16.639L22.2439 18.259C21.8439 17.299 20.7839 15.839 19.8639 14.799ZM25.0839 15.199V13.419H30.7439V17.559H29.7839C30.2039 17.839 31.0039 18.099 31.5639 18.219C31.3439 19.619 30.7439 20.019 29.4839 20.019H27.7039C25.8439 20.019 25.3439 19.479 25.3439 17.639V15.759H28.4439V15.199H25.0839ZM27.3839 28.899L28.1039 28.959C29.7639 29.039 32.4439 29.039 34.9039 28.959C34.1839 28.379 32.9639 27.539 31.8039 26.939L33.2039 26.119H29.4239L30.9639 26.679C30.0639 27.539 28.6439 28.359 27.3839 28.899ZM27.5839 17.619C27.5839 18.079 27.6639 18.139 28.0639 18.139H29.2039C29.5239 18.139 29.6039 18.039 29.6839 17.559H27.5839V17.619ZM30.4039 24.019H32.1039V22.999H30.4039V24.019ZM31.2439 15.199V13.419H37.0839V17.559H36.0439C36.4439 17.839 37.2439 18.099 37.8239 18.219C37.5839 19.619 37.0039 20.019 35.7239 20.019H33.9639C32.1039 20.019 31.5839 19.479 31.5839 17.639V15.759H34.7439V15.199H31.2439ZM51.2478 23.559V20.399H52.7678V23.559H51.2478ZM39.6678 19.099V16.039H52.7878V19.099C51.3478 19.259 50.3078 19.599 49.3678 20.139C49.2278 20.219 49.0678 20.299 48.9278 20.399H50.3878V23.559H48.8678V20.439C47.2878 21.479 46.1078 22.919 45.6878 24.239C45.0678 26.219 46.2878 27.839 48.3078 27.999C49.3878 28.099 51.1678 27.979 52.2078 27.819V31.019C50.6478 31.219 48.8078 31.179 48.0678 31.119C45.2878 30.879 41.7678 29.399 42.4078 24.599C42.6278 22.839 43.4478 21.619 44.3878 20.559C44.9878 19.879 45.5278 19.439 45.9878 19.099H39.6678ZM174.536 30.879C171.236 30.739 169.856 29.299 169.696 27.059C169.636 25.699 169.916 24.839 170.476 23.799H173.256C172.756 24.759 172.516 25.399 172.496 26.219C172.496 27.199 173.016 27.679 174.736 27.739C175.456 27.759 176.556 27.699 178.256 27.499V30.679C177.776 30.779 176.196 30.939 174.536 30.879ZM165.416 23.499C165.416 20.999 165.616 18.879 165.996 15.819H168.996C168.576 19.139 168.396 21.019 168.416 23.439C168.436 25.959 168.656 28.139 169.156 31.259H166.056C165.636 28.279 165.416 26.159 165.416 23.499ZM170.296 19.759V16.699H177.896V19.759H170.296ZM28.7291 55.935C27.1211 59.607 24.3851 63.087 19.4171 65.991V61.407C23.6651 58.383 25.3211 55.935 26.7131 52.671H19.4171V48.999H28.7291V45.999H32.4731V48.999H35.2091V52.671H32.4731V66.399H28.7291V55.935ZM41.0902 62.151C45.4822 61.503 47.9062 59.631 47.9062 54.759V46.287H51.6262V54.759C51.6262 61.551 48.1222 64.911 41.0902 66.111V62.151ZM38.5222 57.543V46.287H42.2422V57.543H38.5222ZM66.8713 47.151V43.359H68.6953V47.151H66.8713ZM55.5433 65.559V61.647C62.5993 61.143 66.3193 56.919 67.6873 51.207H71.5033C69.9433 59.079 64.5913 64.719 55.5433 65.559ZM55.5433 56.487V52.719H62.5753V56.487H55.5433ZM55.5433 50.655V46.887H62.5753V50.655H55.5433ZM69.7273 47.151V43.359H71.5513V47.151H69.7273ZM74.4479 62.367C78.2159 61.239 80.4719 59.247 80.4719 55.743V54.183H73.4879V50.343H80.4719V46.095H84.3119V50.343H90.1919V54.183H84.3119L84.2879 55.743C84.1919 62.175 80.0639 64.911 74.4479 66.303V62.367ZM100.584 65.703V46.719H104.232V60.615C106.224 59.775 107.328 58.911 108.888 57.231V61.887C106.704 64.431 103.248 65.439 100.584 65.703ZM92.2558 65.295C93.9358 61.791 94.9198 58.191 94.9198 53.799V46.983H98.5438V53.799C98.5438 57.543 97.8478 62.607 96.2878 65.295H92.2558ZM121.898 47.151V43.359H123.722V47.151H121.898ZM111.41 58.143V53.511C111.818 53.223 112.394 52.719 113.138 51.639C114.026 50.319 114.962 48.591 115.442 45.999H119.234C119.114 46.887 118.898 47.727 118.706 48.495H126.602C126.602 53.103 125.93 56.151 125.234 57.663C122.45 63.711 116.21 66.015 113.186 66.495V62.607C114.674 62.439 117.362 61.215 119.21 59.511C121.154 57.759 122.306 55.623 122.57 52.071H117.242C116.066 53.871 115.37 54.711 114.53 55.575C113.69 56.439 112.178 57.759 111.41 58.143ZM124.754 47.151V43.359H126.578V47.151H124.754ZM130.544 58.023L129.152 49.791H131.624L133.088 58.023H130.544ZM130.664 65.967V62.631C133.64 62.103 135.68 60.351 137.048 58.095L137.096 58.023H134.576L133.184 49.791H135.656L137.096 58.023C138.56 55.551 139.208 52.551 139.352 49.839H142.496C142.208 53.703 141.248 57.375 139.424 60.255C137.552 63.207 134.72 65.343 130.664 65.967ZM155.871 46.527V43.359H157.695V46.527H155.871ZM144.807 66.207V61.743C149.487 58.983 152.463 55.695 154.383 50.871H145.695V47.007H159.495C158.823 50.727 157.311 53.895 155.655 56.463C156.975 58.407 159.015 60.231 160.455 61.431V66.111C157.623 64.071 155.607 62.151 153.519 59.367C151.575 61.767 147.879 64.815 144.807 66.207ZM158.727 46.527V43.359H160.551V46.527H158.727ZM38.4107 95.671C41.4827 95.239 43.7627 94.159 45.3227 92.407C46.8827 90.655 47.7227 88.183 47.8667 84.919H36.8507V81.079H48.4667C48.2747 80.695 48.1787 80.263 48.1787 79.807C48.1787 78.199 49.4747 76.903 51.1067 76.903C52.7147 76.903 54.0107 78.199 54.0107 79.807C54.0107 81.271 52.9547 82.471 51.5627 82.711V84.607C51.5627 88.255 50.5547 91.951 47.9867 94.783C45.8987 97.087 42.8027 98.815 38.4107 99.511V95.671ZM49.7627 79.807C49.7627 80.407 50.1707 80.935 50.7227 81.079H51.4427C51.9947 80.935 52.4027 80.407 52.4027 79.807C52.4027 79.087 51.8027 78.487 51.0827 78.487C50.3627 78.487 49.7627 79.087 49.7627 79.807ZM55.4787 99.751V80.719H59.2947V95.143C62.1747 94.447 65.3427 90.679 66.7107 87.271H70.6707C68.0067 94.519 62.8707 99.295 55.4787 99.751ZM84.7251 81.151V77.359H86.5491V81.151H84.7251ZM72.9651 87.223V83.527L75.7731 83.431V80.071H79.3251V83.311L89.3571 82.975V86.695H89.3331C88.5411 89.695 85.2051 93.031 81.2931 94.399V90.535C83.0451 90.055 85.0851 88.207 85.5891 86.791L79.3251 87.031C79.3251 90.343 79.3491 93.439 79.3731 93.895C79.5411 95.455 79.9011 95.935 81.9411 96.031C84.3411 96.127 87.8931 95.815 88.9971 95.695V99.559C87.2931 99.655 84.0291 99.823 81.5571 99.703C78.2211 99.559 76.0611 98.671 75.8691 94.687C75.7491 92.167 75.7731 90.103 75.7731 87.151L72.9651 87.223ZM87.5811 81.151V77.359H89.4051V81.151H87.5811ZM92.1364 84.919V81.175H99.6244V84.919H92.1364ZM92.1364 99.559V95.647C99.1924 95.143 102.912 90.919 104.28 85.207H108.096C106.536 93.079 101.184 98.719 92.1364 99.559ZM111.281 100.207V80.095H115.073V86.575H125.153V90.343H115.073V100.207H111.281ZM133.233 84.991L133.089 81.007H137.793L137.649 84.991L136.929 92.575H133.953L133.233 84.991ZM132.993 96.799C132.993 95.383 134.025 94.399 135.441 94.399C136.857 94.399 137.889 95.383 137.889 96.799C137.889 98.215 136.857 99.247 135.441 99.247C134.001 99.247 132.993 98.215 132.993 96.799Z" fill="black"/>
<g filter="url(#filter0_d_137_575)">
<mask id="path-2-outside-1_137_575" maskUnits="userSpaceOnUse" x="58" y="4" width="104" height="30" fill="black">
<rect fill="white" x="58" y="4" width="104" height="30"/>
<path d="M78.2102 30H60.0002L65.6102 24.18C67.0902 22.64 68.2502 21.34 69.0902 20.28C69.9302 19.2 70.5502 18.29 70.9502 17.55C71.3702 16.81 71.6302 16.21 71.7302 15.75C71.8302 15.29 71.8802 14.9 71.8802 14.58C71.8802 14.24 71.8202 13.91 71.7002 13.59C71.6002 13.27 71.4402 12.99 71.2202 12.75C71.0002 12.49 70.7302 12.29 70.4102 12.15C70.1102 11.99 69.7502 11.91 69.3302 11.91C68.5302 11.91 67.9002 12.17 67.4402 12.69C67.0002 13.21 66.7802 13.86 66.7802 14.64C66.7802 14.86 66.8102 15.18 66.8702 15.6H60.4502C60.4502 14.28 60.6602 13.08 61.0802 12C61.5202 10.92 62.1302 9.99 62.9102 9.21C63.6902 8.43 64.6102 7.83 65.6702 7.41C66.7502 6.99 67.9302 6.78 69.2102 6.78C70.4702 6.78 71.6302 6.98 72.6902 7.38C73.7702 7.78 74.7002 8.34 75.4802 9.06C76.2602 9.78 76.8702 10.64 77.3102 11.64C77.7502 12.62 77.9702 13.69 77.9702 14.85C77.9702 16.09 77.7002 17.24 77.1602 18.3C76.6402 19.34 75.8002 20.41 74.6402 21.51L70.8902 25.02H78.2102V30ZM85.9708 18.66C85.9708 19.66 86.0608 20.57 86.2408 21.39C86.4208 22.21 86.6708 22.92 86.9908 23.52C87.3308 24.12 87.7308 24.59 88.1908 24.93C88.6508 25.25 89.1708 25.41 89.7508 25.41C90.3108 25.41 90.8208 25.25 91.2808 24.93C91.7608 24.59 92.1608 24.12 92.4808 23.52C92.8008 22.92 93.0508 22.21 93.2308 21.39C93.4108 20.57 93.5008 19.66 93.5008 18.66C93.5008 17.68 93.4108 16.78 93.2308 15.96C93.0508 15.12 92.8008 14.41 92.4808 13.83C92.1608 13.23 91.7608 12.77 91.2808 12.45C90.8208 12.11 90.3108 11.94 89.7508 11.94C89.1708 11.94 88.6508 12.11 88.1908 12.45C87.7308 12.77 87.3308 13.23 86.9908 13.83C86.6708 14.41 86.4208 15.12 86.2408 15.96C86.0608 16.78 85.9708 17.68 85.9708 18.66ZM80.1508 18.66C80.1508 16.86 80.3808 15.23 80.8408 13.77C81.3208 12.29 81.9808 11.03 82.8208 9.99C83.6808 8.95 84.6908 8.15 85.8508 7.59C87.0308 7.01 88.3308 6.72 89.7508 6.72C91.1508 6.72 92.4408 7.01 93.6208 7.59C94.8008 8.15 95.8108 8.95 96.6508 9.99C97.4908 11.03 98.1408 12.29 98.6008 13.77C99.0808 15.23 99.3208 16.86 99.3208 18.66C99.3208 20.46 99.0808 22.1 98.6008 23.58C98.1408 25.04 97.4908 26.3 96.6508 27.36C95.8108 28.4 94.8008 29.21 93.6208 29.79C92.4408 30.35 91.1508 30.63 89.7508 30.63C88.3308 30.63 87.0308 30.35 85.8508 29.79C84.6908 29.21 83.6808 28.4 82.8208 27.36C81.9808 26.3 81.3208 25.04 80.8408 23.58C80.3808 22.1 80.1508 20.46 80.1508 18.66ZM106.361 18.66C106.361 19.66 106.451 20.57 106.631 21.39C106.811 22.21 107.061 22.92 107.381 23.52C107.721 24.12 108.121 24.59 108.581 24.93C109.041 25.25 109.561 25.41 110.141 25.41C110.701 25.41 111.211 25.25 111.671 24.93C112.151 24.59 112.551 24.12 112.871 23.52C113.191 22.92 113.441 22.21 113.621 21.39C113.801 20.57 113.891 19.66 113.891 18.66C113.891 17.68 113.801 16.78 113.621 15.96C113.441 15.12 113.191 14.41 112.871 13.83C112.551 13.23 112.151 12.77 111.671 12.45C111.211 12.11 110.701 11.94 110.141 11.94C109.561 11.94 109.041 12.11 108.581 12.45C108.121 12.77 107.721 13.23 107.381 13.83C107.061 14.41 106.811 15.12 106.631 15.96C106.451 16.78 106.361 17.68 106.361 18.66ZM100.541 18.66C100.541 16.86 100.771 15.23 101.231 13.77C101.711 12.29 102.371 11.03 103.211 9.99C104.071 8.95 105.081 8.15 106.241 7.59C107.421 7.01 108.721 6.72 110.141 6.72C111.541 6.72 112.831 7.01 114.011 7.59C115.191 8.15 116.201 8.95 117.041 9.99C117.881 11.03 118.531 12.29 118.991 13.77C119.471 15.23 119.711 16.86 119.711 18.66C119.711 20.46 119.471 22.1 118.991 23.58C118.531 25.04 117.881 26.3 117.041 27.36C116.201 28.4 115.191 29.21 114.011 29.79C112.831 30.35 111.541 30.63 110.141 30.63C108.721 30.63 107.421 30.35 106.241 29.79C105.081 29.21 104.071 28.4 103.211 27.36C102.371 26.3 101.711 25.04 101.231 23.58C100.771 22.1 100.541 20.46 100.541 18.66Z"/>
<path d="M136.132 28.5V25.16H130.412V28.5H136.132ZM122.112 25.74C124.452 25.02 126.652 23.9 128.532 22.46C127.852 21.68 126.852 20.78 125.972 20.02C125.372 20.5 124.732 20.94 124.052 21.38C123.652 20.66 122.752 19.58 122.112 19.08C125.272 17.36 127.332 15 128.452 12.76L131.532 13.4C131.272 13.9 130.972 14.38 130.672 14.84H134.392L134.852 14.7L136.772 15.76C135.852 18.4 134.472 20.66 132.732 22.54H139.012V31.9H136.132V31.12H130.412V31.88H127.652V26.54C126.412 27.26 125.092 27.84 123.732 28.34C123.392 27.54 122.692 26.34 122.112 25.74ZM128.072 18.14C128.952 18.82 130.012 19.68 130.772 20.44C131.632 19.52 132.372 18.5 132.972 17.4H128.752L128.072 18.14ZM146.996 25.78C146.796 25.26 146.516 24.58 146.216 23.86V31.9H143.716V25.36C143.316 26.56 142.856 27.62 142.316 28.44C142.096 27.66 141.516 26.54 141.136 25.86C142.176 24.34 143.076 21.82 143.536 19.62H141.616V16.94H143.716V12.9H146.216V16.94H147.956V19.62H146.216V20.28C146.736 21.02 148.076 23.22 148.376 23.72L146.996 25.78ZM147.316 28.2C148.416 27.72 150.036 26.88 151.616 26.06L152.316 28.4L150.636 29.4C151.176 29.44 151.836 29.44 152.056 29.44C152.276 29.44 152.356 29.34 152.356 29.12V22.62H148.056V20.28H152.356V19.8H148.896V17.66H152.356V17.22H148.416V14.96H150.096C149.916 14.52 149.716 14.06 149.496 13.68L151.676 12.92C152.056 13.54 152.476 14.36 152.676 14.96H154.816C155.096 14.3 155.396 13.46 155.536 12.86L158.296 13.52C157.976 14.04 157.696 14.52 157.416 14.96H158.876V17.22H155.016V17.66H158.496V19.8H155.016V20.28H159.276V22.62H155.016V23.32C155.176 23.78 155.376 24.24 155.596 24.66C156.176 24.08 156.776 23.36 157.176 22.8L159.256 24.34C158.476 25.14 157.596 25.96 156.896 26.56C157.636 27.42 158.536 28.12 159.636 28.58C159.076 29.12 158.276 30.2 157.896 30.94C156.716 30.24 155.776 29.22 155.016 28V29.14C155.016 30.36 154.816 31.04 154.136 31.46C153.436 31.88 152.516 31.94 151.296 31.94C151.236 31.2 150.916 30.1 150.616 29.42C149.876 29.86 149.156 30.28 148.496 30.64L147.316 28.2ZM148.276 24.16L150.156 22.86C150.816 23.56 151.636 24.54 152.016 25.22L150.036 26.66C149.716 25.98 148.936 24.92 148.276 24.16Z"/>
</mask>
<path d="M78.2102 30H60.0002L65.6102 24.18C67.0902 22.64 68.2502 21.34 69.0902 20.28C69.9302 19.2 70.5502 18.29 70.9502 17.55C71.3702 16.81 71.6302 16.21 71.7302 15.75C71.8302 15.29 71.8802 14.9 71.8802 14.58C71.8802 14.24 71.8202 13.91 71.7002 13.59C71.6002 13.27 71.4402 12.99 71.2202 12.75C71.0002 12.49 70.7302 12.29 70.4102 12.15C70.1102 11.99 69.7502 11.91 69.3302 11.91C68.5302 11.91 67.9002 12.17 67.4402 12.69C67.0002 13.21 66.7802 13.86 66.7802 14.64C66.7802 14.86 66.8102 15.18 66.8702 15.6H60.4502C60.4502 14.28 60.6602 13.08 61.0802 12C61.5202 10.92 62.1302 9.99 62.9102 9.21C63.6902 8.43 64.6102 7.83 65.6702 7.41C66.7502 6.99 67.9302 6.78 69.2102 6.78C70.4702 6.78 71.6302 6.98 72.6902 7.38C73.7702 7.78 74.7002 8.34 75.4802 9.06C76.2602 9.78 76.8702 10.64 77.3102 11.64C77.7502 12.62 77.9702 13.69 77.9702 14.85C77.9702 16.09 77.7002 17.24 77.1602 18.3C76.6402 19.34 75.8002 20.41 74.6402 21.51L70.8902 25.02H78.2102V30ZM85.9708 18.66C85.9708 19.66 86.0608 20.57 86.2408 21.39C86.4208 22.21 86.6708 22.92 86.9908 23.52C87.3308 24.12 87.7308 24.59 88.1908 24.93C88.6508 25.25 89.1708 25.41 89.7508 25.41C90.3108 25.41 90.8208 25.25 91.2808 24.93C91.7608 24.59 92.1608 24.12 92.4808 23.52C92.8008 22.92 93.0508 22.21 93.2308 21.39C93.4108 20.57 93.5008 19.66 93.5008 18.66C93.5008 17.68 93.4108 16.78 93.2308 15.96C93.0508 15.12 92.8008 14.41 92.4808 13.83C92.1608 13.23 91.7608 12.77 91.2808 12.45C90.8208 12.11 90.3108 11.94 89.7508 11.94C89.1708 11.94 88.6508 12.11 88.1908 12.45C87.7308 12.77 87.3308 13.23 86.9908 13.83C86.6708 14.41 86.4208 15.12 86.2408 15.96C86.0608 16.78 85.9708 17.68 85.9708 18.66ZM80.1508 18.66C80.1508 16.86 80.3808 15.23 80.8408 13.77C81.3208 12.29 81.9808 11.03 82.8208 9.99C83.6808 8.95 84.6908 8.15 85.8508 7.59C87.0308 7.01 88.3308 6.72 89.7508 6.72C91.1508 6.72 92.4408 7.01 93.6208 7.59C94.8008 8.15 95.8108 8.95 96.6508 9.99C97.4908 11.03 98.1408 12.29 98.6008 13.77C99.0808 15.23 99.3208 16.86 99.3208 18.66C99.3208 20.46 99.0808 22.1 98.6008 23.58C98.1408 25.04 97.4908 26.3 96.6508 27.36C95.8108 28.4 94.8008 29.21 93.6208 29.79C92.4408 30.35 91.1508 30.63 89.7508 30.63C88.3308 30.63 87.0308 30.35 85.8508 29.79C84.6908 29.21 83.6808 28.4 82.8208 27.36C81.9808 26.3 81.3208 25.04 80.8408 23.58C80.3808 22.1 80.1508 20.46 80.1508 18.66ZM106.361 18.66C106.361 19.66 106.451 20.57 106.631 21.39C106.811 22.21 107.061 22.92 107.381 23.52C107.721 24.12 108.121 24.59 108.581 24.93C109.041 25.25 109.561 25.41 110.141 25.41C110.701 25.41 111.211 25.25 111.671 24.93C112.151 24.59 112.551 24.12 112.871 23.52C113.191 22.92 113.441 22.21 113.621 21.39C113.801 20.57 113.891 19.66 113.891 18.66C113.891 17.68 113.801 16.78 113.621 15.96C113.441 15.12 113.191 14.41 112.871 13.83C112.551 13.23 112.151 12.77 111.671 12.45C111.211 12.11 110.701 11.94 110.141 11.94C109.561 11.94 109.041 12.11 108.581 12.45C108.121 12.77 107.721 13.23 107.381 13.83C107.061 14.41 106.811 15.12 106.631 15.96C106.451 16.78 106.361 17.68 106.361 18.66ZM100.541 18.66C100.541 16.86 100.771 15.23 101.231 13.77C101.711 12.29 102.371 11.03 103.211 9.99C104.071 8.95 105.081 8.15 106.241 7.59C107.421 7.01 108.721 6.72 110.141 6.72C111.541 6.72 112.831 7.01 114.011 7.59C115.191 8.15 116.201 8.95 117.041 9.99C117.881 11.03 118.531 12.29 118.991 13.77C119.471 15.23 119.711 16.86 119.711 18.66C119.711 20.46 119.471 22.1 118.991 23.58C118.531 25.04 117.881 26.3 117.041 27.36C116.201 28.4 115.191 29.21 114.011 29.79C112.831 30.35 111.541 30.63 110.141 30.63C108.721 30.63 107.421 30.35 106.241 29.79C105.081 29.21 104.071 28.4 103.211 27.36C102.371 26.3 101.711 25.04 101.231 23.58C100.771 22.1 100.541 20.46 100.541 18.66Z" fill="url(#paint0_linear_137_575)"/>
<path d="M136.132 28.5V25.16H130.412V28.5H136.132ZM122.112 25.74C124.452 25.02 126.652 23.9 128.532 22.46C127.852 21.68 126.852 20.78 125.972 20.02C125.372 20.5 124.732 20.94 124.052 21.38C123.652 20.66 122.752 19.58 122.112 19.08C125.272 17.36 127.332 15 128.452 12.76L131.532 13.4C131.272 13.9 130.972 14.38 130.672 14.84H134.392L134.852 14.7L136.772 15.76C135.852 18.4 134.472 20.66 132.732 22.54H139.012V31.9H136.132V31.12H130.412V31.88H127.652V26.54C126.412 27.26 125.092 27.84 123.732 28.34C123.392 27.54 122.692 26.34 122.112 25.74ZM128.072 18.14C128.952 18.82 130.012 19.68 130.772 20.44C131.632 19.52 132.372 18.5 132.972 17.4H128.752L128.072 18.14ZM146.996 25.78C146.796 25.26 146.516 24.58 146.216 23.86V31.9H143.716V25.36C143.316 26.56 142.856 27.62 142.316 28.44C142.096 27.66 141.516 26.54 141.136 25.86C142.176 24.34 143.076 21.82 143.536 19.62H141.616V16.94H143.716V12.9H146.216V16.94H147.956V19.62H146.216V20.28C146.736 21.02 148.076 23.22 148.376 23.72L146.996 25.78ZM147.316 28.2C148.416 27.72 150.036 26.88 151.616 26.06L152.316 28.4L150.636 29.4C151.176 29.44 151.836 29.44 152.056 29.44C152.276 29.44 152.356 29.34 152.356 29.12V22.62H148.056V20.28H152.356V19.8H148.896V17.66H152.356V17.22H148.416V14.96H150.096C149.916 14.52 149.716 14.06 149.496 13.68L151.676 12.92C152.056 13.54 152.476 14.36 152.676 14.96H154.816C155.096 14.3 155.396 13.46 155.536 12.86L158.296 13.52C157.976 14.04 157.696 14.52 157.416 14.96H158.876V17.22H155.016V17.66H158.496V19.8H155.016V20.28H159.276V22.62H155.016V23.32C155.176 23.78 155.376 24.24 155.596 24.66C156.176 24.08 156.776 23.36 157.176 22.8L159.256 24.34C158.476 25.14 157.596 25.96 156.896 26.56C157.636 27.42 158.536 28.12 159.636 28.58C159.076 29.12 158.276 30.2 157.896 30.94C156.716 30.24 155.776 29.22 155.016 28V29.14C155.016 30.36 154.816 31.04 154.136 31.46C153.436 31.88 152.516 31.94 151.296 31.94C151.236 31.2 150.916 30.1 150.616 29.42C149.876 29.86 149.156 30.28 148.496 30.64L147.316 28.2ZM148.276 24.16L150.156 22.86C150.816 23.56 151.636 24.54 152.016 25.22L150.036 26.66C149.716 25.98 148.936 24.92 148.276 24.16Z" fill="black"/>
<path d="M78.2102 30V32C79.3147 32 80.2102 31.1046 80.2102 30H78.2102ZM60.0002 30L58.5602 28.612C58.0034 29.1896 57.8457 30.044 58.1595 30.7823C58.4733 31.5206 59.1979 32 60.0002 32V30ZM65.6102 24.18L67.0501 25.568L67.0522 25.5658L65.6102 24.18ZM69.0902 20.28L70.6576 21.5222C70.6614 21.5174 70.6651 21.5127 70.6689 21.5079L69.0902 20.28ZM70.9502 17.55L69.2108 16.5628C69.204 16.5748 69.1973 16.5868 69.1907 16.599L70.9502 17.55ZM71.7002 13.59L69.7912 14.1865C69.8023 14.2221 69.8144 14.2574 69.8275 14.2922L71.7002 13.59ZM71.2202 12.75L69.6934 14.0419C69.7105 14.0621 69.728 14.0819 69.7458 14.1014L71.2202 12.75ZM70.4102 12.15L69.469 13.9147C69.5146 13.939 69.5611 13.9616 69.6085 13.9823L70.4102 12.15ZM67.4402 12.69L65.9422 11.3649C65.9324 11.3758 65.9229 11.3869 65.9134 11.3981L67.4402 12.69ZM66.8702 15.6V17.6C67.4499 17.6 68.0012 17.3484 68.3811 16.9104C68.7609 16.4724 68.932 15.8911 68.8501 15.3172L66.8702 15.6ZM60.4502 15.6H58.4502C58.4502 16.7046 59.3456 17.6 60.4502 17.6V15.6ZM61.0802 12L59.228 11.2454C59.224 11.2553 59.22 11.2652 59.2161 11.2751L61.0802 12ZM62.9102 9.21L64.3244 10.6242V10.6242L62.9102 9.21ZM65.6702 7.41L64.9452 5.54595L64.9334 5.55064L65.6702 7.41ZM72.6902 7.38L71.984 9.25124L71.9955 9.2555L72.6902 7.38ZM75.4802 9.06L74.1236 10.5296L75.4802 9.06ZM77.3102 11.64L75.4795 12.4455C75.4815 12.4501 75.4836 12.4546 75.4856 12.4592L77.3102 11.64ZM77.1602 18.3L75.3781 17.3921C75.3758 17.3966 75.3735 17.4011 75.3713 17.4056L77.1602 18.3ZM74.6402 21.51L76.0069 22.9702L76.0163 22.9612L74.6402 21.51ZM70.8902 25.02L69.5234 23.5598C68.9241 24.1208 68.7284 24.9912 69.03 25.7547C69.3316 26.5183 70.0692 27.02 70.8902 27.02V25.02ZM78.2102 25.02H80.2102C80.2102 23.9154 79.3147 23.02 78.2102 23.02V25.02ZM78.2102 30V28H60.0002V30V32H78.2102V30ZM60.0002 30L61.4401 31.388L67.0501 25.568L65.6102 24.18L64.1702 22.792L58.5602 28.612L60.0002 30ZM65.6102 24.18L67.0522 25.5658C68.5542 24.0029 69.7624 22.6519 70.6576 21.5222L69.0902 20.28L67.5227 19.0378C66.738 20.0281 65.6261 21.2771 64.1681 22.7942L65.6102 24.18ZM69.0902 20.28L70.6689 21.5079C71.5403 20.3875 72.2349 19.3792 72.7096 18.501L70.9502 17.55L69.1907 16.599C68.8654 17.2008 68.32 18.0125 67.5115 19.0521L69.0902 20.28ZM70.9502 17.55L72.6895 18.5372C73.1425 17.7391 73.5202 16.9308 73.6845 16.1749L71.7302 15.75L69.7758 15.3251C69.7401 15.4892 69.5978 15.8809 69.2108 16.5628L70.9502 17.55ZM71.7302 15.75L73.6845 16.1749C73.8021 15.6341 73.8802 15.0925 73.8802 14.58H71.8802H69.8802C69.8802 14.7075 69.8582 14.9459 69.7758 15.3251L71.7302 15.75ZM71.8802 14.58H73.8802C73.8802 13.9989 73.7766 13.4311 73.5728 12.8878L71.7002 13.59L69.8275 14.2922C69.8637 14.3889 69.8802 14.4811 69.8802 14.58H71.8802ZM71.7002 13.59L73.6091 12.9934C73.4241 12.4015 73.119 11.8617 72.6945 11.3986L71.2202 12.75L69.7458 14.1014C69.7613 14.1183 69.7762 14.1385 69.7912 14.1865L71.7002 13.59ZM71.2202 12.75L72.7469 11.4581C72.3245 10.9589 71.8042 10.5769 71.2118 10.3177L70.4102 12.15L69.6085 13.9823C69.6561 14.0031 69.6758 14.0211 69.6934 14.0419L71.2202 12.75ZM70.4102 12.15L71.3513 10.3853C70.7012 10.0386 70.0023 9.91 69.3302 9.91V11.91V13.91C69.498 13.91 69.5191 13.9414 69.469 13.9147L70.4102 12.15ZM69.3302 11.91V9.91C68.0537 9.91 66.8413 10.3484 65.9422 11.3649L67.4402 12.69L68.9382 14.0151C68.9701 13.979 68.9927 13.9653 69.0206 13.9537C69.0554 13.9394 69.1471 13.91 69.3302 13.91V11.91ZM67.4402 12.69L65.9134 11.3981C65.1239 12.3311 64.7802 13.4597 64.7802 14.64H66.7802H68.7802C68.7802 14.2603 68.8764 14.0889 68.9669 13.9819L67.4402 12.69ZM66.7802 14.64H64.7802C64.7802 15.0053 64.8267 15.4382 64.8903 15.8828L66.8702 15.6L68.8501 15.3172C68.7936 14.9218 68.7802 14.7147 68.7802 14.64H66.7802ZM66.8702 15.6V13.6H60.4502V15.6V17.6H66.8702V15.6ZM60.4502 15.6H62.4502C62.4502 14.4938 62.6256 13.5439 62.9442 12.7249L61.0802 12L59.2161 11.2751C58.6947 12.6161 58.4502 14.0662 58.4502 15.6H60.4502ZM61.0802 12L62.9323 12.7546C63.2776 11.9071 63.7435 11.2051 64.3244 10.6242L62.9102 9.21L61.4959 7.79579C60.5168 8.77493 59.7627 9.93289 59.228 11.2454L61.0802 12ZM62.9102 9.21L64.3244 10.6242C64.9048 10.0438 65.592 9.59224 66.4069 9.26936L65.6702 7.41L64.9334 5.55064C63.6283 6.06776 62.4755 6.81618 61.4959 7.79579L62.9102 9.21ZM65.6702 7.41L66.3951 9.27401C67.2209 8.95283 68.1522 8.78 69.2102 8.78V6.78V4.78C67.7081 4.78 66.2794 5.02717 64.9453 5.54599L65.6702 7.41ZM69.2102 6.78V8.78C70.2559 8.78 71.1736 8.94538 71.984 9.2512L72.6902 7.38L73.3963 5.5088C72.0867 5.01461 70.6844 4.78 69.2102 4.78V6.78ZM72.6902 7.38L71.9955 9.2555C72.8515 9.57251 73.5514 10.0014 74.1236 10.5296L75.4802 9.06L76.8367 7.59039C75.8489 6.67859 74.6889 5.98749 73.3848 5.5045L72.6902 7.38ZM75.4802 9.06L74.1236 10.5296C74.6957 11.0577 75.1469 11.6895 75.4795 12.4455L77.3102 11.64L79.1408 10.8345C78.5934 9.59045 77.8247 8.50234 76.8367 7.59039L75.4802 9.06ZM77.3102 11.64L75.4856 12.4592C75.8009 13.1615 75.9702 13.9495 75.9702 14.85H77.9702H79.9702C79.9702 13.4305 79.6994 12.0785 79.1347 10.8208L77.3102 11.64ZM77.9702 14.85H75.9702C75.9702 15.7882 75.7687 16.6254 75.3781 17.3921L77.1602 18.3L78.9422 19.2079C79.6316 17.8546 79.9702 16.3918 79.9702 14.85H77.9702ZM77.1602 18.3L75.3713 17.4056C74.9864 18.1754 74.3139 19.0631 73.264 20.0588L74.6402 21.51L76.0163 22.9612C77.2864 21.7569 78.2939 20.5046 78.949 19.1944L77.1602 18.3ZM74.6402 21.51L73.2734 20.0498L69.5234 23.5598L70.8902 25.02L72.2569 26.4802L76.0069 22.9702L74.6402 21.51ZM70.8902 25.02V27.02H78.2102V25.02V23.02H70.8902V25.02ZM78.2102 25.02H76.2102V30H78.2102H80.2102V25.02H78.2102ZM86.2408 21.39L84.2873 21.8188V21.8188L86.2408 21.39ZM86.9908 23.52L85.2261 24.4612C85.2341 24.4762 85.2423 24.4912 85.2507 24.506L86.9908 23.52ZM88.1908 24.93L87.002 26.5384C87.0174 26.5497 87.0329 26.5609 87.0487 26.5718L88.1908 24.93ZM91.2808 24.93L92.4229 26.5718C92.4276 26.5686 92.4322 26.5653 92.4368 26.562L91.2808 24.93ZM93.2308 21.39L95.1843 21.8188L93.2308 21.39ZM93.2308 15.96L91.2752 16.3791L91.2773 16.3888L93.2308 15.96ZM92.4808 13.83L90.7161 14.7712C90.7205 14.7795 90.7251 14.7879 90.7296 14.7962L92.4808 13.83ZM91.2808 12.45L90.092 14.0584C90.118 14.0776 90.1445 14.0962 90.1714 14.1141L91.2808 12.45ZM88.1908 12.45L89.3329 14.0918C89.3486 14.0809 89.3642 14.0697 89.3796 14.0584L88.1908 12.45ZM86.9908 13.83L85.2507 12.844C85.247 12.8506 85.2433 12.8572 85.2396 12.8638L86.9908 13.83ZM86.2408 15.96L88.1943 16.3888L88.1964 16.3791L86.2408 15.96ZM80.8408 13.77L78.9383 13.153C78.9366 13.1583 78.9349 13.1636 78.9332 13.169L80.8408 13.77ZM82.8208 9.99L81.2795 8.71547C81.2746 8.72139 81.2697 8.72734 81.2649 8.73333L82.8208 9.99ZM85.8508 7.59L86.7203 9.3911C86.7245 9.38905 86.7288 9.38698 86.733 9.3849L85.8508 7.59ZM93.6208 7.59L92.7385 9.3849C92.7468 9.38894 92.755 9.39292 92.7633 9.39685L93.6208 7.59ZM96.6508 9.99L98.2067 8.73333V8.73332L96.6508 9.99ZM98.6008 13.77L96.6909 14.3636C96.6941 14.374 96.6974 14.3843 96.7008 14.3946L98.6008 13.77ZM98.6008 23.58L96.6983 22.963C96.6966 22.9683 96.6949 22.9736 96.6932 22.979L98.6008 23.58ZM96.6508 27.36L98.2067 28.6167C98.2106 28.6119 98.2144 28.607 98.2183 28.6022L96.6508 27.36ZM93.6208 29.79L94.4783 31.5969C94.4865 31.5929 94.4948 31.5889 94.503 31.5849L93.6208 29.79ZM85.8508 29.79L84.9564 31.5789C84.9686 31.585 84.9809 31.591 84.9933 31.5969L85.8508 29.79ZM82.8208 27.36L81.2533 28.6022C81.2619 28.613 81.2706 28.6238 81.2795 28.6345L82.8208 27.36ZM80.8408 23.58L78.9309 24.1736C78.9341 24.184 78.9374 24.1943 78.9408 24.2046L80.8408 23.58ZM85.9708 18.66H83.9708C83.9708 19.7777 84.0712 20.8343 84.2873 21.8188L86.2408 21.39L88.1943 20.9612C88.0504 20.3057 87.9708 19.5423 87.9708 18.66H85.9708ZM86.2408 21.39L84.2873 21.8188C84.4977 22.7774 84.8027 23.6673 85.2261 24.4612L86.9908 23.52L88.7555 22.5788C88.5389 22.1727 88.3438 21.6426 88.1943 20.9612L86.2408 21.39ZM86.9908 23.52L85.2507 24.506C85.701 25.3006 86.2753 26.0012 87.002 26.5384L88.1908 24.93L89.3796 23.3216C89.1863 23.1788 88.9606 22.9394 88.7308 22.534L86.9908 23.52ZM88.1908 24.93L87.0487 26.5718C87.8562 27.1336 88.7777 27.41 89.7508 27.41V25.41V23.41C89.5639 23.41 89.4454 23.3664 89.3329 23.2882L88.1908 24.93ZM89.7508 25.41V27.41C90.7194 27.41 91.6279 27.1248 92.4229 26.5718L91.2808 24.93L90.1387 23.2882C90.0136 23.3752 89.9022 23.41 89.7508 23.41V25.41ZM91.2808 24.93L92.4368 26.562C93.2076 26.0161 93.802 25.2928 94.2455 24.4612L92.4808 23.52L90.7161 22.5788C90.5196 22.9472 90.314 23.1639 90.1247 23.298L91.2808 24.93ZM92.4808 23.52L94.2455 24.4612C94.6689 23.6673 94.9739 22.7774 95.1843 21.8188L93.2308 21.39L91.2773 20.9612C91.1277 21.6426 90.9327 22.1727 90.7161 22.5788L92.4808 23.52ZM93.2308 21.39L95.1843 21.8188C95.4004 20.8343 95.5008 19.7777 95.5008 18.66H93.5008H91.5008C91.5008 19.5423 91.4212 20.3057 91.2773 20.9612L93.2308 21.39ZM93.5008 18.66H95.5008C95.5008 17.5591 95.3998 16.5131 95.1843 15.5312L93.2308 15.96L91.2773 16.3888C91.4217 17.0469 91.5008 17.8009 91.5008 18.66H93.5008ZM93.2308 15.96L95.1864 15.5409C94.9768 14.5631 94.6697 13.6573 94.2319 12.8638L92.4808 13.83L90.7296 14.7962C90.9318 15.1627 91.1247 15.6769 91.2752 16.3791L93.2308 15.96ZM92.4808 13.83L94.2455 12.8888C93.7979 12.0496 93.1902 11.3193 92.3902 10.7859L91.2808 12.45L90.1714 14.1141C90.3313 14.2207 90.5237 14.4104 90.7161 14.7712L92.4808 13.83ZM91.2808 12.45L92.4696 10.8416C91.6733 10.2531 90.7485 9.94 89.7508 9.94V11.94V13.94C89.8731 13.94 89.9682 13.9669 90.092 14.0584L91.2808 12.45ZM89.7508 11.94V9.94C88.7493 9.94 87.8113 10.2435 87.002 10.8416L88.1908 12.45L89.3796 14.0584C89.4903 13.9765 89.5923 13.94 89.7508 13.94V11.94ZM88.1908 12.45L87.0487 10.8082C86.2927 11.3341 85.7051 12.0422 85.2507 12.844L86.9908 13.83L88.7308 14.816C88.9565 14.4178 89.1689 14.2059 89.3329 14.0918L88.1908 12.45ZM86.9908 13.83L85.2396 12.8638C84.8018 13.6573 84.4947 14.5631 84.2852 15.5409L86.2408 15.96L88.1964 16.3791C88.3468 15.6769 88.5397 15.1627 88.7419 14.7962L86.9908 13.83ZM86.2408 15.96L84.2873 15.5312C84.0717 16.5131 83.9708 17.5591 83.9708 18.66H85.9708H87.9708C87.9708 17.8009 88.0498 17.0469 88.1943 16.3888L86.2408 15.96ZM80.1508 18.66H82.1508C82.1508 17.029 82.3593 15.6059 82.7483 14.371L80.8408 13.77L78.9332 13.169C78.4023 14.8541 78.1508 16.691 78.1508 18.66H80.1508ZM80.8408 13.77L82.7432 14.387C83.1599 13.1021 83.7133 12.068 84.3767 11.2467L82.8208 9.99L81.2649 8.73333C80.2483 9.99199 79.4816 11.4779 78.9383 13.153L80.8408 13.77ZM82.8208 9.99L84.3621 11.2645C85.0476 10.4355 85.8318 9.82 86.7203 9.3911L85.8508 7.59L84.9813 5.7889C83.5497 6.48 82.314 7.46447 81.2795 8.71547L82.8208 9.99ZM85.8508 7.59L86.733 9.3849C87.617 8.95042 88.6117 8.72 89.7508 8.72V6.72V4.72C88.0498 4.72 86.4446 5.06958 84.9685 5.7951L85.8508 7.59ZM89.7508 6.72V8.72C90.8652 8.72 91.8507 8.9485 92.7385 9.3849L93.6208 7.59L94.503 5.7951C93.0309 5.0715 91.4364 4.72 89.7508 4.72V6.72ZM93.6208 7.59L92.7633 9.39685C93.6657 9.82509 94.4389 10.4345 95.0949 11.2467L96.6508 9.99L98.2067 8.73332C97.1827 7.46553 95.9359 6.47491 94.4783 5.78315L93.6208 7.59ZM96.6508 9.99L95.0949 11.2467C95.7529 12.0613 96.2941 13.0871 96.6909 14.3636L98.6008 13.77L100.511 13.1764C99.9874 11.4929 99.2287 9.9987 98.2067 8.73333L96.6508 9.99ZM98.6008 13.77L96.7008 14.3946C97.1043 15.6219 97.3208 17.0368 97.3208 18.66H99.3208H101.321C101.321 16.6832 101.057 14.8381 100.501 13.1454L98.6008 13.77ZM99.3208 18.66H97.3208C97.3208 20.2827 97.1045 21.7107 96.6983 22.963L98.6008 23.58L100.503 24.197C101.057 22.4893 101.321 20.6373 101.321 18.66H99.3208ZM98.6008 23.58L96.6932 22.979C96.2969 24.2367 95.7532 25.2725 95.0833 26.1178L96.6508 27.36L98.2183 28.6022C99.2284 27.3275 99.9846 25.8433 100.508 24.181L98.6008 23.58ZM96.6508 27.36L95.0949 26.1033C94.4345 26.921 93.6531 27.5456 92.7385 27.9951L93.6208 29.79L94.503 31.5849C95.9485 30.8744 97.1871 29.879 98.2067 28.6167L96.6508 27.36ZM93.6208 29.79L92.7633 27.9831C91.8702 28.407 90.8759 28.63 89.7508 28.63V30.63V32.63C91.4257 32.63 93.0113 32.293 94.4783 31.5969L93.6208 29.79ZM89.7508 30.63V28.63C88.6011 28.63 87.5976 28.4052 86.7083 27.9831L85.8508 29.79L84.9933 31.5969C86.464 32.2948 88.0604 32.63 89.7508 32.63V30.63ZM85.8508 29.79L86.7452 28.0011C85.8444 27.5507 85.052 26.9198 84.3621 26.0855L82.8208 27.36L81.2795 28.6345C82.3096 29.8802 83.5371 30.8693 84.9564 31.5789L85.8508 29.79ZM82.8208 27.36L84.3883 26.1178C83.7131 25.2658 83.1571 24.2217 82.7407 22.9554L80.8408 23.58L78.9408 24.2046C79.4845 25.8583 80.2485 27.3342 81.2533 28.6022L82.8208 27.36ZM80.8408 23.58L82.7507 22.9864C82.3591 21.7267 82.1508 20.2904 82.1508 18.66H80.1508H78.1508C78.1508 20.6296 78.4024 22.4733 78.9309 24.1736L80.8408 23.58ZM106.631 21.39L104.678 21.8188V21.8188L106.631 21.39ZM107.381 23.52L105.617 24.4612C105.625 24.4762 105.633 24.4912 105.641 24.506L107.381 23.52ZM108.581 24.93L107.393 26.5384C107.408 26.5497 107.424 26.5609 107.439 26.5718L108.581 24.93ZM111.671 24.93L112.814 26.5718C112.818 26.5686 112.823 26.5653 112.827 26.562L111.671 24.93ZM113.621 21.39L115.575 21.8188L113.621 21.39ZM113.621 15.96L111.666 16.3791L111.668 16.3888L113.621 15.96ZM112.871 13.83L111.107 14.7712C111.111 14.7795 111.116 14.7879 111.12 14.7962L112.871 13.83ZM111.671 12.45L110.483 14.0584C110.509 14.0776 110.535 14.0962 110.562 14.1141L111.671 12.45ZM108.581 12.45L109.724 14.0918C109.739 14.0809 109.755 14.0697 109.77 14.0584L108.581 12.45ZM107.381 13.83L105.641 12.844C105.638 12.8506 105.634 12.8572 105.63 12.8638L107.381 13.83ZM106.631 15.96L108.585 16.3888L108.587 16.3791L106.631 15.96ZM101.231 13.77L99.329 13.153C99.3272 13.1583 99.3255 13.1636 99.3238 13.169L101.231 13.77ZM103.211 9.99L101.67 8.71547C101.665 8.72139 101.66 8.72734 101.656 8.73333L103.211 9.99ZM106.241 7.59L107.111 9.3911C107.115 9.38905 107.119 9.38698 107.124 9.3849L106.241 7.59ZM114.011 7.59L113.129 9.3849C113.137 9.38894 113.146 9.39292 113.154 9.39685L114.011 7.59ZM117.041 9.99L118.597 8.73333V8.73332L117.041 9.99ZM118.991 13.77L117.082 14.3636C117.085 14.374 117.088 14.3843 117.091 14.3946L118.991 13.77ZM118.991 23.58L117.089 22.963C117.087 22.9683 117.086 22.9736 117.084 22.979L118.991 23.58ZM117.041 27.36L118.597 28.6167C118.601 28.6119 118.605 28.607 118.609 28.6022L117.041 27.36ZM114.011 29.79L114.869 31.5969C114.877 31.5929 114.885 31.5889 114.894 31.5849L114.011 29.79ZM106.241 29.79L105.347 31.5789C105.359 31.585 105.372 31.591 105.384 31.5969L106.241 29.79ZM103.211 27.36L101.644 28.6022C101.653 28.613 101.661 28.6238 101.67 28.6345L103.211 27.36ZM101.231 23.58L99.3215 24.1736C99.3248 24.184 99.3281 24.1943 99.3315 24.2046L101.231 23.58ZM106.361 18.66H104.361C104.361 19.7777 104.462 20.8343 104.678 21.8188L106.631 21.39L108.585 20.9612C108.441 20.3057 108.361 19.5423 108.361 18.66H106.361ZM106.631 21.39L104.678 21.8188C104.888 22.7774 105.193 23.6673 105.617 24.4612L107.381 23.52L109.146 22.5788C108.93 22.1727 108.734 21.6426 108.585 20.9612L106.631 21.39ZM107.381 23.52L105.641 24.506C106.092 25.3006 106.666 26.0012 107.393 26.5384L108.581 24.93L109.77 23.3216C109.577 23.1788 109.351 22.9394 109.121 22.534L107.381 23.52ZM108.581 24.93L107.439 26.5718C108.247 27.1336 109.168 27.41 110.141 27.41V25.41V23.41C109.955 23.41 109.836 23.3664 109.724 23.2882L108.581 24.93ZM110.141 25.41V27.41C111.11 27.41 112.019 27.1248 112.814 26.5718L111.671 24.93L110.529 23.2882C110.404 23.3752 110.293 23.41 110.141 23.41V25.41ZM111.671 24.93L112.827 26.562C113.598 26.0161 114.193 25.2928 114.636 24.4612L112.871 23.52L111.107 22.5788C110.91 22.9472 110.705 23.1639 110.515 23.298L111.671 24.93ZM112.871 23.52L114.636 24.4612C115.06 23.6673 115.364 22.7774 115.575 21.8188L113.621 21.39L111.668 20.9612C111.518 21.6426 111.323 22.1727 111.107 22.5788L112.871 23.52ZM113.621 21.39L115.575 21.8188C115.791 20.8343 115.891 19.7777 115.891 18.66H113.891H111.891C111.891 19.5423 111.812 20.3057 111.668 20.9612L113.621 21.39ZM113.891 18.66H115.891C115.891 17.5591 115.79 16.5131 115.575 15.5312L113.621 15.96L111.668 16.3888C111.812 17.0469 111.891 17.8009 111.891 18.66H113.891ZM113.621 15.96L115.577 15.5409C115.367 14.5631 115.06 13.6573 114.623 12.8638L112.871 13.83L111.12 14.7962C111.322 15.1627 111.515 15.6769 111.666 16.3791L113.621 15.96ZM112.871 13.83L114.636 12.8888C114.188 12.0496 113.581 11.3193 112.781 10.7859L111.671 12.45L110.562 14.1141C110.722 14.2207 110.914 14.4104 111.107 14.7712L112.871 13.83ZM111.671 12.45L112.86 10.8416C112.064 10.2531 111.139 9.94 110.141 9.94V11.94V13.94C110.264 13.94 110.359 13.9669 110.483 14.0584L111.671 12.45ZM110.141 11.94V9.94C109.14 9.94 108.202 10.2435 107.393 10.8416L108.581 12.45L109.77 14.0584C109.881 13.9765 109.983 13.94 110.141 13.94V11.94ZM108.581 12.45L107.439 10.8082C106.683 11.3341 106.096 12.0422 105.641 12.844L107.381 13.83L109.121 14.816C109.347 14.4178 109.56 14.2059 109.724 14.0918L108.581 12.45ZM107.381 13.83L105.63 12.8638C105.192 13.6573 104.885 14.5631 104.676 15.5409L106.631 15.96L108.587 16.3791C108.737 15.6769 108.93 15.1627 109.133 14.7962L107.381 13.83ZM106.631 15.96L104.678 15.5312C104.462 16.5131 104.361 17.5591 104.361 18.66H106.361H108.361C108.361 17.8009 108.44 17.0469 108.585 16.3888L106.631 15.96ZM100.541 18.66H102.541C102.541 17.029 102.75 15.6059 103.139 14.371L101.231 13.77L99.3238 13.169C98.7929 14.8541 98.5414 16.691 98.5414 18.66H100.541ZM101.231 13.77L103.134 14.387C103.551 13.1021 104.104 12.068 104.767 11.2467L103.211 9.99L101.656 8.73333C100.639 9.99199 99.8722 11.4779 99.329 13.153L101.231 13.77ZM103.211 9.99L104.753 11.2645C105.438 10.4355 106.222 9.82 107.111 9.3911L106.241 7.59L105.372 5.7889C103.94 6.48 102.705 7.46447 101.67 8.71547L103.211 9.99ZM106.241 7.59L107.124 9.3849C108.008 8.95042 109.002 8.72 110.141 8.72V6.72V4.72C108.44 4.72 106.835 5.06958 105.359 5.7951L106.241 7.59ZM110.141 6.72V8.72C111.256 8.72 112.241 8.9485 113.129 9.3849L114.011 7.59L114.894 5.7951C113.421 5.0715 111.827 4.72 110.141 4.72V6.72ZM114.011 7.59L113.154 9.39685C114.056 9.82509 114.83 10.4345 115.486 11.2467L117.041 9.99L118.597 8.73332C117.573 7.46553 116.327 6.47491 114.869 5.78315L114.011 7.59ZM117.041 9.99L115.486 11.2467C116.143 12.0613 116.685 13.0871 117.082 14.3636L118.991 13.77L120.901 13.1764C120.378 11.4929 119.619 9.9987 118.597 8.73333L117.041 9.99ZM118.991 13.77L117.091 14.3946C117.495 15.6219 117.711 17.0368 117.711 18.66H119.711H121.711C121.711 16.6832 121.448 14.8381 120.891 13.1454L118.991 13.77ZM119.711 18.66H117.711C117.711 20.2827 117.495 21.7107 117.089 22.963L118.991 23.58L120.894 24.197C121.448 22.4893 121.711 20.6373 121.711 18.66H119.711ZM118.991 23.58L117.084 22.979C116.688 24.2367 116.144 25.2725 115.474 26.1178L117.041 27.36L118.609 28.6022C119.619 27.3275 120.375 25.8433 120.899 24.181L118.991 23.58ZM117.041 27.36L115.486 26.1033C114.825 26.921 114.044 27.5456 113.129 27.9951L114.011 29.79L114.894 31.5849C116.339 30.8744 117.578 29.879 118.597 28.6167L117.041 27.36ZM114.011 29.79L113.154 27.9831C112.261 28.407 111.267 28.63 110.141 28.63V30.63V32.63C111.816 32.63 113.402 32.293 114.869 31.5969L114.011 29.79ZM110.141 30.63V28.63C108.992 28.63 107.988 28.4052 107.099 27.9831L106.241 29.79L105.384 31.5969C106.855 32.2948 108.451 32.63 110.141 32.63V30.63ZM106.241 29.79L107.136 28.0011C106.235 27.5507 105.443 26.9198 104.753 26.0855L103.211 27.36L101.67 28.6345C102.7 29.8802 103.928 30.8693 105.347 31.5789L106.241 29.79ZM103.211 27.36L104.779 26.1178C104.104 25.2658 103.548 24.2217 103.131 22.9554L101.231 23.58L99.3315 24.2046C99.8751 25.8583 100.639 27.3342 101.644 28.6022L103.211 27.36ZM101.231 23.58L103.141 22.9864C102.75 21.7267 102.541 20.2904 102.541 18.66H100.541H98.5414C98.5414 20.6296 98.7931 22.4733 99.3215 24.1736L101.231 23.58ZM136.132 28.5V30.5C137.237 30.5 138.132 29.6046 138.132 28.5H136.132ZM136.132 25.16H138.132C138.132 24.0554 137.237 23.16 136.132 23.16V25.16ZM130.412 25.16V23.16C129.307 23.16 128.412 24.0554 128.412 25.16H130.412ZM130.412 28.5H128.412C128.412 29.6046 129.307 30.5 130.412 30.5V28.5ZM122.112 25.74L121.524 23.8284C120.859 24.0329 120.349 24.568 120.175 25.2415C120.002 25.9149 120.191 26.6301 120.674 27.13L122.112 25.74ZM128.532 22.46L129.748 24.0478C130.187 23.7118 130.467 23.2095 130.522 22.6598C130.577 22.1101 130.403 21.5621 130.04 21.1457L128.532 22.46ZM125.972 20.02L127.279 18.5064C126.55 17.8765 125.475 17.8563 124.723 18.4583L125.972 20.02ZM124.052 21.38L122.304 22.3513C122.573 22.8354 123.03 23.1863 123.568 23.3204C124.105 23.4546 124.674 23.36 125.139 23.0591L124.052 21.38ZM122.112 19.08L121.156 17.3234C120.564 17.6455 120.174 18.2439 120.119 18.9154C120.063 19.5869 120.35 20.2412 120.881 20.656L122.112 19.08ZM128.452 12.76L128.859 10.8018C127.97 10.6172 127.069 11.0539 126.663 11.8656L128.452 12.76ZM131.532 13.4L133.306 14.3227C133.595 13.767 133.607 13.1081 133.339 12.5423C133.07 11.9765 132.552 11.5692 131.939 11.4418L131.532 13.4ZM130.672 14.84L128.997 13.7475C128.596 14.3622 128.564 15.1472 128.913 15.7926C129.263 16.438 129.938 16.84 130.672 16.84V14.84ZM134.392 14.84V16.84C134.589 16.84 134.786 16.8108 134.974 16.7533L134.392 14.84ZM134.852 14.7L135.819 12.9491C135.346 12.6879 134.787 12.6293 134.27 12.7867L134.852 14.7ZM136.772 15.76L138.661 16.4182C138.981 15.4978 138.592 14.4802 137.739 14.0091L136.772 15.76ZM132.732 22.54L131.264 21.1815C130.724 21.7649 130.581 22.6126 130.899 23.3409C131.218 24.0693 131.937 24.54 132.732 24.54V22.54ZM139.012 22.54H141.012C141.012 21.4354 140.117 20.54 139.012 20.54V22.54ZM139.012 31.9V33.9C140.117 33.9 141.012 33.0046 141.012 31.9H139.012ZM136.132 31.9H134.132C134.132 33.0046 135.027 33.9 136.132 33.9V31.9ZM136.132 31.12H138.132C138.132 30.0154 137.237 29.12 136.132 29.12V31.12ZM130.412 31.12V29.12C129.307 29.12 128.412 30.0154 128.412 31.12H130.412ZM130.412 31.88V33.88C131.517 33.88 132.412 32.9846 132.412 31.88H130.412ZM127.652 31.88H125.652C125.652 32.9846 126.547 33.88 127.652 33.88V31.88ZM127.652 26.54H129.652C129.652 25.8246 129.27 25.1637 128.65 24.8067C128.03 24.4498 127.266 24.4512 126.648 24.8104L127.652 26.54ZM123.732 28.34L121.891 29.1223C122.308 30.1034 123.422 30.585 124.422 30.2172L123.732 28.34ZM128.072 18.14L126.599 16.7867C126.22 17.1991 126.032 17.7515 126.079 18.3095C126.127 18.8676 126.406 19.3801 126.849 19.7226L128.072 18.14ZM130.772 20.44L129.358 21.8542C129.741 22.2375 130.264 22.4488 130.806 22.4397C131.348 22.4306 131.863 22.2018 132.233 21.8058L130.772 20.44ZM132.972 17.4L134.728 18.3577C135.066 17.738 135.052 16.986 134.692 16.3791C134.332 15.7721 133.678 15.4 132.972 15.4V17.4ZM128.752 17.4V15.4C128.192 15.4 127.658 15.6346 127.279 16.0467L128.752 17.4ZM136.132 28.5H138.132V25.16H136.132H134.132V28.5H136.132ZM136.132 25.16V23.16H130.412V25.16V27.16H136.132V25.16ZM130.412 25.16H128.412V28.5H130.412H132.412V25.16H130.412ZM130.412 28.5V30.5H136.132V28.5V26.5H130.412V28.5ZM122.112 25.74L122.7 27.6516C125.256 26.8651 127.671 25.6388 129.748 24.0478L128.532 22.46L127.316 20.8722C125.633 22.1612 123.648 23.1749 121.524 23.8284L122.112 25.74ZM128.532 22.46L130.04 21.1457C129.257 20.2475 128.158 19.2656 127.279 18.5064L125.972 20.02L124.665 21.5336C125.546 22.2944 126.448 23.1125 127.024 23.7743L128.532 22.46ZM125.972 20.02L124.723 18.4583C124.196 18.8792 123.619 19.2783 122.966 19.7009L124.052 21.38L125.139 23.0591C125.845 22.6017 126.548 22.1208 127.221 21.5817L125.972 20.02ZM124.052 21.38L125.8 20.4087C125.282 19.4753 124.212 18.1829 123.343 17.504L122.112 19.08L120.881 20.656C121.292 20.9771 122.022 21.8447 122.304 22.3513L124.052 21.38ZM122.112 19.08L123.068 20.8366C126.585 18.9225 128.937 16.2627 130.241 13.6544L128.452 12.76L126.663 11.8656C125.727 13.7373 123.959 15.7975 121.156 17.3234L122.112 19.08ZM128.452 12.76L128.045 14.7182L131.125 15.3582L131.532 13.4L131.939 11.4418L128.859 10.8018L128.452 12.76ZM131.532 13.4L129.758 12.4773C129.543 12.8894 129.286 13.3044 128.997 13.7475L130.672 14.84L132.347 15.9325C132.658 15.4556 133.001 14.9106 133.306 14.3227L131.532 13.4ZM130.672 14.84V16.84H134.392V14.84V12.84H130.672V14.84ZM134.392 14.84L134.974 16.7533L135.434 16.6133L134.852 14.7L134.27 12.7867L133.81 12.9267L134.392 14.84ZM134.852 14.7L133.885 16.4509L135.805 17.5109L136.772 15.76L137.739 14.0091L135.819 12.9491L134.852 14.7ZM136.772 15.76L134.883 15.1018C134.053 17.4844 132.816 19.5054 131.264 21.1815L132.732 22.54L134.2 23.8985C136.129 21.8146 137.651 19.3156 138.661 16.4182L136.772 15.76ZM132.732 22.54V24.54H139.012V22.54V20.54H132.732V22.54ZM139.012 22.54H137.012V31.9H139.012H141.012V22.54H139.012ZM139.012 31.9V29.9H136.132V31.9V33.9H139.012V31.9ZM136.132 31.9H138.132V31.12H136.132H134.132V31.9H136.132ZM136.132 31.12V29.12H130.412V31.12V33.12H136.132V31.12ZM130.412 31.12H128.412V31.88H130.412H132.412V31.12H130.412ZM130.412 31.88V29.88H127.652V31.88V33.88H130.412V31.88ZM127.652 31.88H129.652V26.54H127.652H125.652V31.88H127.652ZM127.652 26.54L126.648 24.8104C125.536 25.4562 124.328 25.9901 123.042 26.4628L123.732 28.34L124.422 30.2172C125.856 29.6899 127.289 29.0638 128.656 28.2696L127.652 26.54ZM123.732 28.34L125.573 27.5577C125.18 26.6338 124.363 25.1912 123.55 24.35L122.112 25.74L120.674 27.13C121.021 27.4888 121.604 28.4462 121.891 29.1223L123.732 28.34ZM128.072 18.14L126.849 19.7226C127.718 20.3943 128.693 21.1896 129.358 21.8542L130.772 20.44L132.186 19.0258C131.331 18.1704 130.186 17.2457 129.295 16.5574L128.072 18.14ZM130.772 20.44L132.233 21.8058C133.206 20.7651 134.046 19.6085 134.728 18.3577L132.972 17.4L131.216 16.4423C130.698 17.3915 130.058 18.2749 129.311 19.0742L130.772 20.44ZM132.972 17.4V15.4H128.752V17.4V19.4H132.972V17.4ZM128.752 17.4L127.279 16.0467L126.599 16.7867L128.072 18.14L129.545 19.4932L130.225 18.7533L128.752 17.4ZM146.996 25.78L145.129 26.498C145.397 27.1949 146.031 27.6845 146.773 27.7676C147.515 27.8507 148.242 27.5135 148.658 26.8931L146.996 25.78ZM146.216 23.86L148.062 23.0908C147.695 22.2107 146.759 21.7119 145.824 21.8988C144.889 22.0858 144.216 22.9066 144.216 23.86H146.216ZM146.216 31.9V33.9C147.321 33.9 148.216 33.0046 148.216 31.9H146.216ZM143.716 31.9H141.716C141.716 33.0046 142.611 33.9 143.716 33.9V31.9ZM143.716 25.36H145.716C145.716 24.3791 145.005 23.5429 144.036 23.3858C143.068 23.2287 142.129 23.797 141.819 24.7275L143.716 25.36ZM142.316 28.44L140.391 28.9829C140.604 29.7364 141.236 30.2966 142.01 30.4164C142.783 30.5363 143.556 30.1938 143.986 29.54L142.316 28.44ZM141.136 25.86L139.485 24.7306C139.057 25.3573 139.02 26.1728 139.39 26.8356L141.136 25.86ZM143.536 19.62L145.494 20.0293C145.617 19.4398 145.468 18.8262 145.088 18.3588C144.708 17.8914 144.138 17.62 143.536 17.62V19.62ZM141.616 19.62H139.616C139.616 20.7246 140.511 21.62 141.616 21.62V19.62ZM141.616 16.94V14.94C140.511 14.94 139.616 15.8354 139.616 16.94H141.616ZM143.716 16.94V18.94C144.821 18.94 145.716 18.0446 145.716 16.94H143.716ZM143.716 12.9V10.9C142.611 10.9 141.716 11.7954 141.716 12.9H143.716ZM146.216 12.9H148.216C148.216 11.7954 147.321 10.9 146.216 10.9V12.9ZM146.216 16.94H144.216C144.216 18.0446 145.111 18.94 146.216 18.94V16.94ZM147.956 16.94H149.956C149.956 15.8354 149.061 14.94 147.956 14.94V16.94ZM147.956 19.62V21.62C149.061 21.62 149.956 20.7246 149.956 19.62H147.956ZM146.216 19.62V17.62C145.111 17.62 144.216 18.5154 144.216 19.62H146.216ZM146.216 20.28H144.216C144.216 20.6916 144.343 21.0931 144.58 21.4299L146.216 20.28ZM148.376 23.72L150.038 24.8331C150.469 24.1897 150.489 23.3551 150.091 22.691L148.376 23.72ZM147.316 28.2L146.516 26.3669C146.017 26.5845 145.629 26.9957 145.44 27.5059C145.251 28.016 145.279 28.581 145.515 29.0707L147.316 28.2ZM151.616 26.06L153.532 25.4868C153.361 24.9159 152.945 24.4509 152.396 24.2184C151.847 23.986 151.224 24.0103 150.695 24.2848L151.616 26.06ZM152.316 28.4L153.339 30.1186C154.127 29.6497 154.495 28.7051 154.232 27.8268L152.316 28.4ZM150.636 29.4L149.613 27.6814C148.863 28.1279 148.489 29.0092 148.689 29.8588C148.89 30.7085 149.618 31.3301 150.488 31.3945L150.636 29.4ZM152.356 22.62H154.356C154.356 21.5154 153.461 20.62 152.356 20.62V22.62ZM148.056 22.62H146.056C146.056 23.7246 146.951 24.62 148.056 24.62V22.62ZM148.056 20.28V18.28C146.951 18.28 146.056 19.1754 146.056 20.28H148.056ZM152.356 20.28V22.28C153.461 22.28 154.356 21.3846 154.356 20.28H152.356ZM152.356 19.8H154.356C154.356 18.6954 153.461 17.8 152.356 17.8V19.8ZM148.896 19.8H146.896C146.896 20.9046 147.791 21.8 148.896 21.8V19.8ZM148.896 17.66V15.66C147.791 15.66 146.896 16.5554 146.896 17.66H148.896ZM152.356 17.66V19.66C153.461 19.66 154.356 18.7646 154.356 17.66H152.356ZM152.356 17.22H154.356C154.356 16.1154 153.461 15.22 152.356 15.22V17.22ZM148.416 17.22H146.416C146.416 18.3246 147.311 19.22 148.416 19.22V17.22ZM148.416 14.96V12.96C147.311 12.96 146.416 13.8554 146.416 14.96H148.416ZM150.096 14.96V16.96C150.762 16.96 151.385 16.6281 151.756 16.0748C152.128 15.5215 152.199 14.8195 151.947 14.2027L150.096 14.96ZM149.496 13.68L148.838 11.7915C148.274 11.9878 147.828 12.4252 147.621 12.9843C147.413 13.5434 147.466 14.166 147.765 14.6821L149.496 13.68ZM151.676 12.92L153.381 11.8749C152.89 11.0729 151.906 10.7218 151.018 11.0315L151.676 12.92ZM152.676 14.96L150.779 15.5925C151.051 16.4091 151.815 16.96 152.676 16.96V14.96ZM154.816 14.96V16.96C155.619 16.96 156.344 16.4801 156.657 15.7411L154.816 14.96ZM155.536 12.86L156.001 10.9148C155.483 10.791 154.938 10.8787 154.485 11.1585C154.032 11.4383 153.709 11.8871 153.588 12.4055L155.536 12.86ZM158.296 13.52L159.999 14.5682C160.335 14.0221 160.389 13.348 160.144 12.7555C159.899 12.163 159.385 11.724 158.761 11.5748L158.296 13.52ZM157.416 14.96L155.729 13.8862C155.337 14.5021 155.311 15.2825 155.663 15.9224C156.014 16.5623 156.686 16.96 157.416 16.96V14.96ZM158.876 14.96H160.876C160.876 13.8554 159.981 12.96 158.876 12.96V14.96ZM158.876 17.22V19.22C159.981 19.22 160.876 18.3246 160.876 17.22H158.876ZM155.016 17.22V15.22C153.911 15.22 153.016 16.1154 153.016 17.22H155.016ZM155.016 17.66H153.016C153.016 18.7646 153.911 19.66 155.016 19.66V17.66ZM158.496 17.66H160.496C160.496 16.5554 159.601 15.66 158.496 15.66V17.66ZM158.496 19.8V21.8C159.601 21.8 160.496 20.9046 160.496 19.8H158.496ZM155.016 19.8V17.8C153.911 17.8 153.016 18.6954 153.016 19.8H155.016ZM155.016 20.28H153.016C153.016 21.3846 153.911 22.28 155.016 22.28V20.28ZM159.276 20.28H161.276C161.276 19.1754 160.381 18.28 159.276 18.28V20.28ZM159.276 22.62V24.62C160.381 24.62 161.276 23.7246 161.276 22.62H159.276ZM155.016 22.62V20.62C153.911 20.62 153.016 21.5154 153.016 22.62H155.016ZM155.016 23.32H153.016C153.016 23.5437 153.053 23.7658 153.127 23.977L155.016 23.32ZM155.596 24.66L153.824 25.588C154.119 26.1516 154.665 26.5411 155.294 26.6371C155.923 26.7331 156.56 26.5241 157.01 26.0742L155.596 24.66ZM157.176 22.8L158.366 21.1926C157.935 20.8735 157.394 20.7408 156.864 20.8245C156.334 20.9081 155.86 21.2011 155.548 21.6375L157.176 22.8ZM159.256 24.34L160.688 25.7362C161.091 25.3227 161.296 24.7551 161.249 24.1794C161.203 23.6038 160.91 23.0763 160.446 22.7326L159.256 24.34ZM156.896 26.56L155.594 25.0415C155.191 25.3871 154.942 25.8789 154.902 26.4085C154.861 26.9381 155.034 27.4619 155.38 27.8645L156.896 26.56ZM159.636 28.58L161.024 30.0197C161.509 29.5524 161.726 28.8726 161.602 28.211C161.477 27.5493 161.029 26.9946 160.408 26.7348L159.636 28.58ZM157.896 30.94L156.876 32.6601C157.35 32.9415 157.92 33.0145 158.45 32.8618C158.98 32.7091 159.423 32.3443 159.675 31.8536L157.896 30.94ZM155.016 28L156.713 26.9425C156.241 26.1847 155.324 25.8316 154.466 26.0771C153.608 26.3226 153.016 27.1072 153.016 28H155.016ZM154.136 31.46L155.165 33.175C155.172 33.1706 155.18 33.1661 155.187 33.1616L154.136 31.46ZM151.296 31.94L149.302 32.1016C149.387 33.1401 150.254 33.94 151.296 33.94V31.94ZM150.616 29.42L152.446 28.6127C152.215 28.089 151.77 27.6893 151.225 27.515C150.68 27.3407 150.086 27.4084 149.594 27.7009L150.616 29.42ZM148.496 30.64L146.695 31.5107C146.934 32.0035 147.364 32.3771 147.885 32.5444C148.406 32.7116 148.973 32.6579 149.454 32.3958L148.496 30.64ZM148.276 24.16L147.138 22.515C146.671 22.8384 146.363 23.3457 146.292 23.9099C146.221 24.4742 146.393 25.042 146.766 25.4714L148.276 24.16ZM150.156 22.86L151.611 21.488C150.933 20.7688 149.831 20.6528 149.018 21.215L150.156 22.86ZM152.016 25.22L153.192 26.8375C154.011 26.2419 154.256 25.1283 153.762 24.2444L152.016 25.22ZM150.036 26.66L148.226 27.5116C148.48 28.0511 148.962 28.4492 149.539 28.5973C150.117 28.7454 150.73 28.6282 151.212 28.2775L150.036 26.66ZM146.996 25.78L148.863 25.062C148.651 24.513 148.361 23.8093 148.062 23.0908L146.216 23.86L144.37 24.6292C144.67 25.3507 144.94 26.007 145.129 26.498L146.996 25.78ZM146.216 23.86H144.216V31.9H146.216H148.216V23.86H146.216ZM146.216 31.9V29.9H143.716V31.9V33.9H146.216V31.9ZM143.716 31.9H145.716V25.36H143.716H141.716V31.9H143.716ZM143.716 25.36L141.819 24.7275C141.445 25.8472 141.051 26.7246 140.646 27.34L142.316 28.44L143.986 29.54C144.661 28.5154 145.187 27.2728 145.613 25.9925L143.716 25.36ZM142.316 28.44L144.241 27.8971C143.949 26.862 143.256 25.5532 142.882 24.8844L141.136 25.86L139.39 26.8356C139.776 27.5268 140.243 28.458 140.391 28.9829L142.316 28.44ZM141.136 25.86L142.787 26.9894C144.034 25.1662 145.006 22.3611 145.494 20.0293L143.536 19.62L141.578 19.2107C141.146 21.2789 140.318 23.5138 139.485 24.7306L141.136 25.86ZM143.536 19.62V17.62H141.616V19.62V21.62H143.536V19.62ZM141.616 19.62H143.616V16.94H141.616H139.616V19.62H141.616ZM141.616 16.94V18.94H143.716V16.94V14.94H141.616V16.94ZM143.716 16.94H145.716V12.9H143.716H141.716V16.94H143.716ZM143.716 12.9V14.9H146.216V12.9V10.9H143.716V12.9ZM146.216 12.9H144.216V16.94H146.216H148.216V12.9H146.216ZM146.216 16.94V18.94H147.956V16.94V14.94H146.216V16.94ZM147.956 16.94H145.956V19.62H147.956H149.956V16.94H147.956ZM147.956 19.62V17.62H146.216V19.62V21.62H147.956V19.62ZM146.216 19.62H144.216V20.28H146.216H148.216V19.62H146.216ZM146.216 20.28L144.58 21.4299C145.049 22.098 146.348 24.2279 146.661 24.749L148.376 23.72L150.091 22.691C149.804 22.2121 148.423 19.942 147.852 19.1301L146.216 20.28ZM148.376 23.72L146.714 22.6069L145.334 24.6669L146.996 25.78L148.658 26.8931L150.038 24.8331L148.376 23.72ZM147.316 28.2L148.116 30.0331C149.292 29.5196 150.984 28.6414 152.537 27.8352L151.616 26.06L150.695 24.2848C149.088 25.1186 147.539 25.9204 146.516 26.3669L147.316 28.2ZM151.616 26.06L149.7 26.6332L150.4 28.9732L152.316 28.4L154.232 27.8268L153.532 25.4868L151.616 26.06ZM152.316 28.4L151.293 26.6814L149.613 27.6814L150.636 29.4L151.659 31.1186L153.339 30.1186L152.316 28.4ZM150.636 29.4L150.488 31.3945C151.113 31.4408 151.845 31.44 152.056 31.44V29.44V27.44C151.827 27.44 151.239 27.4392 150.784 27.4055L150.636 29.4ZM152.056 29.44V31.44C152.421 31.44 153.178 31.3607 153.772 30.7043C154.322 30.0957 154.356 29.3935 154.356 29.12H152.356H150.356C150.356 29.0665 150.35 28.5243 150.805 28.0207C151.304 27.4693 151.91 27.44 152.056 27.44V29.44ZM152.356 29.12H154.356V22.62H152.356H150.356V29.12H152.356ZM152.356 22.62V20.62H148.056V22.62V24.62H152.356V22.62ZM148.056 22.62H150.056V20.28H148.056H146.056V22.62H148.056ZM148.056 20.28V22.28H152.356V20.28V18.28H148.056V20.28ZM152.356 20.28H154.356V19.8H152.356H150.356V20.28H152.356ZM152.356 19.8V17.8H148.896V19.8V21.8H152.356V19.8ZM148.896 19.8H150.896V17.66H148.896H146.896V19.8H148.896ZM148.896 17.66V19.66H152.356V17.66V15.66H148.896V17.66ZM152.356 17.66H154.356V17.22H152.356H150.356V17.66H152.356ZM152.356 17.22V15.22H148.416V17.22V19.22H152.356V17.22ZM148.416 17.22H150.416V14.96H148.416H146.416V17.22H148.416ZM148.416 14.96V16.96H150.096V14.96V12.96H148.416V14.96ZM150.096 14.96L151.947 14.2027C151.763 13.7537 151.52 13.1848 151.227 12.6779L149.496 13.68L147.765 14.6821C147.912 14.9352 148.069 15.2863 148.245 15.7173L150.096 14.96ZM149.496 13.68L150.154 15.5685L152.334 14.8085L151.676 12.92L151.018 11.0315L148.838 11.7915L149.496 13.68ZM151.676 12.92L149.971 13.9651C150.31 14.5189 150.646 15.1937 150.779 15.5925L152.676 14.96L154.573 14.3275C154.306 13.5263 153.802 12.5611 153.381 11.8749L151.676 12.92ZM152.676 14.96V16.96H154.816V14.96V12.96H152.676V14.96ZM154.816 14.96L156.657 15.7411C156.96 15.0266 157.307 14.0697 157.484 13.3145L155.536 12.86L153.588 12.4055C153.484 12.8503 153.232 13.5734 152.975 14.1789L154.816 14.96ZM155.536 12.86L155.071 14.8052L157.831 15.4652L158.296 13.52L158.761 11.5748L156.001 10.9148L155.536 12.86ZM158.296 13.52L156.593 12.4718C156.233 13.0561 156.004 13.4532 155.729 13.8862L157.416 14.96L159.103 16.0338C159.388 15.5868 159.719 15.0239 159.999 14.5682L158.296 13.52ZM157.416 14.96V16.96H158.876V14.96V12.96H157.416V14.96ZM158.876 14.96H156.876V17.22H158.876H160.876V14.96H158.876ZM158.876 17.22V15.22H155.016V17.22V19.22H158.876V17.22ZM155.016 17.22H153.016V17.66H155.016H157.016V17.22H155.016ZM155.016 17.66V19.66H158.496V17.66V15.66H155.016V17.66ZM158.496 17.66H156.496V19.8H158.496H160.496V17.66H158.496ZM158.496 19.8V17.8H155.016V19.8V21.8H158.496V19.8ZM155.016 19.8H153.016V20.28H155.016H157.016V19.8H155.016ZM155.016 20.28V22.28H159.276V20.28V18.28H155.016V20.28ZM159.276 20.28H157.276V22.62H159.276H161.276V20.28H159.276ZM159.276 22.62V20.62H155.016V22.62V24.62H159.276V22.62ZM155.016 22.62H153.016V23.32H155.016H157.016V22.62H155.016ZM155.016 23.32L153.127 23.977C153.32 24.5308 153.559 25.0814 153.824 25.588L155.596 24.66L157.368 23.732C157.193 23.3986 157.032 23.0292 156.905 22.663L155.016 23.32ZM155.596 24.66L157.01 26.0742C157.67 25.4139 158.341 24.6093 158.803 23.9625L157.176 22.8L155.548 21.6375C155.211 22.1107 154.681 22.7461 154.182 23.2458L155.596 24.66ZM157.176 22.8L155.986 24.4074L158.066 25.9474L159.256 24.34L160.446 22.7326L158.366 21.1926L157.176 22.8ZM159.256 24.34L157.824 22.9438C157.085 23.7015 156.249 24.4807 155.594 25.0415L156.896 26.56L158.198 28.0785C158.943 27.4393 159.867 26.5785 160.688 25.7362L159.256 24.34ZM156.896 26.56L155.38 27.8645C156.298 28.9311 157.444 29.8313 158.864 30.4252L159.636 28.58L160.408 26.7348C159.628 26.4087 158.974 25.9089 158.412 25.2555L156.896 26.56ZM159.636 28.58L158.248 27.1403C157.524 27.8385 156.594 29.0979 156.117 30.0264L157.896 30.94L159.675 31.8536C159.958 31.3021 160.628 30.4015 161.024 30.0197L159.636 28.58ZM157.896 30.94L158.916 29.2199C158.076 28.7213 157.348 27.9618 156.713 26.9425L155.016 28L153.318 29.0575C154.203 30.4782 155.356 31.7587 156.876 32.6601L157.896 30.94ZM155.016 28H153.016V29.14H155.016H157.016V28H155.016ZM155.016 29.14H153.016C153.016 29.3951 153.005 29.5807 152.989 29.717C152.972 29.8529 152.953 29.9117 152.949 29.9226C152.948 29.9264 152.962 29.888 153.003 29.8366C153.022 29.813 153.042 29.7935 153.059 29.7787C153.075 29.7643 153.086 29.758 153.085 29.7584L154.136 31.46L155.187 33.1616C155.919 32.7095 156.427 32.0698 156.713 31.2774C156.966 30.5726 157.016 29.8196 157.016 29.14H155.016ZM154.136 31.46L153.107 29.745C152.95 29.8392 152.587 29.94 151.296 29.94V31.94V33.94C152.445 33.94 153.922 33.9208 155.165 33.175L154.136 31.46ZM151.296 31.94L153.289 31.7784C153.207 30.7617 152.811 29.4412 152.446 28.6127L150.616 29.42L148.786 30.2273C149.021 30.7588 149.265 31.6383 149.302 32.1016L151.296 31.94ZM150.616 29.42L149.594 27.7009C148.86 28.1374 148.165 28.5423 147.538 28.8842L148.496 30.64L149.454 32.3958C150.147 32.0177 150.892 31.5826 151.638 31.1391L150.616 29.42ZM148.496 30.64L150.296 29.7693L149.116 27.3293L147.316 28.2L145.515 29.0707L146.695 31.5107L148.496 30.64ZM148.276 24.16L149.413 25.805L151.293 24.505L150.156 22.86L149.018 21.215L147.138 22.515L148.276 24.16ZM150.156 22.86L148.701 24.232C149.342 24.9121 150.017 25.7432 150.27 26.1956L152.016 25.22L153.762 24.2444C153.255 23.3368 152.29 22.2079 151.611 21.488L150.156 22.86ZM152.016 25.22L150.84 23.6025L148.86 25.0425L150.036 26.66L151.212 28.2775L153.192 26.8375L152.016 25.22ZM150.036 26.66L151.846 25.8084C151.406 24.8749 150.481 23.6484 149.786 22.8486L148.276 24.16L146.766 25.4714C147.391 26.1916 148.026 27.0851 148.226 27.5116L150.036 26.66Z" fill="white" mask="url(#path-2-outside-1_137_575)"/>
</g>
<defs>
<filter id="filter0_d_137_575" x="54" y="0.720215" width="111.636" height="37.2197" filterUnits="userSpaceOnUse" color-interpolation-filters="sRGB">
<feFlood flood-opacity="0" result="BackgroundImageFix"/>
<feColorMatrix in="SourceAlpha" type="matrix" values="0 0 0 0 0 0 0 0 0 0 0 0 0 0 0 0 0 0 127 0" result="hardAlpha"/>
<feOffset/>
<feGaussianBlur stdDeviation="2"/>
<feComposite in2="hardAlpha" operator="out"/>
<feColorMatrix type="matrix" values="0 0 0 0 0 0 0 0 0 0 0 0 0 0 0 0 0 0 0.45 0"/>
<feBlend mode="normal" in2="BackgroundImageFix" result="effect1_dropShadow_137_575"/>
<feBlend mode="normal" in="SourceGraphic" in2="effect1_dropShadow_137_575" result="shape"/>
</filter>
<linearGradient id="paint0_linear_137_575" x1="34" y1="30.5" x2="185" y2="30.5" gradientUnits="userSpaceOnUse">
<stop stop-color="#FF4D00"/>
<stop offset="1" stop-color="#FF9500"/>
</linearGradient>
</defs>
</svg>
