<svg width="49" height="23" viewBox="0 0 49 23" fill="none" xmlns="http://www.w3.org/2000/svg">
<path d="M8.1521 1.19775V3.97314C7.28621 3.35335 6.50692 3.04346 5.81421 3.04346C5.06681 3.04346 4.45614 3.30778 3.98218 3.83643C3.50822 4.33773 3.27124 5.00765 3.27124 5.84619C3.27124 6.58447 3.43986 7.21794 3.7771 7.74658C3.95028 8.02913 4.23283 8.39372 4.62476 8.84033C5.0258 9.28695 5.54077 9.82471 6.16968 10.4536C7.32723 11.6294 8.11564 12.6457 8.53491 13.5024C8.95418 14.3319 9.16382 15.3481 9.16382 16.5513C9.16382 18.1828 8.70353 19.5272 7.78296 20.5845C6.86239 21.6144 5.68205 22.1294 4.24194 22.1294C3.0297 22.1294 1.9952 21.7967 1.13843 21.1313V18.3149C2.15015 19.0532 3.07072 19.4224 3.90015 19.4224C4.67489 19.4224 5.28101 19.1672 5.71851 18.6567C6.15601 18.1372 6.37476 17.4354 6.37476 16.5513C6.37476 15.7856 6.20614 15.0975 5.8689 14.4868C5.69572 14.1951 5.45418 13.8625 5.14429 13.4888C4.83439 13.106 4.44702 12.6821 3.98218 12.2173C3.26213 11.5063 2.66512 10.8774 2.19116 10.3306C1.7172 9.78369 1.36629 9.30518 1.13843 8.89502C0.700928 8.09294 0.482178 7.08122 0.482178 5.85986C0.482178 4.21012 0.910563 2.90218 1.76733 1.93604C2.63322 0.960775 3.79533 0.473145 5.25366 0.473145C6.26538 0.473145 7.23153 0.714681 8.1521 1.19775ZM10.2302 0.760254H19.4861V3.24854H16.3005V21.8696H13.5115V3.24854H10.2302V0.760254ZM21.072 0.760254H28.6326V3.1665H23.9158V9.85205H28.0994V12.2583H23.9158V19.4634H28.6326V21.8696H21.072V0.760254ZM31.2439 0.760254H34.99C36.7947 0.760254 38.1072 1.21598 38.9275 2.12744C39.7478 3.04801 40.158 4.50635 40.158 6.50244C40.158 9.30973 39.3331 11.1235 37.6833 11.9438C36.8539 12.3175 35.6554 12.5044 34.0876 12.5044V21.8696H31.2439V0.760254ZM34.0876 10.0708C35.2634 10.0708 36.0746 9.83382 36.5212 9.35986C36.977 8.87679 37.2048 8.02002 37.2048 6.78955C37.2048 5.53174 36.9861 4.61117 36.5486 4.02783C36.1111 3.4445 35.4229 3.15283 34.4841 3.15283H34.0876V10.0708ZM43.2205 0.760254H48.033V21.8696H45.3123V3.18018H43.2205V0.760254Z" fill="white"/>
</svg>
